<?xml version="1.0" encoding="utf-8"?>
<!-- Generator: Adobe Illustrator 16.0.0, SVG Export Plug-In . SVG Version: 6.00 Build 0)  -->
<!DOCTYPE svg PUBLIC "-//W3C//DTD SVG 1.1//EN" "http://www.w3.org/Graphics/SVG/1.1/DTD/svg11.dtd">
<svg version="1.1" xmlns="http://www.w3.org/2000/svg" xmlns:xlink="http://www.w3.org/1999/xlink" x="0px" y="0px" width="192px"
	 height="242px" viewBox="0 0 192 242" enable-background="new 0 0 192 242" xml:space="preserve">
<g id="Background_xA0_Image_1_">
</g>
<g id="adhi_logo_xA0_Image_1_">
	<g>
		<g>
			<path fill="#626262" d="M152.164,100.202c0.834,0,3.256-1.17,3.59-1.587c0.252-0.334,1.002-0.834,1.336-1.252
				c0.082-0.25,0.836-1.587,0.918-1.67l-0.082-0.083l-0.084,0.083c0,0,0,0.083-0.084,0.083c-0.084,0.083-0.084,0.083-0.084,0.251
				c-0.168,0.084-0.25,0.166-0.334,0.333c-0.334,0.167-0.584,0.251-0.918,0.419c-0.334,0.166-1.752,0.417-2.254,0.417
				c-1.586,0-3.674,0.083-4.924,0.418l0.168,1.836c0,0.251-0.086,0.501-0.168,0.752H152.164z"/>
			<path fill="#626262" d="M158.008,92.438h-0.668v1.003c0,0.75-0.25,0.75-0.334,1.167l0.334,0.083
				c0.668-0.333,1.084-0.5,1.084-1.501C158.424,92.855,158.342,92.438,158.008,92.438z"/>
			<path fill="#626262" d="M153.584,87.847c-0.5-0.334-0.418-0.501-0.752-0.919c-0.334,3.841,0.252,7.597-2.504,9.1l0.084,0.084
				c0.082,0.082,2.502-1.754,2.754-2.17c0.082-0.252,0.334-0.501,0.5-0.669c0.168-0.334,0.252-0.501,0.418-0.835
				c0.334-0.418,0.586-1.252,0.586-1.92V89.6c0-0.501-0.17-0.418-0.17-1.002C154.168,88.348,154.002,88.097,153.584,87.847z"/>
			<path fill="#626262" d="M154.334,102.455c2.504,0,5.01-2.253,5.01-4.759v-0.417c0-0.418-0.084-0.668-0.336-0.834
				c-0.166,0.583-1.918,2.17-2.42,2.671c-0.5,0.418-2.504,1.753-3.34,1.753l-2.338,0.585c0.586,0.501,1.672,1.001,2.674,1.001
				H154.334z"/>
			<path fill="#626262" d="M34.792,92.354c0.334-0.418,0.919-1.002,1.251-1.42c0.334-0.417,1.085-1.001,1.336-1.335
				c0.25-0.418,1.002-1.002,1.254-1.42c0.416-0.501,0.918-0.919,1.251-1.419c0.5-0.668,2.003-2.421,2.171-3.089l-1.754-0.918
				c-0.417,1.586-1.001,2.17-1.586,3.423c-0.167,0.334-0.835,1.084-1.086,1.419c-0.416,0.418-0.751,1.002-1.168,1.335
				c-0.585,0.585-1.837,2.088-2.253,2.756c-0.334,0.584-0.585,1.002-0.919,1.586c-0.333,0.501-0.584,1.586-0.752,1.837v0.334
				c0.083-0.084,0.836-1.336,1.003-1.67C33.789,93.44,34.541,92.688,34.792,92.354z"/>
			<path fill="#626262" d="M139.311,119.486v-0.502l-1.004-0.167c0.084,0.167,0.334,0.334,0.334,0.585
				c0,0.25-0.082,0.334-0.082,0.583C138.893,119.985,139.311,119.819,139.311,119.486z"/>
			<path fill="#626262" d="M143.984,86.928h-0.334l-1.254-0.167c0.418,0.667,1.672,1.086,2.758,1.086h1.67
				c0.416,0,1.084-1.169,1.25-1.67c0.336-0.752,0.336-1.502,0.336-2.588c0.164-0.083,0.164-0.168,0.332-0.168h0.418
				c0-0.5-0.418-0.667-0.918-0.667h-0.168c-0.332,0-1,1.503-1.086,1.836c-1.002,0-1.584-0.667-2.086-0.667h-0.416
				c-0.502,0-0.502,0.334-0.668,0.667c0.582,0,0.834,0.085,1.166,0.417c0.17,0.084,0.754,0.752,0.754,0.92
				C145.738,86.427,144.568,86.928,143.984,86.928z"/>
			<path fill="#626262" d="M155.168,94.441c-0.082,0.334-0.498,1.252-0.498,1.252c0.332-0.083,1.418-1.252,1.584-1.586
				c0.42-0.501,0.752-1.587,0.752-2.504v-0.502l-0.082,0.084l-1.756-1.252c0.084,0.668,0.418,2.337,0.334,3.089
				C155.336,93.606,155.42,93.941,155.168,94.441z"/>
			<path fill="#626262" d="M150.078,92.605c-0.752,0.751-1.42,1.336-2.754,1.418c0,0.584,1.168,1.67,1.418,1.67
				c0.502,0,1.752-1.752,2.086-2.171c0.5-0.667,1.002-2.087,1.002-3.339c-0.418,0.418-0.502,0.751-0.836,1.252
				C150.662,92.02,150.578,92.188,150.078,92.605z"/>
			<path fill="#626262" d="M139.477,89.182c0.334,1.169,1.338,2.171,2.338,2.755c1.086,0.669,2.17,1.253,3.256,1.837
				c0.668,0.417,2.254,1.92,2.254,2.922v3.423c0.75,0,1.334-0.835,1.334-1.67v-0.584c0-2.671-2.838-4.342-4.258-5.762
				c-0.916-1.001-1.586-1.418-2.42-2.587c-0.416-0.5-0.75-0.918-1.002-1.502c-0.082-0.335-0.5-1.753-0.584-2.004
				c0.584,0.167,0.752,0.501,1.586,0.501h0.416c0-0.919-1.084-1.086-1.084-1.836c0-0.418,1.336-1.671,1.336-2.422v-0.251
				c0-0.5-0.334-0.667-0.584-0.834v0.667c-0.418,0.585-0.834,0.753-1.336,1.253c-0.5,0.333-1.168,0.584-1.168,1.502v0.085
				c0,0.416,0.5,0.917,0.668,1.252c-1.172,0-1.086-0.669-1.922-0.669C138.307,86.511,139.057,88.18,139.477,89.182z M140.311,85.927
				C140.145,86.093,140.479,85.759,140.311,85.927L140.311,85.927z"/>
			<path fill="#626262" d="M174.953,109.384h0.67c0-0.834-0.752-1.253-1.252-1.585c-0.586,0.416-0.836,0.835-1.004,1.67
				L174.953,109.384z"/>
			<path fill="#626262" d="M140.145,123.409l0.25-1.837c0.084-0.667-0.834-1.085-1.502-1.085l0.584,0.584v1.92L140.145,123.409z"/>
			<path fill="#626262" d="M17.594,116.396c0.501,0,0.668,0.334,0.917,0.669c0.085-0.084,0.335-0.084,0.335-0.251
				c0-0.334-0.918-1.586-1.502-1.586h-0.752c-0.083,0.5-0.418,0.668-0.418,1.252c0,0.919,1.003,1.92,1.003,2.421h0.167
				c0.083-0.251,0.083-0.166,0.083-0.334c0-0.501-0.417-1.085-0.417-1.586c0-0.335,0.083-0.167,0.083-0.501
				C17.427,116.48,17.261,116.396,17.594,116.396z"/>
			<path fill="#626262" d="M19.765,121.406c-0.084-0.084-0.084,0-0.084-0.168c-0.083-0.167-0.166-0.167-0.251-0.251
				c-0.083-0.165-0.249-0.667-0.249-0.834v-0.918c0.166-0.084,0.166-0.084,0.417-0.084h0.083c0.25,0,0.668,0.418,1.086,0.418
				c-0.334-1.252-1.169-1.587-2.087-2.17l-0.503,0.166c-0.082,0.501-0.249,0.083-0.333,0.918c-0.083,0.585,0,0.501,0,1.086
				c0.333,0.5,0.418,0.668,0.836,1.167c0.333,0.335,0.918,0.67,1.085,0.92l0.083-0.084v-0.083
				C19.765,121.572,19.765,121.489,19.765,121.406z"/>
			<path fill="#626262" d="M17.761,114.978v-0.835c0-0.584-0.5-1.086-1.084-1.086h-0.251c-0.501,0-0.584,0.668-0.835,0.92v0.75
				l0.334,0.585h0.083v-0.751c0-0.251,0-0.251,0.083-0.418h0.669C17.261,114.143,17.093,114.895,17.761,114.978z"/>
			<path fill="#626262" d="M17.427,112.891h0.084c0.167,0,0.25-0.083,0.25-0.25v-0.083c0-0.335-0.167-0.335-0.167-0.67v-0.332h0.668
				c0.334,0,0.334-0.585,0.334-0.92c-0.668-0.333-0.752-0.751-1.503-0.918c-0.333,0.585-0.919,1.086-0.919,2.004v0.334
				C16.174,112.223,17.427,112.891,17.427,112.891z"/>
			<path fill="#626262" d="M23.688,123.242v-0.584c0.166-0.084,0.166-0.084,0.416-0.084h0.085c0.167,0,0.25,0.167,0.417,0.251
				c-0.25-1.001-1.419-1.253-2.671-1.253c-0.168,0-0.418,0.084-0.418,0.335c0,1.002,0.668,1.585,1.252,1.92
				c0.418,0.251,1.67,1.001,2.255,1.001C24.94,124.244,23.688,123.659,23.688,123.242z"/>
			<path fill="#626262" d="M40.301,116.063c-0.75,0.167-1.419-0.669-1.753-0.919c-0.167-0.084-1.837-1.168-1.837-0.418v0.084
				c0,0.835,0.585,0.918,0.835,1.92l-1.169-0.417c0.084,1.169,0.417,1.252,1.252,1.669c0.836,0.501,1.503,0.251,2.505,0.501
				c0.25-0.166,1.002-1.335,1.002-1.585v-0.418c0-0.25-0.084-0.334-0.167-0.501L40.301,116.063z"/>
			<path fill="#626262" d="M27.444,123.91c0-0.751,1.253-1.001,1.753-1.336c-0.25,0-0.334-0.084-0.584-0.084h-0.25
				c-1.085,0-3.339,0.419-3.339,1.337c0,1.252,3.004,1.754,4.507,1.754C28.863,125.163,27.444,124.996,27.444,123.91z"/>
			<path fill="#626262" d="M21.101,121.322c0-0.167,0.084-0.251,0.167-0.251c0.417,0,0.5,0.167,0.918,0.167h0.084
				c0.835,0-0.836-1.335-1.837-1.419c-0.084,0.334-0.334,0.584-0.334,0.752v0.918c0,0.585,0.918,1.42,1.335,1.67
				c-0.083-0.501-0.333-1.003-0.333-1.252V121.322z"/>
			<path fill="#626262" d="M165.271,109.384l0.25,1.755c0.168,0.249,0.416,0.583,0.584,0.917c0.416,0.668,0.416,0.251,0.75,0.752
				c0.42,0.501,1.42,0.834,2.006,1.085c-0.168-0.584-0.418-1.002-0.418-1.753v-0.084c0-1.586,1.334-2.087,2.338-2.755
				c0.25,0,2.17-0.333,2.17-0.501c0-0.25-0.334-0.417-0.416-0.751c0.332-0.084,0.416-0.25,0.582-0.501
				c0.25-0.167,0.668-0.251,0.668-0.418c0-2.004-2.172-3.34-4.342-3.34h-0.416c-1,0-2.088,0.335-2.672,0.752
				c-0.498,0.417-1.42,1.169-1.42,2.004c0,0.084,0.084,0.167,0.252,0.167c0.25,0,0.25-0.334,0.75-0.418
				c-0.248,0.502-0.416,0.835-0.75,1.253c-0.168,0.251-0.584,1.002-0.584,1.42v1.001h0.332L165.271,109.384z M167.607,107.882
				c0-1.002,2.088-1.837,3.256-1.837h0.42c0.584,0,1.334,0.168,1.5,0.668c-0.166-0.083-0.166-0.167-0.334-0.167h-1.166
				c-0.42,0-1.172,0.167-1.254,0.584l1.838,0.251l0.166,0.501c-0.252-0.167-0.75-0.334-1.086-0.334
				c-1.252,0-2.254,1.002-3.172,1.252c-0.082-0.166-0.168-0.333-0.168-0.669V107.882z"/>
			<path fill="#626262" d="M154.168,110.22c-0.334,0.584-0.668,1.085-1.084,1.668l0.082,0.084c0.082,0.084,2.672-1.586,2.922-1.752
				c0.668-0.502,1.92-1.67,2.254-2.421c0.334-0.418,0.666-0.835,0.918-1.42c0.334-0.5,0.502-1.002,0.752-1.587
				c0.334-0.583,0.918-2.921,0.918-3.839v-1.837c0-0.919-0.668-3.757-1.086-4.091c0,1.002,0.082,1.92,0.082,2.756
				c0,1.168-0.164,1.669-0.248,2.587c-0.084,0.835-1.336,3.674-1.752,4.007l-0.336-1.587l-3.838,2.004
				c-0.668,0-1.254,0.334-2.256,0.334h-0.334c0.166,0.753,2.004,1.087,2.922,1.087h0.416c1.338,0,1.922-0.669,2.84-0.919
				c-0.25,0.834-1.838,2.254-2.254,3.173C154.92,108.968,154.418,109.802,154.168,110.22z M157.424,105.126l0.082,0.085
				l-0.082,0.083l-0.084-0.083L157.424,105.126z"/>
			<path fill="#626262" d="M34.624,107.548c0.25,0.334,0,0.167,0.419,0.583c0.083,0.084,0.334,0.419,0.417,0.586
				c0.501,0.584,1.753,1.503,2.004,1.919c0.333,0,2.087,1.171,2.67,1.336c-0.751-1.085-1.252-2.17-2.003-3.255
				c-0.168-0.334-0.168-0.418-0.502-0.835c-0.165-0.334-0.333-0.501-0.501-0.835c-0.25-0.334-1.085-1.168-1.085-1.586
				c0.334,0,0.835,0.418,1.336,0.584c0.418,0.083,1.336,0.168,1.753,0.168c1.002,0,2.755-0.334,2.923-1.087h-0.502
				c-0.835,0-1.335-0.334-2.17-0.334l-3.841-2.004c-0.082,0.252-0.25,0.753-0.25,0.92v0.417c0,0.25,0,0.25,0.085,0.417
				c-0.836-0.584-2.088-4.257-2.088-5.927v-0.083v-3.423c-0.419,0.501-1.086,3.423-1.086,4.592v0.584
				c0,2.337,0.836,4.507,1.671,6.094C34.208,106.964,34.29,106.964,34.624,107.548z M35.793,105.126l0.168,0.335l-0.25-0.25
				L35.793,105.126z"/>
			<path fill="#626262" d="M140.395,110.636c0.168,0,1.836,0.585,2.338,0.752c0.918,0.168,1.586,0.419,2.672,0.419h0.666
				c0.754,0,2.172-0.335,2.422-0.753c-1,0-3.174-0.167-3.924-0.501c-0.834-0.25-1.836-1.585-1.836-2.588v-0.918
				c0-0.919,0.668-1.419,1.252-1.836c1.254,0.668,1.086,1.252,1.504,2.671c0.416,1.086,0.918,1.836,2.42,1.836
				c-0.668-1.001-1.588-1.503-1.588-3.339v-0.334c0-0.919,0.336-1.253,0.336-1.836c0.25-0.167,1.918-2.672,1.918-3.173
				c0-0.25-0.082-0.584-0.164-0.751c-0.586,0.083-4.092,2.17-4.76,2.588c-0.334,0.25-1.67,1.336-2.004,1.669
				c-0.416,0.417-1.418,1.753-1.752,1.921c-0.502-0.25-1.254-0.584-1.254-1.337v-0.083c0-1.92,4.092-4.591,6.18-4.591h0.498v0.417
				c-0.164,0.084-0.248,0-0.248,0.251c0,0.167,0.084,0.251,0.168,0.251c0.748,0,1.836-0.585,1.836-1.42
				c0-0.417-0.336-0.668-0.504-1.002c-0.584,0-0.5-0.251-0.916-0.251h-0.416c-2.674,0-8.35,4.09-8.35,6.345v0.585
				c0,0.835,1.584,1.586,2.422,1.669c-0.084,0.335-0.586,1.17-0.838,1.42c-0.166,0.334-0.498,1.335-0.666,1.669
				c-0.334,1.17-0.668,2.588-0.668,4.007v0.168c0,0.918,4.842,3.84,4.926,4.257c-0.584-0.167-1.25-0.417-2.086-0.417h-0.502
				c-0.25,0-0.25,0-0.42,0.083c0.336,0.418,1.422,0.919,2.174,0.919h1.418v-0.084l0.836,0.667c0.082-0.249,0.334-0.499,0.334-0.75
				l-0.084-0.752c-0.084-0.083-0.668-0.668-0.834-0.918c-0.418-0.334-0.752-0.417-1.42-0.417l-0.084-0.083l0.5-0.669l0.084,0.084
				c-0.084-0.752-3.088-0.334-3.088-2.255v-0.333c0-0.251,0.5-0.584,0.668-0.584h2.836v-0.084c-0.416-0.501-2.252-0.752-2.252-1.753
				v-0.585C140.145,110.72,140.229,110.636,140.395,110.636z M142.564,119.068l0.084,0.083l-0.084,0.084l-0.082-0.084
				L142.564,119.068z"/>
			<path fill="#626262" d="M145.57,92.438h0.918c0.5,0,1.336-1.085,1.336-1.586v-0.167c0-0.334,0,0-0.082-0.25
				c-1.004,0.667-2.172,0.584-2.758,1.419C145.07,92.02,145.318,92.438,145.57,92.438z"/>
			<path fill="#626262" d="M19.848,109.469c-0.167-0.752-0.418-1.254-1.002-1.67c-0.5,0.25-1.252,0.751-1.252,1.585h0.668
				L19.848,109.469z"/>
			<path fill="#626262" d="M174.787,111.556c0.25,0,0.836-0.084,0.836,0.166c0,0.418-0.168,0.501-0.168,0.919v0.25h0.336
				c0,0,1.25-0.668,1.25-0.835v-0.418c0-0.667-0.668-1.418-0.918-1.92c-0.916,0.167-1.002,0.752-1.586,0.918L174.787,111.556z"/>
			<path fill="#626262" d="M20.265,108.717c0,0.334,1.169,0.334,1.503,0.417c0.668,0.25,0.835,0.25,1.42,0.584
				c0.751,0.502,1.585,1.169,1.585,2.338v0.084c0,0.584-0.333,1.335-0.499,1.753c1.668-0.418,3.589-2.005,3.589-4.008v-0.501h0.25
				l0.084,0.585h0.333c0.084-0.167,0.084-0.167,0.084-0.418v-0.583c0-0.418-1.084-2.171-1.335-2.673l0.75,0.418l0.251-0.167
				c-0.251-1.002-1.42-2.421-2.504-2.421c-0.333-0.251-0.835-0.335-1.419-0.335h-0.668c-1.503,0-2.004,0.419-2.922,0.92
				c-0.836,0.501-1.169,1.418-1.42,2.504c0.584,0.167,0.918,0.835,1.337,0.835C20.601,108.299,20.265,108.634,20.265,108.717z
				 M20.433,106.63c0.168-0.502,1.085-0.585,1.753-0.585h0.084c1.169,0,3.339,0.752,3.339,1.837v0.249
				c0,0.252-0.083,0.669-0.252,0.669c-0.332,0-2.002-1.252-3.005-1.252c-0.499,0-0.834,0.167-1.167,0.334l0.166-0.501l1.837-0.251
				c-0.083-0.333-0.836-0.584-1.169-0.584h-1.168C20.684,106.546,20.516,106.63,20.433,106.63z"/>
			<path fill="#626262" d="M36.546,121.071H36.21c-0.249,0-0.499-0.335-0.499-0.668v-0.418c0-0.166,0.416-1.418,0.499-1.752
				c-0.417,0.334-2.755,2.754-2.755,3.256v1.085c0,0.585,0.502,0.668,1.003,0.668c-0.25,0.167-0.835,0.417-1.254,0.417h-1.251
				c-0.334,0-0.668-0.25-0.668-0.5v-0.25c0-0.753,0.918-0.753,0.918-1.503c-1.001,0.083-2.672,1.503-2.672,2.755
				c0,0.835,1.087,1.334,1.922,1.334h0.248c1.588,0,3.425-1.168,4.01-2.253c1.918-0.083,3.504-1.753,3.504-3.84
				C38.465,119.903,38.047,121.071,36.546,121.071z"/>
			<path fill="#626262" d="M38.297,112.056c-0.334-0.249-0.166-0.249-0.5-0.5c-0.251-0.251-0.752-0.92-1.086-0.92
				c0,0.418-0.165,0.585-0.165,1.002c0,1.837,1.334,3.173,3.171,3.173c0.417,0,1.503-0.334,1.585-0.752
				c-1.335-0.334-1.668-0.667-2.504-1.501C38.633,112.39,38.465,112.223,38.297,112.056z"/>
			<path fill="#626262" d="M49.399,84.59c-0.083-0.25-0.248-0.667-0.584-0.667h-0.249c-0.835,0-1.503,0.667-2.087,0.667h-0.168
				l-1.001-1.836H44.81c-0.417,0-0.668,0.334-0.751,0.667h0.417c0.165,0,0.165,0.085,0.334,0.168c0,1.253-0.084,1.669,0.332,2.588
				c0.169,0.584,0.67,1.67,1.338,1.67h1.836c0.75,0,2.253-0.501,2.422-1.086l-1.338,0.167c-0.584,0.084-1.919-0.501-1.919-0.918
				C47.48,85.341,48.481,84.59,49.399,84.59z"/>
			<path fill="#626262" d="M41.387,83.172c0.918,0,1.419,0.417,2.338-0.168c0.668-0.416,0.834-1.085,1.167-1.753
				c0.334-0.667,0.584-1.252,1.336-1.586c0.586-0.417,1.586-0.417,1.755-1.169c-2.923,0.084-5.01,3.006-5.595,3.006
				c-1.086,0-1.67-1.503-1.67-2.672v-0.083c0-0.585,0.168-1.253,0.334-1.671c0.335-0.751,0.501-0.751,0.835-1.251
				c-1.418,0.333-2.504,1.753-2.504,3.506v0.334c0,1.001,0.251,1.503,0.584,2.17C40.384,82.672,41.052,82.754,41.387,83.172z"/>
			<path fill="#626262" d="M56.246,105.879v-1.002c0-2.171-5.678-6.179-8.433-6.179h-0.25c-0.585,0-1.42,0.585-1.42,1.086v0.249
				c0,1.003,2.004,1.671,2.004,1.087c0-0.334-0.334-0.167-0.334-0.417c0-0.168,0.083-0.251,0.252-0.251h0.25
				c0.919,0,1.335,0.417,2.003,0.417c0.835,0.585,1.753,0.835,2.505,1.586c0.5,0.418,1.669,1.67,1.669,2.422v0.334
				c0,0.668-0.751,1.168-1.334,1.252c-0.169-0.584-3.089-3.172-3.674-3.59c-0.752-0.418-4.009-2.505-4.675-2.588
				c-0.084,0.25-0.169,0.25-0.169,0.584v0.084c0,1.335,2.255,2.921,2.255,4.926v0.5c0,1.67-1.001,2.421-1.585,3.339
				c1.503,0,1.921-0.75,2.338-1.836c0.584-1.419,0.165-1.754,1.503-2.671c0.584,0.333,1.251,0.75,1.251,1.669v1.335
				c0,1.002-1.086,2.171-1.836,2.421c-0.918,0.168-2.84,0.418-3.926,0.418c0.251,0.334,1.756,0.753,2.506,0.753h0.502
				c1.252,0,1.751-0.251,2.754-0.502c0.918-0.166,1.92-0.669,2.587-0.669c0,0.251,0.085,0.418,0.085,0.503l-0.085,0.749
				c-0.667,0.335-1.252,1.086-2.17,1.169v0.168v0.084h2.589c0.333,0,0.918,0.25,0.918,0.584v0.417c0,1.169-1.836,1.837-3.09,1.837
				c0,0.584,0.419,0.334,0.419,0.752v0.25h-0.251c-1.002,0-2.005,1.001-2.005,2.003v0.084c0,0.334,0.168,0.501,0.336,0.75
				l0.833-0.75v0.167h1.254c0.919,0,1.837-0.334,2.253-0.919c-0.667,0-0.917-0.083-1.753,0c-0.75,0.084-0.918,0.334-1.42,0.501
				c0.502-0.835,1.921-1.336,2.757-2.003c0.334-0.335,2.42-2.004,2.42-2.338c0-1.085-0.336-3.339-0.669-4.091
				c-0.166-0.501-0.417-1.252-0.665-1.669c-0.169-0.25-0.752-1.336-0.835-1.587C54.492,107.214,56.246,106.463,56.246,105.879z
				 M50.653,119.235l-0.085-0.084l0.085-0.083l0.084,0.083L50.653,119.235z M50.819,118.984
				C50.987,118.817,50.653,119.151,50.819,118.984L50.819,118.984z"/>
			<path fill="#626262" d="M51.069,81.085c0,0-0.501,0.501-0.501,0.917v0.502c0,0.334,1.337,2.003,1.337,2.086
				c0,0.751-0.918,1.002-1.168,1.921c1.502,0,1.334-0.334,2.169-0.584c-0.751,1.334-0.584,2.253-1.586,3.505
				c-0.918,1.17-1.585,1.67-2.505,2.671c-1.503,1.504-4.34,3.091-4.34,6.012c0,1.086,0.501,1.837,1.336,2.004
				c0-0.085,0.083-0.25,0.083-0.25c0-1.002-0.083-1.838-0.083-2.84c0-0.583,0.585-1.752,0.918-2.086
				c1.418-1.336,2.003-1.42,3.589-2.337c1.753-1.002,2.004-1.087,3.173-2.756c0.419-0.668,1.336-3.507,1.42-4.592
				c-0.67,0-1.087,0.669-1.42,0.669h-0.502c0.169-0.502,0.585-0.502,0.585-1.252v-0.501c0-0.919-3.172-1.837-2.421-3.006
				L51.069,81.085z"/>
			<path fill="#626262" d="M33.874,97.531v0.499c0,2.422,2.754,4.425,5.426,4.425h0.083c1.169,0,2.256-0.417,2.922-1.001
				c-1.503,0-4.008-1.086-4.926-1.753c-1.586-1.253-2.087-1.92-3.34-3.341L33.874,97.531z"/>
			<path fill="#626262" d="M35.292,95.693c0.25,1.086,0.835,1.503,1.419,2.171c0.502,0.751,1.754,1.336,2.004,1.67
				c0.668,0,1.336,0.668,2.505,0.668h2.588l0.083-2.506c0-0.333-4.091-0.5-4.759-0.5c-0.584,0-1.919-0.168-2.338-0.335
				c-0.248-0.082-0.584-0.334-0.833-0.501C35.377,96.111,35.625,95.943,35.292,95.693z"/>
			<path fill="#626262" d="M44.393,59.712c0,0.169-0.419,0.67-0.419,0.92c0,0.333,0.667,0.333,1.003,0.333
				c0.417,0,0.668,0.251,1.167,0.251l-0.166-0.668h0.918c0.836,0,1.837-1.419,1.837-2.253V57.96c0-0.167-0.084-0.251-0.251-0.251
				h-0.249c-0.92,0-0.835,1.086-1.753,1.169c-0.083-0.501-0.668-0.583-0.668-1.169V57.46h1.501
				c-0.166-0.251-2.171-1.254-2.672-1.169l-0.75,0.082v0.836c0,0.751,0.502,1.752,0.502,2.087V59.712z"/>
			<path fill="#626262" d="M40.635,92.354c-0.166-1.586-0.251-3.84-0.251-5.51c-0.833,1.169-1.919,1.419-1.919,3.172
				c0,1.587,0.667,2.755,1.419,3.673c0.334,0.418,0.751,1.001,1.252,1.253c0.084,0.083,1.503,1.085,1.503,1.085l0.083-0.084
				c0,0-0.334-0.25-0.417-0.25c-0.25-0.166-0.167-0.166-0.334-0.417c-0.25-0.251-0.501-0.418-0.669-0.752
				C41.052,93.856,40.718,93.104,40.635,92.354z"/>
			<path fill="#626262" d="M48.983,90.935c1.168,0,1.585-1.001,1.585-2.171c-0.334,0.084-0.918,0.252-1.334,0.252l-0.586,0.083
				l-4.09-0.584c0.082,0.834,2.922,2.42,4.008,2.42H48.983z"/>
			<path fill="#626262" d="M52.572,63.47c-0.25,0-0.333,0.084-0.584,0.084h-0.501c-0.418,0-0.418-0.167-0.585-0.418
				c0.085-0.333,0.167-0.417,0.167-0.752v-0.5c0-0.585-1.085-1.502-1.419-2.003c-0.083,0.667-0.75,0.584-0.75,1.418v0.251
				c0,0.167,0.083,0.251,0.251,0.251h0.083c0.416,0,1-0.251,1,0.165v0.084c0,0.334-0.584,0.418-0.584,1.337
				c0,0.25,0,0.25,0.085,0.417c0.499,0,0.667,0.167,1.167,0.167h0.67C51.988,63.971,52.49,63.804,52.572,63.47z"/>
			<path fill="#626262" d="M54.911,118.735l-1.001,0.249v0.502c0,0.333,0.416,0.499,0.75,0.499c0-0.249-0.084-0.333-0.084-0.583
				v-0.084C54.576,119.151,54.827,118.984,54.911,118.735z"/>
			<path fill="#626262" d="M43.641,89.182c-0.167-0.584-0.084-1.335-0.167-2.004c-0.085-1.085-0.501-2.671-1.419-2.921
				c-0.168,0.667-0.416,1.084-0.416,1.92v0.668c0,0.917,0.332,1.503,0.332,2.254c0.417,0.667,0.501,1.419,1.085,2.003
				c0.669,0.585,0.918,1.001,1.836,1.253l-1.001-1.336C43.891,90.518,43.725,89.766,43.641,89.182z"/>
			<path fill="#626262" d="M36.21,91.102v0.669c0,1.419,1.419,3.673,2.338,3.923l-0.501-0.835v-0.334l-0.167-0.25l-0.167-1.336
				l-0.084-0.418l0.418-2.504C37.128,90.1,36.962,91.102,36.21,91.102z"/>
			<path fill="#626262" d="M45.394,90.518v0.334c0,0.501,0.834,1.586,1.251,1.586h0.919c0.25,0,0.584-0.418,0.669-0.584
				c-0.336-0.501-0.669-0.668-1.337-0.752C46.228,90.935,45.812,90.602,45.394,90.518z"/>
			<path fill="#626262" d="M35.625,92.438h-0.417c-0.165,0-0.416,0.251-0.416,0.418v0.667c0,0.501,0.585,1.085,0.919,1.085h0.416
				c-0.084-0.5-0.251-0.417-0.251-1.085C35.876,93.104,36.043,92.438,35.625,92.438z"/>
			<path fill="#626262" d="M41.47,91.604l0.501,1.419c0.334,0.167,1.754,2.671,2.422,2.671c0.333,0,1.419-1.003,1.419-1.67
				c-1.505-0.334-1.838-0.501-2.839-1.418c-0.753-0.752-1.002-1.837-1.671-2.589L41.47,91.604z"/>
			<path fill="#626262" d="M54.326,120.487h-0.502c-0.416,0.249-1.001,0.335-1.001,1.085v0.168l0.251,1.669
				c0.75-0.167,0.585-0.668,0.585-1.502C53.659,120.905,53.824,120.987,54.326,120.487z"/>
			<path fill="#626262" d="M43.557,104.792c0.417,0.334,1.169,1.921,1.253,2.673c0.501-0.084,0.835-1.086,0.835-1.754v-0.417
				c0-1.336-1.086-3.089-2.338-3.089h-0.501c-0.586,0-1.504,0.583-1.586,1.002c0.501,0.25,0.835,0.25,1.252,0.667
				C42.722,104.042,43.307,104.626,43.557,104.792z"/>
			<path fill="#626262" d="M141.48,63.971h0.916c0.504,0,0.418-0.167,1.004-0.167c0.084-0.167,0.166-0.167,0.166-0.334v-0.167
				c0-0.417-0.5-1.002-0.666-1.337l0.25-0.249l0.668,0.084h0.084c0.25,0,0.25,0,0.416-0.084v-0.25c0-0.835-0.584-0.919-0.752-1.504
				H143.4c0,0.502-1.336,1.253-1.336,2.171c0,0.418,0.166,0.501,0.166,0.919v0.083c0,0.167-0.25,0.418-0.416,0.418h-0.668
				c-0.25,0-0.332-0.084-0.584-0.084C140.729,63.72,141.064,63.971,141.48,63.971z"/>
			<path fill="#626262" d="M146.57,58.878c-0.666,0-0.666-1.169-1.668-1.169h-0.168c-0.166,0-0.248,0.084-0.248,0.251v0.335
				c0,0.834,1.002,2.253,1.668,2.253h1.086l-0.252,0.668l2.256-0.418c-0.084-0.5-0.418-0.917-0.418-1.086v-0.333
				c0-0.584,0.418-0.918,0.418-2.004v-1.002c-0.25,0-0.336-0.082-0.586-0.082c-0.75,0-2.504,0.835-2.754,1.169l0.166,0.083
				c0.754,0,0.668-0.334,1.338,0C147.324,57.96,146.988,58.878,146.57,58.878z"/>
			<path fill="#626262" d="M140.311,61.717c1.336,0,1.92,0.084,1.92-1.252v-0.418c0-0.668-0.416-1.086-1.084-1.086h-0.082
				c-0.586,0-1.504,0.335-1.838,0.502l-0.502-0.502l-0.084,0.086c0,0.749-0.418,0.916-0.418,1.418c0,0.25,0.084,0.333,0.168,0.5
				c0.836-0.417,2.338-0.417,2.424-1.502l0.582,0.5c-0.25,0.419-1.836,1.087-2.422,1.253c0.168,0.668,0.668,1.336,1.42,1.419v-0.167
				c-0.166-0.084-0.416-0.167-0.416-0.334C139.979,61.884,140.145,61.801,140.311,61.717z M139.811,60.214h-0.168
				c-0.25,0-0.25,0-0.416-0.084l0.416-0.584l0.752-0.083C140.395,59.796,140.145,60.214,139.811,60.214z"/>
			<path fill="#626262" d="M151.412,75.825l-0.084,0.083h0.084c0,0.084,0,0.084,0.084,0.084c0,0.083,0.082,0.083,0.082,0.166
				c0.168,0.167,0.168,0.084,0.252,0.251c0.168,0.335,0.25,0.501,0.334,0.752c0.166,0.668,0.334,1.001,0.334,1.836
				c0,1.002-0.752,2.505-1.588,2.505c-0.332,0-2.168-1.586-2.5-1.837c-0.168-0.167-1.17-0.751-1.336-0.835
				c-0.418-0.167-1.504-0.167-1.836-0.334c0.166,0.752,1.836,1.002,2.504,1.753c0.75,0.751,0.668,1.921,1.67,2.672
				c1,0.751,2.334,0.334,3.17-0.249c0.666-0.502,1.252-1.922,1.252-3.091v-0.333c0-0.919-0.418-1.502-0.668-2.255
				C152.832,76.325,151.998,76.158,151.412,75.825z"/>
			<path fill="#626262" d="M146.32,63.303v-0.417c0-1.169-0.832-2.504-1.5-2.923l-0.334,2.505v0.752l-0.502-0.084v0.334
				c0,1.586-0.834,1.503-1.336,2.17l-0.916,0.418c1.668,0,1.752-0.668,2.836-0.918c0.084,0.167,0.166,0.167,0.166,0.333v0.251
				C145.57,65.558,146.32,64.305,146.32,63.303z"/>
			<path fill="#626262" d="M152.832,82.754c-0.418,0.084-0.418,0.334-0.752,0.501c-0.334,0.166-0.668,0.166-1,0.334
				c0.666,1.001,1.084,1.92,1.918,2.754c0.168,0.251,0.25,0.502,0.502,0.669c0.334,0.334,0.252,0.416,0.502,0.667
				c0.498,0.418,0.75,0.669,1.166,1.169c0.168,0.251,1.004,0.918,1.168,1.169c0.42,0.501,0.67,0.752,1.17,1.169
				c0.252,0.25,0.084,0.25,0.502,0.668c0.168,0.166,0.334,0.417,0.5,0.667c0.418,0.335,0.668,1.002,1.086,1.336l1.086,1.587
				c0-1.837-2.838-5.344-3.842-6.428c-0.416-0.418-2.002-2.255-2.338-2.755c-0.166-0.418-0.666-1.17-0.916-1.671
				C153.248,84.006,153.084,83.339,152.832,82.754z"/>
			<path fill="#626262" d="M149.66,88.264c0,0.918-0.166,1.586-0.334,2.421c-0.332,1.335-0.5,0.834-1.084,1.67
				c0.836,0,2.086-1.42,2.336-2.087c0.332-0.668,0.584-0.668,0.666-1.586c0.084-0.585,0.334-1.086,0.334-1.921v-0.584
				c0-0.752-0.25-1.253-0.416-1.92C149.992,84.507,149.744,86.761,149.66,88.264z"/>
			<path fill="#626262" d="M151.998,103.207c-0.084-0.419-1.004-1.002-1.586-1.002h-0.668c-0.918,0-2.252,1.92-2.252,2.921v0.502
				c0,0.585,0.416,1.586,0.834,1.837c0.416-0.752,0.582-2.088,1.252-2.673C150.412,104.209,150.828,103.457,151.998,103.207z"/>
			<path fill="#626262" d="M48.481,59.881c-0.75,0.501-1.586,1.752-1.586,3.088v0.501c0,0.919,0.836,2.088,1.503,2.254
				c0.334-0.668-0.083-0.835,0.918-0.251c0.419,0.167,0.918,0.418,1.252,0.585h0.836c-0.335-0.5-2.17-0.418-2.17-2.504v-0.418
				l-0.502,0.084v-0.417c0-0.669-0.334-1.504-0.334-1.838v-0.667C48.398,60.047,48.398,60.047,48.481,59.881z"/>
			<path fill="#626262" d="M52.405,59.463c0.085,0.5,0.584,1.002,1.003,1.085c0.502,0.084,1.503,0.584,1.503,0.167v-0.25
				c0-0.584-0.335-0.753-0.335-1.169v-0.249c-0.583,0.082-0.335,0.416-0.583,0.416c-0.169,0-1.087-0.502-1.922-0.502h-0.083
				c-0.584,0-1.086,0.502-1.086,1.169c0,1.503,0.418,1.587,1.921,1.587c0.083,0.084,0.417,0.249,0.417,0.333
				c0,0.334-0.334,0.251-0.417,0.585c0.751-0.167,1.252-0.669,1.418-1.419c-0.248,0-2.419-1.002-2.419-1.169
				C51.822,59.796,52.239,59.546,52.405,59.463z M53.993,60.13c-0.169,0.084-0.169,0.084-0.419,0.084
				c-0.5,0-0.751-0.251-0.751-0.751C53.408,59.463,53.91,59.546,53.993,60.13z"/>
			<path fill="#626262" d="M48.481,57.543c0.419,0,1.169,0.752,1.254,1.085l2.67-0.251h0.418c0.585,0,1.087,0.168,1.586,0.251
				c0.753,0.083,0.918,0.501,1.334,0.584v-0.417c0-0.084-0.333-0.835-0.416-0.919c-0.416,0-1.334-0.25-1.836-0.333
				c-0.668-0.083-1.503-0.083-2.087-0.168c-0.918-0.082-1.17,0.085-1.669-0.5c-0.168-0.251-1.087-0.836-1.42-0.836h-0.667
				l0.334,1.504H48.481z"/>
			<path fill="#626262" d="M148.658,88.515l-4.258,0.584l-0.248-0.083l-1.504-0.168c0,1.252,0.502,2.087,1.67,2.087
				C145.904,90.935,148.158,89.6,148.658,88.515z"/>
			<path fill="#626262" d="M62.925,21.312c0.249,1.252,1.336,7.013,1.167,8.182l-0.082,1.002c-0.166,0.167-1.001,1.252-1.001,1.336
				v0.25c0,0.167,0.333,0.501,0.416,0.501s2.087-1.419,2.421-1.587c0.75-0.5,1.753-1.085,2.506-1.502
				c-0.085-0.167-0.334-0.834-0.502-0.834c-0.501,0-0.752,0.5-1.419,0.5c-0.919,0-1.17-2.003-1.17-3.089l4.009-2.505
				c0.5,0.417,2.17,1.336,2.17,2.087v0.168c0,0.417-1.084,1.001-1.084,1.336c0,0.25,0.332,0.668,0.5,0.751
				c1.252-0.668,2.505-1.92,3.757-2.505c0.417-0.251,3.673-2.171,3.839-2.421c-0.083-0.334-0.166-0.751-0.585-0.751
				c-0.165,0-0.833,0.417-1.334,0.417h-0.501c-0.668,0-2.839-1.67-3.34-2.087c-0.501-0.334-2.754-2.087-3.173-2.255
				c-0.417-0.25-2.586-1.836-3.088-2.336c-0.335-0.167-3.257-2.255-3.257-2.255h-0.416c-1.169,0-0.585,2.588-0.417,3.507
				C62.675,18.474,62.675,19.893,62.925,21.312z M64.01,19.726l4.257,3.088l-3.339,2.088l-1.002-5.176H64.01z"/>
			<path fill="#626262" d="M109.004,22.146c0.084-0.083,0.336-0.417,0.336-0.584v-0.251c0-0.334-1.584-0.668-1.584-1.502v-0.584
				c0-0.251,0.582-2.004,0.666-2.422c0.166-0.751,0.582-1.503,0.666-2.504l6.014,1.836c-0.084,0.167-1.004,3.006-1.004,3.173
				c-0.166,0.918-0.584,2.588-1.668,2.504l-1.17-0.083c-0.084,0.083-0.334,0.417-0.334,0.584v0.167c0,0.167,0.084,0.167,0.168,0.251
				l2.336,0.584l0.252,0.167c0.584,0,5.26,1.503,5.762,1.753c0.248-0.167,0.416-0.417,0.416-0.751V24.4
				c0-0.251-1.838-0.668-1.838-1.837c0-0.5,0.668-2.587,0.836-3.173c0.334-0.917,0.586-2.169,0.918-3.088
				c0.332-0.835,0.666-2.171,0.918-3.089c0.25-0.917,0.584-2.421,1.67-2.421h0.75l0.752,0.084c0-0.418,0.166-0.334,0.166-0.668
				v-0.167c0-0.334-1.586-0.668-2.002-0.668c-0.334-0.251-2.672-0.667-3.34-0.918c-0.5-0.251-2.838-1.086-3.256-1.086
				c0,0.417-0.166,0.335-0.166,0.668v0.167c0,0.167,0.082,0.167,0.166,0.334c0.5,0,1.336,0.584,1.336,0.835v0.835
				c0,0.835-0.502,1.669-0.668,2.336c-0.084,0.837-0.668,1.838-0.668,2.422c-0.584,0-3.338-1.001-4.09-1.252
				c-0.586-0.083-1.836-0.25-1.754-0.751c0-0.419,0.502-1.753,0.584-2.004l0.67-2.004V8.623c0.25-0.418,0.416-0.918,1.084-0.918
				h0.502l0.918,0.082c0.082-0.166,0.166-0.249,0.166-0.5V6.703c-0.668-0.167-1.418-0.251-2.086-0.502
				c-0.67-0.25-1.504-0.333-2.088-0.584c-0.584-0.167-1.418-0.501-2.004-0.668C107,4.866,105.5,4.364,105.332,4.282h-0.334
				c-0.082,0.333-0.25,0.418-0.25,0.584v0.418c0.668,0.083,1.754,0.834,1.754,1.586c0,1.085-0.668,2.253-0.836,3.172
				c-0.166,0.835-0.668,2.255-0.918,3.172c-0.332,0.918-0.668,2.087-0.918,3.089c-0.25,0.919-0.584,2.505-1.67,2.421l-1.418-0.083
				c-0.086,0.167-0.25,0.417-0.25,0.501v0.418c1.334,0.333,3.004,0.833,4.338,1.169C106.084,21.145,107.922,21.646,109.004,22.146z"
				/>
			<path fill="#626262" d="M121.779,26.32c-0.334,0-0.502,0.418-0.586,0.752c0.168,0.334,3.006,2.17,3.59,2.67
				c0.418,0.251,3.59,2.756,3.59,2.756c0.252,0,0.668-0.584,0.668-0.667c0-0.836-2.17-0.668-0.416-3.34
				c0.334-0.418,0.834-1.001,1.086-1.502c0.082-0.084,1.082-1.42,1.166-1.504c0.668-0.751,1.672-2.17,2.256-3.005
				c0.248-0.417,0.75-1.085,1.086-1.503c0.334-0.501,0.75-1.085,1.586-1.085h0.082c0.334,0,1.42,0.584,1.42,0.584
				c0.334,0,0.584-0.5,0.668-0.835c-1.002-0.5-7.182-5.259-7.182-5.259h-0.416c-0.082,0.333-0.25,0.418-0.25,0.584
				c0,0.418,1.084,0.836,1.084,2.004c0,0.584-1.334,2.255-1.752,2.671c-0.584,0.751-1.168,1.837-1.838,2.589
				c-0.666,0.668-1.252,1.837-1.918,2.504c-0.586,0.668-1.254,2.171-2.256,2.171C122.779,26.905,121.945,26.32,121.779,26.32z"/>
			<path fill="#626262" d="M79.537,7.872c0.667,1.251,0.502,1.001,0.752,2.754c0.166,0.918,0.416,1.919,0.585,2.921
				c0.083,0.585,0.083,1.169,0.166,1.587c0.083,0.584,0.251,1.002,0.251,1.503c0.082,1.002,0.417,1.92,0.417,3.173
				c0,1.085-1.167,1.502-2.003,1.669v0.418c0,0.25,0.083,0.334,0.166,0.501c1.67,0,4.174-0.919,5.677-0.919
				c1.001,0,4.924-0.668,5.677-0.918c3.173-1.17,5.842-3.006,5.842-7.347c0-2.254-1-4.926-2.252-5.927
				c-1.003-0.835-1.169-1.086-2.504-1.587c-0.501-0.25-2.671-0.834-3.507-0.667V4.949L77.45,6.703
				c-0.083,0.082-0.083,0.082-0.083,0.333s0.166,0.502,0.249,0.585L79.537,7.872z M84.547,7.621c0-1.085,2.002-1.336,3.088-1.336
				c0.752,0,1.003,0.251,1.67,0.251c0.249,0.417,1.002,0.667,1.419,1.502c0.419,0.585,0.669,1.252,0.918,2.004
				c0.418,1.335,0.835,3.256,0.835,5.009c0,1.002-0.417,1.753-0.417,2.504c-0.835,1.253-1.336,2.005-3.173,2.338
				c-2.755,0.5-2.421-0.167-2.837-2.421c-0.252-1.586-0.585-3.256-0.753-4.842c-0.082-0.835-0.334-1.504-0.417-2.338
				c-0.082-0.834-0.333-1.836-0.333-2.505V7.621z"/>
			<path fill="#626262" d="M137.807,57.876l-0.418,1.336c0.502-0.083,0.668-0.501,1.252-0.584c0.586-0.083,0.92-0.251,1.588-0.251
				h0.75l2.338,0.251c0.418-0.251,0.836-1.085,1.418-1.085h0.42l0.334-1.504h-0.334c-0.668,0-1.17,0.334-1.588,0.669
				c-0.25,0.167-0.166,0.334-0.584,0.585c-0.334,0.167-0.668,0.082-1.086,0.082c-0.5,0.168-1.502,0.168-2.086,0.168
				C139.143,57.543,138.391,57.876,137.807,57.876z"/>
			<path fill="#626262" d="M152.832,112.39c-0.918-0.083-1.922-1.754-1.922-2.755v-0.501c0-0.835,0.334-1.419,0.502-2.087
				c-1,0.25-1,0.501-1.502,1.168c0,0.335-0.416,2.589-0.498,2.924c-0.252,1.001-0.586,1.752-1.752,1.752h-0.336
				c-1.17,0-1.754-0.418-2.59-0.418c0.42,0.669,1.086,1.336,1.922,1.504c-0.086,0.834-2.588,0.75-3.506,0.834
				c0.25,0.334,1.752,0.584,2.42,0.584h0.168c1.922,0,2.672-0.417,4.092-0.834c0.916-0.335,2.836-2.003,3.002-2.003V112.39z"/>
			<rect x="107.67" y="91.771" fill="#626262" width="16.529" height="1.168"/>
			<path fill="#626262" d="M57.081,62.803c0,0.417,0.25,0.667,0.584,0.667c0.251,0,0.501-0.083,0.501-0.334
				c0-0.25-0.25-0.333-0.501-0.333H57.081z"/>
			<rect x="107.67" y="86.845" fill="#626262" width="8.264" height="1.084"/>
			<rect x="98.738" y="81.919" fill="#626262" width="5.342" height="1.085"/>
			<rect x="107.67" y="89.266" fill="#626262" width="8.264" height="1.169"/>
			<path fill="#626262" d="M57.248,61.633c-0.167,0-0.333,0.168-0.333,0.333v0.084c0,0.168,0.249,0.418,0.416,0.418h0.334
				c0.167,0,0.251-0.084,0.251-0.25v-0.084C57.916,61.884,57.414,61.633,57.248,61.633z"/>
			<path fill="#626262" d="M135.553,81.919c0.668,0.753,0.918,1.085,1.67,1.837c0.334,0.25,1.834,1.251,2.254,1.335
				c0-0.501-0.25-0.416-0.25-0.667V84.09c0-0.25,0-0.334,0.084-0.501c-0.084-0.083-0.838-0.751-0.92-0.917
				c-0.416-0.252-0.668-0.585-1.002-0.92c-0.584-0.667-1.168-1.335-1.67-2.087c-0.416-0.668-2.754-4.174-2.754-4.843v-0.416
				c0-0.251,0.334-0.419,0.334-0.835c0-0.25-0.166-0.501-0.25-0.835c0.166-0.084,0.166-0.167,0.332-0.167h0.336
				c0.75,0,0.502,0.333,1.252,0.333c-0.416-0.667-1.754-1.001-1.754-1.502v-0.25c0-0.167,0.334-0.752,0.586-0.752h0.418
				c0.75,0,1.752,0.502,2.084,0.918c-0.166,0.418-0.498,1.921-0.498,2.505c0,1.336,0.832,3.172,1.584,3.673s2.254,1.837,3.34,1.921
				c-0.084-0.752-0.5-0.501-0.584-0.919c0.67,0.501,1.252,1.587,1.92,2.17c0.332,0.334,1.754,2.006,2.17,2.006
				c0.166,0,0.252-0.084,0.252-0.252c0-1.836-2.59-3.757-2.59-4.508v-0.334c0-0.502,0.168-0.918,0.586-1.002l0.25,0.334
				c0.082-0.166,0.168-0.25,0.168-0.501v-0.751c0-0.836-1.836-2.087-1.922-3.006c1.336,0.919,2.422,1.67,4.676,1.67
				c-0.5-0.335-2.17-0.585-2.254-1.503c1.502,0,1.918,0.418,2.92,0.918c-0.082-1.085-1.082-1.502-1.5-2.17
				c1.918,0,2.84,1.085,4.088,1.754c0-1.42-1.166-1.671-1.166-2.421c0-0.168,0.166-0.335,0.248-0.335c0.502,0,0.502,0.5,0.752,0.669
				c0-1.837-0.584-1.504-0.752-2.255c0.918-0.084,1.254-0.834,1.588-1.586c0.082-0.501,0.166-0.752,0.332-1.253
				c0.168-0.417,0.584-0.668,0.668-1.001c0.834,0,1.252,0.084,1.252,1.085c0,0.501-0.836,0.251-0.836,1.002
				c0.502,0.083,0.752,1.586,0.752,2.171v0.584c-0.502-0.083-0.418-0.334-1.084-0.334h-0.334c-0.25,0-0.25,0-0.418,0.083
				l-0.08,0.501h0.248c1.002,0,1.166,0.25,1.752,0.585c0,0.918-0.252,1.336-0.168,2.505c0.084,1.001,0.252,1.501,0.752,2.087
				c-0.084-0.419-0.334-0.669-0.334-1.169v-0.084l0.084-1.169c0.418-0.585,0.668-2.922,0.668-4.007l0.082-2.588
				c0-2.588-1.586-4.174-3.084-5.176h-0.336c0.166,0.251,0.416,0.417,0.416,0.834v0.418c0,0.501-0.416,1.086-0.666,1.336
				c0-0.668-1.086-1.92-1.502-1.92h-0.25c0,0.668,0.082,1.169,0.666,1.336c-0.084,0.417-0.25,0.25-0.75,0.25l0.582,1.169
				c-0.082,0-0.498-0.334-0.498-0.334c-0.252,0-1.172,1.753-1.172,2.087l-0.666-0.167c-0.416,1.921-2.422,1.587-2.754,2.087
				l0.416,0.084l-0.92,1.085l0.086,0.083c0.25-0.166,0.918-0.584,1.336-0.584h1.586c0.916,0,1.92,0.835,1.92,1.753
				c-0.5-0.334-1.67-0.751-2.504-0.751h-0.334c-0.836,0-1.586,0.417-2.172,0.668l-0.334-1.92c0.25-0.418,0.752-0.334,0.752-0.669
				v-0.417c0-0.167-0.418-0.584-0.584-0.584h-0.252c-0.75,0-1.836,1.168-2.586,1.001v0.251h-1.004c-0.5,0-0.834-0.166-1-0.5
				c1-0.502,2.004,0.082,3.256-0.752c0-1.836-1.086-4.091-3.006-4.091c-0.668,0-0.752,0.835-1.502,0.835h-0.918
				c-0.254,0-0.918-0.668-1.336-0.668h-0.336l-0.166-0.333l0.334,0.166c0-0.25-0.084-0.334-0.084-0.417l0.168-0.586l0.668-0.667
				c0.666,0.418,2.17,0.251,3.172,0.251c-0.25-0.334-0.92-0.668-1.42-0.668h-0.918c-0.666,0-1,0.168-1.502,0.25l-0.252-0.082
				c0.336-1.254,3.508-0.168,3.508-1.671h-0.336v-0.501c0-0.417-0.248-0.501-0.248-0.751c0-0.418,0.248-0.584,0.416-0.834
				c-0.25-0.167-0.75-0.418-0.668-0.92l0.084-0.834c0.168-0.168,0.334-0.251,0.502-0.501c0.5-0.501,0.25-0.167,0.666-0.417
				c-0.416,0-1.502,0.083-1.502-0.251c0-1.336,0.75-1.753,2.17-1.753c-0.166-0.25-0.25-0.5-0.668-0.5h-0.918
				c-0.334,0-0.752,0.25-0.918,0.417c0.084-0.335,0.75-0.751,0.918-0.751h0.334c1.754,0,3.34,1.501,3.34,3.255v1.419
				c0,0.251-0.084,0.334-0.084,0.585c0.25-0.334,0.668-1.169,0.668-1.671v-0.583c0-1.754-1.586-3.506-3.422-3.506h-0.168
				c-0.416,0-1.168,0.167-1.42,0.334l0.086-18.7c-0.336,0.084-0.42,0.084-0.668,0.251c-0.42,0.166-0.502,0-0.836,0.166
				c-0.584,0.083-1.002,0.25-1.588,0.418c-1.084,0.25-2.252,0.417-3.338,0.585c-1.67,0.333-5.176,0.667-7.18,0.667h-2.672
				c-3.256,0-9.684-2.254-12.188-3.256c-1.836-0.752-3.674-1.503-5.428-2.338c-0.832-0.334-1.918-0.75-2.67-1.169
				c-0.168-0.167-2.588-1.335-2.588-1.335s-3.84,1.836-4.091,2.003c-0.5,0.251-1.586,0.751-2.17,0.919
				c-0.334,0.166-0.668,0.25-1.004,0.501c-0.499,0.25-0.664,0.25-1.167,0.416c-1.336,0.586-7.678,3.173-9.099,3.173
				c-0.586,0.419-4.425,1.086-5.509,1.086h-2.591c-2.503,0-4.925-0.334-7.177-0.667c-2.338-0.251-4.343-0.92-6.43-1.42v1.753
				L57.5,51.616c-0.169-0.084-0.921-0.334-1.254-0.334h-0.668c-1.42,0-3.088,1.919-3.088,3.339v0.584
				c0,0.584,0.416,1.67,0.668,1.837l-0.169-1.671c-0.166-1.752,1.671-3.588,3.34-3.588h0.336c0.332,0,0.835,0.416,1,0.667
				l-0.083,0.084L57.5,52.45l-0.086-0.083c0,0-0.166-0.084-0.25-0.084c-0.167-0.084-0.334-0.166-0.585-0.166h-0.751
				c-0.418,0-0.584,0.166-0.666,0.5c1.334,0,2.169,0.417,2.169,1.669c0,0.418-1.002,0.335-1.503,0.335
				c0.585,0.334,1.253,0.75,1.253,1.585v0.251c0,0.334-0.416,0.669-0.668,0.836c0.166,0.25,0.334,0.25,0.334,0.667v0.084
				c0,0.667-0.334,0.667-0.168,1.335h-0.417l0.084,0.502c0.751,0.166,0.669,0.333,1.836,0.417c0.669,0.084,1.419,0.25,1.67,0.667
				l-0.251,0.167c-0.5-0.082-0.918-0.25-1.419-0.25H57.5c-0.753,0-1.757,0.25-1.922,0.751c0.751-0.334,2.421,0.251,3.254-0.334
				c0.253,0.334,0.837,0.502,0.837,1.169c0,0.167-0.084,0.335-0.168,0.418l0.084,0.083l0.335-0.166l-0.168,0.333h-0.333
				c-0.418,0-1.169,0.668-1.42,0.668h-0.835c-0.751,0-0.835-0.835-1.503-0.835c-1.837,0-3.006,2.171-3.006,3.924
				c0,0.835,2.672,0.584,3.257,0.919c-0.169,0.249-0.585,0.5-1.001,0.5h-1.087l0.086-0.166l-0.086-0.085l-0.083,0.085h-0.25
				l-0.251-0.168c-0.334-0.25-0.251-0.166-0.585-0.334c-0.25-0.083-0.918-0.584-1.168-0.584h-0.418
				c-0.167,0-0.667,0.501-0.667,0.668v0.084c0,0.416,0.5,0.75,0.834,0.835l-0.334,2.003c-0.584-0.251-1.335-0.668-2.17-0.668h-0.417
				c-1.003,0-1.836,0.417-2.504,0.751c0.249-1.002,1.002-1.753,2.254-1.753h1.334c0.502,0,1.003,0.501,1.42,0.501l-0.835-1.002
				l-0.083,0.083v-0.166l0.417-0.168l-1.752-0.5c-0.334-0.501-0.918-0.584-1.003-1.503h-0.417v0.167h-0.251l-1.001-2.17
				l-0.753,0.417l0.585-1.169l-0.75-0.083c0.249-0.334,0.417-0.084,0.584-0.584c0.166-0.335,0.084-0.585,0.251-1.002
				c-0.835,0.165-1.838,1.085-1.838,2.003c-0.333-0.25-0.75-1.085-0.75-1.67c0-0.417,0.333-0.667,0.501-0.918h-0.336
				c-1.502,1.002-3.088,2.504-3.088,5.009l0.083,0.083v2.505c0,1.086,0.168,1.837,0.251,2.672c0.083,1.002,0.501,1.502,0.501,2.42
				c0,0.752-0.334,1.085-0.334,1.504l0.5-0.752c0-0.584,0.251-0.919,0.251-1.67v-0.834c0-0.502-0.166-0.836-0.251-1.252
				c0.753-0.502,0.836-0.669,2.087-0.669c0-0.25-0.082-0.584-0.416-0.584h-0.251c-0.667,0-0.918,0.334-1.169,0.334
				c-0.083,0-0.166-0.083-0.166-0.251c0-0.918,0.417-1.585,0.5-2.421l0.333-0.083c0-0.501-0.499-0.751-0.918-0.835
				c0-0.418,0.337-1.336,0.753-1.336c1.67,0,1.169,3.757,3.171,3.924c-0.166,0.751-0.75,0.168-0.75,2.255
				c0.165-0.251,0.334-0.669,0.75-0.669c0.085,0,0.25,0.167,0.25,0.251c0,0.918-1.169,1.002-1.169,2.421
				c0.334,0,1.169-0.668,1.42-0.836c0.334-0.249,1.087-0.5,1.505-0.751l1.167-0.083c-0.416,0.668-1.503,1.252-1.585,2.254
				c0.75-0.5,1.585-1.002,2.837-1.002c0.668,0-0.585,0.835-0.667,0.835c-0.251,0.167-1.087,0.501-1.17,0.668
				c1.002,0,1.754-0.167,2.505-0.501c0.419-0.25,0.501-0.333,0.918-0.584c0.251-0.084,0.835-0.501,1.003-0.585
				c-0.334,1.335-2.005,2.004-2.005,3.34c0,0.417,0.084,0.584,0.168,0.918c0.084,0,0.417-0.25,0.417-0.25
				c0.334,0,0.501,0.668,0.501,1.001v0.168c0,0.918-2.588,2.67-2.588,4.591v0.252c0.667,0,2.005-1.421,2.337-1.839
				c0.503-0.667,1.253-1.836,1.92-2.253l-0.584,0.751l0.085,0.084c2.002-0.501,4.841-2.671,4.841-5.176v-1.002
				c0-0.836-0.416-1.503-0.416-1.921c0-0.416,1.5-0.918,2.17-0.918h0.334c0.166,0,0.584,0.667,0.584,0.752v0.25
				c0,0.25-0.584,0.668-0.835,0.752c-0.502,0.249-0.668,0.334-0.918,0.75c0.667,0,0.582-0.333,1.419-0.333
				c0.251,0,0.334,0.083,0.5,0.167c-0.083,0.334-0.249,0.501-0.249,0.835c0,0.584,0.583,0.668,0.249,1.669
				c-0.166,0.251-0.584,0.835-0.75,1.336c-0.251,0.585-1.253,2.004-1.587,2.589c-0.668,0.918-1.167,1.501-1.838,2.337
				c-0.333,0.417-0.667,0.668-1.001,1.086c-0.166,0.166-1,0.918-1.083,1.001l0.083,0.668v0.083c0,0.084-0.252,0.667-0.334,0.751
				c0.499-0.084,1.919-1.001,2.253-1.335c0.667-0.584,1.169-1.168,1.753-1.837c0,1.085-0.083,4.174,0.082,5.093
				c0.085,0.334,0.169,2.004,0.169,2.42c0,0.836,0.25,1.587,0.25,2.422s0.666,3.674,1.002,4.258
				c0.251,0.668,0.417,1.252,0.752,1.836c0.249,0.501,0.667,1.336,0.918,1.754c0.417,1.085,3.505,5.51,4.258,6.178
				c0.833,0.834,1.753,1.836,2.587,2.671c0.418,0.418,1.003,0.751,1.419,1.168c0.501,0.418,1.087,0.752,1.503,1.169
				c0.165,0.167,1.254,1.001,1.503,1.085c0.418,0.251,1.001,0.836,1.419,1.17c1.086,0.667,2.088,1.502,3.171,2.087
				c0.336,0.166,1.254,0.751,1.588,1.002c0.416,0.416,1.084,0.751,1.586,1.084c1.086,0.668,2.253,1.253,3.256,2.004
				c2.088,1.336,4.508,2.589,6.677,3.841c2.256,1.336,4.51,2.422,6.847,3.672c0.334-0.334,1.17-0.667,1.67-0.918
				c0.334-0.167,0.584-0.25,0.834-0.418c0.25-0.083,0.584-0.332,0.836-0.499c1.168-0.586,2.254-1.169,3.422-1.837
				c1.004-0.669,2.254-1.335,3.34-1.921c1.17-0.667,2.17-1.253,3.34-1.92c1.084-0.668,2.17-1.336,3.172-2.004
				c0.334-0.249,1.336-0.751,1.586-1.001c0.334-0.25,1.252-0.919,1.586-1.085c1.168-0.668,2.086-1.42,3.174-2.087
				c0.75-0.501,2.42-1.67,3.004-2.255c0.25-0.334,1.002-0.835,1.418-1.169c0.502-0.417,0.922-0.667,1.42-1.168
				c0.418-0.419,0.836-0.918,1.334-1.253c0.254-0.167,0.92-1.002,1.338-1.336c0.584-0.5,3.924-5.426,4.258-6.26
				c0.168-0.501,0.668-1.169,0.918-1.671c0.25-0.584,0.502-1.251,0.752-1.837c0.502-1.168,0.666-2.837,0.918-4.34
				C135.469,89.016,135.553,85.258,135.553,81.919z M145.318,68.061v-0.083l0.752,0.083c0.084-0.083,0.836-0.917,1.004-1.001
				c0.166-0.167,0.5-1.002,0.586-1.336c0.248,0.083,0.33,0.167,0.33,0.501v0.417l0.502-0.25l0.082,0.668
				c0.084,0.584-0.584,1.502-0.914,1.753C146.906,68.396,146.488,68.061,145.318,68.061z M138.559,76.409
				c0.334-0.667,0.416-2.17,1.168-2.17l-0.166,1.169v0.667c0,0.669,0.166,1.086,0.334,1.671L138.559,76.409z M140.395,68.896
				l1.338-0.918c0,1.252-1.17,2.254-1.672,3.257c-0.25,0.667-1.502,2.921-1.588,3.422c-0.166-0.167-0.25-0.417-0.25-0.752
				c0-1.752,2.256-3.339,2.256-4.341v-0.334C140.479,68.979,140.479,68.979,140.395,68.896z M135.637,64.805
				c0.168,0.084,0.918,0.502,1.086,0.502c0.416,0-0.252-0.752-0.334-0.918c0.166-0.167,0.416-0.585,0.666-0.585h0.92
				c0.498,0,1.336,1.252,1.336,1.754v0.082c0,0.585-0.502,1.17-1.088,1.17h-0.166c-0.668,0-0.75-0.919-1.42-1.003
				c0.168,0.251,0.086,0.835-0.416,0.585v0.584c0.334,0.168,0.752,0.418,0.752,1.002c0,0.25-0.084,0.083-0.084,0.418
				c0.334,0.417,1.086,0.752,1.836,0.752h0.332c0.254,0,0.254,0,0.42-0.085c0,0.752-1.502,3.09-1.92,3.173
				c0,0.667-0.502,0.667-0.502,1.502v0.335c0,1.001,1.002,1.419,1.002,2.003c-0.584-0.333-1.252-1.168-1.252-2.088
				c0-0.917,0.502-1.251,0.502-1.752v-0.334c0-1.085-0.918-1.753-1.67-2.171V64.805z M45.561,68.813
				c-0.419-0.251-0.92-1.001-0.92-1.669v-0.168c0-0.25,0.085-0.334,0.085-0.584l0.5,0.25v-0.417c0-0.334,0.085-0.418,0.25-0.501
				c0.169,0.083,0.585,1.503,1.671,2.254h0.667v0.083C46.896,68.061,46.144,68.479,45.561,68.813z M54.576,76.409l-1.336,1.42
				c0.168-0.585,0.501-1.336,0.419-2.087l-0.168-1.503c0.75,0.083,0.835,1.586,1.169,2.254L54.576,76.409z M54.911,74.239
				c0,0.25,0,0.25-0.084,0.417c-0.418-0.25-1.336-2.671-1.669-3.34c-0.503-0.918-1.671-2.169-1.671-3.339l1.336,0.835
				c-0.082,0.167-0.082,0.167-0.082,0.417v0.334c0,1.086,2.17,2.589,2.17,3.925V74.239z M57.582,69.73
				c-0.752,0.418-1.754,1.17-1.754,2.171c0,0.668,0.585,1.336,0.585,1.92c0,1.001-0.585,1.837-1.251,2.171
				c0.082-0.501,1-1.003,1-2.088c0-1.669-2.421-3.339-2.421-4.757h0.751c0.67,0,1.587-0.252,1.754-0.752
				c0.083-0.25-0.167-0.584,0.25-1.002c0.334-0.418,0.501-0.25,0.501-1.002l-0.332,0.084l-0.169-0.168l0.083-0.501
				c-0.585,0.084-0.918,1.003-1.335,1.003h-0.167c-0.668,0-1.167-0.502-1.167-1.17v-0.25c0-0.417,0.835-1.586,1.417-1.586h0.752
				c0.167,0,0.668,0.501,0.668,0.669c0,0.166-0.753,0.834-0.251,0.834c0.169,0,0.918-0.418,1.086-0.502V69.73z M95.566,123.325
				c-0.584-0.166-2.423-1.335-3.256-1.669c-0.918-0.501-2.172-1.336-3.09-1.837c-1.085-0.584-2.087-1.084-3.089-1.837
				c-0.334-0.167-1.334-0.751-1.67-0.834c-0.083-0.083-1.418-0.918-1.503-1.002c-0.918-0.585-2.085-1.336-3.005-1.921
				c-0.75-0.333-2.504-1.502-3.003-2.003c-0.169-0.083-1.337-0.918-1.506-0.918c-0.25-0.166-1.169-0.919-1.417-1.085
				c-0.92-0.751-1.921-1.503-2.84-2.171c-0.333-0.25-2.421-2.004-2.586-2.338c-0.251-0.25-1.171-1.001-1.338-1.169
				c-0.167-0.417-0.834-1.001-1.085-1.419c-0.751-0.918-1.335-1.92-2.002-2.921c-0.753-0.919-1.253-2.172-1.837-3.174
				c-2.172-3.588-2.087-11.853-2.087-17.78v-2.672c0-0.418,0.584-2.421,0.75-3.005h34.563V123.325z M95.566,71.484H60.838
				c0-0.752-0.084-1.67-0.669-1.837v-7.18c0.669-0.167,0.585-0.835,0.918-1.085v9.099h0.835l0.083-5.677h3.256l0.086,5.677h0.918
				h28.55V48.944H74.445v3.005H70.77c0,0.25,0,0.418,0.251,0.418h3.425v4.257h-0.169V52.45h-3.256v1.92l-2.418-1.586l-0.502-0.083
				c0,0-3.339,2.087-3.59,2.337c-0.501,0.333-3.507,2.004-3.507,2.337v1.253h13.441v0.167H61.004v0.584h13.441v0.167H61.004v0.501
				h13.441v0.251H61.087v0.918l-0.918-0.584l-0.166-24.377c3.339,0.751,8.182,1.419,12.188,1.419h0.335
				c3.172,0,6.262-0.919,8.848-1.586c1.421-0.418,2.59-0.918,3.924-1.336c0.918-0.334,3.006-1.085,3.673-1.502h0.335l6.262-2.922
				V71.484z M72.525,65.891v2.505h-1.67v-2.505H72.525z M70.855,65.724v-2.588h1.67v2.588H70.855z M74.445,65.891v2.588h-1.754
				v-2.588H74.445z M72.691,65.724v-2.588h1.754v2.588H72.691z M82.625,60.13v6.763h-4.591V60.13H82.625z M78.034,59.712v-6.761
				h4.591v6.761H78.034z M87.552,60.13v6.763h-4.593V60.13H87.552z M82.959,59.712v-6.761h4.593v6.761H82.959z M97.652,30.328
				c1.586,0.835,3.424,1.67,5.174,2.337c0.836,0.417,1.756,0.835,2.59,1.169s1.836,0.584,2.674,1.001
				c2.252,1.002,8.932,2.839,12.018,2.839h0.668c2.172,0,4.594-0.166,6.514-0.417c0.916-0.167,2.17-0.251,3.088-0.418
				c0.584-0.167,2.336-0.5,2.838-0.584l-0.166,24.21l-0.92,0.834c0.086,0.334,0.42,1.085,0.836,1.169v7.18
				c-0.416,0.083-0.584,1.002-0.584,1.587v0.25H97.652V30.328z M132.965,79.916c0,1.67-0.084,3.172-0.084,4.759
				c0,1.335,0,3.505-0.168,4.757c-0.248,1.42-0.248,2.923-0.666,4.258c-0.418,1.42-0.668,2.338-1.336,3.59
				c-0.416,0.918-1.252,2.338-1.836,3.089c-0.168,0.335-0.836,1.169-1.002,1.419c-0.168,0.418-0.168,0.418-0.5,0.752
				c-0.168,0.334-0.252,0.501-0.502,0.752c-1.42,1.752-3.256,3.422-5.01,4.84c-0.918,0.753-1.754,1.42-2.754,2.172
				c-0.334,0.167-1.252,0.918-1.42,1.002c-0.25,0.083-1.252,0.835-1.504,1.002c-0.166,0.166-1.166,0.835-1.418,1.002
				c-0.5,0.25-1.084,0.668-1.502,1.001c-1.002,0.585-2.254,1.169-3.09,1.837c-0.168,0.167-1.334,0.919-1.418,1.002
				c-0.502,0.166-0.502,0.166-0.834,0.417c-0.334,0.25-0.502,0.25-0.836,0.417c-0.502,0.418-2.422,1.504-3.09,1.837
				c-0.834,0.334-2.336,1.503-3.088,1.837c-0.918,0.334-2.506,1.419-3.256,1.669V73.571h34.563l0.166,1.085
				c0.084,0.166,0.584,1.502,0.584,1.753V79.916z"/>
			<path fill="#626262" d="M127.455,77.411h-3.174h-6.26h-12.438h-6.846v2.004h6.762v38.484c0.252-0.084,0.584-0.084,0.584-0.417
				V79.415h21.789v20.286c0.5-0.335,2.504-4.425,2.504-5.427V77.661C130.377,77.244,127.955,77.411,127.455,77.411z"/>
			<rect x="116.604" y="81.919" fill="#626262" width="7.596" height="8.516"/>
			<rect x="107.67" y="81.919" fill="#626262" width="8.264" height="1.169"/>
			<path fill="#626262" d="M107.67,112.558h6.428c0.168,0,1.42-0.92,1.588-1.086h-8.016V112.558z"/>
			<path fill="#626262" d="M107.67,110.136h9.852c0.25,0,1.336-0.919,1.586-1.085H107.67V110.136z"/>
			<rect x="107.67" y="94.274" fill="#626262" width="16.529" height="1.085"/>
			<path fill="#626262" d="M107.67,107.715h13.023c0.25,0,1.336-1.002,1.502-1.169H107.67V107.715z"/>
			<path fill="#626262" d="M107.67,115.145h2.422c0.166,0,1.836-1.086,1.918-1.252h-4.34V115.145z"/>
			<rect x="107.67" y="99.116" fill="#626262" width="16.529" height="1.169"/>
			<rect x="107.67" y="96.695" fill="#626262" width="16.529" height="1.086"/>
			<rect x="107.67" y="101.62" fill="#626262" width="16.529" height="1.168"/>
			<path fill="#626262" d="M107.67,105.211h15.945c0.416,0,0.084-0.252,0.584-0.419v-0.667H107.67V105.211z"/>
			<rect x="107.67" y="84.34" fill="#626262" width="8.264" height="1.169"/>
			<path fill="#626262" d="M161.098,121.406c-0.168,0,0,0-0.168,0.083c0.168,0.667,1.002,0.667,1.002,1.586v0.084
				c0,0.25-0.5,0.5-0.752,0.5h-1.084c-0.586,0-1.002-0.167-1.336-0.417l0.918-0.251l0.084-0.917c0.164-1.169-2.088-3.09-2.756-3.841
				l0.084,0.668c0.082,0.167,0.416,0.835,0.416,1.084v0.335c0,0.251-0.248,0.751-0.5,0.751h-0.418c-1.42,0-1.918-1.168-2.586-1.669
				c0,1.585,0.332,1.753,1,2.672c0.334,0.416,1.672,1.168,2.504,1.168c0.502,1.002,2.338,2.253,3.758,2.253h0.5
				c0.834,0,1.922-0.499,1.922-1.334C163.686,122.991,161.932,121.406,161.098,121.406z"/>
			<path fill="#626262" d="M168.609,122.825c0.168-0.084,0.252-0.251,0.586-0.251c0.166,0,0.332,0.167,0.332,0.251
				c0,1.169-1.336,1.169-1.418,2.087c1-0.251,3.504-1.42,3.504-2.589v-0.667c-0.33,0-0.164-0.084-0.5-0.084
				C169.945,121.572,168.861,121.907,168.609,122.825z"/>
			<path fill="#626262" d="M168.109,123.827c0-1.002-2.172-1.337-3.34-1.337h-0.584c-0.166,0-0.25,0.084-0.25,0.168
				c0.584,0.083,1.754,0.584,1.754,1.169v0.334c0,0.667-1.588,1.085-2.004,1.42c1.418,0,4.424-0.502,4.424-1.671V123.827z"/>
			<path fill="#626262" d="M156.756,116.396l-1.086,0.25c0.084-0.918,0.752-0.918,0.752-1.586v-0.584
				c-1.752,0.167-2.004,1.587-3.59,1.587c-0.25,0-0.334-0.084-0.584-0.084c-0.084,0.167-0.168,0.251-0.168,0.501v0.501
				c0,0.25,0.752,1.336,1.004,1.502C154.752,118.317,156.756,118.149,156.756,116.396z"/>
			<path fill="#626262" d="M155.002,114.561l1.42-1.419c0-0.669,0.252-0.584,0.252-1.17v-0.165c0-0.502-0.168-0.753-0.252-1.171
				c-0.836,0.251-2.504,3.341-4.592,3.423v0.167c0.418,0.084,1.002,0.585,1.586,0.585
				C154.168,114.811,154.334,114.561,155.002,114.561z"/>
			<path fill="#626262" d="M176.791,113.057h-0.084c-0.668,0-1.252,0.418-1.252,1.086v0.835c0.584-0.083,0.418-0.334,0.584-0.668
				c0.252-0.333,0.584-0.084,1.17-0.084l-0.084,1.003c0.584-0.168,0.252-0.251,0.5-0.585v-0.501
				C177.377,113.809,177.291,113.057,176.791,113.057z"/>
			<path fill="#626262" d="M59.085,62.468c0-0.25-0.168-0.25-0.334-0.334l-0.585,0.084v0.501c0.167,0.084,0.167,0.084,0.417,0.084
				h0.502V62.468z"/>
			<path fill="#626262" d="M172.115,119.903c-0.416,0.25-1.334,0.751-1.42,1.335c0.588,0,0.588-0.167,1.086-0.167h0.252v0.919
				c0,0.584-0.252,0.5-0.252,1.169c0.418-0.25,1.336-1.169,1.336-1.753v-0.67c0-0.333-0.25-0.583-0.334-0.917L172.115,119.903z"/>
			<path fill="#626262" d="M47.313,115.395c0.835,0,2.338-0.166,2.757-0.584c-1.086,0-3.174-0.084-3.59-0.668
				c0.165-0.25,0.667-0.334,1.084-0.668c0.333-0.418,0.584-0.501,0.835-1.002c-0.585,0.168-1.754,0.418-2.338,0.418h-0.585
				c-0.835,0-1.251-0.584-1.585-1.084c0-0.335-0.417-2.506-0.502-2.923c-0.251-1.002-0.499-1.754-1.668-1.837
				c0.166,0.25,0.499,1.168,0.499,1.587v0.917c0,1.169-0.833,2.756-1.836,2.839v0.168c0.085,0,1.086,0.917,1.255,1.084
				c0.248,0.167,1.251,0.751,1.585,0.835c0.835,0.418,2.671,0.918,3.84,0.918H47.313z"/>
			<path fill="#626262" d="M176.373,115.229h-0.668c-0.25,0-0.668,0.417-0.834,0.584c-0.084,0.084-0.5,0.918-0.5,0.918
				c0,0.251,0.166,0.251,0.334,0.335c0.166-0.335,0.332-0.669,0.832-0.669h0.086c0.25,0,0.5,0.084,0.5,0.334v0.501
				c0,0.334-0.332,0.835-0.332,1.169v0.083c0,0.252,0,0.252,0.082,0.418c0.334-0.501,1.168-1.67,1.168-2.505
				C177.041,115.979,176.707,115.229,176.373,115.229z"/>
			<path fill="#626262" d="M134.969,122.741c0.168,0,0.584,0.668,0.668,0.835h1.67c0.334,0,0.584-0.167,0.584-0.501
				c-0.25,0-0.334,0.084-0.584,0.084h-0.334c-0.502,0-1.002-0.418-1.002-0.919c0-0.5,1.418,0.168,1.418-0.416
				c0-0.502-0.834-0.168-0.834-0.502c0-0.335,1.168-0.751,1.586-0.751v-0.168c-0.25-0.083-0.25-0.166-0.584-0.166h-0.502
				c-0.166,0-0.166,0.083-0.332,0.166l-1.004,0.084c0.168-0.668,0.918-0.751,1.67-0.751l0.168-0.334l-0.584-0.334l1.334-0.585
				c-0.166-0.25-0.666-0.75-1.168-0.75h-0.166c-1.254,0-1.922,1.585-2.42,2.504c0.75,0,0.33,0.499,0.916,0.668l-0.834,1.92
				C134.883,122.741,134.801,122.741,134.969,122.741z M136.973,118.066c0.25,0,0.416,0.167,0.5,0.334l-1.418,0.167
				C136.137,118.233,136.555,118.066,136.973,118.066z"/>
			<path fill="#626262" d="M145.07,115.813h-1.252c0.5,2.254,3.924,1.587,5.008,3.256l0.313,0.233
				c0.059-0.077,0.105-0.109,0.105-0.233v-0.585C149.244,117.231,146.488,115.813,145.07,115.813z"/>
			<path fill="#626262" d="M134.553,62.134h-0.086c-0.334,0-0.416,0.334-0.416,0.669h0.666c0.252,0,0.334-0.251,0.334-0.419
				C135.051,62.218,134.717,62.134,134.553,62.134z"/>
			<path fill="#626262" d="M135.385,63.47c0.502,0,0.752-0.167,0.752-0.667h-0.584c-0.25,0-0.502,0.083-0.502,0.333
				C135.051,63.303,135.303,63.47,135.385,63.47z"/>
			<path fill="#626262" d="M136.221,61.884c0-0.167-0.084-0.251-0.25-0.251h-0.166c-0.168,0-0.502,0.333-0.502,0.501v0.084
				c0,0.166,0.082,0.25,0.25,0.25h0.334c0.168,0,0.334-0.167,0.334-0.334V61.884z"/>
			<path fill="#626262" d="M148.826,119.068l-1.334-0.501v0.083c0.25,0.501,0.582,0.668,0.582,1.253v0.334
				c0,0.334-0.332,0.166-0.582,0.668c-1.588,0-3.258,0.501-4.342,1.085c-0.336,0.25-1.418,0.919-1.586,1.169
				c-0.334,0.333-1.002,1.251-1.42,1.336c-0.166-0.668-0.25-0.919-1.088-0.919c0.086,0.251,0.17,0.502,0.17,0.834v0.085
				c0,0.333-0.502,0.584-0.92,0.584h-0.416l-1.92-0.167c-0.166,0-0.668,0.084-0.668,0.251c0,0.249,0.166,0.332,0.416,0.418v0.417
				c0.502,0,0.752,0.249,1.42,0.249h0.836c1.502,0,2.17-0.835,3.004-1.335c0.252-0.084,2.422-1.837,2.506-1.921
				c0.334,0,1.25-0.333,1.5-0.501c0.504-0.167,1.086-0.25,1.586-0.416c0.754-0.167,2.674-0.752,2.674-1.42v-0.751
				c0-0.251-0.084-0.334-0.166-0.501c0.016-0.035,0.033-0.061,0.051-0.084h-0.051L148.826,119.068z"/>
			<path fill="#626262" d="M135.637,124.745c0.584,0,1-0.335,1.92-0.335c-0.168-0.249-0.502-0.667-0.834-0.667h-0.502
				c-0.584,0-1.252,0.335-1.252,0.918c0.25,0,0.334,0.084,0.584,0.084H135.637z"/>
			<polygon fill="#626262" points="149.16,119.318 149.139,119.302 149.129,119.318 			"/>
			<path fill="#626262" d="M174.953,117.482l-0.248,0.083l-0.252-0.166c-0.416,0.5-1.918,0.834-2.004,2.17
				c0.418,0,0.834-0.418,1.252-0.418c0.336,0,0.336,0.335,0.336,0.668c0,1.003-0.502,1.168-0.67,1.837
				c0.586-0.418,2.004-1.587,2.004-2.505v-0.334l-0.082-0.918L174.953,117.482z"/>
			<path fill="#626262" d="M87.718,35.003c-1.001,0.584-1.836,1.336-2.838,1.836v-0.918l-1.502,0.585
				c-0.584,0-3.089,0.918-3.924,1.085c-1.169,0.334-1.336-0.167-1.336,1.169v2.587l-6.345,4.259h23.041v-9.434
				c0-0.251-3.59-2.421-4.007-2.672c-0.501,0.334-1.004,0.417-1.587,0.668C88.553,34.501,88.303,34.669,87.718,35.003z"/>
			<path fill="#626262" d="M107.336,131.507h-0.25c-2.088,0-3.674,3.173-3.674,5.426c0,1.671,0.918,3.34,2.504,3.34
				c1.92,0,3.674-3.089,3.674-5.176v-0.417c0-0.919-0.334-1.504-0.668-2.088C108.756,132.258,107.836,131.507,107.336,131.507z
				 M107.922,135.013c0,1.502-0.752,4.675-2.006,4.675h-0.082c-0.502,0-0.836-1.67-0.836-2.253v-0.669
				c0-1.502,0.836-4.675,2.088-4.675c0.75,0,0.836,1.837,0.836,2.589V135.013z"/>
			<path fill="#626262" d="M118.021,128.418v-0.334c0-0.584,1.336-0.166,1.838-0.166c0.248,0,0.582-0.251,0.582-0.503
				c0-0.416-0.416-1.001-0.918-1.001c-0.916,0-1.002,0.417-1.502,0.501c-0.084,0.5-0.668,0.669-0.668,1.503v1.085
				c0,0.751,0.836,1.587,1.336,1.919c0.336,0.168,0.668,0.503,1.002,0.669c0.502,0.25,0.334,0.418,0.918,0.752
				c0,0.5,0.166,0.5,0.166,0.918v0.084c0,0.333-0.334,0.583-0.75,0.583c-0.582,0-0.75-0.25-1.168-0.334
				c-0.418,0-0.836,0.419-0.836,0.752c0,0.418,0.5,0.752,0.92,0.752h0.25c1.418,0,2.418-1.335,2.418-2.755
				C121.609,130.338,118.021,129.252,118.021,128.418z"/>
			<path fill="#626262" d="M102.66,149.036h-1.084c-0.668,0-1.586-1.334-1.586-1.918v-0.752c0-1.169,0.918-2.337,2.086-2.337
				c0.75,0,1.586,0.584,1.672,1.252h0.166l-0.166-1.42l-0.922-0.082h-1.5c-0.75,0-2.172,1.418-2.172,2.337v1.169
				c0,0.417,0.584,1.085,0.836,1.335c0.502,0.584,0.918,0.416,1.336,0.751h1.252c0.918-0.584,1.502,0.585,1.668-1.669
				C103.748,147.785,103.58,149.036,102.66,149.036z"/>
			<path fill="#626262" d="M62.005,85.927c0,0.166,0.085,0.416,0.336,0.416h11.186v0.168H63.009v7.513
				c0,0.752,0.75,2.004,1.001,2.672c0.168,0.501,1.251,1.92,1.337,2.337h8.18v0.251h-8.015l0.502,0.75h7.431v0.169H66.18
				c0.167,0.333,1.419,2.253,1.753,2.253h1.337v1.587c0,0.25,0.668,0.835,0.919,0.917v-2.504h2.421v3.673h-1.087
				c0.083,0.167,0.083,0.251,0.336,0.251h0.751v0.585c0,0.25,0,0.166,0.164,0.25v-0.835h0.671v1.253
				c0,0.167,2.754,2.253,2.922,2.253h13.02v-3.506h1.004v3.59h-1.752v0.167H76.782c0.169,0.25,1.084,0.918,1.42,0.918h10.436v0.251
				H78.451c0.168,0.251,3.59,2.504,3.924,2.504h2.757v1.67c0,0.25,0.083,0.167,0.25,0.25v-1.92h2.921v3.591
				c0,0.249,0.835,0.583,1.083,0.75v-2.17h1.004v2.588c0,0.25,0,0.168,0.167,0.25v-2.838h2.505v3.673H92.06
				c0.166,0.084,0.251,0.167,0.585,0.167h0.417v0.25c0,0.251,0.584,0.502,0.835,0.585v-0.835h1.086v-0.167h-1.086v-3.673h1.086
				v-2.087h-5.597v-0.168h5.597v-0.751h-5.597v-0.25h5.597v-2.755h-1.086v-3.59h1.086v-0.251h-1.086v-3.673h1.086v-2.253h-5.597
				v-0.169h5.597v-0.75h-5.597v-0.251h5.597v-2.505h-1.086v-3.672h1.086v-0.25h-1.086v-3.59h1.086v-2.505h-5.597v-0.168h5.597
				v-1.419h-5.597v-6.845H73.526v6.845H61.922v0.752h0.168C62.09,85.759,62.005,85.927,62.005,85.927z M73.444,106.045h-0.585v-3.59
				h0.585V106.045z M90.557,102.457h2.421v3.588h-2.421V102.457z M90.557,106.379h2.505v3.59h-2.505V106.379z M66.681,96.527h-2.503
				v-3.672h2.503V96.527z M66.681,92.605h-2.503v-3.59h2.503V92.605z M69.27,96.445h-2.421v-3.59h2.421V96.445z M69.27,92.605
				h-2.506v-3.59h2.506V92.605z M72.609,93.44c0,0.416-0.335,0.082-0.335,0.667c0,0.334,0.335,0.25,0.335,0.583v1.755h-2.421v-3.59
				h2.421V93.44z M72.609,92.605h-2.504v-3.59h2.504V92.605z M72.773,89.016h0.753v3.59h-0.753V89.016z M77.866,106.63h-2.754
				c-0.166,0-0.25-0.084-0.25-0.251v-4.174h3.004V106.63z M77.866,101.871h-2.92v-4.34h2.92V101.871z M81.04,106.546h-2.922v-4.341
				h2.922V106.546z M81.04,101.871h-2.922v-4.34h2.922V101.871z M85.132,106.63h-3.008v-4.425h3.008V106.63z M85.132,101.871h-3.008
				v-4.34h3.008V101.871z M88.303,106.546h-2.921v-4.341h2.921V106.546z M88.303,101.871h-2.921v-4.34h2.921V101.871z
				 M90.307,102.457v3.588h-0.921v-3.588H90.307z M90.307,96.445h-0.921V94.69H73.526l-0.082,1.755h-0.419h-0.166v-1.921h17.447
				V96.445z M90.557,89.016h2.505v3.59h-2.505V89.016z M90.557,95.025v-1.921v-0.249h2.421v3.59h-2.421V95.025z M89.386,89.016
				h1.004v3.59h-1.004V89.016z M85.382,81.168h2.921v4.424h-2.921V81.168z M85.382,85.927h2.921v4.341h-2.921V85.927z
				 M82.124,81.168h3.008v4.424h-3.008V81.168z M82.124,85.843h3.008v4.425h-3.008V85.843z M78.118,81.168h3.005v4.424h-3.005
				V81.168z M78.118,85.927h2.922v4.341h-2.922V85.927z M74.862,81.168h3.004v4.424h-3.004V81.168z M77.866,85.927v4.341h-2.92
				v-4.341H77.866z M89.386,93.356v-0.501h0.921v0.751H72.859v-0.751h0.667v0.501H89.386z"/>
			<path fill="#626262" d="M70.521,46.272v0.501c0,0.334,0.417,0.418,0.751,0.418h23.542v-1.086H70.938
				C70.688,46.105,70.855,46.189,70.521,46.272z"/>
			<path fill="#626262" d="M72.107,77.161h0.25c-0.083,0.25-0.083,0.167-0.083,0.333c0,0.252,0.167,0.501,0.417,0.501h17.364
				c0.334,0,0.416-0.166,0.585-0.249l-0.084-0.585h0.586c0.082-0.168,0.25-0.251,0.25-0.417v-0.168c0-0.167-0.168-0.334-0.336-0.334
				H71.858c-0.253,0-0.336,0.251-0.336,0.418C71.522,76.993,71.773,77.161,72.107,77.161z"/>
			<path fill="#626262" d="M72.023,47.942c0,0.418,0.251,0.668,0.668,0.668h22.123v-1.086H72.441
				C72.274,47.524,72.023,47.775,72.023,47.942z"/>
			<path fill="#626262" d="M99.906,139.271c0.75-0.835,1.336-2.087,1.336-3.673c0-1.17-0.75-2.838-1.838-2.838H98.57
				c-0.834,0-2.336,1.418-2.672,1.92c-0.499,0.833-1.252,2.003-1.252,3.422v0.417c0,1.253,1.003,2.673,2.256,2.673
				C98.236,141.191,99.322,140.021,99.906,139.271z M96.148,139.604v-0.334c0-1.169,0.336-2.588,0.754-3.339
				c0.164-0.419,0.416-1.086,0.666-1.337c0.084-0.082,0.92-1.168,0.92-1.168h0.834c0.334,0,0.416,0.501,0.416,0.836v0.499
				c0,0.836-0.25,2.171-0.584,2.673v0.417c-0.5,0.667-1.168,2.671-2.17,2.671H96.65C96.316,140.522,96.148,139.938,96.148,139.604z"
				/>
			<path fill="#626262" d="M115.268,134.513c-0.166,0.584-0.502,2.002-1.17,2.002c0-2.002-0.166-4.424-0.166-6.427
				c0-0.836,0.166-6.345-0.25-6.345c-0.252,0-1.754,1.92-2.506,2.086c0,0.585,0.336,0.418,1.002,0.418
				c0.416,0.919,0.17,4.425,0.252,5.927c0,0.92,0.082,1.92,0.082,3.006c0,0.501-0.082,1.001,0,1.503
				c0.082,0.417,0.334,1.002,0.334,1.252c0.334,0.083,0.418,0.25,0.584,0.25h0.084c1.086,0,2.172-2.422,2.172-3.505
				C115.686,134.513,115.434,134.513,115.268,134.513z"/>
			<path fill="#626262" d="M58.666,120.237c-0.5-0.751-1.166-2.504-2.337-2.504c-0.668,0-1.167,0.333-1.418,0.75l1.335,0.668
				c-0.418,0-0.585,0.084-0.585,0.501c0.752,0.167,1.753,0.084,1.753,0.835c-0.499,0-1.168-0.25-1.42-0.25h-0.499
				c-0.251,0-0.085,0.083-0.418,0.166v0.168c0.333,0,1.588,0.416,1.588,0.667c0,0.502-0.837,0.084-0.837,0.586
				c0,0.416,0.751,0.166,1.169,0.25c0.503,0.082,0,0.584-0.082,0.917c-0.419,0-0.336,0.168-0.669,0.168h-0.503
				c-0.248,0-0.248,0-0.416-0.084c0,0.25,0.168,0.501,0.416,0.501h1.839c0.083-0.251,0.417-0.835,0.668-0.835
				c0.25,0,0.083,0.084,0.416,0.168l-1.001-2.004C58.333,120.736,57.916,120.237,58.666,120.237z M57.164,118.567l-1.421-0.167
				c0.085-0.167,0.251-0.334,0.503-0.334c0.501,0,0.501,0.334,0.918,0.334V118.567z"/>
			<path fill="#626262" d="M96.484,148.954H95.23c-0.082-0.167-0.082-0.167-0.082-0.417v-3.841c0-0.501,0.251-0.585,0.75-0.585
				v-0.25h-2.503v0.25h0.332c0.169,0,0.586,0.251,0.586,0.502v3.757c0,0.334-0.251,0.666-0.502,0.666h-0.416v0.168h4.341
				l0.166-1.502C97.484,147.868,97.318,148.954,96.484,148.954z"/>
			<path fill="#626262" d="M57.164,123.743h-0.499c-0.503,0-0.837,0.335-1.004,0.667c0.585,0,1.67,0.335,1.839,0.335l0.666-0.084
				v-0.251C58.166,124.078,57.5,123.743,57.164,123.743z"/>
			<path fill="#626262" d="M57.5,124.912l-2.338,0.167h-0.251c-0.502,0-0.918-0.167-0.918-0.669v-0.083l0.082-0.751
				c-0.917,0-0.667,0.334-1.086,0.919c-0.417-0.251-1.001-1.003-1.334-1.336c-0.251-0.25-1.169-0.836-1.586-1.085
				c-0.918-0.668-2.672-1.169-4.258-1.169c-0.167-0.083-0.752-0.585-0.752-0.752v-0.25c0-0.668,0.585-0.585,0.585-1.253
				c-0.753,0-1.086,0.418-1.503,0.668c0.417-1.67,4.759-1.252,5.258-3.506h-1.084c-1.671,0-4.425,1.336-4.425,2.923v0.082
				c0,0.334,0.168,0.418,0.251,0.585c-0.083,0.167-0.251,0.25-0.251,0.583v0.418c0,1.086,1.754,1.337,2.589,1.671
				c1.252,0.416,2.087,0.416,3.256,1.001c1.418,0.835,3.423,3.172,5.342,3.172h1.085c0.585,0,0.835-0.249,1.338-0.249v-0.417
				c0.165-0.086,0.332-0.086,0.332-0.335C57.832,124.996,57.582,124.912,57.5,124.912z"/>
			<path fill="#626262" d="M79.12,125.495v0.168c0,1.086-0.333,1.252-0.419,1.921l0.419,0.083l1.501-2.504
				c-0.417-0.084-1.334-1.002-1.669-1.336c-0.418-0.335-1.502-0.836-2.255-0.836h-0.75c-1.42,0-2.17,1.17-2.755,2.005
				c0,0.585-0.167,0.416-0.167,0.833v0.169c0,1.753,1.003,3.589,0.835,4.924l-0.083,1.003c-0.501,0.751-1.004,1.668-2.172,1.668
				c-1.25,0-2.838-1.168-2.838-2.337v-0.5c0-0.668,0.502-1.336,0.502-1.92h-0.584l0.082,0.083l-1.67,2.503
				c1.003,0.252,2.338,2.924,4.844,2.924h0.75c0.92,0,1.503-0.501,2.004-0.919c0.334-0.251,1.085-1.336,1.085-1.92v-1.671
				c0-0.834-0.668-2.085-0.668-3.005v-0.918c0-0.834,1.086-2.254,1.839-2.254C77.866,123.659,79.12,124.578,79.12,125.495z"/>
			<path fill="#626262" d="M83.295,130.756h-0.92c-0.919,0-2.921,1.169-3.339,1.669c-0.502,0.583-2.003,2.003-2.003,3.006v0.918
				c0,0.417,0.5,1.086,0.751,1.252c0.584,0.417,0.917,0.251,1.67,0.251c0.417-0.251,2.087-0.834,2.087-1.337v-0.248
				c-0.501,0.082-1,0.583-1.836,0.583h-0.251c-0.418,0-0.753-0.251-0.753-0.669v-0.249c0-0.586,0.586-1.586,0.836-2.004
				c0.585-0.834,0.667-0.834,1.253-1.587c2.337-2.588,2.004,0.502,3.255,0.502C85.382,132.843,84.296,130.756,83.295,130.756z"/>
			<path fill="#626262" d="M90.307,132.76c-1.002,0.334-1.754,1.503-2.421,1.92c0.333-1.337,3.421-6.345,3.421-7.18
				c0-0.085-0.082-0.168-0.25-0.168c0,0-1.253,0.335-1.417,0.419c-0.502,0.082-1.087,0.167-1.586,0.249
				c0,0.753,0.75,0.335,0.75,0.919v0.167c0,0.25-4.508,9.266-5.01,10.185c0.169,0.251,0.417,0.417,0.753,0.417
				c1.001,0,0.918-1.001,1.418-1.67c0.501-0.583,0.752-1.252,1.254-1.837c0.667-0.668,2.253-2.588,3.505-2.588
				c0.333,0,0.583,0.335,0.583,0.67v0.083c0,1.335-1.585,5.093-2.585,5.093c-0.335,0-0.419-0.752-1.004-0.752h-0.25
				c-0.334,0-0.668,0.249-0.668,0.5v0.751c0.334,0.084,0.584,0.502,0.835,0.502h0.168c2.087,0,5.259-3.925,5.259-6.262v-0.167
				C93.062,132.676,91.559,132.425,90.307,132.76z"/>
			<path fill="#626262" d="M90.808,148.954H89.89c-0.25,0-0.336-0.25-0.336-0.501v-3.84c0-0.334,0.419-0.502,0.836-0.502v-0.25
				h-2.421c0.085,0.334,0.167,0.334,0.584,0.334c0.085,0.167,0.251,0.251,0.251,0.418v3.924c0,0.333-0.417,0.499-0.835,0.499v0.168
				h4.174l0.334-1.502C91.893,147.785,91.975,148.954,90.808,148.954z"/>
			<rect x="98.738" y="86.845" fill="#626262" width="5.342" height="1.084"/>
			<rect x="98.738" y="96.695" fill="#626262" width="5.342" height="1.086"/>
			<rect x="98.738" y="99.116" fill="#626262" width="5.342" height="1.169"/>
			<rect x="98.738" y="101.62" fill="#626262" width="5.342" height="1.168"/>
			<rect x="98.738" y="104.125" fill="#626262" width="5.342" height="1.086"/>
			<rect x="98.738" y="106.546" fill="#626262" width="5.342" height="1.169"/>
			<rect x="98.738" y="89.266" fill="#626262" width="5.342" height="1.169"/>
			<rect x="98.738" y="84.34" fill="#626262" width="5.342" height="1.169"/>
			<rect x="98.738" y="94.274" fill="#626262" width="5.342" height="1.085"/>
			<rect x="98.738" y="91.771" fill="#626262" width="5.342" height="1.168"/>
			<rect x="98.738" y="111.472" fill="#626262" width="5.342" height="1.086"/>
			<path fill="#626262" d="M115.434,38.008c-0.416-0.083-1.752-0.334-2.004-0.417v0.167l-0.584-0.167l-0.498,0.5V37.34l-4.592-1.503
				c-0.516-0.364-1.15-0.591-1.75-0.645c0.025,0.029,0.02,0.061-0.09,0.061v-0.068c-0.055-0.003-0.111-0.015-0.164-0.015
				c-0.252,0-0.252,0-0.502-0.084l-0.334,0.501v-0.668l-0.5-0.167l0.166-0.167l-6.094-2.754v25.712h1.25v12.771
				c0,0.167,0.084,0.251,0.252,0.251h3.256V57.543h3.424v13.022h3.336c0.168,0,0.252-0.084,0.252-0.251V57.543h3.424v12.938h3.506
				V38.593C117.188,38.259,115.768,38.091,115.434,38.008z M100.992,55.205l-0.584-0.167l-0.586,0.501v-0.751l-0.5-0.084
				c0.5-0.418,0.584,0.251,0.584-0.834l0.416,0.416l0.67-0.25l-0.416,0.585L100.992,55.205z M100.992,50.196l-0.584-0.167
				l-0.586,0.584v-0.751l-0.584-0.167l0.584-0.167v-0.751l0.586,0.501l0.584-0.168l-0.416,0.501L100.992,50.196z M100.992,45.188
				l-0.67-0.167l-0.416,0.501v-0.585l-0.502-0.167v-0.166l0.502-0.168v-0.584l0.334,0.418h0.252c0.25,0,0.332-0.084,0.5-0.167
				l-0.416,0.583L100.992,45.188z M100.992,40.262l-0.584-0.166l-0.586,0.5c0-0.751,0.168-0.834-0.584-0.834l0.584-0.251V38.76
				l0.586,0.584l0.584-0.25l-0.416,0.668L100.992,40.262z M100.576,34.669l0.332,0.501l-0.5-0.084l-0.502,0.418v-0.585l-0.584-0.167
				l0.5-0.251v-0.667l0.586,0.502l0.584-0.168L100.576,34.669z M103.412,52.701l-0.5-0.167l-0.502,0.417v-0.584l-0.584-0.25
				l0.584-0.168v-0.584c0.084,0.084,0.416,0.418,0.502,0.418c0.164,0,0.25-0.085,0.5-0.167l-0.336,0.501L103.412,52.701z
				 M103.412,47.691l-0.668-0.167l-0.334,0.502v-0.669l-0.668-0.166l0.668-0.251v-0.584l0.416,0.501l0.67-0.251l-0.42,0.585
				L103.412,47.691z M102.826,42.517l-0.416,0.5v-0.668l-0.668-0.083l0.668-0.251v-0.668l0.502,0.418l0.5-0.084l-0.336,0.5
				l0.42,0.586L102.826,42.517z M102.912,37.591c-0.086,0-0.418,0.334-0.502,0.417V37.34l-0.668-0.25
				c0.752,0,0.668,0.084,0.668-0.668l0.502,0.417l0.5-0.167l-0.336,0.502l0.42,0.584C103.162,37.758,103.162,37.591,102.912,37.591z
				 M105.916,55.205c-0.332,0-0.332-0.167-0.584-0.167c-0.082,0-0.334,0.418-0.416,0.501v-0.668l-0.586-0.167
				c0.418-0.501,0.586,0.418,0.586-0.918l0.5,0.5l0.5-0.166c-0.082,0.166-0.25,0.417-0.25,0.501v0.083
				C105.666,54.788,105.834,55.038,105.916,55.205z M106,50.196c-0.248,0-0.334-0.083-0.584-0.083h-0.25l-0.25,0.5v-0.751
				l-0.586-0.167c0.252-0.167-0.084-0.167,0.252-0.167h0.334v-0.751c0.166,0.167,0.25,0.501,0.5,0.501s0.25-0.168,0.584-0.168
				c-0.166,0.251-0.334,0.251-0.334,0.668C105.666,50.029,105.834,50.029,106,50.196z M105.916,45.188c-0.5,0-0.164-0.167-0.5-0.167
				c-0.25,0-0.334,0.417-0.5,0.585c0-1.42-0.334-0.251-0.5-1.002l0.5-0.168v-0.667c0.082,0.166,0.166,0.501,0.5,0.501
				c0.336,0,0.168-0.084,0.5-0.084c-0.082,0.167-0.25,0.25-0.25,0.418v0.166C105.666,44.937,105.834,45.021,105.916,45.188z
				 M106,40.262c-0.416,0-0.334-0.166-0.668-0.166c-0.082,0-0.334,0.417-0.416,0.5v-0.751l-0.586-0.083l0.586-0.251V38.76
				c0.082,0.167,0.166,0.5,0.5,0.5c0.336,0,0.336-0.082,0.584-0.166c-0.084,0.166-0.334,0.333-0.334,0.5
				C105.666,40.012,105.834,40.012,106,40.262z M109.84,39.511V38.76l0.502,0.584l0.502-0.166h0.082l-0.336,0.584l0.336,0.418
				l-0.082,0.082l-0.586-0.166l-0.418,0.5v-0.751l-0.584-0.083L109.84,39.511z M108.422,52.701l-0.666-0.167l-0.252,0.5
				c-0.084-0.835,0-0.667-0.668-0.835l0.584-0.25v-0.584c0.416,0.251,0.168,0.418,0.502,0.418c0.168,0,0.25-0.085,0.5-0.167
				l-0.332,0.583L108.422,52.701z M108.422,47.691c-0.25-0.083-0.25-0.167-0.586-0.167c-0.166,0-0.08,0.251-0.416,0.502v-0.585
				l-0.584-0.334l0.584-0.167v-0.668l0.336,0.585l0.666-0.251l-0.332,0.585L108.422,47.691z M107.922,42.599
				c-0.418,0-0.086,0.252-0.502,0.418v-0.668l-0.584-0.083l0.584-0.334v-0.585c0.168,0.167,0.336,0.418,0.416,0.418
				c0.336,0,0.168-0.084,0.502-0.084l-0.248,0.5l0.332,0.586C108.254,42.683,108.172,42.599,107.922,42.599z M108.422,37.758
				c-0.25-0.084-0.25-0.167-0.586-0.167c-0.08,0-0.248,0.249-0.416,0.417v-0.584l-0.584-0.25l0.584-0.168v-0.667l0.336,0.5
				l0.666-0.25l-0.25,0.501h-0.082L108.422,37.758z M110.926,55.288l-0.607-0.227l-0.479,0.478v-0.668l-0.584-0.167
				c0.252-0.167,0.584-0.083,0.584-0.418v-0.5l0.418,0.5l0.668-0.25l-0.336,0.668L110.926,55.288z M110.926,50.113l-0.082,0.083
				l-0.586-0.083l-0.418,0.5v-0.751l-0.584-0.251l0.584-0.083v-0.751l0.502,0.501l0.502-0.084h0.082l-0.25,0.417l-0.086-0.083
				L110.926,50.113z M110.258,45.021l-0.418,0.585v-0.669l-0.584-0.167v-0.166l0.668-0.168v-0.584
				c0.334,0.167,0.25,0.418,0.502,0.418c0.25,0,0.332-0.084,0.5-0.167l-0.336,0.583l0.42,0.585L110.258,45.021z M113.43,52.701
				l-0.666-0.167l-0.416,0.5v-0.667l-0.586-0.25l0.586-0.085v-0.75l0.416,0.501l0.666-0.167l-0.332,0.583L113.43,52.701z
				 M113.43,47.691l-0.666-0.167l-0.416,0.584v-0.751l-0.586-0.166l0.586-0.251v-0.668c0.164,0.084,0.416,0.501,0.498,0.501
				c0.252,0,0.418-0.083,0.668-0.167c-0.166,0.167-0.416,0.334-0.416,0.585C113.098,47.274,113.348,47.524,113.43,47.691z
				 M112.846,42.599c-0.252,0,0,0.335-0.498,0.418v-0.668l-0.586-0.083l0.586-0.251v-0.751l0.498,0.501l0.584-0.084l-0.416,0.668
				l0.166-0.083l0.334,0.501C113.264,42.683,113.098,42.599,112.846,42.599z M114.266,44.604l0.584-0.168v-0.667l0.5,0.501
				l0.584-0.084l-0.416,0.5l0.416,0.502l-0.666-0.167l-0.418,0.585v-0.669l-0.584-0.167V44.604z M114.85,49.278V48.86
				c0.252,0.084,0.334,0.418,0.5,0.418c0.25,0,0.084,0,0.25-0.084h0.168l0.084-0.084l0.082,0.084l-0.416,0.417l0.416,0.502
				l-0.082,0.083l-0.584-0.167l-0.418,0.501v-0.668l-0.584-0.251C114.516,49.528,114.85,49.611,114.85,49.278z M115.934,55.205
				l-0.666-0.167l-0.418,0.418v-0.585l-0.584-0.167l0.584-0.25v-0.668l0.418,0.5l0.75-0.25l-0.5,0.668L115.934,55.205z
				 M115.434,40.096c-0.25,0-0.416,0.249-0.584,0.417v-0.584l-0.584-0.167l0.584-0.251v-0.669c0.168,0.168,0.334,0.418,0.584,0.418
				c0.166,0,0.252-0.082,0.5-0.166l-0.416,0.668l0.5,0.5C115.434,40.262,115.768,40.096,115.434,40.096z"/>
			<rect x="98.738" y="109.051" fill="#626262" width="5.342" height="1.085"/>
			<polygon fill="#626262" points="110.258,55.038 110.318,55.062 110.342,55.038 			"/>
			<path fill="#626262" d="M127.621,70.565h3.256c0.168,0,0.25-0.084,0.25-0.251V37.591l-3.506,0.584V70.565z"/>
			<path fill="#626262" d="M120.609,38.842v31.473c0,0.167,0.084,0.251,0.25,0.251h3.34V38.509c-0.752,0-1.086,0.084-1.836,0.084
				C121.945,38.593,120.609,38.426,120.609,38.842z"/>
			<path fill="#626262" d="M105.834,35.17h0.082v0.015c0.029,0.002,0.061,0.005,0.09,0.008
				C105.973,35.154,105.881,35.123,105.834,35.17z"/>
			<path fill="#626262" d="M98.654,121.071h1.336c0.082,0,3.086-1.753,3.172-1.836h-4.508V121.071z"/>
			<rect x="98.738" y="113.893" fill="#626262" width="5.342" height="1.252"/>
		</g>
		<g>
			<g>
				<path fill="#626262" d="M52.633,197.038v7.847H29.794v-7.847h5.943l-2.204-7.98H21.479l-2.472,7.98h6.211v7.847H4.65v-7.847
					h5.743l9.049-30.753h-6.178v-7.848h30.319v7.848H37.34l9.75,30.753H52.633z M31.63,182.246l-3.873-13.991l-4.174,13.991H31.63z"
					/>
				<path fill="#626262" d="M54.169,204.885v-7.847h7.046v-30.753h-7.046v-7.848h22.005c4.63,0,8.358,0.284,11.186,0.852
					c2.827,0.568,5.531,1.826,8.114,3.773c2.581,1.948,4.651,4.558,6.21,7.83s2.338,6.901,2.338,10.886
					c0,3.228-0.545,6.306-1.637,9.232c-1.09,2.928-2.443,5.287-4.057,7.079s-3.545,3.217-5.793,4.273
					c-2.249,1.058-4.313,1.742-6.194,2.054c-1.881,0.313-4.791,0.468-8.731,0.468H54.169z M73.269,197.038h2.905
					c3.517,0,6.305-0.456,8.364-1.369c2.059-0.913,3.712-2.521,4.958-4.825c1.247-2.304,1.87-5.314,1.87-9.032
					c0-3.539-0.629-6.545-1.887-9.016s-2.961-4.174-5.108-5.108c-2.148-0.936-4.881-1.402-8.197-1.402h-2.905V197.038z"/>
				<path fill="#626262" d="M109.498,204.885v-7.847h5.811v-30.753h-5.811v-7.848h22.438v7.848h-4.875v10.184h12.656v-10.184h-4.709
					v-7.848h22.271v7.848h-5.809v30.753h5.809v7.847h-22.271v-7.847h4.709V184.35h-12.656v12.688h4.875v7.847H109.498z"/>
				<path fill="#626262" d="M160.854,204.885v-7.847h7.045v-30.753h-7.045v-7.848h26.244v7.848h-7.111v30.753h7.111v7.847H160.854z"
					/>
			</g>
			<g>
				<g>
					<path fill="#626262" d="M7.045,233.522c1.399,0.896,3.407,1.577,5.559,1.577c3.191,0,5.056-1.685,5.056-4.123
						c0-2.224-1.291-3.55-4.554-4.77c-3.944-1.435-6.383-3.514-6.383-6.885c0-3.765,3.12-6.562,7.817-6.562
						c2.438,0,4.267,0.573,5.307,1.183l-0.86,2.546c-0.753-0.466-2.367-1.147-4.554-1.147c-3.3,0-4.555,1.973-4.555,3.622
						c0,2.259,1.471,3.371,4.806,4.661c4.088,1.578,6.131,3.551,6.131,7.101c0,3.729-2.725,6.992-8.426,6.992
						c-2.331,0-4.877-0.717-6.168-1.578L7.045,233.522z"/>
					<path fill="#626262" d="M37.598,236.714c-0.824,0.395-2.653,1.004-4.984,1.004c-5.235,0-8.642-3.55-8.642-8.857
						c0-5.343,3.657-9.251,9.323-9.251c1.864,0,3.514,0.466,4.375,0.933l-0.718,2.402c-0.753-0.395-1.937-0.825-3.657-0.825
						c-3.98,0-6.132,2.977-6.132,6.563c0,4.016,2.582,6.49,6.024,6.49c1.793,0,2.976-0.431,3.872-0.825L37.598,236.714z"/>
					<path fill="#626262" d="M41.292,211.864h3.155v10.864h0.072c0.502-0.896,1.291-1.721,2.259-2.259
						c0.933-0.538,2.044-0.86,3.228-0.86c2.331,0,6.06,1.435,6.06,7.387v10.327H52.91v-9.969c0-2.797-1.04-5.128-4.016-5.128
						c-2.044,0-3.622,1.435-4.231,3.12c-0.18,0.466-0.216,0.933-0.216,1.506v10.471h-3.155V211.864z"/>
					<path fill="#626262" d="M76.9,228.502c0,6.419-4.482,9.216-8.642,9.216c-4.662,0-8.319-3.442-8.319-8.929
						c0-5.773,3.837-9.18,8.606-9.18C73.529,219.609,76.9,223.231,76.9,228.502z M63.167,228.682c0,3.801,2.151,6.669,5.235,6.669
						c3.012,0,5.271-2.832,5.271-6.741c0-2.94-1.47-6.634-5.199-6.634C64.78,221.976,63.167,225.418,63.167,228.682z"/>
					<path fill="#626262" d="M96.588,228.502c0,6.419-4.482,9.216-8.642,9.216c-4.662,0-8.319-3.442-8.319-8.929
						c0-5.773,3.837-9.18,8.606-9.18C93.217,219.609,96.588,223.231,96.588,228.502z M82.854,228.682
						c0,3.801,2.151,6.669,5.235,6.669c3.012,0,5.271-2.832,5.271-6.741c0-2.94-1.47-6.634-5.199-6.634
						C84.468,221.976,82.854,225.418,82.854,228.682z"/>
					<path fill="#626262" d="M100.568,211.864h3.156v25.459h-3.156V211.864z"/>
					<path fill="#626262" d="M108.602,234.132c0.969,0.574,2.617,1.219,4.195,1.219c2.26,0,3.336-1.111,3.336-2.581
						c0-1.506-0.896-2.295-3.191-3.156c-3.156-1.147-4.627-2.832-4.627-4.912c0-2.797,2.295-5.092,5.988-5.092
						c1.758,0,3.299,0.466,4.232,1.076l-0.754,2.295c-0.682-0.431-1.936-1.04-3.549-1.04c-1.865,0-2.869,1.075-2.869,2.366
						c0,1.435,1.004,2.08,3.264,2.977c2.975,1.111,4.553,2.617,4.553,5.199c0,3.084-2.402,5.235-6.453,5.235
						c-1.902,0-3.658-0.502-4.877-1.22L108.602,234.132z"/>
					<path fill="#626262" d="M122.086,235.459c0-1.291,0.896-2.26,2.152-2.26c1.254,0,2.115,0.933,2.115,2.26
						c0,1.291-0.861,2.259-2.188,2.259C122.947,237.718,122.086,236.75,122.086,235.459z"/>
					<path fill="#626262" d="M137.936,213.155h3.156v21.551h10.326v2.617h-13.482V213.155z"/>
					<path fill="#626262" d="M154.861,213.155h3.156v21.551h10.326v2.617h-13.482V213.155z"/>
					<path fill="#626262" d="M187.277,236.57c-1.111,0.573-3.441,1.147-6.381,1.147c-6.814,0-11.906-4.303-11.906-12.264
						c0-7.602,5.129-12.693,12.623-12.693c2.977,0,4.912,0.646,5.736,1.075l-0.789,2.546c-1.146-0.573-2.832-1.004-4.84-1.004
						c-5.666,0-9.432,3.622-9.432,9.969c0,5.952,3.406,9.718,9.252,9.718c1.936,0,3.873-0.395,5.127-1.004L187.277,236.57z"/>
				</g>
			</g>
		</g>
	</g>
</g>
</svg>
