<?xml version="1.0" encoding="utf-8"?>
<!-- Generator: Adobe Illustrator 16.0.0, SVG Export Plug-In . SVG Version: 6.00 Build 0)  -->
<!DOCTYPE svg PUBLIC "-//W3C//DTD SVG 1.1//EN" "http://www.w3.org/Graphics/SVG/1.1/DTD/svg11.dtd">
<svg version="1.1" id="Layer_1" xmlns="http://www.w3.org/2000/svg" xmlns:xlink="http://www.w3.org/1999/xlink" x="0px" y="0px"
	 width="201px" height="68px" viewBox="0 0 201 68" enable-background="new 0 0 201 68" xml:space="preserve">
<g>
	<path fill="#777777" d="M63.66,44.711c0.389,0,1.518-0.545,1.673-0.738c0.118-0.156,0.468-0.39,0.623-0.584
		c0.039-0.117,0.39-0.74,0.428-0.779l-0.038-0.039l-0.039,0.039c0,0,0,0.039-0.039,0.039c-0.039,0.039-0.039,0.039-0.039,0.117
		c-0.078,0.039-0.117,0.077-0.155,0.155c-0.156,0.078-0.272,0.117-0.429,0.194c-0.155,0.078-0.816,0.195-1.051,0.195
		c-0.739,0-1.712,0.037-2.295,0.193l0.078,0.855c0,0.117-0.04,0.232-0.078,0.351L63.66,44.711L63.66,44.711z"/>
	<path fill="#777777" d="M66.384,41.092h-0.311v0.469c0,0.35-0.117,0.35-0.156,0.543l0.156,0.039
		c0.311-0.154,0.505-0.232,0.505-0.699C66.578,41.287,66.54,41.092,66.384,41.092z"/>
	<path fill="#777777" d="M64.322,38.952c-0.233-0.156-0.195-0.233-0.351-0.429c-0.155,1.789,0.117,3.541-1.167,4.242l0.039,0.039
		c0.038,0.037,1.167-0.818,1.283-1.013c0.039-0.117,0.156-0.233,0.233-0.312c0.078-0.155,0.117-0.233,0.195-0.391
		c0.155-0.193,0.272-0.583,0.272-0.895V39.77c0-0.232-0.079-0.194-0.079-0.467C64.594,39.186,64.517,39.068,64.322,38.952z"/>
	<path fill="#777777" d="M64.672,45.762c1.167,0,2.334-1.051,2.334-2.218V43.35c0-0.194-0.038-0.312-0.155-0.39
		c-0.077,0.272-0.895,1.013-1.128,1.245c-0.233,0.195-1.167,0.816-1.557,0.816l-1.09,0.272c0.272,0.233,0.778,0.467,1.246,0.467
		L64.672,45.762L64.672,45.762z"/>
	<path fill="#777777" d="M8.949,41.055c0.155-0.195,0.428-0.469,0.583-0.662c0.155-0.194,0.506-0.468,0.623-0.623
		c0.116-0.194,0.467-0.467,0.584-0.662c0.194-0.232,0.428-0.428,0.583-0.66c0.233-0.313,0.934-1.129,1.012-1.439l-0.817-0.429
		c-0.194,0.739-0.467,1.012-0.739,1.596c-0.077,0.155-0.389,0.507-0.506,0.661c-0.194,0.195-0.351,0.469-0.545,0.622
		c-0.272,0.272-0.856,0.974-1.05,1.285c-0.156,0.272-0.272,0.467-0.429,0.739c-0.155,0.232-0.272,0.738-0.35,0.855v0.155
		c0.038-0.039,0.389-0.623,0.467-0.778C8.481,41.561,8.832,41.209,8.949,41.055z"/>
	<path fill="#777777" d="M57.668,53.7v-0.233l-0.467-0.078c0.038,0.078,0.155,0.155,0.155,0.272c0,0.116-0.039,0.155-0.039,0.271
		C57.474,53.934,57.668,53.855,57.668,53.7z"/>
	<path fill="#777777" d="M59.848,38.523h-0.156l-0.584-0.078c0.195,0.312,0.779,0.507,1.284,0.507h0.779
		c0.193,0,0.505-0.545,0.583-0.778c0.155-0.351,0.155-0.699,0.155-1.206c0.078-0.038,0.078-0.079,0.155-0.079h0.195
		c0-0.231-0.195-0.311-0.428-0.311h-0.078c-0.155,0-0.467,0.701-0.506,0.855c-0.468,0-0.739-0.312-0.973-0.312H60.08
		c-0.233,0-0.233,0.155-0.312,0.312c0.271,0,0.389,0.039,0.544,0.194c0.078,0.039,0.351,0.351,0.351,0.429
		C60.664,38.29,60.119,38.523,59.848,38.523z"/>
	<path fill="#777777" d="M65.061,42.025c-0.039,0.156-0.232,0.584-0.232,0.584c0.155-0.039,0.661-0.584,0.738-0.739
		c0.195-0.233,0.351-0.739,0.351-1.167V40.47l-0.038,0.039l-0.818-0.584c0.04,0.312,0.195,1.091,0.155,1.439
		C65.139,41.637,65.178,41.793,65.061,42.025z"/>
	<path fill="#777777" d="M62.688,41.17c-0.351,0.352-0.662,0.623-1.284,0.661c0,0.272,0.545,0.778,0.661,0.778
		c0.234,0,0.817-0.816,0.973-1.012c0.233-0.312,0.467-0.974,0.467-1.558c-0.194,0.194-0.233,0.351-0.389,0.584
		C62.96,40.896,62.922,40.977,62.688,41.17z"/>
	<path fill="#777777" d="M57.746,39.574c0.155,0.545,0.623,1.012,1.089,1.283c0.507,0.313,1.013,0.584,1.519,0.856
		c0.311,0.194,1.05,0.896,1.05,1.362v1.596c0.351,0,0.622-0.39,0.622-0.779v-0.271c0-1.244-1.322-2.023-1.984-2.686
		c-0.427-0.467-0.738-0.662-1.128-1.207c-0.194-0.231-0.351-0.427-0.467-0.698c-0.039-0.156-0.233-0.817-0.272-0.936
		c0.272,0.078,0.351,0.233,0.739,0.233h0.194c0-0.428-0.506-0.506-0.506-0.855c0-0.193,0.623-0.777,0.623-1.129v-0.117
		c0-0.232-0.156-0.311-0.272-0.389v0.313c-0.195,0.271-0.39,0.351-0.623,0.584c-0.232,0.154-0.545,0.271-0.545,0.699v0.039
		c0,0.194,0.234,0.428,0.313,0.584c-0.546,0-0.507-0.313-0.896-0.313C57.201,38.329,57.551,39.107,57.746,39.574z M58.135,38.057
		C58.057,38.135,58.213,37.979,58.135,38.057L58.135,38.057z"/>
	<path fill="#777777" d="M74.283,48.991h0.312c0-0.39-0.351-0.584-0.583-0.739c-0.272,0.193-0.39,0.391-0.468,0.778L74.283,48.991z"
		/>
	<path fill="#777777" d="M58.057,55.529l0.117-0.856c0.039-0.312-0.39-0.506-0.7-0.506l0.272,0.272v0.895L58.057,55.529z"/>
	<path fill="#777777" d="M0.933,52.26c0.233,0,0.312,0.156,0.428,0.313c0.039-0.04,0.155-0.04,0.155-0.117
		c0-0.155-0.428-0.739-0.699-0.739H0.466c-0.039,0.232-0.195,0.313-0.195,0.584c0,0.428,0.468,0.895,0.468,1.129h0.078
		c0.038-0.117,0.038-0.078,0.038-0.156c0-0.233-0.194-0.506-0.194-0.739c0-0.155,0.039-0.077,0.039-0.232
		C0.854,52.3,0.777,52.26,0.933,52.26z"/>
	<path fill="#777777" d="M1.944,54.596c-0.039-0.039-0.039,0-0.039-0.078c-0.039-0.078-0.077-0.078-0.117-0.117
		c-0.039-0.076-0.116-0.312-0.116-0.389v-0.429c0.077-0.039,0.077-0.039,0.194-0.039h0.039c0.116,0,0.312,0.195,0.506,0.195
		c-0.155-0.584-0.545-0.74-0.973-1.013l-0.234,0.078c-0.038,0.232-0.116,0.038-0.155,0.428c-0.038,0.272,0,0.233,0,0.507
		c0.155,0.233,0.195,0.312,0.39,0.544c0.155,0.156,0.428,0.313,0.506,0.429l0.039-0.039v-0.039
		C1.944,54.673,1.944,54.634,1.944,54.596z"/>
	<path fill="#777777" d="M1.011,51.6v-0.39c0-0.272-0.233-0.507-0.506-0.507H0.388c-0.233,0-0.272,0.313-0.389,0.429v0.351
		l0.155,0.272h0.039v-0.351c0-0.117,0-0.117,0.038-0.194h0.312C0.777,51.21,0.699,51.561,1.011,51.6z"/>
	<path fill="#777777" d="M0.854,50.626h0.039c0.078,0,0.117-0.039,0.117-0.117v-0.038c0-0.156-0.078-0.156-0.078-0.313v-0.154h0.312
		c0.155,0,0.155-0.271,0.155-0.429c-0.312-0.155-0.351-0.351-0.7-0.429c-0.156,0.272-0.429,0.506-0.429,0.935v0.155
		C0.271,50.314,0.854,50.626,0.854,50.626z"/>
	<path fill="#777777" d="M3.773,55.451V55.18c0.077-0.039,0.077-0.039,0.194-0.039h0.039c0.077,0,0.117,0.077,0.194,0.116
		c-0.117-0.467-0.661-0.584-1.245-0.584c-0.078,0-0.194,0.039-0.194,0.156c0,0.467,0.312,0.737,0.583,0.896
		c0.195,0.116,0.779,0.467,1.052,0.467C4.356,55.918,3.773,55.646,3.773,55.451z"/>
	<path fill="#777777" d="M11.517,52.104c-0.35,0.078-0.662-0.312-0.816-0.428c-0.078-0.039-0.856-0.545-0.856-0.193v0.037
		c0,0.391,0.272,0.429,0.389,0.896l-0.545-0.193c0.039,0.545,0.194,0.582,0.584,0.776c0.39,0.233,0.7,0.117,1.167,0.233
		c0.117-0.077,0.468-0.623,0.468-0.738V52.3c0-0.116-0.039-0.155-0.078-0.233L11.517,52.104z"/>
	<path fill="#777777" d="M5.524,55.764c0-0.352,0.584-0.468,0.816-0.623c-0.116,0-0.155-0.039-0.271-0.039H5.952
		c-0.506,0-1.556,0.194-1.556,0.623c0,0.584,1.4,0.816,2.101,0.816C6.186,56.348,5.524,56.27,5.524,55.764z"/>
	<path fill="#777777" d="M2.566,54.557c0-0.078,0.039-0.117,0.078-0.117c0.194,0,0.233,0.078,0.429,0.078h0.038
		c0.39,0-0.389-0.623-0.855-0.662C2.217,54.012,2.1,54.128,2.1,54.206v0.428c0,0.272,0.429,0.662,0.623,0.778
		c-0.039-0.232-0.156-0.467-0.156-0.583L2.566,54.557L2.566,54.557z"/>
	<path fill="#777777" d="M69.77,48.991l0.116,0.817c0.079,0.115,0.194,0.271,0.272,0.428c0.194,0.312,0.194,0.117,0.351,0.351
		c0.194,0.233,0.661,0.39,0.935,0.506c-0.078-0.272-0.195-0.467-0.195-0.817v-0.039c0-0.738,0.622-0.973,1.09-1.283
		c0.117,0,1.012-0.155,1.012-0.233c0-0.116-0.155-0.194-0.194-0.35c0.155-0.039,0.194-0.117,0.271-0.233
		c0.117-0.078,0.313-0.117,0.313-0.195c0-0.934-1.013-1.557-2.024-1.557h-0.194c-0.467,0-0.973,0.156-1.245,0.352
		c-0.232,0.193-0.662,0.545-0.662,0.934c0,0.039,0.039,0.078,0.117,0.078c0.117,0,0.117-0.155,0.35-0.193
		c-0.115,0.232-0.194,0.389-0.35,0.584c-0.078,0.115-0.272,0.467-0.272,0.66v0.467h0.155L69.77,48.991z M70.859,48.291
		c0-0.467,0.973-0.855,1.518-0.855h0.195c0.272,0,0.622,0.078,0.699,0.312c-0.077-0.039-0.077-0.078-0.155-0.078h-0.544
		c-0.195,0-0.546,0.078-0.585,0.272l0.857,0.117l0.077,0.232c-0.117-0.078-0.35-0.155-0.507-0.155c-0.583,0-1.05,0.468-1.478,0.583
		c-0.039-0.076-0.078-0.154-0.078-0.312L70.859,48.291L70.859,48.291z"/>
	<path fill="#777777" d="M64.594,49.381c-0.155,0.271-0.311,0.506-0.505,0.777l0.038,0.039c0.039,0.039,1.245-0.738,1.362-0.816
		c0.312-0.232,0.895-0.777,1.051-1.129c0.155-0.193,0.311-0.389,0.428-0.661c0.155-0.233,0.233-0.468,0.351-0.739
		c0.155-0.271,0.428-1.361,0.428-1.789v-0.856c0-0.429-0.311-1.751-0.506-1.907c0,0.469,0.038,0.896,0.038,1.285
		c0,0.544-0.077,0.777-0.115,1.206c-0.04,0.39-0.623,1.712-0.817,1.867l-0.156-0.739l-1.79,0.936c-0.311,0-0.583,0.154-1.051,0.154
		h-0.155c0.077,0.352,0.934,0.508,1.362,0.508h0.193c0.623,0,0.896-0.313,1.324-0.43c-0.117,0.389-0.857,1.051-1.052,1.479
		C64.944,48.797,64.711,49.188,64.594,49.381z M66.111,47.007l0.039,0.039l-0.039,0.039l-0.038-0.039L66.111,47.007z"/>
	<path fill="#777777" d="M8.87,48.136c0.117,0.155,0,0.077,0.195,0.271c0.039,0.038,0.156,0.194,0.194,0.272
		c0.233,0.271,0.817,0.7,0.935,0.896c0.155,0,0.973,0.545,1.244,0.622c-0.35-0.506-0.584-1.012-0.934-1.518
		c-0.078-0.156-0.078-0.195-0.233-0.39c-0.077-0.155-0.155-0.233-0.233-0.39c-0.117-0.155-0.506-0.545-0.506-0.738
		c0.155,0,0.389,0.193,0.623,0.271c0.194,0.039,0.622,0.078,0.816,0.078c0.467,0,1.284-0.156,1.362-0.507H12.1
		c-0.39,0-0.622-0.155-1.012-0.155l-1.79-0.935c-0.039,0.117-0.117,0.351-0.117,0.429v0.194c0,0.116,0,0.116,0.04,0.194
		c-0.39-0.272-0.974-1.984-0.974-2.764V43.93v-1.595c-0.194,0.231-0.506,1.595-0.506,2.14v0.272c0,1.09,0.39,2.103,0.778,2.841
		C8.677,47.863,8.715,47.863,8.87,48.136z M9.415,47.007l0.078,0.156l-0.116-0.117L9.415,47.007z"/>
	<path fill="#777777" d="M58.174,49.575c0.078,0,0.856,0.272,1.09,0.35c0.428,0.079,0.739,0.195,1.245,0.195h0.311
		c0.352,0,1.013-0.156,1.129-0.351c-0.467,0-1.479-0.078-1.829-0.233c-0.389-0.116-0.855-0.739-0.855-1.206V47.9
		c0-0.428,0.312-0.66,0.584-0.854c0.584,0.312,0.506,0.584,0.699,1.245c0.195,0.506,0.429,0.855,1.129,0.855
		c-0.312-0.467-0.739-0.701-0.739-1.557v-0.154c0-0.43,0.156-0.584,0.156-0.856c0.116-0.078,0.895-1.245,0.895-1.479
		c0-0.115-0.039-0.271-0.078-0.35c-0.272,0.039-1.906,1.012-2.218,1.206c-0.155,0.117-0.778,0.623-0.935,0.778
		c-0.194,0.193-0.66,0.816-0.816,0.896c-0.233-0.116-0.584-0.272-0.584-0.623v-0.039c0-0.895,1.907-2.14,2.88-2.14h0.233v0.193
		c-0.078,0.039-0.116,0-0.116,0.117c0,0.078,0.038,0.116,0.078,0.116c0.349,0,0.855-0.272,0.855-0.662
		c0-0.192-0.156-0.311-0.234-0.467c-0.272,0-0.233-0.116-0.427-0.116h-0.194c-1.246,0-3.893,1.906-3.893,2.957v0.272
		c0,0.39,0.739,0.739,1.129,0.778c-0.039,0.155-0.272,0.545-0.39,0.662c-0.077,0.154-0.233,0.621-0.311,0.777
		c-0.156,0.545-0.312,1.206-0.312,1.867v0.078c0,0.428,2.257,1.789,2.296,1.983c-0.272-0.077-0.583-0.194-0.973-0.194h-0.233
		c-0.117,0-0.117,0-0.195,0.039c0.156,0.194,0.662,0.429,1.012,0.429h0.662V53.62l0.39,0.312c0.038-0.117,0.155-0.232,0.155-0.351
		l-0.039-0.351c-0.039-0.039-0.312-0.312-0.389-0.429c-0.195-0.155-0.351-0.194-0.662-0.194l-0.039-0.037l0.233-0.313l0.039,0.04
		c-0.039-0.352-1.439-0.156-1.439-1.052V51.09c0-0.117,0.233-0.271,0.311-0.271h1.323v-0.039c-0.194-0.233-1.051-0.352-1.051-0.817
		v-0.272C58.057,49.614,58.097,49.575,58.174,49.575z M59.186,53.506l0.039,0.038l-0.039,0.039l-0.039-0.039L59.186,53.506z"/>
	<path fill="#777777" d="M60.587,41.092h0.427c0.234,0,0.623-0.506,0.623-0.738v-0.078c0-0.155,0,0-0.038-0.116
		c-0.468,0.312-1.012,0.272-1.285,0.661C60.354,40.896,60.47,41.092,60.587,41.092z"/>
	<path fill="#777777" d="M1.983,49.03c-0.078-0.351-0.195-0.585-0.468-0.778c-0.232,0.117-0.583,0.352-0.583,0.739h0.312
		L1.983,49.03z"/>
	<path fill="#777777" d="M74.206,50.004c0.116,0,0.389-0.04,0.389,0.077c0,0.194-0.078,0.233-0.078,0.428v0.117h0.156
		c0,0,0.583-0.312,0.583-0.39v-0.194c0-0.312-0.312-0.661-0.428-0.896c-0.428,0.078-0.467,0.351-0.739,0.429L74.206,50.004z"/>
	<path fill="#777777" d="M2.178,48.682c0,0.154,0.545,0.154,0.7,0.193c0.312,0.116,0.39,0.116,0.662,0.271
		c0.35,0.233,0.738,0.545,0.738,1.09v0.039c0,0.271-0.154,0.623-0.232,0.816c0.777-0.193,1.673-0.935,1.673-1.867v-0.233h0.117
		l0.039,0.272H6.03c0.039-0.078,0.039-0.078,0.039-0.195v-0.271c0-0.193-0.506-1.012-0.623-1.245l0.351,0.194l0.116-0.078
		c-0.116-0.467-0.661-1.128-1.167-1.128c-0.155-0.117-0.39-0.156-0.662-0.156H3.773c-0.7,0-0.935,0.195-1.362,0.429
		c-0.39,0.233-0.545,0.662-0.662,1.168c0.272,0.078,0.429,0.39,0.623,0.39C2.334,48.484,2.178,48.643,2.178,48.682z M2.256,47.707
		c0.078-0.232,0.506-0.271,0.817-0.271h0.038c0.545,0,1.557,0.351,1.557,0.855v0.116c0,0.116-0.039,0.312-0.117,0.312
		c-0.154,0-0.933-0.583-1.4-0.583c-0.233,0-0.389,0.077-0.545,0.155l0.078-0.232l0.856-0.119c-0.039-0.154-0.39-0.271-0.545-0.271
		H2.451C2.372,47.668,2.294,47.707,2.256,47.707z"/>
	<path fill="#777777" d="M9.766,54.439H9.609c-0.116,0-0.232-0.156-0.232-0.313v-0.195c0-0.076,0.194-0.66,0.232-0.815
		c-0.194,0.155-1.284,1.284-1.284,1.518v0.507c0,0.271,0.234,0.312,0.468,0.312c-0.116,0.078-0.389,0.194-0.584,0.194H7.625
		c-0.155,0-0.311-0.116-0.311-0.233v-0.116c0-0.352,0.428-0.352,0.428-0.699c-0.467,0.037-1.245,0.699-1.245,1.282
		c0,0.39,0.506,0.623,0.896,0.623h0.116c0.739,0,1.596-0.545,1.868-1.051c0.895-0.039,1.634-0.817,1.634-1.79
		C10.661,53.895,10.466,54.439,9.766,54.439z"/>
	<path fill="#777777" d="M10.583,50.236c-0.156-0.116-0.078-0.116-0.233-0.232c-0.117-0.117-0.351-0.429-0.506-0.429
		c0,0.194-0.078,0.272-0.078,0.467c0,0.856,0.623,1.479,1.479,1.479c0.194,0,0.7-0.155,0.739-0.351
		c-0.622-0.155-0.777-0.312-1.167-0.7C10.739,50.393,10.661,50.314,10.583,50.236z"/>
	<path fill="#777777" d="M15.759,37.434c-0.039-0.115-0.117-0.311-0.272-0.311H15.37c-0.389,0-0.7,0.311-0.973,0.311H14.32
		l-0.468-0.854h-0.233c-0.194,0-0.312,0.155-0.35,0.312h0.194c0.077,0,0.077,0.039,0.155,0.078c0,0.584-0.039,0.777,0.155,1.206
		c0.078,0.272,0.313,0.778,0.623,0.778h0.856c0.35,0,1.051-0.233,1.128-0.506l-0.622,0.076c-0.272,0.039-0.896-0.232-0.896-0.428
		C14.863,37.784,15.33,37.434,15.759,37.434z"/>
	<path fill="#777777" d="M12.022,36.771c0.429,0,0.662,0.195,1.09-0.076c0.312-0.194,0.389-0.506,0.545-0.817
		c0.155-0.312,0.271-0.584,0.622-0.739c0.272-0.195,0.74-0.195,0.817-0.545c-1.362,0.039-2.335,1.4-2.607,1.4
		c-0.506,0-0.778-0.7-0.778-1.245v-0.038c0-0.272,0.078-0.584,0.156-0.779c0.155-0.35,0.233-0.35,0.389-0.583
		c-0.661,0.155-1.167,0.817-1.167,1.635v0.154c0,0.467,0.117,0.7,0.272,1.012C11.556,36.54,11.867,36.578,12.022,36.771z"/>
	<path fill="#777777" d="M18.949,47.357v-0.467c0-1.013-2.646-2.881-3.93-2.881h-0.117c-0.272,0-0.662,0.272-0.662,0.506v0.116
		c0,0.468,0.935,0.778,0.935,0.507c0-0.156-0.155-0.078-0.155-0.193c0-0.079,0.038-0.117,0.116-0.117h0.117
		c0.428,0,0.622,0.193,0.934,0.193c0.389,0.272,0.816,0.39,1.167,0.739c0.233,0.194,0.778,0.778,0.778,1.13v0.154
		c0,0.313-0.35,0.545-0.622,0.584c-0.078-0.271-1.439-1.479-1.712-1.674c-0.351-0.194-1.869-1.167-2.18-1.206
		c-0.039,0.116-0.078,0.116-0.078,0.272v0.039c0,0.621,1.051,1.36,1.051,2.295v0.233c0,0.778-0.467,1.128-0.739,1.558
		c0.7,0,0.896-0.352,1.09-0.856c0.272-0.661,0.078-0.817,0.7-1.245c0.272,0.155,0.584,0.35,0.584,0.778v0.622
		c0,0.468-0.506,1.013-0.856,1.129c-0.428,0.078-1.323,0.193-1.829,0.193c0.117,0.155,0.818,0.352,1.168,0.352h0.233
		c0.584,0,0.817-0.116,1.284-0.233c0.428-0.077,0.895-0.312,1.206-0.312c0,0.115,0.039,0.193,0.039,0.234l-0.039,0.349
		c-0.312,0.155-0.584,0.507-1.012,0.545v0.078v0.038h1.206c0.156,0,0.429,0.117,0.429,0.272v0.194c0,0.545-0.856,0.855-1.44,0.855
		c0,0.272,0.194,0.156,0.194,0.352v0.115h-0.116c-0.467,0-0.934,0.468-0.934,0.935v0.039c0,0.155,0.077,0.233,0.155,0.351
		l0.39-0.351v0.078h0.584c0.428,0,0.855-0.155,1.05-0.429c-0.312,0-0.428-0.039-0.817,0c-0.35,0.039-0.428,0.155-0.661,0.233
		c0.233-0.39,0.895-0.623,1.284-0.935c0.155-0.155,1.129-0.934,1.129-1.09c0-0.506-0.156-1.557-0.312-1.906
		c-0.078-0.233-0.195-0.584-0.312-0.778c-0.078-0.116-0.351-0.622-0.389-0.739C18.132,47.979,18.949,47.63,18.949,47.357z
		 M16.343,53.583l-0.039-0.039l0.039-0.038l0.038,0.038L16.343,53.583z M16.42,53.467C16.498,53.389,16.343,53.544,16.42,53.467
		L16.42,53.467z"/>
	<path fill="#777777" d="M16.536,35.8c0,0-0.232,0.233-0.232,0.429v0.233c0,0.155,0.622,0.935,0.622,0.972
		c0,0.352-0.428,0.469-0.545,0.896c0.7,0,0.622-0.155,1.012-0.271c-0.35,0.623-0.272,1.051-0.739,1.635
		c-0.428,0.545-0.739,0.777-1.167,1.244c-0.701,0.701-2.023,1.44-2.023,2.803c0,0.506,0.233,0.854,0.623,0.935
		c0-0.04,0.038-0.116,0.038-0.116c0-0.468-0.038-0.856-0.038-1.324c0-0.271,0.272-0.816,0.428-0.973
		c0.661-0.623,0.934-0.662,1.673-1.09c0.816-0.467,0.934-0.506,1.479-1.283c0.195-0.313,0.623-1.636,0.662-2.142
		c-0.312,0-0.507,0.312-0.662,0.312h-0.233c0.078-0.232,0.272-0.232,0.272-0.582V37.24c0-0.43-1.479-0.856-1.129-1.401L16.536,35.8z
		"/>
	<path fill="#777777" d="M8.521,43.466v0.233c0,1.129,1.284,2.063,2.529,2.063h0.039c0.545,0,1.051-0.193,1.362-0.467
		c-0.701,0-1.868-0.506-2.296-0.816c-0.74-0.584-0.974-0.896-1.558-1.558L8.521,43.466z"/>
	<path fill="#777777" d="M9.182,42.609c0.117,0.506,0.39,0.701,0.662,1.012c0.233,0.352,0.817,0.623,0.934,0.779
		c0.312,0,0.622,0.311,1.167,0.311h1.207l0.039-1.167c0-0.155-1.907-0.233-2.219-0.233c-0.271,0-0.895-0.078-1.09-0.155
		C9.766,43.116,9.61,43,9.493,42.922C9.222,42.805,9.338,42.727,9.182,42.609z"/>
	<path fill="#777777" d="M13.424,25.838c0,0.078-0.195,0.312-0.195,0.429c0,0.155,0.312,0.155,0.468,0.155
		c0.194,0,0.311,0.117,0.544,0.117l-0.077-0.312h0.428c0.39,0,0.856-0.662,0.856-1.051v-0.155c0-0.078-0.039-0.117-0.117-0.117
		h-0.116c-0.429,0-0.39,0.506-0.817,0.545c-0.038-0.233-0.311-0.272-0.311-0.545v-0.116h0.699c-0.077-0.117-1.012-0.584-1.245-0.545
		l-0.35,0.038v0.39c0,0.351,0.233,0.816,0.233,0.973V25.838z"/>
	<path fill="#777777" d="M11.672,41.055c-0.077-0.74-0.116-1.791-0.116-2.568c-0.389,0.545-0.895,0.66-0.895,1.479
		c0,0.739,0.311,1.284,0.661,1.712c0.156,0.194,0.35,0.468,0.584,0.584c0.038,0.038,0.7,0.507,0.7,0.507l0.039-0.039
		c0,0-0.156-0.117-0.194-0.117c-0.117-0.077-0.078-0.077-0.156-0.194c-0.116-0.117-0.233-0.194-0.312-0.351
		C11.867,41.754,11.711,41.402,11.672,41.055z"/>
	<path fill="#777777" d="M15.563,40.393c0.545,0,0.74-0.468,0.74-1.013c-0.156,0.039-0.429,0.117-0.623,0.117l-0.272,0.039
		l-1.907-0.272c0.039,0.389,1.362,1.129,1.868,1.129H15.563z"/>
	<path fill="#777777" d="M17.237,27.59c-0.117,0-0.156,0.039-0.272,0.039h-0.233c-0.195,0-0.195-0.079-0.272-0.195
		c0.039-0.155,0.077-0.194,0.077-0.351V26.85c0-0.272-0.506-0.7-0.661-0.934c-0.039,0.312-0.35,0.272-0.35,0.661v0.117
		c0,0.078,0.038,0.117,0.116,0.117h0.039c0.194,0,0.467-0.117,0.467,0.077v0.039c0,0.155-0.272,0.194-0.272,0.622
		c0,0.117,0,0.117,0.039,0.195c0.233,0,0.312,0.077,0.545,0.077h0.312C16.965,27.822,17.198,27.745,17.237,27.59z"/>
	<path fill="#777777" d="M18.327,53.35l-0.467,0.117V53.7c0,0.155,0.194,0.231,0.35,0.231c0-0.115-0.039-0.154-0.039-0.271v-0.039
		C18.171,53.544,18.288,53.467,18.327,53.35z"/>
	<path fill="#777777" d="M13.073,39.574c-0.077-0.271-0.039-0.622-0.077-0.934c-0.039-0.507-0.234-1.246-0.662-1.361
		c-0.078,0.311-0.194,0.505-0.194,0.895v0.313c0,0.428,0.155,0.699,0.155,1.051c0.194,0.311,0.233,0.661,0.506,0.934
		c0.312,0.272,0.428,0.467,0.856,0.584l-0.467-0.623C13.19,40.197,13.112,39.848,13.073,39.574z"/>
	<path fill="#777777" d="M9.609,40.47v0.313c0,0.661,0.662,1.712,1.091,1.827l-0.234-0.389v-0.154l-0.077-0.117l-0.078-0.622
		l-0.039-0.195l0.194-1.167C10.038,40.002,9.96,40.47,9.609,40.47z"/>
	<path fill="#777777" d="M13.891,40.197v0.154c0,0.233,0.389,0.739,0.583,0.739h0.429c0.117,0,0.272-0.194,0.312-0.272
		c-0.156-0.232-0.312-0.311-0.623-0.35C14.279,40.393,14.086,40.236,13.891,40.197z"/>
	<path fill="#777777" d="M9.338,41.092H9.143c-0.077,0-0.193,0.117-0.193,0.195v0.311c0,0.233,0.272,0.506,0.428,0.506h0.194
		c-0.039-0.232-0.117-0.193-0.117-0.506C9.454,41.402,9.532,41.092,9.338,41.092z"/>
	<path fill="#777777" d="M12.062,40.703l0.233,0.661c0.156,0.077,0.817,1.245,1.129,1.245c0.155,0,0.662-0.467,0.662-0.778
		c-0.701-0.155-0.857-0.233-1.324-0.661c-0.35-0.352-0.467-0.855-0.778-1.206L12.062,40.703z"/>
	<path fill="#777777" d="M18.055,54.167H17.82c-0.194,0.116-0.467,0.156-0.467,0.506v0.078l0.117,0.778
		c0.35-0.078,0.272-0.313,0.272-0.7C17.743,54.361,17.82,54.4,18.055,54.167z"/>
	<path fill="#777777" d="M13.034,46.852c0.194,0.155,0.545,0.896,0.584,1.246c0.233-0.039,0.389-0.507,0.389-0.817v-0.194
		c0-0.623-0.506-1.439-1.089-1.439h-0.233c-0.272,0-0.701,0.271-0.74,0.468c0.234,0.116,0.39,0.116,0.584,0.311
		C12.646,46.501,12.918,46.773,13.034,46.852z"/>
	<path fill="#777777" d="M58.68,27.822h0.428c0.234,0,0.195-0.077,0.468-0.077c0.039-0.078,0.077-0.078,0.077-0.155v-0.078
		c0-0.194-0.233-0.467-0.311-0.623l0.116-0.116l0.312,0.039h0.039c0.116,0,0.116,0,0.194-0.039v-0.117
		c0-0.389-0.272-0.428-0.351-0.7h-0.077c0,0.233-0.623,0.584-0.623,1.012c0,0.194,0.078,0.233,0.078,0.428v0.039
		c0,0.078-0.117,0.195-0.195,0.195h-0.311c-0.117,0-0.155-0.039-0.272-0.039C58.329,27.706,58.485,27.822,58.68,27.822z"/>
	<path fill="#777777" d="M61.053,25.449c-0.311,0-0.311-0.545-0.777-0.545h-0.078c-0.078,0-0.116,0.039-0.116,0.117v0.155
		c0,0.389,0.466,1.051,0.778,1.051h0.505l-0.116,0.312l1.051-0.195c-0.039-0.233-0.195-0.428-0.195-0.506v-0.155
		c0-0.272,0.195-0.429,0.195-0.934v-0.468c-0.117,0-0.156-0.038-0.273-0.038c-0.35,0-1.166,0.389-1.283,0.545l0.077,0.038
		c0.352,0,0.312-0.155,0.624,0C61.403,25.021,61.248,25.449,61.053,25.449z"/>
	<path fill="#777777" d="M58.135,26.772c0.622,0,0.896,0.039,0.896-0.584v-0.194c0-0.312-0.195-0.507-0.506-0.507h-0.039
		c-0.272,0-0.701,0.156-0.856,0.234l-0.233-0.234l-0.039,0.04c0,0.35-0.194,0.428-0.194,0.661c0,0.116,0.039,0.155,0.077,0.233
		c0.39-0.194,1.09-0.194,1.13-0.7l0.271,0.233c-0.116,0.194-0.856,0.506-1.129,0.584c0.078,0.311,0.312,0.622,0.662,0.661v-0.078
		c-0.077-0.039-0.194-0.077-0.194-0.155C57.979,26.85,58.057,26.812,58.135,26.772z M57.901,26.071h-0.078
		c-0.116,0-0.116,0-0.194-0.039l0.194-0.272l0.351-0.038C58.174,25.877,58.057,26.071,57.901,26.071z"/>
	<path fill="#777777" d="M63.31,33.349l-0.039,0.039h0.039c0,0.039,0,0.039,0.039,0.039c0,0.038,0.039,0.038,0.039,0.077
		c0.078,0.078,0.078,0.039,0.116,0.117c0.078,0.155,0.117,0.233,0.156,0.351c0.078,0.311,0.156,0.467,0.156,0.855
		c0,0.467-0.351,1.167-0.74,1.167c-0.154,0-1.012-0.738-1.167-0.855c-0.077-0.078-0.545-0.351-0.622-0.39
		c-0.194-0.077-0.7-0.077-0.855-0.155c0.077,0.35,0.855,0.467,1.167,0.816c0.35,0.351,0.311,0.896,0.778,1.246
		c0.467,0.351,1.089,0.154,1.478-0.116c0.312-0.233,0.584-0.896,0.584-1.44v-0.156c0-0.428-0.194-0.698-0.312-1.049
		C63.972,33.582,63.582,33.504,63.31,33.349z"/>
	<path fill="#777777" d="M60.937,27.512v-0.194c0-0.545-0.39-1.168-0.7-1.362l-0.155,1.167v0.351l-0.233-0.039v0.156
		c0,0.738-0.39,0.7-0.623,1.011l-0.428,0.195c0.778,0,0.817-0.312,1.322-0.429c0.039,0.078,0.078,0.078,0.078,0.156v0.116
		C60.587,28.563,60.937,27.979,60.937,27.512z"/>
	<path fill="#777777" d="M63.972,36.578c-0.195,0.039-0.195,0.156-0.351,0.232c-0.156,0.078-0.312,0.078-0.467,0.156
		c0.312,0.467,0.506,0.895,0.895,1.283c0.078,0.117,0.117,0.234,0.234,0.313c0.155,0.155,0.116,0.193,0.233,0.312
		c0.232,0.194,0.35,0.312,0.544,0.545c0.078,0.117,0.468,0.429,0.545,0.545c0.195,0.233,0.312,0.351,0.545,0.545
		c0.117,0.116,0.039,0.116,0.233,0.312c0.078,0.078,0.156,0.195,0.233,0.312c0.195,0.156,0.312,0.468,0.506,0.623l0.506,0.739
		c0-0.855-1.322-2.491-1.79-2.996c-0.194-0.193-0.933-1.051-1.09-1.284c-0.077-0.194-0.311-0.545-0.427-0.778
		C64.166,37.162,64.089,36.852,63.972,36.578z"/>
	<path fill="#777777" d="M62.493,39.146c0,0.428-0.078,0.738-0.156,1.127c-0.155,0.623-0.233,0.391-0.505,0.779
		c0.389,0,0.973-0.662,1.09-0.973c0.154-0.313,0.271-0.313,0.31-0.74c0.039-0.271,0.156-0.506,0.156-0.895v-0.272
		c0-0.351-0.117-0.584-0.194-0.896C62.648,37.396,62.532,38.445,62.493,39.146z"/>
	<path fill="#777777" d="M63.582,46.111c-0.038-0.194-0.467-0.467-0.738-0.467h-0.312c-0.429,0-1.051,0.896-1.051,1.361v0.233
		c0,0.272,0.194,0.739,0.39,0.855c0.193-0.351,0.271-0.974,0.583-1.245C62.844,46.579,63.037,46.229,63.582,46.111z"/>
	<path fill="#777777" d="M15.33,25.916c-0.35,0.233-0.739,0.817-0.739,1.439v0.234c0,0.428,0.39,0.973,0.7,1.05
		c0.156-0.312-0.038-0.389,0.429-0.116c0.194,0.077,0.428,0.194,0.584,0.272h0.389c-0.156-0.233-1.012-0.195-1.012-1.167v-0.195
		l-0.233,0.039v-0.194c0-0.312-0.156-0.701-0.156-0.856V26.11C15.291,25.994,15.291,25.994,15.33,25.916z"/>
	<path fill="#777777" d="M17.159,25.722c0.039,0.233,0.272,0.467,0.467,0.506c0.234,0.039,0.701,0.272,0.701,0.077v-0.116
		c0-0.272-0.156-0.351-0.156-0.545v-0.116c-0.272,0.038-0.155,0.194-0.272,0.194c-0.078,0-0.506-0.234-0.896-0.234h-0.038
		c-0.272,0-0.506,0.234-0.506,0.545c0,0.701,0.194,0.74,0.895,0.74c0.039,0.039,0.194,0.116,0.194,0.155
		c0,0.155-0.155,0.117-0.194,0.272c0.351-0.078,0.584-0.312,0.662-0.661c-0.117,0-1.128-0.468-1.128-0.545
		C16.888,25.877,17.081,25.76,17.159,25.722z M17.898,26.032c-0.078,0.039-0.078,0.039-0.194,0.039c-0.233,0-0.351-0.116-0.351-0.35
		C17.626,25.722,17.86,25.76,17.898,26.032z"/>
	<path fill="#777777" d="M15.33,24.826c0.195,0,0.545,0.351,0.584,0.507l1.245-0.117h0.194c0.272,0,0.507,0.077,0.739,0.117
		c0.351,0.038,0.429,0.232,0.623,0.271V25.41c0-0.039-0.155-0.389-0.194-0.429c-0.194,0-0.623-0.116-0.856-0.155
		c-0.312-0.038-0.7-0.038-0.973-0.077c-0.429-0.039-0.545,0.039-0.778-0.233c-0.078-0.117-0.506-0.39-0.661-0.39h-0.312l0.155,0.7
		H15.33z"/>
	<path fill="#777777" d="M62.025,39.264l-1.984,0.272l-0.116-0.039l-0.7-0.078c0,0.583,0.233,0.974,0.778,0.974
		C60.742,40.393,61.793,39.77,62.025,39.264z"/>
	<path fill="#777777" d="M22.063,7.938c0.116,0.584,0.622,3.27,0.545,3.814l-0.039,0.467c-0.078,0.078-0.467,0.583-0.467,0.623
		v0.116c0,0.077,0.155,0.233,0.194,0.233s0.973-0.661,1.129-0.739c0.35-0.233,0.816-0.506,1.167-0.7
		c-0.039-0.078-0.155-0.39-0.233-0.39c-0.234,0-0.351,0.233-0.662,0.233c-0.428,0-0.545-0.934-0.545-1.438l1.868-1.168
		c0.233,0.195,1.012,0.623,1.012,0.973v0.079c0,0.193-0.505,0.466-0.505,0.622c0,0.116,0.155,0.312,0.232,0.351
		c0.584-0.312,1.168-0.896,1.752-1.168c0.194-0.116,1.712-1.012,1.789-1.128c-0.038-0.156-0.077-0.351-0.272-0.351
		c-0.077,0-0.389,0.194-0.622,0.194h-0.234c-0.311,0-1.322-0.778-1.556-0.973c-0.233-0.155-1.284-0.973-1.479-1.051
		c-0.195-0.116-1.207-0.856-1.44-1.089c-0.155-0.078-1.518-1.051-1.518-1.051h-0.194c-0.545,0-0.272,1.206-0.194,1.634
		C21.945,6.615,21.945,7.276,22.063,7.938z M22.568,7.199l1.984,1.439l-1.557,0.973l-0.467-2.412H22.568z"/>
	<path fill="#777777" d="M43.542,8.327c0.039-0.038,0.156-0.194,0.156-0.272V7.938c0-0.155-0.739-0.311-0.739-0.699V6.966
		c0-0.117,0.271-0.935,0.312-1.129c0.077-0.35,0.271-0.7,0.311-1.167l2.802,0.855c-0.038,0.078-0.467,1.401-0.467,1.479
		c-0.077,0.429-0.272,1.206-0.778,1.168l-0.545-0.039c-0.039,0.039-0.155,0.194-0.155,0.272v0.077c0,0.078,0.039,0.078,0.078,0.117
		l1.089,0.272l0.117,0.078c0.272,0,2.452,0.7,2.686,0.817c0.116-0.078,0.194-0.195,0.194-0.351V9.378
		c0-0.117-0.857-0.312-0.857-0.856c0-0.232,0.313-1.206,0.391-1.479c0.155-0.428,0.272-1.012,0.427-1.439
		c0.156-0.39,0.312-1.012,0.429-1.44c0.116-0.428,0.272-1.128,0.778-1.128h0.35l0.351,0.039c0-0.195,0.078-0.155,0.078-0.312V2.685
		c0-0.155-0.739-0.311-0.934-0.311c-0.156-0.117-1.245-0.312-1.557-0.429c-0.233-0.116-1.323-0.506-1.518-0.506
		c0,0.194-0.078,0.156-0.078,0.312v0.078c0,0.077,0.039,0.077,0.078,0.155c0.232,0,0.622,0.272,0.622,0.39v0.389
		c0,0.389-0.233,0.778-0.311,1.089c-0.039,0.39-0.312,0.856-0.312,1.129c-0.272,0-1.557-0.467-1.907-0.583
		c-0.272-0.039-0.856-0.117-0.817-0.351c0-0.195,0.233-0.817,0.272-0.935L44.4,2.178V2.023c0.117-0.194,0.194-0.428,0.506-0.428
		h0.233l0.429,0.038c0.038-0.077,0.077-0.116,0.077-0.233V1.128c-0.312-0.077-0.661-0.116-0.973-0.233
		c-0.312-0.116-0.701-0.155-0.973-0.271c-0.272-0.078-0.661-0.234-0.934-0.313C42.608,0.272,41.908,0.039,41.83,0h-0.155
		c-0.039,0.155-0.117,0.194-0.117,0.272v0.194c0.312,0.039,0.817,0.389,0.817,0.739c0,0.506-0.312,1.051-0.39,1.479
		c-0.077,0.39-0.311,1.051-0.428,1.479c-0.155,0.429-0.312,0.974-0.428,1.44c-0.117,0.428-0.272,1.167-0.779,1.128l-0.66-0.038
		c-0.039,0.077-0.117,0.194-0.117,0.233V7.12c0.623,0.155,1.4,0.389,2.023,0.545C42.181,7.86,43.037,8.094,43.542,8.327z"/>
	<path fill="#777777" d="M49.496,10.273c-0.155,0-0.233,0.194-0.272,0.35c0.078,0.155,1.401,1.012,1.673,1.245
		c0.195,0.117,1.674,1.284,1.674,1.284c0.117,0,0.311-0.272,0.311-0.311c0-0.39-1.011-0.312-0.193-1.558
		c0.155-0.194,0.389-0.467,0.506-0.699c0.039-0.04,0.505-0.662,0.544-0.701c0.312-0.351,0.779-1.012,1.051-1.401
		c0.116-0.193,0.351-0.506,0.507-0.7c0.155-0.233,0.35-0.506,0.739-0.506h0.039c0.154,0,0.661,0.272,0.661,0.272
		c0.155,0,0.272-0.233,0.311-0.389C56.58,6.926,53.7,4.707,53.7,4.707h-0.193c-0.039,0.156-0.117,0.195-0.117,0.272
		c0,0.195,0.505,0.39,0.505,0.934c0,0.272-0.622,1.052-0.816,1.246c-0.272,0.35-0.545,0.855-0.856,1.206
		c-0.311,0.312-0.583,0.856-0.895,1.167c-0.272,0.312-0.584,1.012-1.051,1.012C49.963,10.545,49.574,10.273,49.496,10.273z"/>
	<path fill="#777777" d="M29.806,1.673c0.312,0.584,0.234,0.467,0.351,1.284c0.078,0.428,0.194,0.895,0.272,1.362
		c0.039,0.272,0.039,0.545,0.078,0.739c0.039,0.272,0.116,0.467,0.116,0.7c0.039,0.467,0.194,0.896,0.194,1.479
		c0,0.506-0.544,0.699-0.934,0.777V8.21c0,0.117,0.039,0.156,0.078,0.234c0.778,0,1.945-0.429,2.646-0.429
		c0.467,0,2.296-0.311,2.646-0.428c1.479-0.545,2.724-1.401,2.724-3.425c0-1.051-0.467-2.296-1.051-2.763
		c-0.467-0.389-0.545-0.506-1.167-0.739c-0.233-0.116-1.245-0.389-1.635-0.311v-0.04l-5.292,0.817
		c-0.038,0.039-0.038,0.039-0.038,0.156c0,0.116,0.077,0.233,0.116,0.272L29.806,1.673z M32.141,1.557
		c0-0.506,0.934-0.623,1.439-0.623c0.352,0,0.468,0.117,0.779,0.117c0.116,0.194,0.467,0.311,0.661,0.7
		c0.194,0.272,0.312,0.584,0.428,0.934c0.195,0.623,0.389,1.518,0.389,2.335c0,0.468-0.193,0.817-0.193,1.167
		c-0.39,0.584-0.623,0.935-1.479,1.09C32.881,7.51,33.037,7.2,32.843,6.149c-0.117-0.74-0.272-1.518-0.351-2.257
		c-0.039-0.39-0.156-0.701-0.194-1.09c-0.039-0.389-0.156-0.856-0.156-1.168L32.141,1.557L32.141,1.557z"/>
	<path fill="#777777" d="M56.968,24.981l-0.195,0.623c0.234-0.039,0.312-0.233,0.584-0.271c0.272-0.04,0.428-0.117,0.74-0.117h0.35
		l1.09,0.117c0.194-0.117,0.389-0.507,0.661-0.507h0.194l0.155-0.7h-0.155c-0.311,0-0.544,0.155-0.739,0.312
		c-0.116,0.078-0.077,0.155-0.272,0.272c-0.155,0.078-0.312,0.039-0.506,0.039c-0.233,0.077-0.7,0.077-0.973,0.077
		C57.59,24.826,57.239,24.981,56.968,24.981z"/>
	<path fill="#777777" d="M63.972,50.393c-0.428-0.039-0.896-0.816-0.896-1.283v-0.233c0-0.39,0.155-0.662,0.233-0.974
		c-0.466,0.117-0.466,0.233-0.7,0.545c0,0.156-0.194,1.207-0.232,1.363c-0.117,0.465-0.273,0.815-0.817,0.815h-0.156
		c-0.544,0-0.816-0.194-1.206-0.194c0.194,0.313,0.506,0.623,0.896,0.7c-0.04,0.39-1.206,0.351-1.635,0.39
		c0.117,0.155,0.817,0.271,1.129,0.271h0.077c0.896,0,1.245-0.193,1.907-0.389c0.428-0.156,1.323-0.935,1.4-0.935V50.393z"/>
	<rect x="42.92" y="40.781" fill="#777777" width="7.705" height="0.545"/>
	<path fill="#777777" d="M19.338,27.278c0,0.194,0.117,0.312,0.272,0.312c0.117,0,0.234-0.04,0.234-0.156
		c0-0.116-0.117-0.155-0.234-0.155L19.338,27.278L19.338,27.278z"/>
	<rect x="42.92" y="38.484" fill="#777777" width="3.852" height="0.506"/>
	<rect x="38.756" y="36.189" fill="#777777" width="2.49" height="0.506"/>
	<rect x="42.92" y="39.613" fill="#777777" width="3.852" height="0.545"/>
	<path fill="#777777" d="M19.416,26.733c-0.078,0-0.155,0.078-0.155,0.155v0.039c0,0.078,0.116,0.194,0.194,0.194h0.155
		c0.078,0,0.117-0.039,0.117-0.116v-0.039C19.728,26.85,19.494,26.733,19.416,26.733z"/>
	<path fill="#777777" d="M55.917,36.189c0.311,0.351,0.428,0.506,0.778,0.854c0.155,0.117,0.855,0.584,1.051,0.623
		c0-0.233-0.117-0.194-0.117-0.312V37.2c0-0.117,0-0.156,0.039-0.233c-0.039-0.039-0.39-0.351-0.429-0.428
		c-0.194-0.117-0.311-0.271-0.467-0.43c-0.272-0.312-0.545-0.623-0.778-0.973c-0.194-0.312-1.283-1.946-1.283-2.258v-0.193
		c0-0.117,0.154-0.195,0.154-0.39c0-0.116-0.077-0.233-0.115-0.389c0.077-0.039,0.077-0.078,0.154-0.078h0.156
		c0.351,0,0.234,0.155,0.584,0.155c-0.194-0.312-0.817-0.467-0.817-0.7v-0.117c0-0.077,0.155-0.35,0.272-0.35h0.195
		c0.35,0,0.817,0.233,0.972,0.428c-0.077,0.194-0.232,0.896-0.232,1.168c0,0.622,0.389,1.479,0.738,1.712
		c0.351,0.233,1.051,0.855,1.557,0.895c-0.039-0.35-0.232-0.232-0.272-0.428c0.313,0.233,0.584,0.739,0.896,1.012
		c0.155,0.155,0.817,0.936,1.012,0.936c0.077,0,0.117-0.039,0.117-0.117c0-0.855-1.207-1.751-1.207-2.102v-0.155
		c0-0.234,0.078-0.429,0.272-0.468l0.117,0.156c0.039-0.078,0.078-0.117,0.078-0.233v-0.351c0-0.39-0.856-0.973-0.896-1.4
		c0.622,0.428,1.129,0.777,2.18,0.777c-0.234-0.155-1.012-0.272-1.051-0.7c0.7,0,0.895,0.195,1.361,0.428
		c-0.038-0.505-0.505-0.7-0.7-1.011c0.895,0,1.323,0.506,1.906,0.817c0-0.662-0.544-0.779-0.544-1.129
		c0-0.078,0.077-0.156,0.116-0.156c0.233,0,0.233,0.233,0.35,0.312c0-0.855-0.271-0.7-0.35-1.05c0.428-0.039,0.584-0.39,0.739-0.74
		c0.039-0.233,0.078-0.35,0.155-0.584c0.078-0.194,0.272-0.311,0.313-0.467c0.388,0,0.582,0.039,0.582,0.506
		c0,0.234-0.389,0.117-0.389,0.468c0.233,0.038,0.351,0.738,0.351,1.012v0.271c-0.234-0.038-0.195-0.155-0.506-0.155h-0.155
		c-0.117,0-0.117,0-0.195,0.039l-0.038,0.233h0.116c0.467,0,0.544,0.116,0.816,0.272c0,0.428-0.116,0.623-0.077,1.168
		c0.039,0.466,0.117,0.699,0.35,0.973c-0.038-0.195-0.155-0.312-0.155-0.545V32.57l0.039-0.545c0.194-0.272,0.312-1.362,0.312-1.867
		l0.039-1.207c0-1.206-0.74-1.945-1.439-2.412h-0.156c0.078,0.116,0.194,0.194,0.194,0.389v0.194c0,0.233-0.194,0.507-0.311,0.623
		c0-0.312-0.506-0.896-0.7-0.896h-0.117c0,0.312,0.039,0.545,0.312,0.623c-0.039,0.194-0.117,0.117-0.35,0.117l0.271,0.544
		c-0.039,0-0.233-0.155-0.233-0.155c-0.117,0-0.545,0.817-0.545,0.973l-0.311-0.078c-0.194,0.896-1.129,0.74-1.284,0.974
		l0.194,0.039l-0.429,0.505l0.039,0.039c0.117-0.077,0.429-0.271,0.623-0.271h0.739c0.428,0,0.895,0.389,0.895,0.816
		c-0.232-0.155-0.777-0.351-1.167-0.351h-0.155c-0.39,0-0.739,0.195-1.013,0.312l-0.155-0.895c0.117-0.194,0.351-0.155,0.351-0.312
		v-0.194c0-0.078-0.195-0.272-0.272-0.272h-0.117c-0.35,0-0.855,0.544-1.206,0.467v0.117h-0.467c-0.233,0-0.39-0.078-0.467-0.233
		c0.467-0.234,0.934,0.038,1.518-0.351c0-0.856-0.506-1.907-1.401-1.907c-0.312,0-0.351,0.39-0.7,0.39h-0.428
		c-0.117,0-0.428-0.312-0.623-0.312h-0.155l-0.079-0.155l0.156,0.077c0-0.116-0.039-0.155-0.039-0.194l0.078-0.272l0.312-0.312
		c0.312,0.195,1.012,0.117,1.479,0.117c-0.116-0.155-0.428-0.312-0.661-0.312h-0.428c-0.312,0-0.467,0.078-0.701,0.117l-0.116-0.039
		c0.155-0.584,1.634-0.078,1.634-0.778h-0.155V25.45c0-0.195-0.117-0.233-0.117-0.351c0-0.194,0.117-0.272,0.194-0.389
		c-0.116-0.078-0.35-0.194-0.311-0.429l0.038-0.389c0.078-0.078,0.156-0.117,0.234-0.233c0.233-0.233,0.116-0.078,0.311-0.194
		c-0.194,0-0.699,0.038-0.699-0.117c0-0.623,0.35-0.817,1.011-0.817c-0.077-0.116-0.116-0.233-0.312-0.233h-0.428
		c-0.155,0-0.351,0.117-0.428,0.195c0.038-0.156,0.35-0.351,0.428-0.351H56.5c0.817,0,1.557,0.7,1.557,1.518v0.661
		c0,0.117-0.038,0.156-0.038,0.272c0.116-0.155,0.311-0.545,0.311-0.778v-0.272c0-0.817-0.739-1.634-1.595-1.634h-0.078
		c-0.194,0-0.544,0.078-0.662,0.155l0.04-8.717c-0.156,0.04-0.195,0.04-0.312,0.117c-0.194,0.078-0.233,0-0.39,0.078
		c-0.272,0.038-0.468,0.116-0.739,0.194c-0.506,0.116-1.051,0.194-1.557,0.272c-0.778,0.155-2.412,0.312-3.347,0.312h-1.245
		c-1.518,0-4.514-1.051-5.681-1.519c-0.856-0.35-1.713-0.7-2.53-1.089c-0.389-0.156-0.894-0.351-1.245-0.545
		c-0.078-0.078-1.206-0.623-1.206-0.623s-1.79,0.856-1.906,0.935c-0.233,0.116-0.74,0.35-1.013,0.428
		c-0.155,0.078-0.311,0.117-0.467,0.233c-0.233,0.117-0.311,0.117-0.545,0.194c-0.622,0.273-3.579,1.479-4.241,1.479
		c-0.272,0.195-2.063,0.507-2.567,0.507h-1.207c-1.168,0-2.296-0.156-3.347-0.312c-1.09-0.117-2.023-0.429-2.996-0.662v0.817
		l0.039,7.899c-0.078-0.039-0.429-0.155-0.584-0.155h-0.312c-0.661,0-1.439,0.895-1.439,1.557v0.272
		c0,0.271,0.194,0.778,0.312,0.855l-0.078-0.778c-0.078-0.817,0.778-1.673,1.557-1.673h0.156c0.155,0,0.389,0.194,0.466,0.312
		l-0.038,0.039l-0.039-0.039l-0.039-0.039c0,0-0.078-0.039-0.117-0.039c-0.077-0.039-0.155-0.078-0.272-0.078h-0.35
		c-0.194,0-0.272,0.078-0.312,0.233c0.622,0,1.012,0.194,1.012,0.778c0,0.194-0.467,0.156-0.7,0.156
		c0.272,0.155,0.583,0.35,0.583,0.739v0.116c0,0.156-0.193,0.312-0.311,0.39c0.077,0.116,0.155,0.116,0.155,0.312v0.039
		c0,0.311-0.155,0.311-0.078,0.622H18.91l0.039,0.233c0.351,0.078,0.312,0.155,0.856,0.194c0.312,0.039,0.661,0.117,0.778,0.312
		l-0.116,0.08c-0.233-0.039-0.428-0.117-0.661-0.117h-0.272c-0.351,0-0.817,0.117-0.896,0.351c0.351-0.156,1.129,0.116,1.518-0.156
		c0.117,0.156,0.39,0.234,0.39,0.545c0,0.078-0.039,0.156-0.078,0.195l0.039,0.038l0.156-0.077l-0.078,0.155h-0.156
		c-0.194,0-0.545,0.312-0.661,0.312h-0.39c-0.35,0-0.389-0.39-0.7-0.39c-0.856,0-1.401,1.012-1.401,1.829
		c0,0.39,1.246,0.272,1.518,0.429c-0.077,0.116-0.271,0.233-0.466,0.233H17.82l0.04-0.078l-0.04-0.039l-0.038,0.039h-0.117
		l-0.117-0.078c-0.155-0.116-0.116-0.077-0.272-0.155c-0.116-0.039-0.428-0.272-0.544-0.272h-0.195
		c-0.077,0-0.311,0.233-0.311,0.312v0.039c0,0.193,0.233,0.35,0.389,0.389l-0.155,0.934c-0.272-0.116-0.623-0.312-1.012-0.312
		h-0.194c-0.468,0-0.856,0.195-1.167,0.351c0.115-0.467,0.466-0.816,1.05-0.816h0.623c0.232,0,0.467,0.232,0.661,0.232l-0.39-0.467
		l-0.039,0.039v-0.077l0.195-0.079l-0.817-0.232c-0.155-0.233-0.428-0.272-0.467-0.701h-0.194v0.078h-0.117l-0.467-1.012
		l-0.351,0.194l0.272-0.544l-0.35-0.04c0.116-0.155,0.194-0.038,0.272-0.271c0.077-0.156,0.038-0.272,0.117-0.467
		c-0.39,0.077-0.857,0.506-0.857,0.934c-0.155-0.116-0.35-0.506-0.35-0.778c0-0.194,0.155-0.312,0.233-0.428h-0.155
		c-0.701,0.467-1.44,1.167-1.44,2.334l0.039,0.039v1.167c0,0.507,0.078,0.856,0.116,1.246c0.039,0.467,0.234,0.7,0.234,1.128
		c0,0.351-0.156,0.506-0.156,0.701l0.233-0.351c0-0.272,0.117-0.429,0.117-0.778v-0.389c0-0.234-0.078-0.39-0.117-0.584
		c0.351-0.233,0.39-0.312,0.974-0.312c0-0.117-0.039-0.272-0.195-0.272h-0.116c-0.312,0-0.429,0.155-0.545,0.155
		c-0.039,0-0.078-0.038-0.078-0.116c0-0.429,0.194-0.739,0.233-1.129l0.156-0.038c0-0.233-0.233-0.351-0.429-0.39
		c0-0.194,0.156-0.623,0.351-0.623c0.778,0,0.545,1.751,1.479,1.83c-0.078,0.35-0.35,0.077-0.35,1.05
		c0.077-0.116,0.155-0.312,0.35-0.312c0.039,0,0.116,0.078,0.116,0.117c0,0.428-0.544,0.467-0.544,1.129
		c0.155,0,0.544-0.312,0.661-0.39c0.155-0.116,0.506-0.233,0.701-0.351l0.544-0.038c-0.194,0.311-0.7,0.583-0.739,1.051
		c0.351-0.233,0.739-0.468,1.323-0.468c0.312,0-0.272,0.39-0.312,0.39c-0.116,0.078-0.506,0.233-0.544,0.311
		c0.467,0,0.816-0.077,1.167-0.232c0.194-0.117,0.233-0.156,0.428-0.272c0.117-0.039,0.389-0.233,0.467-0.272
		c-0.155,0.622-0.934,0.934-0.934,1.557c0,0.194,0.039,0.271,0.078,0.428c0.038,0,0.194-0.117,0.194-0.117
		c0.155,0,0.233,0.312,0.233,0.467v0.078c0,0.429-1.206,1.245-1.206,2.141v0.117c0.312,0,0.934-0.662,1.089-0.856
		c0.234-0.312,0.584-0.855,0.896-1.051l-0.272,0.352l0.039,0.037c0.934-0.232,2.257-1.244,2.257-2.411v-0.467
		c0-0.39-0.194-0.701-0.194-0.896s0.7-0.428,1.012-0.428h0.155c0.078,0,0.272,0.311,0.272,0.35v0.117
		c0,0.116-0.272,0.312-0.389,0.351c-0.233,0.116-0.312,0.155-0.429,0.35c0.312,0,0.272-0.155,0.662-0.155
		c0.117,0,0.155,0.039,0.233,0.078c-0.039,0.155-0.116,0.233-0.116,0.389c0,0.272,0.271,0.313,0.116,0.778
		c-0.078,0.116-0.272,0.389-0.351,0.622c-0.116,0.273-0.583,0.936-0.739,1.207c-0.312,0.428-0.544,0.699-0.856,1.089
		c-0.155,0.194-0.311,0.312-0.467,0.507c-0.077,0.077-0.467,0.428-0.505,0.467l0.038,0.313v0.038c0,0.038-0.116,0.312-0.155,0.351
		c0.233-0.039,0.895-0.467,1.05-0.623c0.312-0.271,0.545-0.544,0.817-0.855c0,0.507-0.038,1.945,0.039,2.373
		c0.039,0.156,0.078,0.936,0.078,1.13c0,0.39,0.117,0.739,0.117,1.128c0,0.39,0.311,1.713,0.467,1.984
		c0.116,0.312,0.194,0.584,0.351,0.855c0.116,0.232,0.311,0.623,0.428,0.816c0.194,0.507,1.634,2.568,1.984,2.881
		c0.389,0.389,0.817,0.854,1.206,1.244c0.194,0.194,0.467,0.351,0.661,0.545c0.234,0.195,0.507,0.351,0.701,0.545
		c0.077,0.078,0.584,0.467,0.7,0.506c0.195,0.117,0.467,0.39,0.661,0.546c0.507,0.312,0.974,0.7,1.479,0.974
		c0.156,0.076,0.584,0.35,0.74,0.467c0.194,0.193,0.506,0.35,0.739,0.506c0.506,0.311,1.05,0.582,1.518,0.934
		c0.973,0.623,2.101,1.207,3.112,1.79c1.052,0.623,2.102,1.129,3.191,1.712c0.156-0.154,0.545-0.311,0.778-0.428
		c0.155-0.078,0.272-0.116,0.389-0.194c0.117-0.038,0.272-0.155,0.391-0.233c0.544-0.271,1.05-0.545,1.594-0.855
		c0.468-0.313,1.051-0.622,1.558-0.896c0.545-0.311,1.011-0.584,1.556-0.895c0.506-0.313,1.012-0.623,1.479-0.934
		c0.155-0.116,0.622-0.352,0.739-0.467c0.155-0.117,0.584-0.43,0.739-0.506c0.545-0.313,0.973-0.662,1.479-0.974
		c0.35-0.233,1.129-0.778,1.401-1.052c0.116-0.155,0.467-0.389,0.661-0.545c0.233-0.194,0.429-0.312,0.661-0.545
		c0.195-0.194,0.39-0.428,0.623-0.584c0.117-0.077,0.428-0.467,0.622-0.623c0.272-0.231,1.829-2.528,1.985-2.918
		c0.078-0.232,0.312-0.545,0.427-0.777c0.117-0.271,0.234-0.584,0.352-0.855c0.233-0.545,0.312-1.322,0.428-2.023
		C55.878,39.497,55.917,37.745,55.917,36.189z M60.47,29.729V29.69l0.35,0.039c0.04-0.039,0.39-0.428,0.468-0.467
		c0.077-0.078,0.233-0.467,0.272-0.623c0.116,0.039,0.155,0.078,0.155,0.233v0.195l0.233-0.117l0.039,0.312
		c0.038,0.272-0.272,0.7-0.428,0.816C61.209,29.886,61.014,29.729,60.47,29.729z M57.317,33.621
		c0.156-0.312,0.194-1.012,0.545-1.012l-0.078,0.545v0.311c0,0.312,0.078,0.507,0.156,0.779L57.317,33.621z M58.174,30.119
		l0.623-0.429c0,0.584-0.545,1.051-0.778,1.518c-0.117,0.312-0.701,1.362-0.74,1.596c-0.077-0.078-0.116-0.194-0.116-0.351
		c0-0.816,1.051-1.557,1.051-2.023v-0.155C58.213,30.158,58.213,30.158,58.174,30.119z M55.955,28.212
		c0.079,0.039,0.429,0.233,0.507,0.233c0.194,0-0.117-0.351-0.156-0.428c0.078-0.078,0.194-0.272,0.312-0.272h0.428
		c0.233,0,0.623,0.583,0.623,0.817V28.6c0,0.272-0.233,0.545-0.506,0.545h-0.078c-0.312,0-0.35-0.428-0.661-0.467
		c0.077,0.117,0.039,0.39-0.195,0.272v0.272c0.156,0.078,0.351,0.194,0.351,0.467c0,0.116-0.039,0.039-0.039,0.195
		c0.156,0.193,0.506,0.35,0.856,0.35h0.155c0.117,0,0.117,0,0.195-0.039c0,0.351-0.701,1.44-0.896,1.479
		c0,0.312-0.233,0.312-0.233,0.7v0.156c0,0.467,0.467,0.661,0.467,0.934C56.812,33.31,56.5,32.92,56.5,32.492
		c0-0.428,0.234-0.583,0.234-0.817V31.52c0-0.506-0.429-0.817-0.779-1.012V28.212z M13.969,30.079
		c-0.195-0.116-0.429-0.466-0.429-0.777v-0.078c0-0.116,0.039-0.155,0.039-0.272l0.233,0.117v-0.195
		c0-0.155,0.039-0.194,0.116-0.233c0.078,0.039,0.272,0.701,0.779,1.051h0.312v0.039C14.591,29.729,14.24,29.924,13.969,30.079z
		 M18.171,33.621l-0.623,0.661c0.078-0.272,0.234-0.622,0.195-0.973l-0.078-0.7c0.351,0.038,0.39,0.739,0.545,1.051L18.171,33.621z
		 M18.327,32.609c0,0.116,0,0.116-0.039,0.194c-0.195-0.116-0.623-1.245-0.778-1.557c-0.234-0.428-0.778-1.012-0.778-1.557
		l0.622,0.389c-0.038,0.079-0.038,0.079-0.038,0.195v0.155c0,0.506,1.012,1.207,1.012,1.829L18.327,32.609L18.327,32.609z
		 M19.572,30.508c-0.351,0.194-0.817,0.545-0.817,1.012c0,0.312,0.272,0.623,0.272,0.896c0,0.466-0.272,0.855-0.584,1.012
		c0.039-0.234,0.467-0.468,0.467-0.974c0-0.778-1.128-1.557-1.128-2.218h0.35c0.312,0,0.74-0.116,0.817-0.35
		c0.039-0.117-0.077-0.271,0.116-0.468c0.156-0.194,0.234-0.116,0.234-0.467l-0.155,0.039l-0.079-0.078l0.039-0.233
		c-0.272,0.039-0.428,0.467-0.622,0.467h-0.078c-0.312,0-0.544-0.233-0.544-0.545v-0.116c0-0.194,0.389-0.739,0.661-0.739h0.351
		c0.077,0,0.311,0.233,0.311,0.312c0,0.077-0.351,0.389-0.117,0.389c0.079,0,0.429-0.194,0.507-0.233v2.294H19.572z M37.277,55.49
		c-0.272-0.078-1.129-0.623-1.518-0.778c-0.428-0.233-1.012-0.623-1.439-0.856c-0.506-0.271-0.974-0.506-1.44-0.855
		c-0.155-0.077-0.622-0.35-0.778-0.389c-0.039-0.038-0.661-0.428-0.7-0.467c-0.429-0.272-0.973-0.623-1.4-0.896
		c-0.351-0.155-1.168-0.7-1.4-0.934c-0.078-0.039-0.623-0.429-0.702-0.429c-0.116-0.077-0.544-0.428-0.66-0.506
		c-0.429-0.351-0.896-0.7-1.324-1.012c-0.155-0.117-1.128-0.935-1.205-1.091c-0.117-0.115-0.546-0.467-0.623-0.545
		c-0.078-0.193-0.39-0.467-0.507-0.66c-0.35-0.43-0.622-0.896-0.933-1.362c-0.351-0.428-0.584-1.012-0.856-1.479
		c-1.012-1.672-0.973-5.524-0.973-8.289v-1.244c0-0.194,0.272-1.128,0.35-1.4h16.11V55.49H37.277z M37.277,31.325H21.09
		c0-0.351-0.04-0.778-0.312-0.856v-3.347c0.312-0.077,0.271-0.389,0.428-0.506v4.241h0.389l0.039-2.646h1.518l0.04,2.646h0.428
		h13.308V20.818h-9.494v1.401H25.72c0,0.116,0,0.194,0.117,0.194h1.596v1.984h-0.078v-1.945h-1.518v0.895l-1.128-0.739l-0.234-0.039
		c0,0-1.556,0.973-1.673,1.09c-0.233,0.155-1.635,0.934-1.635,1.09v0.584h6.266v0.077h-6.266v0.272h6.266v0.077h-6.266v0.234h6.266
		v0.116h-6.227v0.429l-0.428-0.272L20.7,14.903c1.557,0.351,3.813,0.661,5.682,0.661h0.156c1.478,0,2.918-0.428,4.124-0.738
		c0.661-0.195,1.206-0.429,1.829-0.623c0.428-0.155,1.4-0.506,1.712-0.7h0.156l2.918-1.362V31.325z M26.538,28.718v1.168h-0.779
		v-1.168H26.538z M25.759,28.64v-1.206h0.779v1.206H25.759z M27.433,28.718v1.206h-0.817v-1.206H27.433z M26.615,28.64v-1.206h0.817
		v1.206H26.615z M31.245,26.032v3.152h-2.14v-3.152H31.245z M29.105,25.838v-3.151h2.14v3.151H29.105z M33.542,26.032v3.152h-2.141
		v-3.152H33.542z M31.401,25.838v-3.151h2.141v3.151H31.401z M38.25,12.141c0.739,0.39,1.596,0.778,2.412,1.09
		c0.39,0.194,0.818,0.389,1.207,0.545c0.389,0.155,0.856,0.272,1.246,0.467c1.05,0.467,4.163,1.322,5.603,1.322h0.311
		c1.013,0,2.141-0.077,3.036-0.193c0.428-0.078,1.012-0.117,1.44-0.195c0.271-0.077,1.089-0.233,1.322-0.271L54.75,26.188
		l-0.429,0.389c0.039,0.156,0.195,0.506,0.39,0.545v3.347c-0.194,0.039-0.272,0.467-0.272,0.739v0.117H38.25V12.141z M54.711,35.256
		c0,0.777-0.039,1.479-0.039,2.219c0,0.621,0,1.633-0.078,2.217c-0.116,0.662-0.116,1.363-0.312,1.984
		c-0.194,0.662-0.311,1.09-0.622,1.674c-0.194,0.428-0.584,1.09-0.856,1.439c-0.078,0.156-0.389,0.545-0.467,0.661
		c-0.078,0.194-0.078,0.194-0.233,0.351c-0.078,0.155-0.117,0.233-0.233,0.352c-0.662,0.815-1.518,1.595-2.335,2.256
		c-0.429,0.351-0.817,0.662-1.284,1.013c-0.155,0.077-0.584,0.429-0.661,0.468c-0.117,0.037-0.584,0.389-0.701,0.467
		c-0.077,0.076-0.544,0.39-0.661,0.467c-0.233,0.117-0.506,0.312-0.7,0.467c-0.468,0.271-1.051,0.545-1.44,0.855
		c-0.078,0.078-0.622,0.43-0.661,0.467c-0.233,0.078-0.233,0.078-0.389,0.195c-0.156,0.116-0.234,0.116-0.39,0.193
		c-0.233,0.195-1.129,0.701-1.44,0.855c-0.389,0.156-1.089,0.701-1.439,0.856c-0.427,0.155-1.167,0.661-1.518,0.778V32.298h16.11
		l0.078,0.506c0.039,0.077,0.272,0.7,0.272,0.817L54.711,35.256L54.711,35.256z"/>
	<path fill="#777777" d="M52.143,34.088h-1.479h-2.919h-5.797h-3.191v0.934h3.152v17.939c0.117-0.039,0.272-0.039,0.272-0.193
		V35.021h10.156v9.455c0.233-0.154,1.168-2.063,1.168-2.528v-7.744C53.505,34.01,52.376,34.088,52.143,34.088z"/>
	<rect x="47.084" y="36.189" fill="#777777" width="3.541" height="3.969"/>
	<rect x="42.92" y="36.189" fill="#777777" width="3.852" height="0.545"/>
	<path fill="#777777" d="M42.92,50.471h2.996c0.078,0,0.662-0.429,0.739-0.507H42.92V50.471z"/>
	<path fill="#777777" d="M42.92,49.342h4.592c0.117,0,0.623-0.428,0.739-0.506H42.92V49.342z"/>
	<rect x="42.92" y="41.948" fill="#777777" width="7.705" height="0.506"/>
	<path fill="#777777" d="M42.92,48.213h6.07c0.116,0,0.623-0.467,0.7-0.545h-6.77V48.213z"/>
	<path fill="#777777" d="M42.92,51.677h1.128c0.079,0,0.856-0.506,0.896-0.584H42.92V51.677z"/>
	<rect x="42.92" y="44.205" fill="#777777" width="7.705" height="0.545"/>
	<rect x="42.92" y="43.077" fill="#777777" width="7.705" height="0.506"/>
	<rect x="42.92" y="45.372" fill="#777777" width="7.705" height="0.545"/>
	<path fill="#777777" d="M42.92,47.046h7.433c0.194,0,0.039-0.116,0.272-0.194V46.54H42.92V47.046z"/>
	<rect x="42.92" y="37.316" fill="#777777" width="3.852" height="0.545"/>
	<path fill="#777777" d="M67.824,54.596c-0.078,0,0,0-0.078,0.038c0.078,0.312,0.467,0.312,0.467,0.739v0.039
		c0,0.117-0.232,0.232-0.35,0.232h-0.507c-0.271,0-0.466-0.078-0.622-0.193l0.429-0.117l0.038-0.428
		c0.077-0.545-0.973-1.439-1.284-1.79l0.039,0.312c0.039,0.078,0.194,0.389,0.194,0.506v0.155c0,0.117-0.116,0.351-0.233,0.351
		h-0.194c-0.662,0-0.895-0.545-1.206-0.777c0,0.738,0.155,0.816,0.467,1.245c0.155,0.194,0.778,0.545,1.167,0.545
		c0.233,0.467,1.09,1.051,1.751,1.051h0.233c0.39,0,0.896-0.233,0.896-0.623C69.03,55.334,68.213,54.596,67.824,54.596z"/>
	<path fill="#777777" d="M71.326,55.257c0.078-0.039,0.117-0.116,0.272-0.116c0.078,0,0.155,0.077,0.155,0.116
		c0,0.545-0.622,0.545-0.661,0.974c0.467-0.117,1.634-0.662,1.634-1.207v-0.312c-0.154,0-0.077-0.039-0.232-0.039
		C71.949,54.673,71.443,54.829,71.326,55.257z"/>
	<path fill="#777777" d="M71.093,55.725c0-0.468-1.013-0.623-1.557-0.623h-0.272c-0.078,0-0.116,0.039-0.116,0.078
		c0.272,0.038,0.817,0.271,0.817,0.545v0.154c0,0.313-0.74,0.506-0.935,0.662c0.662,0,2.063-0.232,2.063-0.777V55.725z"/>
	<path fill="#777777" d="M65.801,52.26l-0.507,0.117c0.039-0.429,0.351-0.429,0.351-0.738v-0.272
		c-0.816,0.077-0.934,0.739-1.673,0.739c-0.117,0-0.155-0.039-0.272-0.039c-0.039,0.078-0.078,0.117-0.078,0.233v0.232
		c0,0.116,0.351,0.623,0.468,0.7C64.866,53.155,65.801,53.077,65.801,52.26z"/>
	<path fill="#777777" d="M64.983,51.404l0.661-0.661c0-0.313,0.117-0.272,0.117-0.546V50.12c0-0.233-0.078-0.351-0.117-0.545
		c-0.389,0.116-1.167,1.557-2.141,1.596v0.077c0.195,0.039,0.468,0.271,0.74,0.271C64.594,51.521,64.672,51.404,64.983,51.404z"/>
	<path fill="#777777" d="M75.14,50.703h-0.039c-0.312,0-0.584,0.195-0.584,0.507v0.39c0.272-0.039,0.195-0.156,0.272-0.313
		c0.117-0.155,0.272-0.039,0.545-0.039l-0.039,0.468c0.272-0.077,0.117-0.116,0.233-0.272V51.21
		C75.412,51.055,75.373,50.703,75.14,50.703z"/>
	<path fill="#777777" d="M20.272,27.122c0-0.116-0.078-0.116-0.155-0.155l-0.272,0.039v0.233c0.077,0.039,0.077,0.039,0.194,0.039
		h0.233V27.122z"/>
	<path fill="#777777" d="M72.96,53.895c-0.194,0.117-0.622,0.352-0.661,0.623c0.273,0,0.273-0.078,0.506-0.078h0.117v0.429
		c0,0.272-0.117,0.233-0.117,0.545c0.195-0.116,0.622-0.545,0.622-0.815v-0.313c0-0.155-0.116-0.271-0.155-0.429L72.96,53.895z"/>
	<path fill="#777777" d="M14.785,51.793c0.39,0,1.09-0.077,1.285-0.271c-0.507,0-1.479-0.039-1.674-0.312
		c0.077-0.117,0.312-0.155,0.506-0.312c0.155-0.195,0.272-0.233,0.389-0.469c-0.271,0.078-0.817,0.195-1.09,0.195h-0.272
		c-0.389,0-0.583-0.271-0.738-0.506c0-0.156-0.194-1.168-0.233-1.362c-0.117-0.467-0.233-0.817-0.778-0.856
		c0.077,0.117,0.233,0.545,0.233,0.74v0.428c0,0.546-0.39,1.285-0.856,1.324v0.078c0.039,0,0.506,0.428,0.584,0.504
		c0.116,0.078,0.584,0.352,0.739,0.391c0.39,0.193,1.245,0.428,1.79,0.428H14.785L14.785,51.793z"/>
	<path fill="#777777" d="M74.944,51.716h-0.311c-0.117,0-0.312,0.194-0.39,0.272c-0.038,0.039-0.232,0.428-0.232,0.428
		c0,0.116,0.077,0.116,0.155,0.156c0.077-0.156,0.155-0.313,0.389-0.313h0.039c0.117,0,0.233,0.04,0.233,0.156v0.233
		c0,0.154-0.155,0.389-0.155,0.545v0.039c0,0.115,0,0.115,0.039,0.193c0.155-0.232,0.544-0.777,0.544-1.168
		C75.256,52.064,75.101,51.716,74.944,51.716z"/>
	<path fill="#777777" d="M55.645,55.218c0.078,0,0.272,0.313,0.311,0.39h0.779c0.155,0,0.272-0.077,0.272-0.233
		c-0.117,0-0.156,0.039-0.272,0.039h-0.156c-0.233,0-0.466-0.194-0.466-0.429c0-0.233,0.66,0.078,0.66-0.193
		c0-0.232-0.389-0.078-0.389-0.232c0-0.156,0.545-0.352,0.739-0.352v-0.078c-0.116-0.039-0.116-0.077-0.272-0.077h-0.233
		c-0.078,0-0.078,0.038-0.155,0.077l-0.468,0.039c0.079-0.313,0.429-0.352,0.778-0.352l0.078-0.154l-0.272-0.155l0.623-0.272
		c-0.078-0.116-0.312-0.351-0.545-0.351h-0.078c-0.584,0-0.895,0.739-1.128,1.168c0.35,0,0.155,0.232,0.428,0.312l-0.389,0.896
		C55.605,55.218,55.566,55.218,55.645,55.218z M56.578,53.038c0.117,0,0.194,0.078,0.233,0.155l-0.661,0.078
		C56.189,53.116,56.384,53.038,56.578,53.038z"/>
	<path fill="#777777" d="M60.354,51.988H59.77c0.233,1.05,1.829,0.738,2.334,1.518l0.146,0.108c0.027-0.036,0.049-0.052,0.049-0.108
		v-0.271C62.299,52.648,61.014,51.988,60.354,51.988z"/>
	<path fill="#777777" d="M55.45,26.967h-0.039c-0.156,0-0.194,0.155-0.194,0.312h0.312c0.116,0,0.155-0.117,0.155-0.195
		S55.528,26.967,55.45,26.967z"/>
	<path fill="#777777" d="M55.839,27.59c0.234,0,0.351-0.078,0.351-0.312h-0.272c-0.117,0-0.233,0.039-0.233,0.155
		C55.684,27.512,55.8,27.59,55.839,27.59z"/>
	<path fill="#777777" d="M56.228,26.85c0-0.077-0.038-0.116-0.115-0.116h-0.078c-0.079,0-0.234,0.155-0.234,0.233v0.039
		c0,0.077,0.039,0.116,0.117,0.116h0.156c0.077,0,0.154-0.077,0.154-0.155V26.85z"/>
	<path fill="#777777" d="M62.104,53.506l-0.622-0.234v0.039c0.117,0.233,0.272,0.313,0.272,0.584v0.156
		c0,0.155-0.155,0.077-0.272,0.311c-0.739,0-1.518,0.234-2.023,0.507c-0.155,0.116-0.661,0.429-0.739,0.545
		c-0.156,0.155-0.467,0.584-0.662,0.623c-0.077-0.312-0.116-0.429-0.506-0.429c0.039,0.117,0.078,0.233,0.078,0.39v0.039
		c0,0.155-0.233,0.272-0.428,0.272h-0.194l-0.895-0.078c-0.078,0-0.313,0.039-0.313,0.117c0,0.115,0.078,0.154,0.194,0.193v0.193
		c0.233,0,0.351,0.117,0.662,0.117h0.389c0.701,0,1.012-0.39,1.401-0.623c0.116-0.039,1.129-0.855,1.168-0.896
		c0.155,0,0.583-0.155,0.699-0.233c0.233-0.078,0.506-0.115,0.739-0.193c0.351-0.077,1.246-0.35,1.246-0.661v-0.351
		c0-0.117-0.039-0.155-0.078-0.233c0.008-0.017,0.017-0.028,0.024-0.039H62.22L62.104,53.506z"/>
	<path fill="#777777" d="M55.955,56.15c0.272,0,0.468-0.154,0.896-0.154c-0.078-0.117-0.233-0.313-0.389-0.313h-0.234
		c-0.272,0-0.583,0.156-0.583,0.428c0.117,0,0.155,0.039,0.272,0.039H55.955z"/>
	<polygon fill="#777777" points="62.26,53.622 62.25,53.614 62.245,53.622 	"/>
	<path fill="#777777" d="M74.283,52.768l-0.116,0.037l-0.117-0.076c-0.194,0.232-0.895,0.389-0.934,1.012
		c0.194,0,0.388-0.195,0.583-0.195c0.156,0,0.156,0.156,0.156,0.313c0,0.468-0.233,0.545-0.312,0.855
		c0.272-0.195,0.935-0.738,0.935-1.168v-0.154l-0.039-0.429L74.283,52.768z"/>
	<path fill="#777777" d="M33.619,14.32c-0.467,0.272-0.855,0.622-1.322,0.855v-0.428l-0.701,0.272c-0.272,0-1.439,0.428-1.828,0.506
		c-0.545,0.156-0.623-0.078-0.623,0.545v1.206l-2.958,1.984h10.74v-4.396c0-0.117-1.673-1.129-1.867-1.246
		c-0.233,0.156-0.468,0.194-0.739,0.312C34.009,14.086,33.892,14.164,33.619,14.32z"/>
	<path fill="#777777" d="M42.765,59.305h-0.117c-0.973,0-1.713,1.479-1.713,2.528c0,0.778,0.429,1.558,1.168,1.558
		c0.896,0,1.712-1.439,1.712-2.414v-0.193c0-0.428-0.155-0.7-0.312-0.973C43.426,59.652,42.998,59.305,42.765,59.305z
		 M43.037,60.938c0,0.701-0.351,2.181-0.935,2.181h-0.039c-0.233,0-0.389-0.778-0.389-1.052v-0.312c0-0.7,0.389-2.179,0.973-2.179
		c0.351,0,0.39,0.855,0.39,1.206V60.938z"/>
	<path fill="#777777" d="M47.744,57.863v-0.155c0-0.272,0.624-0.078,0.857-0.078c0.116,0,0.271-0.116,0.271-0.233
		c0-0.193-0.194-0.467-0.428-0.467c-0.428,0-0.467,0.194-0.701,0.233c-0.038,0.233-0.311,0.312-0.311,0.7v0.506
		c0,0.352,0.39,0.74,0.623,0.896c0.155,0.076,0.312,0.232,0.467,0.312c0.233,0.116,0.155,0.194,0.428,0.35
		c0,0.233,0.077,0.233,0.077,0.429v0.039c0,0.155-0.155,0.271-0.35,0.271c-0.271,0-0.35-0.116-0.544-0.155
		c-0.195,0-0.391,0.194-0.391,0.351c0,0.195,0.234,0.351,0.43,0.351h0.116c0.661,0,1.128-0.622,1.128-1.284
		C49.418,58.759,47.744,58.253,47.744,57.863z"/>
	<path fill="#777777" d="M40.585,67.475h-0.506c-0.312,0-0.738-0.621-0.738-0.895v-0.35c0-0.545,0.427-1.09,0.972-1.09
		c0.35,0,0.739,0.271,0.778,0.582h0.078l-0.078-0.66l-0.429-0.039h-0.699c-0.35,0-1.013,0.662-1.013,1.09v0.545
		c0,0.193,0.272,0.506,0.391,0.622c0.232,0.271,0.427,0.194,0.622,0.351h0.583c0.428-0.271,0.7,0.271,0.778-0.777
		C41.091,66.893,41.013,67.475,40.585,67.475z"/>
	<path fill="#777777" d="M21.634,38.057c0,0.078,0.039,0.194,0.156,0.194h5.214v0.078h-4.902v3.502c0,0.351,0.35,0.935,0.467,1.246
		c0.078,0.233,0.583,0.896,0.623,1.089h3.813v0.117H23.27l0.233,0.35h3.464v0.078H23.58c0.078,0.155,0.662,1.051,0.817,1.051h0.623
		v0.739c0,0.117,0.312,0.39,0.429,0.429v-1.168h1.128v1.713H26.07c0.039,0.077,0.039,0.116,0.156,0.116h0.35v0.272
		c0,0.115,0,0.076,0.078,0.115V47.59h0.312v0.584c0,0.077,1.284,1.051,1.362,1.051h6.069V47.59h0.467v1.674h-0.816v0.077h-5.525
		c0.078,0.117,0.505,0.429,0.661,0.429h4.864v0.116H29.3c0.078,0.117,1.673,1.167,1.829,1.167h1.284v0.778
		c0,0.116,0.039,0.078,0.117,0.116v-0.896h1.361v1.675c0,0.115,0.39,0.271,0.506,0.35v-1.012h0.467v1.205
		c0,0.117,0,0.078,0.078,0.117v-1.322h1.167v1.713h-0.466c0.077,0.037,0.116,0.076,0.272,0.076h0.193v0.117
		c0,0.116,0.272,0.233,0.39,0.272v-0.39h0.506v-0.078h-0.506v-1.713h0.506V51.09h-2.607v-0.078h2.607v-0.35h-2.607v-0.117h2.607
		v-1.284h-0.506v-1.673h0.506v-0.117h-0.506v-1.712h0.506v-1.051h-2.607V44.63h2.607v-0.35h-2.607v-0.117h2.607v-1.167h-0.506
		v-1.712h0.506V41.17h-0.506v-1.673h0.506v-1.168h-2.607v-0.078h2.607V37.59h-2.607V34.4h-7.394v3.19h-5.409v0.352h0.078
		C21.673,37.979,21.634,38.057,21.634,38.057z M26.966,47.436h-0.272v-1.674h0.272V47.436z M34.942,45.762h1.129v1.674h-1.129
		V45.762z M34.942,47.591h1.167v1.673h-1.167V47.591z M23.813,42.999h-1.167v-1.712h1.167V42.999z M23.813,41.17h-1.167v-1.673
		h1.167V41.17z M25.02,42.96h-1.128v-1.673h1.128V42.96z M25.02,41.17h-1.168v-1.673h1.168V41.17z M26.576,41.561
		c0,0.193-0.155,0.037-0.155,0.311c0,0.154,0.155,0.117,0.155,0.271v0.817h-1.128v-1.673h1.128V41.561z M26.576,41.17h-1.167v-1.673
		h1.167V41.17z M26.654,39.497h0.35v1.673h-0.35V39.497z M29.027,47.707h-1.284c-0.077,0-0.116-0.039-0.116-0.116v-1.946h1.4V47.707
		z M29.027,45.489h-1.361v-2.023h1.361V45.489z M30.507,47.668h-1.362v-2.023h1.362V47.668z M30.507,45.489h-1.362v-2.023h1.362
		V45.489z M32.413,47.707h-1.401v-2.063h1.401V47.707z M32.413,45.489h-1.401v-2.023h1.401V45.489z M33.892,47.668H32.53v-2.023
		h1.361L33.892,47.668L33.892,47.668z M33.892,45.489H32.53v-2.023h1.361L33.892,45.489L33.892,45.489z M34.826,45.762v1.674h-0.429
		v-1.674H34.826z M34.826,42.96h-0.429v-0.817h-7.394l-0.038,0.817H26.77h-0.077v-0.896h8.133V42.96z M34.942,39.497h1.167v1.673
		h-1.167V39.497z M34.942,42.298v-0.896v-0.115h1.129v1.673h-1.129V42.298z M34.397,39.497h0.467v1.673h-0.467V39.497z
		 M32.53,35.839h1.361v2.063H32.53V35.839z M32.53,38.057h1.361v2.024H32.53V38.057z M31.012,35.839h1.401v2.063h-1.401V35.839z
		 M31.012,38.018h1.401v2.063h-1.401V38.018z M29.145,35.839h1.401v2.063h-1.401V35.839z M29.145,38.057h1.362v2.024h-1.362V38.057z
		 M27.627,35.839h1.4v2.063h-1.4V35.839z M29.027,38.057v2.024h-1.361v-2.024H29.027z M34.397,41.521v-0.233h0.429v0.351h-8.133
		v-0.351h0.311v0.233H34.397z"/>
	<path fill="#777777" d="M25.604,19.573v0.233c0,0.156,0.194,0.194,0.35,0.194h10.974v-0.506h-11.13
		C25.682,19.495,25.759,19.534,25.604,19.573z"/>
	<path fill="#777777" d="M26.343,33.972h0.116c-0.038,0.116-0.038,0.077-0.038,0.155c0,0.117,0.077,0.233,0.194,0.233h8.094
		c0.155,0,0.194-0.078,0.272-0.116l-0.039-0.272h0.272c0.039-0.078,0.117-0.117,0.117-0.195v-0.078c0-0.077-0.078-0.155-0.156-0.155
		h-8.949c-0.117,0-0.156,0.117-0.156,0.194C26.07,33.894,26.187,33.972,26.343,33.972z"/>
	<path fill="#777777" d="M26.304,20.352c0,0.194,0.117,0.312,0.312,0.312h10.312v-0.507h-10.43
		C26.421,20.156,26.304,20.273,26.304,20.352z"/>
	<path fill="#777777" d="M39.301,62.923c0.351-0.39,0.623-0.973,0.623-1.713c0-0.545-0.351-1.323-0.856-1.323h-0.39
		c-0.389,0-1.089,0.662-1.245,0.896c-0.233,0.389-0.584,0.934-0.584,1.596v0.194c0,0.584,0.468,1.245,1.052,1.245
		C38.522,63.816,39.028,63.271,39.301,62.923z M37.55,63.078v-0.155c0-0.545,0.156-1.207,0.351-1.557
		c0.077-0.195,0.194-0.507,0.311-0.623c0.039-0.039,0.428-0.545,0.428-0.545h0.39c0.155,0,0.194,0.233,0.194,0.39v0.232
		c0,0.39-0.116,1.013-0.272,1.246v0.193c-0.233,0.313-0.544,1.245-1.011,1.245h-0.156C37.628,63.506,37.55,63.232,37.55,63.078z"/>
	<path fill="#777777" d="M46.461,60.704c-0.078,0.272-0.233,0.935-0.545,0.935c0-0.935-0.077-2.063-0.077-2.996
		c0-0.39,0.077-2.957-0.117-2.957c-0.117,0-0.817,0.896-1.168,0.973c0,0.271,0.156,0.195,0.468,0.195
		c0.193,0.428,0.078,2.062,0.116,2.762c0,0.429,0.039,0.896,0.039,1.4c0,0.233-0.039,0.467,0,0.7
		c0.038,0.194,0.155,0.468,0.155,0.584c0.155,0.039,0.195,0.116,0.272,0.116h0.039c0.506,0,1.012-1.129,1.012-1.634
		C46.655,60.704,46.539,60.704,46.461,60.704z"/>
	<path fill="#777777" d="M20.078,54.051c-0.233-0.351-0.545-1.168-1.09-1.168c-0.312,0-0.545,0.155-0.661,0.352l0.622,0.311
		c-0.194,0-0.272,0.039-0.272,0.234c0.351,0.076,0.817,0.037,0.817,0.389c-0.233,0-0.545-0.116-0.662-0.116H18.6
		c-0.117,0-0.039,0.038-0.195,0.077v0.078c0.156,0,0.74,0.193,0.74,0.311c0,0.234-0.39,0.041-0.39,0.273
		c0,0.193,0.35,0.077,0.545,0.116c0.233,0.038,0,0.272-0.039,0.428c-0.195,0-0.156,0.078-0.312,0.078h-0.233
		c-0.116,0-0.116,0-0.194-0.039c0,0.117,0.078,0.233,0.194,0.233h0.856c0.038-0.116,0.194-0.39,0.311-0.39
		c0.117,0,0.039,0.039,0.195,0.078l-0.468-0.935C19.922,54.283,19.728,54.051,20.078,54.051z M19.377,53.271l-0.661-0.078
		c0.039-0.077,0.116-0.155,0.233-0.155c0.233,0,0.233,0.155,0.428,0.155V53.271z"/>
	<path fill="#777777" d="M37.706,67.438h-0.585c-0.038-0.078-0.038-0.078-0.038-0.195v-1.79c0-0.233,0.116-0.272,0.35-0.272v-0.115
		h-1.167v0.115h0.155c0.078,0,0.272,0.117,0.272,0.234v1.751c0,0.155-0.116,0.312-0.233,0.312h-0.194v0.078h2.023l0.078-0.701
		C38.173,66.93,38.095,67.438,37.706,67.438z"/>
	<path fill="#777777" d="M19.377,55.686h-0.232c-0.234,0-0.39,0.155-0.468,0.312c0.272,0,0.778,0.155,0.856,0.155l0.312-0.039
		v-0.116C19.845,55.841,19.533,55.686,19.377,55.686z"/>
	<path fill="#777777" d="M19.533,56.229l-1.09,0.078h-0.116c-0.234,0-0.429-0.078-0.429-0.312v-0.039l0.039-0.351
		c-0.428,0-0.312,0.155-0.506,0.429c-0.194-0.117-0.467-0.468-0.623-0.623c-0.116-0.116-0.545-0.39-0.738-0.507
		c-0.429-0.311-1.246-0.545-1.984-0.545c-0.079-0.037-0.352-0.271-0.352-0.35v-0.117c0-0.312,0.272-0.271,0.272-0.584
		c-0.35,0-0.506,0.195-0.7,0.313c0.194-0.778,2.219-0.584,2.452-1.635h-0.506c-0.779,0-2.063,0.623-2.063,1.361v0.039
		c0,0.155,0.078,0.194,0.116,0.272c-0.038,0.077-0.116,0.116-0.116,0.271v0.195c0,0.506,0.816,0.623,1.206,0.777
		c0.584,0.195,0.973,0.195,1.518,0.468c0.661,0.39,1.596,1.479,2.49,1.479h0.506c0.272,0,0.39-0.117,0.623-0.117v-0.194
		c0.077-0.039,0.155-0.039,0.155-0.156C19.688,56.27,19.572,56.229,19.533,56.229z"/>
	<path fill="#777777" d="M29.611,56.502v0.078c0,0.506-0.155,0.583-0.194,0.895l0.194,0.039l0.7-1.166
		c-0.194-0.039-0.622-0.469-0.778-0.623c-0.194-0.156-0.7-0.391-1.051-0.391h-0.35c-0.662,0-1.012,0.545-1.284,0.936
		c0,0.271-0.078,0.193-0.078,0.389v0.078c0,0.816,0.468,1.673,0.39,2.296l-0.039,0.467c-0.233,0.351-0.467,0.778-1.012,0.778
		c-0.583,0-1.323-0.545-1.323-1.09v-0.233c0-0.312,0.233-0.622,0.233-0.896h-0.272l0.039,0.039l-0.778,1.168
		c0.467,0.116,1.09,1.361,2.258,1.361h0.35c0.429,0,0.7-0.234,0.934-0.429c0.156-0.116,0.506-0.622,0.506-0.896v-0.777
		c0-0.391-0.312-0.974-0.312-1.401v-0.429c0-0.389,0.507-1.051,0.857-1.051C29.027,55.646,29.611,56.074,29.611,56.502z"/>
	<path fill="#777777" d="M31.558,58.953h-0.429c-0.428,0-1.361,0.545-1.557,0.777c-0.233,0.272-0.934,0.935-0.934,1.401v0.429
		c0,0.193,0.233,0.506,0.351,0.582c0.272,0.195,0.428,0.117,0.778,0.117c0.194-0.117,0.973-0.389,0.973-0.621v-0.117
		c-0.233,0.039-0.467,0.271-0.856,0.271h-0.116c-0.195,0-0.351-0.117-0.351-0.313v-0.115c0-0.272,0.272-0.739,0.389-0.936
		c0.272-0.389,0.312-0.389,0.584-0.738c1.09-1.207,0.934,0.232,1.518,0.232C32.53,59.926,32.024,58.953,31.558,58.953z"/>
	<path fill="#777777" d="M34.826,59.887c-0.467,0.156-0.817,0.701-1.129,0.896c0.155-0.623,1.596-2.957,1.596-3.348
		c0-0.039-0.039-0.078-0.117-0.078c0,0-0.584,0.156-0.661,0.195c-0.233,0.038-0.506,0.077-0.739,0.116
		c0,0.351,0.35,0.156,0.35,0.429v0.077c0,0.117-2.101,4.319-2.335,4.748c0.078,0.116,0.195,0.194,0.351,0.194
		c0.467,0,0.429-0.467,0.662-0.778c0.233-0.272,0.35-0.584,0.584-0.856c0.311-0.312,1.05-1.205,1.634-1.205
		c0.155,0,0.272,0.154,0.272,0.312v0.039c0,0.622-0.739,2.373-1.206,2.373c-0.155,0-0.195-0.351-0.468-0.351h-0.116
		c-0.156,0-0.312,0.117-0.312,0.233v0.351c0.155,0.039,0.272,0.233,0.389,0.233h0.079c0.973,0,2.45-1.829,2.45-2.919v-0.078
		C36.109,59.85,35.409,59.73,34.826,59.887z"/>
	<path fill="#777777" d="M35.06,67.438h-0.428c-0.117,0-0.156-0.117-0.156-0.234v-1.789c0-0.156,0.194-0.234,0.389-0.234v-0.115
		h-1.128c0.039,0.154,0.078,0.154,0.272,0.154c0.039,0.078,0.116,0.117,0.116,0.195v1.828c0,0.156-0.193,0.232-0.389,0.232v0.078
		h1.945l0.155-0.699C35.564,66.893,35.604,67.438,35.06,67.438z"/>
	<rect x="38.756" y="38.484" fill="#777777" width="2.49" height="0.506"/>
	<rect x="38.756" y="43.077" fill="#777777" width="2.49" height="0.506"/>
	<rect x="38.756" y="44.205" fill="#777777" width="2.49" height="0.545"/>
	<rect x="38.756" y="45.372" fill="#777777" width="2.49" height="0.545"/>
	<rect x="38.756" y="46.54" fill="#777777" width="2.49" height="0.506"/>
	<rect x="38.756" y="47.668" fill="#777777" width="2.49" height="0.545"/>
	<rect x="38.756" y="39.613" fill="#777777" width="2.49" height="0.545"/>
	<rect x="38.756" y="37.316" fill="#777777" width="2.49" height="0.545"/>
	<rect x="38.756" y="41.948" fill="#777777" width="2.49" height="0.506"/>
	<rect x="38.756" y="40.781" fill="#777777" width="2.49" height="0.545"/>
	<rect x="38.756" y="49.964" fill="#777777" width="2.49" height="0.507"/>
	<path fill="#777777" d="M46.539,15.721c-0.194-0.038-0.817-0.156-0.935-0.194v0.077l-0.272-0.077L45.1,15.76v-0.351l-2.141-0.7
		c-0.239-0.17-0.536-0.275-0.814-0.301c0.012,0.014,0.009,0.028-0.042,0.028v-0.032c-0.025-0.001-0.052-0.007-0.077-0.007
		c-0.117,0-0.117,0-0.234-0.039l-0.155,0.234V14.28l-0.233-0.078l0.078-0.078l-2.842-1.283v11.984h0.584v5.954
		c0,0.077,0.039,0.116,0.118,0.116h1.517v-6.07h1.596v6.07h1.556c0.078,0,0.118-0.039,0.118-0.116v-5.954h1.595v6.031h1.635V15.993
		C47.356,15.838,46.694,15.76,46.539,15.721z M39.807,23.737l-0.272-0.078l-0.272,0.233v-0.351l-0.233-0.039
		c0.233-0.194,0.272,0.117,0.272-0.389l0.194,0.194l0.312-0.116l-0.193,0.272L39.807,23.737z M39.807,21.402l-0.272-0.078
		l-0.272,0.272v-0.351l-0.272-0.077l0.272-0.078v-0.35l0.272,0.233l0.272-0.077l-0.193,0.233L39.807,21.402z M39.807,19.067
		l-0.312-0.078l-0.194,0.233V18.95l-0.233-0.077v-0.078l0.233-0.078v-0.272l0.155,0.195h0.117c0.117,0,0.155-0.039,0.233-0.078
		l-0.193,0.272L39.807,19.067z M39.807,16.771l-0.272-0.078l-0.272,0.233c0-0.35,0.079-0.389-0.272-0.389l0.272-0.117v-0.35
		l0.272,0.272l0.272-0.117l-0.193,0.312L39.807,16.771z M39.613,14.164l0.154,0.233l-0.233-0.039l-0.233,0.195v-0.271l-0.272-0.078
		l0.233-0.117v-0.311l0.272,0.233l0.272-0.078L39.613,14.164z M40.935,22.569l-0.232-0.077l-0.234,0.194v-0.272l-0.271-0.117
		l0.271-0.077v-0.271c0.039,0.039,0.194,0.194,0.234,0.194c0.077,0,0.116-0.039,0.232-0.078l-0.155,0.233L40.935,22.569z
		 M40.935,20.234l-0.312-0.078l-0.155,0.234v-0.312L40.157,20l0.311-0.116v-0.272l0.194,0.233l0.312-0.117L40.78,20L40.935,20.234z
		 M40.662,17.822l-0.194,0.233v-0.312l-0.311-0.039l0.311-0.117v-0.311l0.234,0.194l0.232-0.039l-0.155,0.233l0.194,0.273
		L40.662,17.822z M40.702,15.526c-0.04,0-0.195,0.156-0.234,0.194v-0.312l-0.311-0.116c0.35,0,0.311,0.039,0.311-0.312l0.234,0.194
		l0.232-0.077l-0.155,0.233l0.194,0.271C40.818,15.604,40.818,15.526,40.702,15.526z M42.103,23.737
		c-0.155,0-0.155-0.078-0.272-0.078c-0.039,0-0.155,0.194-0.194,0.233V23.58l-0.272-0.078c0.194-0.233,0.272,0.195,0.272-0.428
		l0.233,0.233l0.233-0.078c-0.039,0.078-0.117,0.195-0.117,0.234v0.038C41.985,23.542,42.063,23.659,42.103,23.737z M42.142,21.402
		c-0.116,0-0.156-0.039-0.272-0.039h-0.117l-0.116,0.233v-0.351l-0.272-0.077c0.117-0.078-0.039-0.078,0.117-0.078h0.155v-0.35
		c0.077,0.078,0.116,0.233,0.233,0.233c0.116,0,0.116-0.077,0.272-0.077c-0.078,0.116-0.156,0.116-0.156,0.311
		C41.985,21.324,42.063,21.324,42.142,21.402z M42.103,19.067c-0.233,0-0.077-0.078-0.233-0.078c-0.117,0-0.156,0.194-0.233,0.271
		c0-0.661-0.155-0.116-0.233-0.467l0.233-0.078v-0.311c0.039,0.077,0.077,0.233,0.233,0.233c0.156,0,0.078-0.039,0.233-0.039
		c-0.039,0.077-0.117,0.116-0.117,0.194v0.078C41.985,18.95,42.063,18.989,42.103,19.067z M42.142,16.771
		c-0.194,0-0.156-0.078-0.312-0.078c-0.039,0-0.155,0.195-0.194,0.233v-0.35l-0.272-0.039l0.272-0.117v-0.35
		c0.039,0.077,0.077,0.233,0.233,0.233c0.156,0,0.156-0.039,0.272-0.078c-0.039,0.078-0.156,0.155-0.156,0.233
		C41.985,16.654,42.063,16.654,42.142,16.771z M43.932,16.421v-0.35l0.233,0.272l0.233-0.078h0.039l-0.156,0.272l0.156,0.194
		l-0.039,0.039l-0.271-0.078l-0.195,0.233v-0.35l-0.272-0.039L43.932,16.421z M43.271,22.569l-0.312-0.077l-0.116,0.232
		c-0.04-0.389,0-0.311-0.313-0.389l0.272-0.116v-0.271c0.195,0.116,0.078,0.194,0.234,0.194c0.078,0,0.116-0.039,0.233-0.078
		l-0.155,0.272L43.271,22.569z M43.271,20.234c-0.117-0.039-0.117-0.078-0.272-0.078c-0.078,0-0.039,0.117-0.195,0.234v-0.272
		l-0.272-0.155l0.272-0.078v-0.312l0.156,0.271l0.312-0.117L43.117,20L43.271,20.234z M43.037,17.86
		c-0.194,0-0.039,0.117-0.234,0.195v-0.312l-0.272-0.039l0.272-0.155v-0.272c0.078,0.078,0.156,0.194,0.195,0.194
		c0.155,0,0.077-0.039,0.232-0.039l-0.115,0.233l0.155,0.273C43.192,17.899,43.153,17.86,43.037,17.86z M43.271,15.604
		c-0.117-0.039-0.117-0.077-0.272-0.077c-0.039,0-0.117,0.116-0.195,0.194v-0.272l-0.272-0.116l0.272-0.078v-0.312l0.156,0.233
		l0.312-0.117l-0.117,0.234h-0.038L43.271,15.604z M44.438,23.775l-0.283-0.105l-0.223,0.223v-0.312l-0.272-0.078
		c0.116-0.077,0.272-0.038,0.272-0.194v-0.233l0.195,0.233l0.311-0.116l-0.156,0.311L44.438,23.775z M44.438,21.363l-0.039,0.039
		l-0.271-0.039l-0.195,0.233v-0.351l-0.272-0.116l0.272-0.039v-0.35l0.233,0.233l0.233-0.039h0.039L44.32,21.13l-0.039-0.039
		L44.438,21.363z M44.127,18.989l-0.195,0.271V18.95l-0.272-0.077v-0.078l0.311-0.078v-0.272c0.157,0.078,0.117,0.195,0.234,0.195
		c0.116,0,0.155-0.039,0.233-0.078l-0.156,0.272l0.195,0.272L44.127,18.989z M45.604,22.569l-0.311-0.077L45.1,22.725v-0.311
		l-0.272-0.117l0.272-0.039v-0.35l0.194,0.233l0.311-0.078l-0.155,0.272L45.604,22.569z M45.604,20.234l-0.311-0.078L45.1,20.429
		v-0.35l-0.272-0.078l0.272-0.116v-0.312c0.077,0.039,0.194,0.233,0.232,0.233c0.117,0,0.195-0.039,0.312-0.078
		C45.567,19.806,45.45,19.884,45.45,20C45.449,20.04,45.566,20.156,45.604,20.234z M45.332,17.86c-0.117,0,0,0.156-0.232,0.195
		v-0.312l-0.272-0.039l0.272-0.117v-0.35l0.232,0.233l0.272-0.039l-0.194,0.312l0.077-0.039l0.156,0.234
		C45.527,17.899,45.449,17.86,45.332,17.86z M45.994,18.795l0.272-0.078v-0.311L46.5,18.64l0.271-0.039l-0.193,0.233l0.193,0.233
		l-0.311-0.078l-0.194,0.271V18.95l-0.272-0.077V18.795z M46.267,20.974V20.78c0.116,0.039,0.155,0.194,0.233,0.194
		c0.116,0,0.039,0,0.116-0.039h0.078l0.039-0.038l0.038,0.038l-0.193,0.195l0.193,0.233l-0.038,0.039l-0.272-0.078l-0.194,0.233
		v-0.312l-0.272-0.116C46.111,21.091,46.267,21.13,46.267,20.974z M46.771,23.737l-0.311-0.078l-0.194,0.194v-0.272l-0.272-0.078
		l0.272-0.116v-0.312l0.194,0.233l0.351-0.116l-0.233,0.311L46.771,23.737z M46.539,16.693c-0.117,0-0.194,0.117-0.272,0.195v-0.272
		l-0.272-0.078l0.272-0.117v-0.312c0.078,0.078,0.155,0.195,0.272,0.195c0.077,0,0.116-0.039,0.232-0.078l-0.193,0.312l0.233,0.233
		C46.539,16.771,46.694,16.693,46.539,16.693z"/>
	<rect x="38.756" y="48.836" fill="#777777" width="2.49" height="0.506"/>
	<polygon fill="#777777" points="44.127,23.659 44.154,23.67 44.165,23.659 	"/>
	<path fill="#777777" d="M52.22,30.896h1.518c0.078,0,0.117-0.039,0.117-0.116V15.526l-1.635,0.272V30.896z"/>
	<path fill="#777777" d="M48.951,16.109V30.78c0,0.077,0.039,0.116,0.117,0.116h1.557V15.954c-0.351,0-0.507,0.039-0.856,0.039
		C49.574,15.993,48.951,15.915,48.951,16.109z"/>
	<path fill="#777777" d="M42.063,14.397h0.039v0.007c0.014,0.001,0.027,0.003,0.042,0.004
		C42.129,14.391,42.086,14.376,42.063,14.397z"/>
	<path fill="#777777" d="M38.717,54.439h0.624c0.038,0,1.438-0.817,1.478-0.856h-2.102V54.439z"/>
	<rect x="38.756" y="51.093" fill="#777777" width="2.49" height="0.584"/>
</g>
<g enable-background="new    ">
	<path fill="#777777" d="M115.978,33.913v4.909h-14.289v-4.909h3.718l-1.378-4.993h-7.542l-1.546,4.993h3.886v4.909H85.958v-4.909
		h3.593l5.661-19.24h-3.865V9.764h18.969v4.909h-3.906l6.1,19.24H115.978z M102.838,24.658l-2.424-8.753l-2.611,8.753H102.838z"/>
	<path fill="#777777" d="M116.938,38.822v-4.909h4.407v-19.24h-4.407V9.764h13.767c2.896,0,5.229,0.178,6.998,0.533
		c1.769,0.354,3.461,1.142,5.076,2.36s2.91,2.852,3.886,4.898c0.975,2.048,1.462,4.317,1.462,6.811c0,2.02-0.341,3.945-1.023,5.776
		c-0.682,1.831-1.528,3.308-2.537,4.429c-1.011,1.121-2.219,2.013-3.625,2.674c-1.407,0.661-2.699,1.09-3.875,1.285
		c-1.178,0.194-2.998,0.292-5.463,0.292H116.938z M128.888,33.913h1.817c2.2,0,3.944-0.285,5.232-0.856
		c1.289-0.571,2.322-1.577,3.103-3.019s1.17-3.325,1.17-5.651c0-2.214-0.394-4.094-1.181-5.64s-1.852-2.611-3.195-3.196
		c-1.345-0.585-3.055-0.878-5.129-0.878h-1.817V33.913z"/>
	<path fill="#777777" d="M151.553,38.822v-4.909h3.636v-19.24h-3.636V9.764h14.039v4.909h-3.051v6.372h7.918v-6.372h-2.945V9.764
		h13.934v4.909h-3.635v19.24h3.635v4.909h-13.934v-4.909h2.945v-7.938h-7.918v7.938h3.051v4.909H151.553z"/>
	<path fill="#777777" d="M183.683,38.822v-4.909h4.408v-19.24h-4.408V9.764h16.42v4.909h-4.45v19.24h4.45v4.909H183.683z"/>
</g>
<g>
	<g>
		<g enable-background="new    ">
			<path fill="#777777" d="M87.428,56.783c0.858,0.55,2.09,0.968,3.411,0.968c1.958,0,3.103-1.034,3.103-2.53
				c0-1.364-0.792-2.179-2.794-2.927c-2.42-0.88-3.917-2.156-3.917-4.225c0-2.31,1.914-4.026,4.796-4.026
				c1.496,0,2.619,0.353,3.256,0.727l-0.528,1.562c-0.462-0.286-1.452-0.704-2.794-0.704c-2.024,0-2.794,1.211-2.794,2.223
				c0,1.386,0.902,2.068,2.948,2.86c2.508,0.968,3.763,2.179,3.763,4.356c0,2.289-1.672,4.291-5.171,4.291
				c-1.43,0-2.992-0.44-3.784-0.969L87.428,56.783z"/>
			<path fill="#777777" d="M106.305,58.741c-0.506,0.242-1.628,0.616-3.059,0.616c-3.212,0-5.302-2.179-5.302-5.435
				c0-3.279,2.245-5.677,5.721-5.677c1.144,0,2.156,0.285,2.685,0.571l-0.44,1.475c-0.462-0.242-1.188-0.506-2.244-0.506
				c-2.442,0-3.763,1.826-3.763,4.026c0,2.464,1.584,3.982,3.696,3.982c1.101,0,1.827-0.264,2.376-0.506L106.305,58.741z"/>
			<path fill="#777777" d="M108.702,43.493h1.937v6.667h0.043c0.309-0.551,0.793-1.057,1.387-1.387
				c0.572-0.33,1.254-0.527,1.98-0.527c1.43,0,3.719,0.88,3.719,4.532v6.337h-1.937v-6.117c0-1.716-0.638-3.146-2.464-3.146
				c-1.255,0-2.223,0.881-2.598,1.915c-0.109,0.285-0.131,0.571-0.131,0.924v6.425h-1.937V43.493z"/>
			<path fill="#777777" d="M130.682,53.702c0,3.938-2.751,5.655-5.303,5.655c-2.861,0-5.105-2.112-5.105-5.479
				c0-3.543,2.354-5.633,5.281-5.633C128.613,48.246,130.682,50.468,130.682,53.702z M122.254,53.813
				c0,2.332,1.32,4.093,3.213,4.093c1.848,0,3.234-1.738,3.234-4.137c0-1.805-0.902-4.07-3.191-4.07
				C123.244,49.698,122.254,51.811,122.254,53.813z"/>
			<path fill="#777777" d="M142.891,53.702c0,3.938-2.75,5.655-5.303,5.655c-2.859,0-5.104-2.112-5.104-5.479
				c0-3.543,2.354-5.633,5.28-5.633C140.822,48.246,142.891,50.468,142.891,53.702z M134.464,53.813c0,2.332,1.32,4.093,3.212,4.093
				c1.849,0,3.234-1.738,3.234-4.137c0-1.805-0.901-4.07-3.189-4.07C135.454,49.698,134.464,51.811,134.464,53.813z"/>
			<path fill="#777777" d="M145.464,43.493h1.937v15.622h-1.937V43.493z"/>
			<path fill="#777777" d="M150.523,57.157c0.594,0.352,1.605,0.748,2.574,0.748c1.387,0,2.047-0.683,2.047-1.584
				c0-0.925-0.551-1.408-1.959-1.937c-1.936-0.704-2.838-1.738-2.838-3.015c0-1.716,1.408-3.124,3.674-3.124
				c1.078,0,2.024,0.285,2.597,0.66l-0.462,1.408c-0.418-0.265-1.188-0.639-2.178-0.639c-1.145,0-1.761,0.66-1.761,1.452
				c0,0.88,0.616,1.276,2.002,1.826c1.826,0.683,2.794,1.606,2.794,3.19c0,1.893-1.474,3.213-3.96,3.213
				c-1.166,0-2.244-0.309-2.992-0.748L150.523,57.157z"/>
			<path fill="#777777" d="M158.928,57.971c0-0.792,0.551-1.386,1.32-1.386s1.299,0.572,1.299,1.386
				c0,0.793-0.529,1.387-1.343,1.387C159.456,59.357,158.928,58.764,158.928,57.971z"/>
			<path fill="#777777" d="M168.916,44.285h1.936v13.224h6.337v1.606h-8.272V44.285z"/>
			<path fill="#777777" d="M179.432,44.285h1.936v13.224h6.337v1.606h-8.272V44.285z"/>
			<path fill="#777777" d="M199.452,58.653c-0.683,0.352-2.112,0.704-3.917,0.704c-4.18,0-7.305-2.641-7.305-7.525
				c0-4.664,3.146-7.789,7.745-7.789c1.826,0,3.015,0.396,3.521,0.66l-0.484,1.563c-0.703-0.353-1.738-0.616-2.971-0.616
				c-3.476,0-5.786,2.223-5.786,6.117c0,3.652,2.091,5.963,5.677,5.963c1.188,0,2.377-0.242,3.146-0.616L199.452,58.653z"/>
		</g>
	</g>
</g>
<g id="Vector_Smart_Object_copy_2_xA0_Image_1_">
</g>
</svg>
