<?xml version="1.0" encoding="utf-8"?>
<!-- Generator: Adobe Illustrator 16.0.0, SVG Export Plug-In . SVG Version: 6.00 Build 0)  -->
<!DOCTYPE svg PUBLIC "-//W3C//DTD SVG 1.1//EN" "http://www.w3.org/Graphics/SVG/1.1/DTD/svg11.dtd">
<svg version="1.1" xmlns="http://www.w3.org/2000/svg" xmlns:xlink="http://www.w3.org/1999/xlink" x="0px" y="0px" width="199px"
	 height="67px" viewBox="0 0 199 67" enable-background="new 0 0 199 67" xml:space="preserve">
<g id="Background_xA0_Image_1_">
</g>
<g id="Vector_Smart_Object_copy_xA0_Image_1_">
	<g>
		<g>
			<path fill="#FFFFFF" d="M63.027,44.287c0.385,0,1.502-0.539,1.656-0.732c0.116-0.153,0.463-0.385,0.617-0.577
				c0.038-0.115,0.385-0.732,0.423-0.771l-0.038-0.039l-0.038,0.039c0,0,0,0.038-0.039,0.038c-0.038,0.038-0.038,0.038-0.038,0.116
				c-0.078,0.038-0.116,0.076-0.154,0.153c-0.154,0.077-0.27,0.116-0.424,0.193c-0.153,0.076-0.809,0.192-1.04,0.192
				c-0.732,0-1.695,0.038-2.272,0.192l0.077,0.848c0,0.116-0.039,0.231-0.077,0.347H63.027z"/>
			<path fill="#FFFFFF" d="M65.724,40.704h-0.308v0.463c0,0.347-0.115,0.347-0.154,0.539l0.154,0.038
				c0.308-0.153,0.5-0.23,0.5-0.692C65.916,40.896,65.878,40.704,65.724,40.704z"/>
			<path fill="#FFFFFF" d="M63.683,38.586c-0.231-0.155-0.192-0.231-0.347-0.425c-0.154,1.772,0.115,3.506-1.155,4.2l0.038,0.038
				c0.038,0.038,1.155-0.809,1.271-1.001c0.038-0.116,0.153-0.231,0.23-0.309c0.077-0.154,0.116-0.231,0.192-0.386
				c0.154-0.192,0.271-0.577,0.271-0.886v-0.424c0-0.231-0.078-0.193-0.078-0.462C63.952,38.816,63.875,38.701,63.683,38.586z"/>
			<path fill="#FFFFFF" d="M64.029,45.327c1.155,0,2.311-1.04,2.311-2.196v-0.192c0-0.192-0.038-0.308-0.153-0.385
				c-0.077,0.27-0.886,1.001-1.117,1.232c-0.23,0.193-1.156,0.809-1.541,0.809l-1.079,0.271c0.27,0.231,0.771,0.462,1.233,0.462
				H64.029z"/>
			<path fill="#FFFFFF" d="M8.86,40.666c0.154-0.193,0.424-0.463,0.578-0.655s0.501-0.463,0.616-0.616
				c0.115-0.193,0.463-0.462,0.578-0.655c0.192-0.231,0.424-0.424,0.578-0.655c0.23-0.308,0.924-1.117,1.001-1.425l-0.809-0.424
				c-0.192,0.731-0.462,1.001-0.732,1.579c-0.076,0.154-0.385,0.501-0.501,0.655c-0.192,0.193-0.347,0.463-0.539,0.616
				c-0.27,0.27-0.848,0.964-1.04,1.271c-0.154,0.27-0.27,0.463-0.424,0.732c-0.153,0.23-0.27,0.731-0.347,0.848v0.153
				c0.038-0.038,0.385-0.616,0.463-0.771C8.397,41.167,8.745,40.82,8.86,40.666z"/>
			<path fill="#FFFFFF" d="M57.095,53.187v-0.231l-0.462-0.077c0.038,0.077,0.154,0.154,0.154,0.271
				c0,0.115-0.039,0.153-0.039,0.269C56.902,53.417,57.095,53.341,57.095,53.187z"/>
			<path fill="#FFFFFF" d="M59.253,38.161h-0.155l-0.578-0.077c0.193,0.309,0.771,0.502,1.271,0.502h0.771
				c0.192,0,0.5-0.54,0.577-0.771c0.154-0.347,0.154-0.692,0.154-1.194c0.077-0.038,0.077-0.077,0.153-0.077h0.193
				c0-0.23-0.193-0.308-0.423-0.308H61.14c-0.153,0-0.462,0.693-0.5,0.848c-0.463,0-0.732-0.309-0.964-0.309h-0.192
				c-0.23,0-0.23,0.154-0.308,0.309c0.269,0,0.384,0.039,0.538,0.192c0.077,0.039,0.348,0.347,0.348,0.424
				C60.062,37.931,59.521,38.161,59.253,38.161z"/>
			<path fill="#FFFFFF" d="M64.414,41.629c-0.038,0.154-0.23,0.578-0.23,0.578c0.153-0.039,0.655-0.578,0.731-0.732
				c0.193-0.23,0.347-0.732,0.347-1.155v-0.231l-0.038,0.039l-0.81-0.579c0.039,0.309,0.193,1.079,0.153,1.426
				C64.491,41.244,64.529,41.398,64.414,41.629z"/>
			<path fill="#FFFFFF" d="M62.064,40.781c-0.347,0.347-0.655,0.617-1.271,0.654c0,0.271,0.539,0.771,0.654,0.771
				c0.232,0,0.81-0.809,0.964-1.002c0.23-0.309,0.462-0.963,0.462-1.541c-0.192,0.192-0.231,0.347-0.386,0.578
				C62.334,40.512,62.296,40.589,62.064,40.781z"/>
			<path fill="#FFFFFF" d="M57.172,39.201c0.154,0.54,0.617,1.002,1.079,1.271c0.501,0.309,1.002,0.579,1.502,0.848
				c0.309,0.193,1.04,0.887,1.04,1.349v1.58c0.347,0,0.616-0.386,0.616-0.771v-0.271c0-1.232-1.31-2.003-1.965-2.658
				c-0.423-0.462-0.731-0.654-1.117-1.194c-0.192-0.23-0.347-0.423-0.462-0.692c-0.038-0.155-0.231-0.81-0.27-0.926
				c0.27,0.077,0.347,0.231,0.731,0.231h0.192c0-0.424-0.5-0.501-0.5-0.847c0-0.193,0.616-0.771,0.616-1.118v-0.115
				c0-0.231-0.154-0.309-0.27-0.386v0.309c-0.193,0.27-0.386,0.347-0.617,0.578c-0.23,0.153-0.539,0.27-0.539,0.693v0.039
				c0,0.192,0.231,0.423,0.309,0.577c-0.54,0-0.501-0.309-0.886-0.309C56.633,37.969,56.979,38.739,57.172,39.201z M57.558,37.699
				C57.479,37.776,57.634,37.622,57.558,37.699L57.558,37.699z"/>
			<path fill="#FFFFFF" d="M73.544,48.525h0.31c0-0.386-0.348-0.579-0.578-0.732c-0.27,0.192-0.386,0.386-0.463,0.771L73.544,48.525
				z"/>
			<path fill="#FFFFFF" d="M57.479,54.997l0.116-0.848c0.038-0.308-0.386-0.501-0.693-0.501l0.27,0.271v0.886L57.479,54.997z"/>
			<path fill="#FFFFFF" d="M0.924,51.761c0.231,0,0.309,0.154,0.424,0.309c0.039-0.038,0.154-0.038,0.154-0.115
				c0-0.154-0.424-0.732-0.693-0.732H0.462C0.424,51.453,0.27,51.53,0.27,51.8c0,0.424,0.462,0.886,0.462,1.117h0.077
				c0.039-0.115,0.039-0.077,0.039-0.154c0-0.231-0.193-0.5-0.193-0.731c0-0.155,0.039-0.077,0.039-0.231
				C0.848,51.8,0.771,51.761,0.924,51.761z"/>
			<path fill="#FFFFFF" d="M1.926,54.073c-0.039-0.039-0.039,0-0.039-0.078c-0.038-0.076-0.076-0.076-0.115-0.115
				c-0.038-0.076-0.115-0.308-0.115-0.385v-0.424c0.077-0.039,0.077-0.039,0.192-0.039h0.038c0.116,0,0.309,0.192,0.502,0.192
				c-0.154-0.577-0.54-0.731-0.964-1.001l-0.231,0.077c-0.038,0.23-0.115,0.038-0.153,0.424c-0.039,0.27,0,0.23,0,0.5
				c0.153,0.231,0.192,0.309,0.385,0.539c0.154,0.155,0.424,0.31,0.501,0.425l0.039-0.039v-0.038
				C1.926,54.149,1.926,54.111,1.926,54.073z"/>
			<path fill="#FFFFFF" d="M1.001,51.106v-0.386c0-0.27-0.23-0.501-0.5-0.501H0.385c-0.23,0-0.27,0.309-0.385,0.424v0.348
				l0.154,0.27h0.038v-0.347c0-0.116,0-0.116,0.038-0.193h0.309C0.771,50.721,0.693,51.067,1.001,51.106z"/>
			<path fill="#FFFFFF" d="M0.848,50.144h0.038c0.077,0,0.115-0.039,0.115-0.116v-0.038c0-0.154-0.077-0.154-0.077-0.309v-0.154
				h0.309c0.154,0,0.154-0.27,0.154-0.424c-0.309-0.154-0.347-0.347-0.693-0.424c-0.154,0.27-0.424,0.501-0.424,0.925v0.154
				C0.27,49.835,0.848,50.144,0.848,50.144z"/>
			<path fill="#FFFFFF" d="M3.737,54.921V54.65c0.076-0.038,0.076-0.038,0.191-0.038h0.04c0.076,0,0.115,0.077,0.191,0.115
				c-0.115-0.462-0.655-0.578-1.232-0.578c-0.077,0-0.192,0.039-0.192,0.154c0,0.463,0.308,0.732,0.577,0.887
				c0.192,0.115,0.771,0.462,1.041,0.462C4.314,55.383,3.737,55.112,3.737,54.921z"/>
			<path fill="#FFFFFF" d="M11.403,51.607c-0.347,0.077-0.655-0.309-0.809-0.424c-0.077-0.039-0.848-0.54-0.848-0.192v0.038
				c0,0.385,0.27,0.424,0.385,0.886l-0.539-0.192c0.038,0.54,0.192,0.578,0.577,0.771c0.386,0.231,0.693,0.115,1.156,0.231
				c0.115-0.077,0.462-0.617,0.462-0.732V51.8c0-0.115-0.038-0.154-0.077-0.231L11.403,51.607z"/>
			<path fill="#FFFFFF" d="M5.47,55.229c0-0.347,0.578-0.462,0.81-0.616c-0.115,0-0.154-0.039-0.27-0.039H5.895
				c-0.501,0-1.541,0.193-1.541,0.617c0,0.577,1.386,0.809,2.08,0.809C6.125,55.807,5.47,55.729,5.47,55.229z"/>
			<path fill="#FFFFFF" d="M2.542,54.034c0-0.077,0.039-0.115,0.078-0.115c0.191,0,0.23,0.076,0.423,0.076h0.039
				c0.385,0-0.386-0.615-0.848-0.654c-0.039,0.154-0.154,0.27-0.154,0.347v0.424c0,0.27,0.424,0.655,0.616,0.771
				c-0.038-0.231-0.154-0.463-0.154-0.578V54.034z"/>
			<path fill="#FFFFFF" d="M69.075,48.525l0.116,0.81c0.077,0.114,0.192,0.269,0.27,0.423c0.192,0.309,0.192,0.116,0.347,0.347
				c0.193,0.231,0.655,0.385,0.926,0.501c-0.078-0.27-0.193-0.462-0.193-0.809v-0.039c0-0.732,0.616-0.963,1.079-1.271
				c0.115,0,1.001-0.153,1.001-0.231c0-0.115-0.153-0.192-0.192-0.347c0.153-0.038,0.192-0.115,0.27-0.23
				c0.115-0.077,0.309-0.116,0.309-0.193c0-0.925-1.002-1.541-2.004-1.541H70.81c-0.462,0-0.963,0.154-1.232,0.347
				c-0.23,0.192-0.655,0.539-0.655,0.925c0,0.039,0.038,0.077,0.115,0.077c0.116,0,0.116-0.154,0.347-0.192
				c-0.115,0.231-0.192,0.385-0.347,0.578c-0.077,0.115-0.27,0.462-0.27,0.655v0.462h0.154L69.075,48.525z M70.154,47.831
				c0-0.462,0.964-0.847,1.503-0.847h0.193c0.27,0,0.616,0.077,0.692,0.308c-0.076-0.038-0.076-0.077-0.154-0.077h-0.538
				c-0.193,0-0.541,0.077-0.579,0.27l0.849,0.116l0.076,0.23c-0.115-0.076-0.346-0.153-0.501-0.153c-0.577,0-1.04,0.462-1.463,0.577
				c-0.039-0.076-0.078-0.153-0.078-0.309V47.831z"/>
			<path fill="#FFFFFF" d="M63.952,48.91c-0.154,0.27-0.309,0.501-0.501,0.771l0.039,0.038c0.038,0.039,1.232-0.731,1.349-0.809
				c0.308-0.231,0.885-0.771,1.039-1.117c0.154-0.192,0.309-0.385,0.424-0.655c0.154-0.23,0.231-0.462,0.348-0.731
				c0.153-0.27,0.423-1.349,0.423-1.772v-0.848c0-0.424-0.308-1.733-0.501-1.888c0,0.463,0.038,0.886,0.038,1.271
				c0,0.539-0.076,0.771-0.114,1.194c-0.039,0.385-0.617,1.695-0.81,1.849l-0.153-0.731l-1.772,0.925
				c-0.309,0-0.578,0.153-1.041,0.153h-0.154c0.077,0.348,0.926,0.502,1.349,0.502h0.192c0.617,0,0.887-0.309,1.311-0.424
				c-0.115,0.385-0.849,1.04-1.04,1.464C64.299,48.333,64.067,48.718,63.952,48.91z M65.454,46.56l0.038,0.039l-0.038,0.039
				l-0.038-0.039L65.454,46.56z"/>
			<path fill="#FFFFFF" d="M8.783,47.678c0.116,0.153,0,0.077,0.193,0.269c0.038,0.039,0.154,0.193,0.192,0.271
				c0.231,0.27,0.809,0.693,0.925,0.886c0.154,0,0.963,0.54,1.232,0.616c-0.347-0.5-0.578-1.001-0.925-1.502
				c-0.077-0.154-0.077-0.192-0.231-0.386c-0.076-0.153-0.153-0.23-0.23-0.385c-0.116-0.154-0.501-0.539-0.501-0.732
				c0.154,0,0.385,0.193,0.616,0.271c0.193,0.038,0.616,0.077,0.809,0.077c0.463,0,1.271-0.154,1.349-0.502H11.98
				c-0.385,0-0.615-0.153-1.001-0.153l-1.772-0.925c-0.038,0.115-0.115,0.347-0.115,0.424v0.192c0,0.115,0,0.115,0.039,0.192
				c-0.386-0.27-0.964-1.964-0.964-2.735v-0.038v-1.579c-0.193,0.23-0.501,1.579-0.501,2.119v0.27c0,1.078,0.386,2.08,0.771,2.812
				C8.591,47.408,8.629,47.408,8.783,47.678z M9.322,46.56L9.4,46.714l-0.116-0.115L9.322,46.56z"/>
			<path fill="#FFFFFF" d="M57.596,49.103c0.077,0,0.848,0.27,1.079,0.347c0.423,0.077,0.731,0.193,1.232,0.193h0.308
				c0.348,0,1.003-0.154,1.117-0.348c-0.462,0-1.464-0.076-1.811-0.23c-0.385-0.116-0.847-0.731-0.847-1.194v-0.424
				c0-0.424,0.308-0.655,0.578-0.848c0.578,0.309,0.5,0.578,0.692,1.232c0.193,0.502,0.425,0.848,1.117,0.848
				c-0.308-0.462-0.732-0.693-0.732-1.541v-0.153c0-0.425,0.156-0.578,0.156-0.848c0.114-0.077,0.885-1.233,0.885-1.465
				c0-0.115-0.039-0.269-0.077-0.346c-0.27,0.038-1.888,1.001-2.196,1.194c-0.153,0.115-0.771,0.616-0.925,0.77
				c-0.192,0.192-0.654,0.81-0.808,0.887c-0.231-0.115-0.578-0.27-0.578-0.617v-0.038c0-0.886,1.888-2.118,2.851-2.118h0.23v0.191
				c-0.077,0.039-0.115,0-0.115,0.116c0,0.077,0.038,0.116,0.078,0.116c0.346,0,0.847-0.271,0.847-0.655
				c0-0.192-0.154-0.309-0.231-0.463c-0.27,0-0.231-0.115-0.423-0.115h-0.192c-1.233,0-3.854,1.888-3.854,2.928v0.27
				c0,0.386,0.731,0.732,1.117,0.771c-0.038,0.154-0.27,0.54-0.386,0.655c-0.076,0.154-0.23,0.616-0.308,0.771
				c-0.154,0.539-0.309,1.194-0.309,1.849v0.078c0,0.424,2.234,1.771,2.273,1.964c-0.27-0.076-0.577-0.192-0.963-0.192h-0.231
				c-0.115,0-0.115,0-0.193,0.039c0.155,0.192,0.655,0.424,1.002,0.424h0.655v-0.039l0.386,0.308
				c0.038-0.115,0.154-0.23,0.154-0.346l-0.039-0.347c-0.039-0.039-0.309-0.309-0.385-0.424c-0.193-0.154-0.348-0.193-0.655-0.193
				l-0.039-0.038l0.231-0.309l0.038,0.039c-0.038-0.347-1.425-0.154-1.425-1.041v-0.153c0-0.116,0.231-0.27,0.308-0.27h1.31v-0.039
				c-0.192-0.23-1.04-0.347-1.04-0.809v-0.27C57.479,49.142,57.519,49.103,57.596,49.103z M58.598,52.994l0.038,0.038l-0.038,0.039
				l-0.039-0.039L58.598,52.994z"/>
			<path fill="#FFFFFF" d="M59.984,40.704h0.423c0.232,0,0.617-0.501,0.617-0.732v-0.076c0-0.154,0,0-0.038-0.115
				c-0.463,0.308-1.002,0.27-1.272,0.654C59.753,40.512,59.868,40.704,59.984,40.704z"/>
			<path fill="#FFFFFF" d="M1.965,48.563c-0.078-0.347-0.193-0.578-0.463-0.771c-0.23,0.115-0.578,0.347-0.578,0.732h0.309
				L1.965,48.563z"/>
			<path fill="#FFFFFF" d="M73.468,49.526c0.116,0,0.386-0.038,0.386,0.077c0,0.193-0.078,0.231-0.078,0.424v0.116h0.155
				c0,0,0.577-0.309,0.577-0.386v-0.192c0-0.309-0.309-0.655-0.424-0.887c-0.423,0.077-0.462,0.347-0.731,0.424L73.468,49.526z"/>
			<path fill="#FFFFFF" d="M2.157,48.217c0,0.154,0.539,0.154,0.693,0.192c0.308,0.116,0.385,0.116,0.654,0.27
				c0.348,0.231,0.732,0.54,0.732,1.079v0.039c0,0.27-0.153,0.615-0.23,0.809c0.77-0.193,1.656-0.925,1.656-1.85v-0.23h0.115
				l0.039,0.27h0.153c0.039-0.077,0.039-0.077,0.039-0.193v-0.269c0-0.193-0.501-1.002-0.616-1.233l0.346,0.192l0.116-0.077
				C5.739,46.753,5.2,46.098,4.7,46.098c-0.154-0.115-0.386-0.154-0.655-0.154H3.737c-0.694,0-0.926,0.193-1.349,0.424
				c-0.386,0.231-0.54,0.655-0.655,1.156c0.27,0.077,0.424,0.385,0.616,0.385C2.312,48.024,2.157,48.179,2.157,48.217z
				 M2.234,47.254c0.077-0.231,0.501-0.27,0.809-0.27h0.039c0.539,0,1.541,0.347,1.541,0.847v0.115c0,0.116-0.039,0.309-0.116,0.309
				c-0.153,0-0.924-0.577-1.387-0.577c-0.23,0-0.385,0.077-0.539,0.153l0.077-0.23l0.847-0.116c-0.038-0.153-0.385-0.27-0.539-0.27
				H2.428C2.35,47.215,2.272,47.254,2.234,47.254z"/>
			<path fill="#FFFFFF" d="M9.67,53.919H9.515c-0.114,0-0.23-0.155-0.23-0.309v-0.193c0-0.076,0.193-0.654,0.23-0.809
				c-0.192,0.154-1.271,1.271-1.271,1.503v0.501c0,0.27,0.231,0.309,0.463,0.309c-0.116,0.076-0.386,0.191-0.578,0.191H7.551
				c-0.154,0-0.309-0.115-0.309-0.23v-0.115c0-0.348,0.424-0.348,0.424-0.693c-0.462,0.038-1.232,0.693-1.232,1.271
				c0,0.386,0.501,0.616,0.886,0.616h0.116c0.731,0,1.579-0.539,1.849-1.039c0.886-0.039,1.618-0.81,1.618-1.772
				C10.556,53.38,10.363,53.919,9.67,53.919z"/>
			<path fill="#FFFFFF" d="M10.479,49.758c-0.154-0.115-0.077-0.115-0.23-0.231c-0.116-0.115-0.348-0.424-0.501-0.424
				c0,0.192-0.077,0.27-0.077,0.463c0,0.847,0.616,1.464,1.464,1.464c0.192,0,0.693-0.154,0.731-0.347
				c-0.616-0.154-0.771-0.309-1.155-0.693C10.633,49.912,10.556,49.835,10.479,49.758z"/>
			<path fill="#FFFFFF" d="M15.603,37.083c-0.039-0.116-0.115-0.309-0.27-0.309h-0.115c-0.386,0-0.693,0.309-0.964,0.309h-0.076
				l-0.463-0.848h-0.231c-0.192,0-0.308,0.154-0.347,0.308h0.192c0.077,0,0.077,0.039,0.154,0.077c0,0.578-0.038,0.771,0.154,1.194
				c0.077,0.27,0.309,0.771,0.616,0.771h0.848c0.347,0,1.04-0.231,1.117-0.502l-0.616,0.077c-0.27,0.039-0.886-0.23-0.886-0.424
				C14.717,37.43,15.179,37.083,15.603,37.083z"/>
			<path fill="#FFFFFF" d="M11.904,36.428c0.424,0,0.654,0.192,1.079-0.077c0.308-0.192,0.385-0.501,0.539-0.809
				c0.153-0.309,0.269-0.578,0.616-0.732c0.27-0.192,0.732-0.192,0.81-0.539c-1.349,0.039-2.313,1.387-2.582,1.387
				c-0.501,0-0.771-0.693-0.771-1.232v-0.039c0-0.27,0.077-0.578,0.154-0.771c0.154-0.347,0.23-0.347,0.385-0.578
				c-0.654,0.154-1.155,0.81-1.155,1.619v0.153c0,0.462,0.115,0.693,0.27,1.002C11.441,36.197,11.75,36.235,11.904,36.428z"/>
			<path fill="#FFFFFF" d="M18.762,46.907v-0.463c0-1.001-2.62-2.851-3.891-2.851h-0.116c-0.27,0-0.655,0.27-0.655,0.501v0.115
				c0,0.462,0.925,0.771,0.925,0.501c0-0.154-0.153-0.077-0.153-0.192c0-0.077,0.038-0.115,0.115-0.115h0.115
				c0.424,0,0.616,0.191,0.925,0.191c0.386,0.271,0.809,0.386,1.155,0.732c0.231,0.193,0.771,0.771,0.771,1.117v0.154
				c0,0.309-0.347,0.539-0.616,0.578c-0.077-0.27-1.425-1.464-1.694-1.656c-0.348-0.193-1.851-1.156-2.158-1.194
				c-0.038,0.115-0.077,0.115-0.077,0.269v0.039c0,0.616,1.04,1.349,1.04,2.273v0.23c0,0.771-0.462,1.117-0.731,1.541
				c0.693,0,0.887-0.346,1.079-0.848c0.27-0.654,0.077-0.809,0.693-1.232c0.27,0.154,0.577,0.347,0.577,0.771v0.616
				c0,0.463-0.501,1.002-0.847,1.117c-0.424,0.077-1.311,0.192-1.812,0.192c0.116,0.154,0.81,0.348,1.156,0.348h0.231
				c0.577,0,0.809-0.116,1.271-0.231c0.424-0.076,0.886-0.309,1.194-0.309c0,0.116,0.039,0.192,0.039,0.232l-0.039,0.346
				c-0.309,0.154-0.577,0.501-1.002,0.539v0.077v0.039h1.195c0.153,0,0.424,0.115,0.424,0.27v0.192c0,0.54-0.848,0.848-1.426,0.848
				c0,0.27,0.192,0.154,0.192,0.347v0.115h-0.115c-0.463,0-0.925,0.463-0.925,0.925v0.039c0,0.153,0.077,0.23,0.154,0.346
				l0.385-0.346v0.077h0.578c0.424,0,0.848-0.154,1.04-0.424c-0.308,0-0.424-0.039-0.81,0c-0.346,0.038-0.423,0.153-0.654,0.23
				c0.231-0.385,0.886-0.616,1.271-0.924c0.154-0.155,1.117-0.925,1.117-1.079c0-0.501-0.154-1.541-0.309-1.888
				c-0.077-0.231-0.192-0.578-0.308-0.771c-0.077-0.115-0.347-0.616-0.385-0.732C17.952,47.523,18.762,47.177,18.762,46.907z
				 M16.181,53.071l-0.039-0.039l0.039-0.038l0.038,0.038L16.181,53.071z M16.257,52.955C16.335,52.878,16.181,53.032,16.257,52.955
				L16.257,52.955z"/>
			<path fill="#FFFFFF" d="M16.373,35.465c0,0-0.231,0.231-0.231,0.424v0.231c0,0.153,0.617,0.924,0.617,0.963
				c0,0.347-0.424,0.462-0.54,0.886c0.693,0,0.616-0.154,1.002-0.27c-0.347,0.616-0.271,1.04-0.732,1.618
				c-0.424,0.539-0.731,0.771-1.155,1.232c-0.693,0.694-2.004,1.426-2.004,2.774c0,0.501,0.231,0.848,0.617,0.925
				c0-0.039,0.038-0.116,0.038-0.116c0-0.462-0.038-0.848-0.038-1.31c0-0.27,0.27-0.81,0.424-0.963
				c0.654-0.616,0.924-0.655,1.656-1.079c0.809-0.462,0.924-0.501,1.464-1.271c0.193-0.309,0.617-1.618,0.655-2.119
				c-0.309,0-0.501,0.309-0.655,0.309h-0.231c0.077-0.231,0.27-0.231,0.27-0.577v-0.231c0-0.424-1.464-0.848-1.116-1.388
				L16.373,35.465z"/>
			<path fill="#FFFFFF" d="M8.437,43.055v0.23c0,1.118,1.271,2.042,2.505,2.042h0.038c0.539,0,1.04-0.192,1.349-0.462
				c-0.693,0-1.85-0.501-2.273-0.809c-0.732-0.578-0.963-0.887-1.541-1.542L8.437,43.055z"/>
			<path fill="#FFFFFF" d="M9.092,42.207c0.115,0.501,0.386,0.693,0.655,1.001c0.23,0.347,0.809,0.617,0.924,0.771
				c0.309,0,0.616,0.308,1.156,0.308h1.194l0.038-1.156c0-0.153-1.888-0.23-2.196-0.23c-0.269,0-0.886-0.077-1.078-0.154
				C9.67,42.708,9.515,42.592,9.4,42.515C9.131,42.399,9.246,42.322,9.092,42.207z"/>
			<path fill="#FFFFFF" d="M13.291,25.602c0,0.078-0.193,0.31-0.193,0.425c0,0.153,0.309,0.153,0.463,0.153
				c0.192,0,0.309,0.116,0.539,0.116l-0.077-0.309h0.424c0.386,0,0.848-0.654,0.848-1.04v-0.154c0-0.077-0.038-0.115-0.115-0.115
				h-0.115c-0.424,0-0.386,0.501-0.81,0.539c-0.038-0.23-0.308-0.27-0.308-0.539v-0.115h0.693c-0.077-0.116-1.002-0.578-1.233-0.54
				l-0.347,0.038v0.386c0,0.347,0.231,0.809,0.231,0.963V25.602z"/>
			<path fill="#FFFFFF" d="M11.557,40.666c-0.076-0.732-0.115-1.772-0.115-2.543c-0.385,0.54-0.886,0.655-0.886,1.464
				c0,0.732,0.308,1.271,0.655,1.695c0.154,0.192,0.346,0.462,0.577,0.578c0.039,0.038,0.694,0.501,0.694,0.501l0.038-0.039
				c0,0-0.154-0.115-0.192-0.115c-0.116-0.077-0.077-0.077-0.154-0.193c-0.115-0.115-0.231-0.192-0.309-0.347
				C11.75,41.359,11.596,41.013,11.557,40.666z"/>
			<path fill="#FFFFFF" d="M15.41,40.011c0.539,0,0.731-0.463,0.731-1.002c-0.154,0.039-0.424,0.116-0.616,0.116l-0.27,0.038
				l-1.888-0.27c0.038,0.385,1.349,1.117,1.85,1.117H15.41z"/>
			<path fill="#FFFFFF" d="M17.066,27.336c-0.116,0-0.154,0.039-0.27,0.039h-0.231c-0.192,0-0.192-0.078-0.27-0.193
				c0.039-0.153,0.077-0.192,0.077-0.347v-0.231c0-0.27-0.501-0.692-0.655-0.924c-0.038,0.308-0.347,0.27-0.347,0.654v0.116
				c0,0.076,0.039,0.115,0.116,0.115h0.038c0.192,0,0.462-0.115,0.462,0.076v0.039c0,0.154-0.27,0.192-0.27,0.616
				c0,0.116,0,0.116,0.039,0.193c0.23,0,0.308,0.077,0.539,0.077h0.309C16.797,27.567,17.028,27.49,17.066,27.336z"/>
			<path fill="#FFFFFF" d="M18.146,52.84l-0.462,0.115v0.231c0,0.154,0.192,0.23,0.346,0.23c0-0.115-0.038-0.153-0.038-0.269v-0.039
				C17.991,53.032,18.107,52.955,18.146,52.84z"/>
			<path fill="#FFFFFF" d="M12.944,39.201c-0.077-0.269-0.039-0.615-0.077-0.925c-0.038-0.5-0.231-1.232-0.655-1.348
				c-0.077,0.308-0.192,0.501-0.192,0.886v0.309c0,0.424,0.154,0.693,0.154,1.04c0.192,0.309,0.23,0.655,0.5,0.925
				c0.31,0.27,0.424,0.462,0.849,0.578L13.06,40.05C13.06,39.818,12.983,39.472,12.944,39.201z"/>
			<path fill="#FFFFFF" d="M9.515,40.088v0.309c0,0.655,0.655,1.694,1.08,1.811l-0.231-0.386v-0.154l-0.077-0.115l-0.077-0.616
				l-0.039-0.193l0.193-1.155C9.939,39.625,9.862,40.088,9.515,40.088z"/>
			<path fill="#FFFFFF" d="M13.753,39.818v0.153c0,0.231,0.386,0.732,0.578,0.732h0.424c0.116,0,0.27-0.192,0.309-0.27
				c-0.154-0.231-0.309-0.308-0.617-0.347C14.139,40.011,13.946,39.856,13.753,39.818z"/>
			<path fill="#FFFFFF" d="M9.246,40.704H9.053c-0.076,0-0.192,0.116-0.192,0.192v0.309c0,0.23,0.271,0.501,0.424,0.501h0.193
				c-0.039-0.231-0.116-0.192-0.116-0.501C9.361,41.013,9.438,40.704,9.246,40.704z"/>
			<path fill="#FFFFFF" d="M11.942,40.319l0.231,0.654c0.154,0.078,0.81,1.233,1.117,1.233c0.154,0,0.655-0.463,0.655-0.771
				c-0.694-0.153-0.849-0.23-1.311-0.654c-0.347-0.347-0.462-0.848-0.771-1.194L11.942,40.319z"/>
			<path fill="#FFFFFF" d="M17.876,53.648h-0.231c-0.192,0.115-0.463,0.155-0.463,0.501v0.077l0.116,0.771
				c0.347-0.076,0.27-0.308,0.27-0.693C17.567,53.842,17.645,53.88,17.876,53.648z"/>
			<path fill="#FFFFFF" d="M12.905,46.406c0.192,0.153,0.54,0.886,0.578,1.233c0.231-0.039,0.386-0.502,0.386-0.811v-0.191
				c0-0.617-0.501-1.426-1.079-1.426h-0.231c-0.27,0-0.693,0.27-0.731,0.462c0.231,0.116,0.385,0.116,0.577,0.309
				C12.521,46.06,12.79,46.329,12.905,46.406z"/>
			<path fill="#FFFFFF" d="M58.097,27.567h0.423c0.232,0,0.193-0.077,0.463-0.077c0.039-0.077,0.077-0.077,0.077-0.154v-0.077
				c0-0.192-0.231-0.462-0.308-0.617l0.114-0.115l0.31,0.039h0.038c0.115,0,0.115,0,0.192-0.039v-0.115
				c0-0.385-0.27-0.424-0.347-0.693h-0.077c0,0.231-0.616,0.578-0.616,1.002c0,0.192,0.077,0.23,0.077,0.424v0.038
				c0,0.077-0.116,0.193-0.192,0.193h-0.309c-0.115,0-0.153-0.039-0.27-0.039C57.749,27.451,57.904,27.567,58.097,27.567z"/>
			<path fill="#FFFFFF" d="M60.446,25.217c-0.308,0-0.308-0.539-0.771-0.539h-0.077c-0.077,0-0.115,0.038-0.115,0.115v0.154
				c0,0.386,0.462,1.04,0.771,1.04h0.501l-0.115,0.309l1.04-0.192c-0.039-0.231-0.193-0.424-0.193-0.502v-0.153
				c0-0.27,0.193-0.424,0.193-0.925v-0.463c-0.116,0-0.154-0.038-0.271-0.038c-0.347,0-1.155,0.386-1.271,0.54l0.076,0.038
				c0.348,0,0.309-0.154,0.617,0C60.793,24.793,60.64,25.217,60.446,25.217z"/>
			<path fill="#FFFFFF" d="M57.558,26.526c0.615,0,0.886,0.039,0.886-0.577v-0.193c0-0.308-0.192-0.501-0.501-0.501h-0.038
				c-0.271,0-0.694,0.154-0.848,0.231l-0.231-0.231l-0.038,0.039c0,0.347-0.193,0.424-0.193,0.655c0,0.115,0.039,0.154,0.077,0.23
				c0.386-0.192,1.078-0.192,1.118-0.693l0.269,0.231c-0.115,0.193-0.848,0.501-1.117,0.578c0.077,0.308,0.309,0.616,0.655,0.654
				v-0.077c-0.077-0.038-0.192-0.076-0.192-0.153C57.403,26.604,57.479,26.565,57.558,26.526z M57.326,25.833h-0.077
				c-0.115,0-0.115,0-0.192-0.038l0.192-0.271l0.347-0.038C57.596,25.641,57.479,25.833,57.326,25.833z"/>
			<path fill="#FFFFFF" d="M62.681,33.037l-0.039,0.039h0.039c0,0.039,0,0.039,0.038,0.039c0,0.038,0.038,0.038,0.038,0.076
				c0.078,0.077,0.078,0.039,0.116,0.116c0.077,0.154,0.115,0.23,0.154,0.347c0.077,0.309,0.154,0.462,0.154,0.847
				c0,0.463-0.347,1.156-0.732,1.156c-0.153,0-1.002-0.731-1.155-0.848c-0.076-0.076-0.539-0.347-0.616-0.385
				c-0.191-0.077-0.693-0.077-0.847-0.154c0.076,0.347,0.847,0.463,1.155,0.809c0.346,0.347,0.308,0.887,0.771,1.233
				c0.462,0.347,1.078,0.154,1.463-0.115c0.309-0.231,0.578-0.887,0.578-1.426v-0.154c0-0.424-0.192-0.693-0.308-1.04
				C63.336,33.269,62.95,33.191,62.681,33.037z"/>
			<path fill="#FFFFFF" d="M60.33,27.259v-0.192c0-0.54-0.385-1.155-0.692-1.349l-0.154,1.155v0.347l-0.23-0.038v0.154
				c0,0.731-0.387,0.693-0.617,1.001l-0.424,0.193c0.771,0,0.81-0.309,1.31-0.424c0.038,0.077,0.077,0.077,0.077,0.154v0.115
				C59.984,28.299,60.33,27.721,60.33,27.259z"/>
			<path fill="#FFFFFF" d="M63.336,36.235c-0.193,0.038-0.193,0.154-0.348,0.231c-0.153,0.076-0.308,0.076-0.462,0.153
				c0.309,0.463,0.501,0.887,0.886,1.271c0.078,0.116,0.116,0.231,0.231,0.309c0.154,0.154,0.116,0.192,0.231,0.308
				c0.23,0.193,0.347,0.309,0.539,0.54c0.077,0.115,0.463,0.424,0.539,0.539c0.193,0.231,0.309,0.347,0.539,0.54
				c0.116,0.115,0.04,0.115,0.231,0.308c0.078,0.077,0.154,0.192,0.231,0.308c0.192,0.154,0.309,0.463,0.501,0.617l0.501,0.731
				c0-0.847-1.31-2.466-1.772-2.966c-0.192-0.192-0.924-1.041-1.079-1.271c-0.076-0.192-0.308-0.539-0.423-0.771
				C63.528,36.813,63.451,36.505,63.336,36.235z"/>
			<path fill="#FFFFFF" d="M61.872,38.778c0,0.423-0.077,0.731-0.154,1.117c-0.154,0.616-0.231,0.385-0.5,0.771
				c0.385,0,0.963-0.655,1.078-0.963c0.153-0.309,0.269-0.309,0.308-0.732c0.038-0.27,0.153-0.501,0.153-0.887v-0.27
				c0-0.347-0.115-0.578-0.192-0.886C62.025,37.044,61.91,38.084,61.872,38.778z"/>
			<path fill="#FFFFFF" d="M62.95,45.674c-0.038-0.192-0.463-0.462-0.731-0.462H61.91c-0.424,0-1.04,0.886-1.04,1.348v0.231
				c0,0.271,0.192,0.732,0.386,0.849c0.191-0.348,0.27-0.964,0.578-1.233C62.219,46.137,62.411,45.79,62.95,45.674z"/>
			<path fill="#FFFFFF" d="M15.179,25.68c-0.347,0.231-0.732,0.809-0.732,1.425v0.231c0,0.424,0.386,0.963,0.693,1.04
				c0.154-0.309-0.038-0.386,0.424-0.115c0.193,0.076,0.424,0.192,0.578,0.27h0.386c-0.154-0.231-1.002-0.193-1.002-1.155v-0.193
				l-0.231,0.038v-0.191c0-0.309-0.154-0.694-0.154-0.849v-0.308C15.14,25.756,15.14,25.756,15.179,25.68z"/>
			<path fill="#FFFFFF" d="M16.989,25.486c0.039,0.231,0.27,0.463,0.463,0.501c0.231,0.039,0.693,0.27,0.693,0.077v-0.115
				c0-0.27-0.154-0.348-0.154-0.54v-0.115c-0.27,0.039-0.154,0.192-0.27,0.192c-0.077,0-0.501-0.231-0.887-0.231h-0.038
				c-0.27,0-0.501,0.231-0.501,0.54c0,0.693,0.192,0.731,0.886,0.731c0.039,0.039,0.192,0.115,0.192,0.154
				c0,0.154-0.153,0.116-0.192,0.27c0.347-0.077,0.578-0.309,0.655-0.654c-0.115,0-1.117-0.463-1.117-0.54
				C16.72,25.641,16.912,25.524,16.989,25.486z M17.722,25.795c-0.077,0.038-0.077,0.038-0.193,0.038
				c-0.23,0-0.347-0.115-0.347-0.347C17.452,25.486,17.684,25.524,17.722,25.795z"/>
			<path fill="#FFFFFF" d="M15.179,24.601c0.192,0,0.539,0.347,0.578,0.501l1.232-0.115h0.192c0.271,0,0.502,0.076,0.732,0.115
				c0.347,0.038,0.424,0.231,0.616,0.27v-0.192c0-0.039-0.154-0.386-0.192-0.424c-0.192,0-0.616-0.116-0.848-0.154
				c-0.309-0.038-0.693-0.038-0.963-0.077c-0.424-0.038-0.54,0.039-0.771-0.231c-0.077-0.115-0.501-0.385-0.655-0.385h-0.308
				l0.154,0.693H15.179z"/>
			<path fill="#FFFFFF" d="M61.409,38.894l-1.965,0.27l-0.115-0.038l-0.693-0.077c0,0.577,0.23,0.963,0.771,0.963
				C60.139,40.011,61.179,39.395,61.409,38.894z"/>
			<path fill="#FFFFFF" d="M21.844,7.88c0.115,0.578,0.616,3.236,0.539,3.776l-0.038,0.462c-0.077,0.077-0.463,0.578-0.463,0.616
				v0.116c0,0.076,0.154,0.23,0.192,0.23c0.039,0,0.964-0.654,1.118-0.731c0.346-0.231,0.809-0.501,1.155-0.693
				c-0.038-0.077-0.153-0.386-0.231-0.386c-0.231,0-0.347,0.231-0.654,0.231c-0.424,0-0.54-0.925-0.54-1.426l1.85-1.156
				c0.231,0.193,1.002,0.617,1.002,0.964v0.077c0,0.192-0.5,0.462-0.5,0.616c0,0.115,0.153,0.309,0.23,0.347
				c0.577-0.309,1.156-0.886,1.733-1.155c0.192-0.116,1.695-1.002,1.771-1.117c-0.037-0.154-0.076-0.347-0.269-0.347
				c-0.077,0-0.386,0.192-0.617,0.192h-0.231c-0.308,0-1.31-0.771-1.54-0.963C26.12,7.38,25.08,6.57,24.887,6.493
				c-0.192-0.115-1.193-0.848-1.425-1.078c-0.154-0.077-1.503-1.04-1.503-1.04h-0.192c-0.539,0-0.27,1.193-0.192,1.617
				C21.729,6.57,21.729,7.226,21.844,7.88z M22.345,7.148l1.965,1.425l-1.541,0.964l-0.463-2.389H22.345z"/>
			<path fill="#FFFFFF" d="M43.109,8.266c0.038-0.038,0.154-0.192,0.154-0.27V7.88c0-0.153-0.731-0.308-0.731-0.692V6.917
				c0-0.115,0.27-0.925,0.308-1.117c0.077-0.347,0.27-0.693,0.308-1.155l2.775,0.848c-0.039,0.076-0.463,1.387-0.463,1.464
				c-0.077,0.424-0.27,1.193-0.771,1.155L44.15,8.073c-0.039,0.038-0.154,0.192-0.154,0.27V8.42c0,0.077,0.038,0.077,0.077,0.115
				l1.078,0.27l0.116,0.077c0.27,0,2.428,0.693,2.659,0.81c0.114-0.077,0.191-0.193,0.191-0.347V9.306
				c0-0.115-0.848-0.309-0.848-0.848c0-0.23,0.309-1.194,0.386-1.464c0.154-0.424,0.271-1.002,0.423-1.426
				c0.154-0.385,0.309-1.001,0.425-1.425c0.115-0.424,0.27-1.117,0.771-1.117h0.346l0.348,0.038c0-0.192,0.077-0.153,0.077-0.308
				V2.68c0-0.154-0.732-0.309-0.925-0.309c-0.154-0.115-1.233-0.308-1.541-0.424c-0.231-0.115-1.311-0.501-1.503-0.501
				c0,0.192-0.077,0.154-0.077,0.309v0.077c0,0.077,0.039,0.077,0.077,0.153c0.23,0,0.616,0.271,0.616,0.386v0.386
				c0,0.385-0.23,0.77-0.308,1.078c-0.038,0.386-0.309,0.848-0.309,1.117c-0.27,0-1.541-0.462-1.888-0.577
				c-0.27-0.039-0.848-0.116-0.809-0.347c0-0.193,0.23-0.81,0.27-0.926l0.309-0.924V2.024c0.115-0.192,0.192-0.424,0.5-0.424h0.231
				l0.424,0.038c0.038-0.076,0.077-0.115,0.077-0.23v-0.27c-0.309-0.077-0.655-0.116-0.963-0.231
				c-0.309-0.115-0.694-0.154-0.964-0.27c-0.269-0.077-0.654-0.231-0.924-0.309c-0.154-0.038-0.848-0.27-0.925-0.308h-0.154
				c-0.038,0.153-0.116,0.192-0.116,0.27v0.192c0.309,0.038,0.81,0.385,0.81,0.732c0,0.5-0.308,1.04-0.386,1.464
				c-0.076,0.385-0.308,1.04-0.424,1.464c-0.153,0.424-0.308,0.963-0.423,1.425c-0.116,0.424-0.27,1.156-0.771,1.117l-0.654-0.038
				c-0.039,0.077-0.115,0.192-0.115,0.231v0.192c0.616,0.154,1.387,0.385,2.003,0.54C41.762,7.803,42.609,8.034,43.109,8.266z"/>
			<path fill="#FFFFFF" d="M49.004,10.192c-0.153,0-0.23,0.192-0.27,0.347c0.078,0.153,1.388,1.001,1.657,1.232
				c0.192,0.115,1.656,1.271,1.656,1.271c0.115,0,0.308-0.27,0.308-0.309c0-0.385-1.001-0.308-0.192-1.541
				c0.154-0.192,0.386-0.462,0.502-0.693c0.038-0.038,0.5-0.654,0.538-0.693c0.309-0.347,0.771-1.002,1.041-1.387
				c0.114-0.192,0.347-0.501,0.501-0.693c0.154-0.231,0.347-0.501,0.731-0.501h0.039c0.153,0,0.654,0.27,0.654,0.27
				c0.154,0,0.271-0.231,0.309-0.386c-0.462-0.23-3.313-2.427-3.313-2.427h-0.192c-0.038,0.154-0.115,0.192-0.115,0.27
				c0,0.193,0.5,0.386,0.5,0.925c0,0.27-0.616,1.04-0.809,1.232c-0.27,0.347-0.539,0.848-0.848,1.195
				c-0.308,0.308-0.578,0.847-0.887,1.155c-0.27,0.309-0.577,1.002-1.04,1.002C49.466,10.462,49.082,10.192,49.004,10.192z"/>
			<path fill="#FFFFFF" d="M29.51,1.678c0.309,0.578,0.231,0.462,0.348,1.271c0.076,0.424,0.192,0.886,0.27,1.348
				c0.038,0.271,0.038,0.54,0.077,0.732c0.038,0.27,0.115,0.463,0.115,0.693c0.038,0.463,0.192,0.887,0.192,1.465
				c0,0.5-0.539,0.692-0.924,0.77v0.192c0,0.116,0.038,0.155,0.076,0.231c0.771,0,1.927-0.424,2.62-0.424
				c0.462,0,2.272-0.308,2.62-0.423c1.464-0.54,2.696-1.388,2.696-3.391c0-1.041-0.463-2.273-1.04-2.735
				c-0.463-0.386-0.539-0.501-1.155-0.732c-0.231-0.115-1.233-0.385-1.618-0.308V0.329l-5.24,0.81
				c-0.038,0.038-0.038,0.038-0.038,0.153c0,0.116,0.077,0.231,0.115,0.271L29.51,1.678z M31.822,1.563
				c0-0.501,0.924-0.617,1.425-0.617c0.348,0,0.463,0.116,0.771,0.116c0.114,0.192,0.462,0.308,0.654,0.693
				c0.192,0.27,0.309,0.578,0.423,0.925c0.193,0.616,0.386,1.502,0.386,2.312c0,0.462-0.192,0.809-0.192,1.155
				c-0.385,0.578-0.616,0.925-1.464,1.079c-1.271,0.23-1.117-0.077-1.31-1.117c-0.116-0.732-0.27-1.503-0.347-2.234
				c-0.039-0.386-0.154-0.694-0.193-1.079c-0.038-0.385-0.153-0.848-0.153-1.156V1.563z"/>
			<path fill="#FFFFFF" d="M56.401,24.755l-0.192,0.616c0.231-0.038,0.308-0.231,0.578-0.27c0.27-0.039,0.423-0.115,0.731-0.115
				h0.347l1.079,0.115c0.192-0.115,0.385-0.501,0.654-0.501h0.192l0.154-0.693h-0.154c-0.308,0-0.538,0.153-0.731,0.309
				c-0.115,0.076-0.077,0.153-0.27,0.27c-0.154,0.077-0.309,0.038-0.501,0.038c-0.231,0.077-0.693,0.077-0.963,0.077
				C57.018,24.601,56.671,24.755,56.401,24.755z"/>
			<path fill="#FFFFFF" d="M63.336,49.912c-0.424-0.038-0.887-0.81-0.887-1.271v-0.231c0-0.385,0.154-0.654,0.231-0.963
				c-0.462,0.115-0.462,0.231-0.693,0.539c0,0.154-0.192,1.194-0.23,1.35c-0.116,0.462-0.271,0.809-0.809,0.809h-0.155
				c-0.539,0-0.809-0.193-1.194-0.193c0.192,0.309,0.501,0.616,0.888,0.693c-0.04,0.386-1.195,0.348-1.62,0.386
				c0.116,0.154,0.81,0.27,1.118,0.27h0.077c0.887,0,1.232-0.192,1.888-0.385c0.424-0.155,1.31-0.925,1.387-0.925V49.912z"/>
			<rect x="42.493" y="40.396" fill="#FFFFFF" width="7.629" height="0.539"/>
			<path fill="#FFFFFF" d="M19.146,27.028c0,0.191,0.116,0.308,0.27,0.308c0.116,0,0.231-0.039,0.231-0.154
				s-0.115-0.153-0.231-0.153H19.146z"/>
			<rect x="42.493" y="38.123" fill="#FFFFFF" width="3.813" height="0.5"/>
			<rect x="38.371" y="35.85" fill="#FFFFFF" width="2.466" height="0.501"/>
			<rect x="42.493" y="39.24" fill="#FFFFFF" width="3.813" height="0.54"/>
			<path fill="#FFFFFF" d="M19.225,26.488c-0.078,0-0.154,0.077-0.154,0.153v0.039c0,0.077,0.114,0.192,0.192,0.192h0.153
				c0.077,0,0.116-0.038,0.116-0.115V26.72C19.532,26.604,19.301,26.488,19.225,26.488z"/>
			<path fill="#FFFFFF" d="M55.361,35.85c0.308,0.348,0.424,0.501,0.771,0.848c0.154,0.116,0.847,0.578,1.04,0.617
				c0-0.231-0.115-0.192-0.115-0.309v-0.154c0-0.115,0-0.154,0.038-0.231c-0.038-0.038-0.386-0.347-0.424-0.423
				c-0.192-0.116-0.309-0.27-0.462-0.424c-0.271-0.309-0.54-0.617-0.771-0.964c-0.193-0.309-1.271-1.926-1.271-2.234v-0.192
				c0-0.115,0.153-0.193,0.153-0.386c0-0.115-0.076-0.23-0.114-0.385c0.076-0.039,0.076-0.077,0.152-0.077h0.155
				c0.347,0,0.231,0.153,0.578,0.153c-0.192-0.308-0.81-0.462-0.81-0.692V30.88c0-0.077,0.154-0.347,0.27-0.347h0.193
				c0.347,0,0.81,0.231,0.963,0.424c-0.077,0.193-0.231,0.887-0.231,1.156c0,0.616,0.385,1.464,0.732,1.694
				c0.347,0.231,1.04,0.849,1.54,0.887c-0.038-0.347-0.23-0.231-0.27-0.424c0.31,0.23,0.578,0.732,0.887,1.001
				c0.153,0.154,0.81,0.926,1.002,0.926c0.076,0,0.115-0.039,0.115-0.116c0-0.848-1.194-1.733-1.194-2.08v-0.154
				c0-0.231,0.077-0.424,0.27-0.463l0.116,0.154c0.038-0.076,0.077-0.115,0.077-0.23v-0.347c0-0.386-0.848-0.964-0.887-1.388
				c0.616,0.424,1.117,0.771,2.158,0.771c-0.232-0.154-1.002-0.27-1.041-0.693c0.693,0,0.886,0.193,1.348,0.424
				c-0.037-0.501-0.499-0.693-0.692-1.001c0.886,0,1.311,0.5,1.888,0.809c0-0.655-0.539-0.771-0.539-1.117
				c0-0.077,0.076-0.154,0.114-0.154c0.231,0,0.231,0.231,0.347,0.309c0-0.848-0.269-0.694-0.347-1.04
				c0.425-0.039,0.579-0.386,0.733-0.732c0.038-0.23,0.076-0.347,0.153-0.578c0.077-0.192,0.27-0.308,0.309-0.462
				c0.385,0,0.577,0.039,0.577,0.501c0,0.231-0.386,0.115-0.386,0.462c0.231,0.038,0.348,0.732,0.348,1.002v0.27
				c-0.231-0.038-0.193-0.154-0.501-0.154h-0.153c-0.116,0-0.116,0-0.193,0.038l-0.038,0.231h0.115c0.462,0,0.539,0.115,0.809,0.271
				c0,0.424-0.116,0.616-0.077,1.155c0.039,0.462,0.116,0.693,0.347,0.964c-0.038-0.193-0.154-0.309-0.154-0.54v-0.038l0.039-0.54
				c0.192-0.27,0.309-1.348,0.309-1.849l0.038-1.194c0-1.194-0.732-1.927-1.425-2.389h-0.154c0.077,0.115,0.192,0.192,0.192,0.385
				v0.192c0,0.231-0.192,0.502-0.308,0.617c0-0.309-0.501-0.887-0.693-0.887H60.87c0,0.309,0.038,0.54,0.309,0.616
				c-0.039,0.193-0.116,0.116-0.347,0.116l0.269,0.539c-0.038,0-0.23-0.154-0.23-0.154c-0.115,0-0.54,0.81-0.54,0.964l-0.307-0.077
				c-0.192,0.886-1.118,0.731-1.271,0.963l0.192,0.039l-0.425,0.5l0.039,0.039c0.116-0.077,0.424-0.27,0.617-0.27h0.731
				c0.423,0,0.886,0.385,0.886,0.809c-0.23-0.154-0.77-0.347-1.155-0.347h-0.154c-0.386,0-0.731,0.192-1.002,0.309l-0.154-0.887
				c0.116-0.192,0.348-0.153,0.348-0.309v-0.191c0-0.078-0.193-0.271-0.271-0.271h-0.115c-0.347,0-0.848,0.539-1.194,0.462v0.116
				h-0.462c-0.231,0-0.386-0.077-0.463-0.231c0.463-0.231,0.925,0.039,1.503-0.347c0-0.847-0.501-1.888-1.387-1.888
				c-0.309,0-0.348,0.386-0.693,0.386h-0.424c-0.116,0-0.424-0.309-0.617-0.309h-0.154l-0.077-0.153l0.154,0.076
				c0-0.115-0.038-0.154-0.038-0.192l0.077-0.271l0.308-0.308c0.309,0.192,1.002,0.116,1.465,0.116
				c-0.116-0.154-0.425-0.309-0.655-0.309h-0.424c-0.308,0-0.462,0.077-0.693,0.115l-0.116-0.038
				c0.154-0.578,1.619-0.077,1.619-0.771h-0.155v-0.231c0-0.192-0.115-0.23-0.115-0.347c0-0.192,0.115-0.27,0.192-0.385
				c-0.115-0.077-0.346-0.193-0.308-0.425l0.038-0.385c0.077-0.077,0.154-0.115,0.231-0.23c0.231-0.231,0.116-0.078,0.309-0.193
				c-0.192,0-0.693,0.038-0.693-0.115c0-0.616,0.346-0.81,1.001-0.81c-0.076-0.115-0.115-0.23-0.308-0.23h-0.424
				c-0.154,0-0.347,0.115-0.424,0.192c0.038-0.154,0.347-0.347,0.424-0.347h0.153c0.81,0,1.541,0.693,1.541,1.503V24.1
				c0,0.116-0.038,0.154-0.038,0.27c0.116-0.153,0.308-0.539,0.308-0.771v-0.27c0-0.809-0.731-1.618-1.579-1.618h-0.077
				c-0.192,0-0.538,0.077-0.654,0.154l0.038-8.63c-0.154,0.039-0.193,0.039-0.308,0.116c-0.193,0.076-0.231,0-0.386,0.076
				c-0.27,0.039-0.463,0.116-0.732,0.193c-0.5,0.115-1.04,0.192-1.54,0.27c-0.771,0.154-2.389,0.308-3.313,0.308h-1.233
				c-1.502,0-4.469-1.04-5.624-1.502c-0.848-0.347-1.695-0.693-2.505-1.079c-0.385-0.154-0.886-0.347-1.232-0.539
				c-0.077-0.077-1.194-0.616-1.194-0.616s-1.772,0.848-1.888,0.924c-0.231,0.116-0.732,0.347-1.002,0.424
				c-0.154,0.077-0.309,0.116-0.463,0.231c-0.23,0.115-0.308,0.115-0.539,0.192c-0.616,0.271-3.544,1.464-4.198,1.464
				c-0.271,0.193-2.043,0.501-2.543,0.501H25.58c-1.155,0-2.272-0.153-3.313-0.308c-1.079-0.115-2.003-0.424-2.967-0.655v0.81
				l0.039,7.82c-0.077-0.039-0.424-0.154-0.578-0.154h-0.309c-0.654,0-1.425,0.886-1.425,1.541v0.271
				c0,0.269,0.192,0.77,0.308,0.847l-0.077-0.771c-0.077-0.809,0.771-1.656,1.541-1.656h0.154c0.154,0,0.386,0.192,0.462,0.308
				l-0.038,0.039L19.34,22.25l-0.039-0.038c0,0-0.076-0.039-0.116-0.039c-0.076-0.038-0.153-0.076-0.269-0.076h-0.347
				c-0.193,0-0.271,0.076-0.309,0.23c0.616,0,1.002,0.193,1.002,0.771c0,0.192-0.463,0.154-0.693,0.154
				c0.27,0.154,0.577,0.347,0.577,0.732V24.1c0,0.154-0.192,0.309-0.308,0.386c0.077,0.115,0.154,0.115,0.154,0.308v0.039
				c0,0.308-0.154,0.308-0.077,0.616h-0.193l0.039,0.231c0.347,0.076,0.309,0.153,0.848,0.192c0.309,0.039,0.655,0.115,0.771,0.308
				l-0.115,0.077c-0.231-0.038-0.425-0.115-0.655-0.115h-0.27c-0.347,0-0.81,0.115-0.887,0.347c0.347-0.154,1.117,0.115,1.502-0.154
				c0.116,0.154,0.387,0.231,0.387,0.539c0,0.077-0.039,0.155-0.077,0.193l0.038,0.038l0.154-0.076l-0.077,0.153h-0.154
				c-0.192,0-0.539,0.309-0.655,0.309h-0.386c-0.346,0-0.385-0.386-0.693-0.386c-0.847,0-1.387,1.002-1.387,1.812
				c0,0.385,1.233,0.269,1.503,0.423c-0.077,0.115-0.27,0.231-0.462,0.231h-0.501l0.039-0.077l-0.039-0.039l-0.039,0.039H17.49
				l-0.116-0.077c-0.153-0.115-0.115-0.077-0.27-0.153c-0.115-0.039-0.423-0.271-0.539-0.271h-0.192
				c-0.077,0-0.309,0.231-0.309,0.309v0.038c0,0.192,0.231,0.347,0.386,0.386l-0.154,0.925c-0.27-0.116-0.616-0.309-1.002-0.309
				h-0.192c-0.462,0-0.848,0.192-1.155,0.347c0.115-0.463,0.462-0.809,1.04-0.809h0.616c0.23,0,0.462,0.23,0.654,0.23l-0.385-0.462
				l-0.039,0.038v-0.076l0.193-0.078l-0.809-0.23c-0.154-0.231-0.424-0.27-0.463-0.693h-0.192v0.077h-0.116l-0.462-1.002
				l-0.347,0.192l0.27-0.539l-0.347-0.039c0.115-0.153,0.192-0.038,0.271-0.269c0.076-0.155,0.038-0.271,0.115-0.463
				c-0.386,0.076-0.849,0.501-0.849,0.925c-0.153-0.115-0.346-0.501-0.346-0.771c0-0.193,0.153-0.309,0.231-0.424h-0.154
				c-0.694,0.462-1.426,1.155-1.426,2.312l0.038,0.038v1.156c0,0.501,0.077,0.848,0.115,1.232c0.039,0.463,0.231,0.693,0.231,1.117
				c0,0.347-0.153,0.501-0.153,0.694l0.23-0.348c0-0.27,0.115-0.424,0.115-0.771v-0.385c0-0.231-0.076-0.386-0.115-0.578
				c0.347-0.231,0.386-0.309,0.964-0.309c0-0.115-0.039-0.27-0.193-0.27h-0.115c-0.309,0-0.424,0.154-0.54,0.154
				c-0.038,0-0.076-0.038-0.076-0.116c0-0.423,0.192-0.731,0.23-1.117l0.154-0.038c0-0.23-0.23-0.347-0.424-0.385
				c0-0.193,0.154-0.617,0.347-0.617c0.771,0,0.54,1.734,1.464,1.812c-0.076,0.346-0.347,0.077-0.347,1.04
				c0.077-0.116,0.154-0.309,0.347-0.309c0.039,0,0.115,0.077,0.115,0.116c0,0.424-0.539,0.462-0.539,1.117
				c0.154,0,0.539-0.309,0.655-0.386c0.154-0.115,0.501-0.231,0.694-0.347l0.538-0.038c-0.191,0.308-0.693,0.577-0.731,1.04
				c0.347-0.231,0.731-0.463,1.31-0.463c0.309,0-0.27,0.386-0.308,0.386c-0.116,0.077-0.501,0.231-0.539,0.308
				c0.462,0,0.809-0.076,1.155-0.23c0.192-0.116,0.23-0.154,0.424-0.27c0.115-0.039,0.385-0.231,0.462-0.271
				c-0.153,0.616-0.925,0.925-0.925,1.542c0,0.192,0.039,0.269,0.077,0.423c0.039,0,0.192-0.115,0.192-0.115
				c0.155,0,0.231,0.309,0.231,0.462v0.078c0,0.423-1.194,1.232-1.194,2.118v0.116c0.309,0,0.925-0.655,1.079-0.849
				c0.231-0.308,0.577-0.848,0.886-1.039l-0.27,0.347l0.039,0.038c0.924-0.231,2.234-1.232,2.234-2.389v-0.462
				c0-0.386-0.192-0.693-0.192-0.887c0-0.192,0.693-0.424,1.001-0.424h0.154c0.077,0,0.27,0.309,0.27,0.347v0.116
				c0,0.115-0.27,0.308-0.385,0.347c-0.231,0.115-0.309,0.154-0.424,0.346c0.309,0,0.269-0.153,0.655-0.153
				c0.115,0,0.153,0.038,0.23,0.077c-0.039,0.154-0.115,0.231-0.115,0.385c0,0.271,0.27,0.309,0.115,0.771
				c-0.077,0.116-0.27,0.386-0.347,0.616c-0.115,0.271-0.578,0.926-0.732,1.195c-0.309,0.424-0.539,0.692-0.848,1.078
				c-0.154,0.192-0.308,0.309-0.462,0.501c-0.076,0.077-0.462,0.424-0.5,0.462l0.038,0.309v0.038c0,0.039-0.116,0.309-0.154,0.348
				c0.231-0.039,0.886-0.463,1.04-0.617c0.309-0.27,0.539-0.539,0.809-0.848c0,0.501-0.038,1.927,0.039,2.351
				c0.038,0.154,0.077,0.925,0.077,1.117c0,0.386,0.115,0.732,0.115,1.117c0,0.386,0.308,1.695,0.463,1.965
				c0.115,0.309,0.192,0.578,0.347,0.848c0.115,0.231,0.308,0.616,0.424,0.81c0.192,0.5,1.617,2.542,1.965,2.851
				c0.385,0.385,0.809,0.848,1.194,1.232c0.192,0.193,0.462,0.347,0.654,0.539c0.231,0.193,0.501,0.347,0.694,0.54
				c0.076,0.076,0.578,0.462,0.692,0.5c0.193,0.116,0.463,0.386,0.655,0.54c0.501,0.308,0.963,0.693,1.464,0.963
				c0.154,0.077,0.578,0.347,0.732,0.463c0.192,0.191,0.501,0.347,0.731,0.5c0.501,0.309,1.04,0.578,1.503,0.925
				c0.963,0.617,2.08,1.194,3.082,1.772c1.04,0.616,2.08,1.117,3.159,1.694c0.154-0.153,0.539-0.308,0.771-0.423
				c0.154-0.077,0.27-0.115,0.385-0.193c0.115-0.038,0.271-0.153,0.386-0.23c0.539-0.271,1.04-0.539,1.579-0.848
				c0.463-0.309,1.04-0.616,1.541-0.887c0.54-0.308,1.002-0.578,1.541-0.886c0.501-0.308,1.002-0.616,1.465-0.925
				c0.154-0.115,0.616-0.347,0.731-0.462c0.154-0.115,0.578-0.424,0.731-0.501c0.54-0.308,0.964-0.655,1.465-0.963
				c0.346-0.231,1.117-0.771,1.387-1.04c0.116-0.154,0.462-0.386,0.655-0.54c0.23-0.192,0.424-0.308,0.654-0.539
				c0.193-0.193,0.386-0.424,0.616-0.578c0.116-0.077,0.424-0.462,0.616-0.616c0.271-0.231,1.812-2.504,1.966-2.889
				c0.077-0.231,0.309-0.54,0.423-0.771c0.116-0.27,0.231-0.577,0.348-0.848c0.231-0.539,0.308-1.31,0.424-2.003
				C55.322,39.125,55.361,37.391,55.361,35.85z M59.868,29.454v-0.038l0.347,0.038c0.039-0.038,0.386-0.423,0.463-0.462
				c0.077-0.076,0.23-0.462,0.271-0.616c0.114,0.038,0.152,0.077,0.152,0.231V28.8l0.231-0.115l0.039,0.308
				c0.038,0.271-0.271,0.693-0.423,0.81C60.601,29.609,60.407,29.454,59.868,29.454z M56.748,33.308
				c0.154-0.309,0.192-1.002,0.539-1.002l-0.077,0.54v0.308c0,0.309,0.077,0.501,0.155,0.771L56.748,33.308z M57.596,29.84
				l0.616-0.424c0,0.578-0.539,1.04-0.771,1.503c-0.115,0.308-0.693,1.349-0.732,1.579c-0.076-0.077-0.115-0.192-0.115-0.347
				c0-0.809,1.04-1.541,1.04-2.003v-0.154C57.634,29.879,57.634,29.879,57.596,29.84z M55.399,27.952
				c0.077,0.038,0.424,0.231,0.501,0.231c0.192,0-0.115-0.347-0.154-0.424c0.077-0.077,0.192-0.27,0.309-0.27h0.424
				c0.23,0,0.616,0.577,0.616,0.809v0.038c0,0.271-0.231,0.54-0.501,0.54h-0.077c-0.308,0-0.347-0.424-0.655-0.463
				c0.077,0.116,0.039,0.386-0.192,0.271v0.27c0.154,0.077,0.348,0.192,0.348,0.462c0,0.115-0.039,0.038-0.039,0.193
				c0.154,0.192,0.501,0.347,0.848,0.347h0.153c0.116,0,0.116,0,0.193-0.039c0,0.347-0.693,1.426-0.886,1.464
				c0,0.308-0.231,0.308-0.231,0.693v0.154c0,0.462,0.462,0.655,0.462,0.925c-0.27-0.154-0.578-0.539-0.578-0.964
				c0-0.423,0.231-0.577,0.231-0.809v-0.154c0-0.5-0.424-0.809-0.771-1.002V27.952z M13.831,29.802
				c-0.193-0.116-0.425-0.463-0.425-0.771v-0.077c0-0.115,0.039-0.154,0.039-0.27l0.23,0.115v-0.192
				c0-0.154,0.039-0.193,0.115-0.231c0.078,0.038,0.271,0.693,0.771,1.04h0.309v0.038C14.446,29.454,14.1,29.647,13.831,29.802z
				 M17.991,33.308l-0.617,0.655c0.078-0.271,0.231-0.617,0.193-0.964l-0.077-0.693c0.347,0.038,0.386,0.731,0.539,1.04
				L17.991,33.308z M18.146,32.306c0,0.115,0,0.115-0.038,0.192c-0.193-0.115-0.617-1.232-0.771-1.541
				c-0.231-0.424-0.771-1.001-0.771-1.541l0.616,0.386c-0.038,0.077-0.038,0.077-0.038,0.192v0.154c0,0.501,1.002,1.194,1.002,1.811
				V32.306z M19.378,30.225c-0.347,0.193-0.809,0.54-0.809,1.002c0,0.309,0.27,0.617,0.27,0.887c0,0.462-0.27,0.848-0.578,1.002
				c0.038-0.231,0.462-0.463,0.462-0.964c0-0.771-1.117-1.541-1.117-2.195h0.347c0.309,0,0.732-0.116,0.81-0.347
				c0.038-0.116-0.077-0.271,0.115-0.463c0.154-0.192,0.231-0.115,0.231-0.462l-0.154,0.038l-0.077-0.077l0.039-0.231
				c-0.271,0.039-0.425,0.463-0.617,0.463h-0.076c-0.309,0-0.539-0.231-0.539-0.54v-0.115c0-0.192,0.385-0.731,0.654-0.731h0.347
				c0.077,0,0.309,0.23,0.309,0.309c0,0.076-0.348,0.385-0.116,0.385c0.077,0,0.424-0.193,0.501-0.231V30.225z M36.907,54.959
				c-0.27-0.077-1.117-0.617-1.502-0.771c-0.424-0.231-1.002-0.616-1.426-0.848c-0.501-0.27-0.964-0.501-1.426-0.848
				c-0.154-0.077-0.616-0.347-0.771-0.386c-0.039-0.038-0.654-0.423-0.693-0.462c-0.424-0.27-0.963-0.616-1.387-0.887
				c-0.347-0.153-1.156-0.692-1.387-0.924c-0.077-0.038-0.617-0.424-0.694-0.424c-0.115-0.076-0.539-0.424-0.654-0.501
				c-0.424-0.347-0.887-0.693-1.311-1.002c-0.153-0.115-1.117-0.924-1.193-1.079c-0.116-0.115-0.54-0.462-0.617-0.539
				c-0.077-0.192-0.385-0.462-0.501-0.654c-0.347-0.424-0.616-0.887-0.924-1.349c-0.348-0.424-0.578-1.002-0.848-1.464
				c-1.002-1.656-0.963-5.471-0.963-8.206v-1.233c0-0.192,0.27-1.116,0.346-1.387h15.95V54.959z M36.907,31.034H20.881
				c0-0.347-0.039-0.771-0.309-0.848v-3.313c0.309-0.076,0.27-0.385,0.424-0.5v4.198h0.385l0.039-2.619h1.502l0.039,2.619h0.424
				h13.176v-9.938h-9.4v1.387h-1.695c0,0.115,0,0.192,0.115,0.192h1.58v1.965h-0.077V22.25H25.58v0.887l-1.116-0.732l-0.231-0.038
				c0,0-1.541,0.963-1.656,1.079c-0.231,0.153-1.619,0.924-1.619,1.078v0.578h6.203v0.077h-6.203v0.27h6.203v0.076h-6.203v0.231
				h6.203v0.116h-6.164v0.424l-0.424-0.27l-0.077-11.25c1.541,0.347,3.775,0.654,5.625,0.654h0.154c1.464,0,2.89-0.423,4.083-0.731
				c0.655-0.192,1.195-0.424,1.812-0.616c0.423-0.154,1.387-0.501,1.694-0.693h0.155l2.889-1.349V31.034z M26.274,28.453v1.156
				h-0.771v-1.156H26.274z M25.504,28.376v-1.194h0.771v1.194H25.504z M27.16,28.453v1.194h-0.809v-1.194H27.16z M26.352,28.376
				v-1.194h0.809v1.194H26.352z M30.936,25.795v3.121h-2.119v-3.121H30.936z M28.816,25.602v-3.12h2.119v3.12H28.816z
				 M33.209,25.795v3.121H31.09v-3.121H33.209z M31.09,25.602v-3.12h2.119v3.12H31.09z M37.87,12.041
				c0.732,0.386,1.58,0.771,2.389,1.079c0.386,0.192,0.81,0.385,1.194,0.539s0.848,0.27,1.233,0.462
				c1.04,0.463,4.122,1.31,5.547,1.31h0.308c1.003,0,2.12-0.076,3.007-0.191c0.423-0.077,1.001-0.116,1.425-0.193
				c0.27-0.077,1.078-0.23,1.31-0.27l-0.076,11.173l-0.425,0.385c0.039,0.154,0.193,0.501,0.386,0.539v3.313
				c-0.192,0.038-0.27,0.463-0.27,0.732v0.115H37.87V12.041z M54.167,34.926c0,0.771-0.039,1.464-0.039,2.196
				c0,0.615,0,1.617-0.077,2.195c-0.115,0.654-0.115,1.349-0.308,1.965c-0.192,0.655-0.308,1.079-0.616,1.656
				c-0.192,0.424-0.578,1.079-0.848,1.426c-0.077,0.154-0.386,0.539-0.463,0.654c-0.077,0.193-0.077,0.193-0.23,0.347
				c-0.077,0.155-0.116,0.231-0.231,0.348c-0.655,0.809-1.503,1.579-2.312,2.233c-0.424,0.348-0.81,0.655-1.271,1.002
				c-0.154,0.077-0.578,0.424-0.655,0.463c-0.115,0.038-0.578,0.386-0.693,0.463c-0.076,0.076-0.539,0.385-0.655,0.462
				c-0.23,0.115-0.5,0.308-0.692,0.462c-0.463,0.27-1.041,0.54-1.426,0.848c-0.077,0.077-0.616,0.424-0.654,0.462
				c-0.231,0.077-0.231,0.077-0.386,0.193c-0.154,0.115-0.231,0.115-0.386,0.192c-0.23,0.192-1.117,0.693-1.426,0.848
				c-0.385,0.154-1.078,0.693-1.425,0.848c-0.424,0.153-1.156,0.654-1.503,0.771V31.997h15.95l0.077,0.501
				c0.038,0.077,0.27,0.693,0.27,0.81V34.926z"/>
			<path fill="#FFFFFF" d="M51.624,33.77H50.16h-2.89h-5.74h-3.159v0.925h3.121v17.761c0.115-0.039,0.27-0.039,0.27-0.192V34.694
				h10.055v9.362c0.231-0.155,1.156-2.043,1.156-2.505v-7.667C52.973,33.692,51.855,33.77,51.624,33.77z"/>
			<rect x="46.616" y="35.85" fill="#FFFFFF" width="3.506" height="3.931"/>
			<rect x="42.493" y="35.85" fill="#FFFFFF" width="3.813" height="0.54"/>
			<path fill="#FFFFFF" d="M42.493,49.989h2.967c0.077,0,0.655-0.424,0.732-0.501h-3.699V49.989z"/>
			<path fill="#FFFFFF" d="M42.493,48.872h4.547c0.115,0,0.616-0.424,0.731-0.501h-5.278V48.872z"/>
			<rect x="42.493" y="41.552" fill="#FFFFFF" width="7.629" height="0.501"/>
			<path fill="#FFFFFF" d="M42.493,47.755h6.011c0.115,0,0.616-0.463,0.693-0.54h-6.704V47.755z"/>
			<path fill="#FFFFFF" d="M42.493,51.184h1.117c0.078,0,0.848-0.501,0.886-0.578h-2.003V51.184z"/>
			<rect x="42.493" y="43.786" fill="#FFFFFF" width="7.629" height="0.54"/>
			<rect x="42.493" y="42.669" fill="#FFFFFF" width="7.629" height="0.501"/>
			<rect x="42.493" y="44.942" fill="#FFFFFF" width="7.629" height="0.539"/>
			<path fill="#FFFFFF" d="M42.493,46.599h7.358c0.193,0,0.039-0.116,0.271-0.192v-0.309h-7.629V46.599z"/>
			<rect x="42.493" y="36.967" fill="#FFFFFF" width="3.813" height="0.54"/>
			<path fill="#FFFFFF" d="M67.15,54.073c-0.078,0,0,0-0.078,0.038c0.078,0.308,0.463,0.308,0.463,0.731v0.039
				c0,0.115-0.231,0.23-0.347,0.23h-0.501c-0.27,0-0.462-0.076-0.616-0.191l0.424-0.116l0.038-0.424
				c0.076-0.539-0.963-1.426-1.271-1.772l0.039,0.309c0.038,0.077,0.191,0.385,0.191,0.5v0.155c0,0.115-0.114,0.347-0.23,0.347
				h-0.192c-0.655,0-0.886-0.539-1.194-0.771c0,0.731,0.154,0.809,0.462,1.232c0.154,0.192,0.771,0.54,1.155,0.54
				c0.231,0.462,1.079,1.039,1.734,1.039h0.23c0.386,0,0.887-0.23,0.887-0.616C68.344,54.805,67.535,54.073,67.15,54.073z"/>
			<path fill="#FFFFFF" d="M70.616,54.728c0.078-0.038,0.117-0.115,0.271-0.115c0.077,0,0.153,0.077,0.153,0.115
				c0,0.54-0.616,0.54-0.654,0.963c0.462-0.115,1.618-0.654,1.618-1.194v-0.308c-0.153,0-0.077-0.039-0.231-0.039
				C71.233,54.149,70.733,54.304,70.616,54.728z"/>
			<path fill="#FFFFFF" d="M70.386,55.19c0-0.463-1.002-0.617-1.541-0.617h-0.27c-0.077,0-0.115,0.039-0.115,0.077
				c0.27,0.039,0.809,0.271,0.809,0.54v0.153c0,0.309-0.732,0.501-0.925,0.655c0.655,0,2.042-0.231,2.042-0.771V55.19z"/>
			<path fill="#FFFFFF" d="M65.146,51.761l-0.501,0.115c0.038-0.423,0.347-0.423,0.347-0.731v-0.27
				c-0.809,0.077-0.925,0.732-1.656,0.732c-0.116,0-0.154-0.039-0.27-0.039c-0.039,0.077-0.078,0.116-0.078,0.231v0.231
				c0,0.115,0.348,0.616,0.463,0.693C64.222,52.647,65.146,52.57,65.146,51.761z"/>
			<path fill="#FFFFFF" d="M64.337,50.914l0.655-0.655c0-0.309,0.116-0.27,0.116-0.54v-0.076c0-0.231-0.078-0.348-0.116-0.54
				c-0.385,0.116-1.155,1.541-2.119,1.58v0.076c0.193,0.039,0.463,0.271,0.732,0.271C63.952,51.029,64.029,50.914,64.337,50.914z"/>
			<path fill="#FFFFFF" d="M74.393,50.22h-0.039c-0.308,0-0.578,0.192-0.578,0.501v0.386c0.271-0.039,0.193-0.154,0.271-0.309
				c0.115-0.154,0.27-0.039,0.539-0.039l-0.038,0.463c0.27-0.077,0.115-0.115,0.23-0.27v-0.231
				C74.662,50.566,74.623,50.22,74.393,50.22z"/>
			<path fill="#FFFFFF" d="M20.071,26.873c0-0.115-0.076-0.115-0.153-0.153l-0.271,0.038v0.231c0.077,0.039,0.077,0.039,0.192,0.039
				h0.231V26.873z"/>
			<path fill="#FFFFFF" d="M72.235,53.38c-0.192,0.115-0.616,0.347-0.655,0.615c0.271,0,0.271-0.076,0.501-0.076h0.115v0.423
				c0,0.271-0.115,0.231-0.115,0.54c0.193-0.115,0.616-0.54,0.616-0.809v-0.31c0-0.153-0.116-0.269-0.154-0.423L72.235,53.38z"/>
			<path fill="#FFFFFF" d="M14.64,51.299c0.385,0,1.078-0.077,1.271-0.27c-0.501,0-1.465-0.038-1.657-0.309
				c0.077-0.115,0.309-0.154,0.501-0.309c0.154-0.192,0.27-0.23,0.385-0.462c-0.269,0.077-0.809,0.193-1.078,0.193h-0.271
				c-0.385,0-0.577-0.27-0.731-0.501c0-0.154-0.192-1.156-0.23-1.349c-0.116-0.463-0.231-0.81-0.771-0.848
				c0.076,0.115,0.23,0.539,0.23,0.732v0.423c0,0.54-0.385,1.272-0.848,1.311v0.077c0.039,0,0.501,0.423,0.578,0.5
				c0.115,0.077,0.578,0.347,0.732,0.386c0.385,0.192,1.232,0.424,1.772,0.424H14.64z"/>
			<path fill="#FFFFFF" d="M74.199,51.222h-0.308c-0.116,0-0.308,0.192-0.386,0.27c-0.038,0.039-0.23,0.424-0.23,0.424
				c0,0.116,0.077,0.116,0.154,0.154c0.076-0.154,0.154-0.309,0.385-0.309h0.039c0.115,0,0.23,0.039,0.23,0.154v0.231
				c0,0.154-0.153,0.385-0.153,0.539v0.039c0,0.115,0,0.115,0.038,0.192c0.154-0.231,0.539-0.771,0.539-1.156
				C74.508,51.568,74.354,51.222,74.199,51.222z"/>
			<path fill="#FFFFFF" d="M55.092,54.689c0.077,0,0.27,0.308,0.308,0.385h0.771c0.154,0,0.271-0.077,0.271-0.231
				c-0.116,0-0.154,0.039-0.271,0.039h-0.153c-0.231,0-0.462-0.192-0.462-0.424s0.654,0.077,0.654-0.192
				c0-0.231-0.386-0.077-0.386-0.231s0.539-0.347,0.732-0.347V53.61c-0.115-0.038-0.115-0.077-0.27-0.077h-0.231
				c-0.077,0-0.077,0.039-0.154,0.077l-0.462,0.038c0.077-0.308,0.423-0.347,0.771-0.347l0.077-0.153l-0.27-0.154l0.616-0.27
				c-0.077-0.116-0.309-0.347-0.54-0.347h-0.076c-0.578,0-0.887,0.731-1.117,1.155c0.346,0,0.153,0.23,0.423,0.309l-0.385,0.886
				C55.053,54.689,55.014,54.689,55.092,54.689z M56.017,52.531c0.115,0,0.192,0.077,0.23,0.154l-0.654,0.077
				C55.631,52.608,55.823,52.531,56.017,52.531z"/>
			<path fill="#FFFFFF" d="M59.753,51.491h-0.577c0.23,1.04,1.811,0.732,2.311,1.503l0.145,0.107
				c0.027-0.035,0.049-0.05,0.049-0.107v-0.27C61.68,52.146,60.407,51.491,59.753,51.491z"/>
			<path fill="#FFFFFF" d="M54.899,26.72H54.86c-0.154,0-0.192,0.153-0.192,0.309h0.308c0.116,0,0.154-0.116,0.154-0.193
				S54.976,26.72,54.899,26.72z"/>
			<path fill="#FFFFFF" d="M55.283,27.336c0.232,0,0.348-0.077,0.348-0.308h-0.27c-0.116,0-0.231,0.038-0.231,0.153
				C55.13,27.259,55.245,27.336,55.283,27.336z"/>
			<path fill="#FFFFFF" d="M55.669,26.604c0-0.077-0.038-0.115-0.114-0.115h-0.078c-0.077,0-0.231,0.153-0.231,0.231v0.038
				c0,0.077,0.038,0.115,0.116,0.115h0.154c0.077,0,0.153-0.076,0.153-0.153V26.604z"/>
			<path fill="#FFFFFF" d="M61.486,52.994l-0.616-0.231v0.039c0.116,0.23,0.27,0.308,0.27,0.578v0.153
				c0,0.154-0.153,0.077-0.27,0.309c-0.731,0-1.502,0.231-2.004,0.5c-0.153,0.116-0.654,0.425-0.731,0.54
				c-0.154,0.154-0.462,0.577-0.655,0.616c-0.076-0.308-0.114-0.424-0.501-0.424c0.039,0.116,0.078,0.231,0.078,0.385v0.039
				c0,0.154-0.231,0.27-0.424,0.27H56.44l-0.886-0.077c-0.078,0-0.31,0.039-0.31,0.116c0,0.115,0.077,0.153,0.193,0.192v0.193
				c0.23,0,0.347,0.115,0.654,0.115h0.386c0.693,0,1.001-0.386,1.387-0.617c0.115-0.038,1.117-0.848,1.156-0.886
				c0.154,0,0.577-0.154,0.692-0.231c0.231-0.077,0.501-0.115,0.732-0.192c0.347-0.077,1.233-0.347,1.233-0.654V53.38
				c0-0.116-0.039-0.155-0.077-0.231c0.008-0.017,0.016-0.028,0.023-0.039h-0.023L61.486,52.994z"/>
			<path fill="#FFFFFF" d="M55.399,55.614c0.27,0,0.462-0.155,0.887-0.155c-0.077-0.115-0.231-0.308-0.386-0.308h-0.231
				c-0.27,0-0.577,0.154-0.577,0.424c0.115,0,0.153,0.039,0.27,0.039H55.399z"/>
			<polygon fill="#FFFFFF" points="61.641,53.109 61.631,53.102 61.626,53.109 			"/>
			<path fill="#FFFFFF" d="M73.544,52.263l-0.114,0.038l-0.116-0.077c-0.192,0.231-0.886,0.385-0.925,1.001
				c0.192,0,0.385-0.192,0.578-0.192c0.154,0,0.154,0.154,0.154,0.309c0,0.463-0.231,0.539-0.309,0.848
				c0.27-0.193,0.925-0.732,0.925-1.156v-0.154l-0.038-0.423L73.544,52.263z"/>
			<path fill="#FFFFFF" d="M33.285,14.198c-0.462,0.271-0.847,0.617-1.31,0.848v-0.424l-0.693,0.271c-0.27,0-1.425,0.423-1.811,0.5
				c-0.539,0.154-0.616-0.077-0.616,0.54v1.193l-2.929,1.966h10.634v-4.354c0-0.116-1.656-1.117-1.849-1.233
				c-0.231,0.154-0.463,0.192-0.732,0.309C33.671,13.967,33.556,14.045,33.285,14.198z"/>
			<path fill="#FFFFFF" d="M42.34,58.734h-0.116c-0.963,0-1.695,1.464-1.695,2.504c0,0.771,0.424,1.542,1.156,1.542
				c0.886,0,1.695-1.426,1.695-2.39v-0.192c0-0.424-0.154-0.693-0.309-0.963C42.995,59.081,42.57,58.734,42.34,58.734z
				 M42.609,60.353c0,0.693-0.348,2.157-0.925,2.157h-0.038c-0.231,0-0.386-0.771-0.386-1.04v-0.309
				c0-0.693,0.386-2.157,0.963-2.157c0.347,0,0.386,0.848,0.386,1.194V60.353z"/>
			<path fill="#FFFFFF" d="M47.271,57.309v-0.153c0-0.271,0.616-0.077,0.848-0.077c0.115,0,0.27-0.116,0.27-0.231
				c0-0.192-0.192-0.462-0.424-0.462c-0.423,0-0.462,0.191-0.693,0.23c-0.038,0.231-0.309,0.309-0.309,0.693v0.501
				c0,0.347,0.386,0.732,0.617,0.886c0.154,0.077,0.308,0.231,0.462,0.309c0.231,0.115,0.154,0.193,0.424,0.347
				c0,0.231,0.076,0.231,0.076,0.424v0.038c0,0.155-0.153,0.271-0.346,0.271c-0.269,0-0.347-0.115-0.539-0.154
				c-0.192,0-0.386,0.192-0.386,0.347c0,0.192,0.231,0.347,0.425,0.347h0.115c0.654,0,1.117-0.616,1.117-1.271
				C48.928,58.195,47.271,57.693,47.271,57.309z"/>
			<path fill="#FFFFFF" d="M40.182,66.824h-0.5c-0.309,0-0.732-0.616-0.732-0.886v-0.347c0-0.539,0.424-1.078,0.963-1.078
				c0.347,0,0.732,0.27,0.771,0.577h0.078l-0.078-0.655l-0.424-0.038h-0.693c-0.346,0-1.002,0.655-1.002,1.079v0.539
				c0,0.192,0.271,0.501,0.386,0.616c0.231,0.27,0.424,0.192,0.616,0.347h0.578c0.424-0.27,0.693,0.271,0.771-0.771
				C40.683,66.247,40.605,66.824,40.182,66.824z"/>
			<path fill="#FFFFFF" d="M21.42,37.699c0,0.077,0.039,0.192,0.154,0.192h5.162v0.077h-4.854v3.467
				c0,0.348,0.347,0.926,0.463,1.233c0.077,0.231,0.577,0.886,0.616,1.079h3.775v0.115h-3.698l0.231,0.347h3.429v0.077h-3.353
				c0.077,0.154,0.655,1.04,0.81,1.04h0.616v0.732c0,0.115,0.309,0.385,0.424,0.423v-1.155h1.117v1.695h-0.501
				c0.039,0.077,0.039,0.115,0.155,0.115h0.346v0.271c0,0.115,0,0.076,0.077,0.115v-0.386h0.309v0.578
				c0,0.077,1.271,1.04,1.349,1.04h6.009v-1.618h0.463v1.657H33.71v0.077h-5.471c0.077,0.115,0.501,0.423,0.655,0.423h4.815v0.116
				h-4.701c0.078,0.115,1.657,1.155,1.812,1.155h1.271v0.771c0,0.115,0.038,0.076,0.115,0.115v-0.887h1.349v1.657
				c0,0.115,0.385,0.27,0.5,0.347v-1.002h0.463v1.194c0,0.115,0,0.077,0.077,0.115v-1.31h1.155v1.695h-0.462
				c0.077,0.038,0.116,0.077,0.27,0.077h0.192v0.115c0,0.116,0.271,0.231,0.386,0.271v-0.386h0.501v-0.077h-0.501v-1.695h0.501
				v-0.963h-2.582v-0.077h2.582v-0.347h-2.582v-0.115h2.582v-1.271h-0.501v-1.657h0.501v-0.115h-0.501v-1.695h0.501v-1.04h-2.582
				V44.21h2.582v-0.347h-2.582v-0.115h2.582v-1.156h-0.501v-1.695h0.501v-0.115h-0.501v-1.656h0.501v-1.156h-2.582v-0.077h2.582
				v-0.655h-2.582v-3.158h-7.319v3.158h-5.355v0.348h0.078C21.459,37.622,21.42,37.699,21.42,37.699z M26.698,46.984h-0.27v-1.657
				h0.27V46.984z M34.596,45.328h1.117v1.656h-1.117V45.328z M34.596,47.138h1.155v1.657h-1.155V47.138z M23.577,42.592h-1.155
				v-1.695h1.155V42.592z M23.577,40.781h-1.155v-1.656h1.155V40.781z M24.771,42.554h-1.117v-1.657h1.117V42.554z M24.771,40.781
				h-1.156v-1.656h1.156V40.781z M26.313,41.167c0,0.192-0.153,0.038-0.153,0.308c0,0.154,0.153,0.116,0.153,0.27v0.81h-1.117
				v-1.657h1.117V41.167z M26.313,40.781h-1.155v-1.656h1.155V40.781z M26.39,39.125h0.347v1.656H26.39V39.125z M28.74,47.254
				h-1.272c-0.076,0-0.115-0.039-0.115-0.116v-1.926h1.388V47.254z M28.74,45.058h-1.349v-2.003h1.349V45.058z M30.204,47.215
				h-1.349v-2.003h1.349V47.215z M30.204,45.058h-1.349v-2.003h1.349V45.058z M32.092,47.254h-1.388v-2.042h1.388V47.254z
				 M32.092,45.058h-1.388v-2.003h1.388V45.058z M33.556,47.215h-1.349v-2.003h1.349V47.215z M33.556,45.058h-1.349v-2.003h1.349
				V45.058z M34.48,45.328v1.656h-0.425v-1.656H34.48z M34.48,42.554h-0.425v-0.81h-7.319l-0.038,0.81h-0.193h-0.076v-0.887h8.052
				V42.554z M34.596,39.125h1.155v1.656h-1.155V39.125z M34.596,41.898v-0.886v-0.116h1.117v1.657h-1.117V41.898z M34.056,39.125
				h0.463v1.656h-0.463V39.125z M32.207,35.503h1.349v2.042h-1.349V35.503z M32.207,37.699h1.349v2.004h-1.349V37.699z
				 M30.704,35.503h1.388v2.042h-1.388V35.503z M30.704,37.661h1.388v2.042h-1.388V37.661z M28.855,35.503h1.387v2.042h-1.387
				V35.503z M28.855,37.699h1.349v2.004h-1.349V37.699z M27.353,35.503h1.388v2.042h-1.388V35.503z M28.74,37.699v2.004h-1.349
				v-2.004H28.74z M34.056,41.128v-0.231h0.425v0.348h-8.052v-0.348h0.308v0.231H34.056z"/>
			<path fill="#FFFFFF" d="M25.35,19.399v0.231c0,0.154,0.192,0.192,0.346,0.192h10.865v-0.501H25.542
				C25.427,19.322,25.504,19.36,25.35,19.399z"/>
			<path fill="#FFFFFF" d="M26.081,33.654h0.116c-0.038,0.115-0.038,0.077-0.038,0.153c0,0.116,0.076,0.231,0.192,0.231h8.013
				c0.154,0,0.192-0.076,0.27-0.115l-0.038-0.27h0.27c0.039-0.077,0.116-0.116,0.116-0.192v-0.078c0-0.076-0.077-0.153-0.154-0.153
				h-8.86c-0.116,0-0.155,0.115-0.155,0.192C25.812,33.577,25.927,33.654,26.081,33.654z"/>
			<path fill="#FFFFFF" d="M26.043,20.17c0,0.192,0.116,0.309,0.309,0.309h10.209v-0.501H26.235
				C26.159,19.978,26.043,20.093,26.043,20.17z"/>
			<path fill="#FFFFFF" d="M38.91,62.317c0.347-0.386,0.617-0.963,0.617-1.695c0-0.539-0.347-1.31-0.849-1.31h-0.385
				c-0.385,0-1.078,0.655-1.232,0.886c-0.231,0.385-0.578,0.925-0.578,1.58v0.192c0,0.578,0.463,1.232,1.04,1.232
				C38.14,63.203,38.641,62.664,38.91,62.317z M37.177,62.472v-0.154c0-0.539,0.154-1.194,0.347-1.541
				c0.077-0.193,0.193-0.501,0.309-0.617c0.038-0.038,0.423-0.539,0.423-0.539h0.386c0.154,0,0.193,0.231,0.193,0.386v0.23
				c0,0.386-0.116,1.002-0.271,1.233v0.192c-0.23,0.309-0.539,1.233-1.001,1.233h-0.154C37.254,62.896,37.177,62.625,37.177,62.472z
				"/>
			<path fill="#FFFFFF" d="M45.999,60.121c-0.076,0.27-0.231,0.925-0.539,0.925c0-0.925-0.077-2.042-0.077-2.967
				c0-0.386,0.077-2.928-0.115-2.928c-0.116,0-0.81,0.887-1.156,0.963c0,0.271,0.154,0.193,0.463,0.193
				c0.192,0.424,0.077,2.041,0.115,2.734c0,0.425,0.038,0.887,0.038,1.388c0,0.231-0.038,0.462,0,0.693
				c0.039,0.192,0.154,0.462,0.154,0.577c0.154,0.039,0.193,0.116,0.27,0.116h0.039c0.501,0,1.002-1.118,1.002-1.618
				C46.192,60.121,46.076,60.121,45.999,60.121z"/>
			<path fill="#FFFFFF" d="M19.879,53.533c-0.231-0.347-0.539-1.155-1.079-1.155c-0.309,0-0.539,0.153-0.654,0.347l0.616,0.308
				c-0.192,0-0.271,0.039-0.271,0.231c0.348,0.077,0.81,0.038,0.81,0.385c-0.23,0-0.539-0.115-0.655-0.115h-0.23
				c-0.116,0-0.039,0.039-0.192,0.077v0.077c0.153,0,0.731,0.192,0.731,0.308c0,0.231-0.385,0.039-0.385,0.271
				c0,0.192,0.347,0.076,0.539,0.115c0.231,0.038,0,0.27-0.038,0.424c-0.193,0-0.154,0.077-0.309,0.077H18.53
				c-0.115,0-0.115,0-0.192-0.039c0,0.116,0.077,0.231,0.192,0.231h0.848c0.038-0.115,0.192-0.385,0.309-0.385
				c0.115,0,0.038,0.038,0.192,0.077l-0.463-0.925C19.725,53.764,19.532,53.533,19.879,53.533z M19.185,52.763l-0.654-0.077
				c0.039-0.077,0.115-0.154,0.231-0.154c0.231,0,0.231,0.154,0.423,0.154V52.763z"/>
			<path fill="#FFFFFF" d="M37.331,66.786h-0.578c-0.038-0.077-0.038-0.077-0.038-0.192v-1.772c0-0.231,0.115-0.27,0.347-0.27
				v-0.116h-1.156v0.116h0.154c0.077,0,0.27,0.115,0.27,0.231v1.733c0,0.154-0.115,0.308-0.231,0.308h-0.192v0.077h2.004
				l0.077-0.693C37.793,66.285,37.717,66.786,37.331,66.786z"/>
			<path fill="#FFFFFF" d="M19.185,55.151h-0.23c-0.231,0-0.385,0.154-0.463,0.308c0.271,0,0.771,0.155,0.849,0.155l0.308-0.039
				v-0.116C19.647,55.306,19.34,55.151,19.185,55.151z"/>
			<path fill="#FFFFFF" d="M19.34,55.69l-1.079,0.077h-0.115c-0.231,0-0.424-0.077-0.424-0.309v-0.038l0.038-0.347
				c-0.424,0-0.308,0.154-0.501,0.424c-0.192-0.115-0.462-0.462-0.616-0.616c-0.115-0.115-0.539-0.386-0.731-0.501
				c-0.424-0.308-1.233-0.539-1.965-0.539c-0.077-0.038-0.347-0.27-0.347-0.347V53.38c0-0.309,0.27-0.271,0.27-0.578
				c-0.347,0-0.501,0.192-0.693,0.308c0.192-0.771,2.195-0.578,2.427-1.618h-0.501c-0.771,0-2.042,0.616-2.042,1.349v0.038
				c0,0.154,0.077,0.193,0.116,0.271c-0.039,0.076-0.116,0.115-0.116,0.269v0.193c0,0.501,0.81,0.616,1.194,0.771
				c0.578,0.192,0.964,0.192,1.503,0.462c0.655,0.386,1.579,1.465,2.466,1.465h0.5c0.271,0,0.386-0.115,0.617-0.115v-0.193
				c0.076-0.039,0.153-0.039,0.153-0.154S19.378,55.69,19.34,55.69z"/>
			<path fill="#FFFFFF" d="M29.318,55.96v0.078c0,0.5-0.154,0.577-0.193,0.886l0.193,0.038l0.692-1.155
				c-0.192-0.039-0.616-0.463-0.771-0.616c-0.192-0.154-0.693-0.386-1.04-0.386h-0.347c-0.655,0-1.001,0.539-1.271,0.925
				c0,0.27-0.077,0.192-0.077,0.385v0.078c0,0.809,0.463,1.656,0.386,2.272l-0.038,0.462c-0.231,0.347-0.463,0.771-1.002,0.771
				c-0.577,0-1.311-0.539-1.311-1.078v-0.231c0-0.309,0.231-0.616,0.231-0.886h-0.27l0.038,0.038l-0.771,1.155
				c0.463,0.116,1.079,1.349,2.235,1.349h0.347c0.424,0,0.693-0.231,0.924-0.424c0.154-0.115,0.501-0.616,0.501-0.886v-0.771
				c0-0.386-0.309-0.963-0.309-1.388v-0.423c0-0.386,0.502-1.041,0.849-1.041C28.74,55.112,29.318,55.537,29.318,55.96z"/>
			<path fill="#FFFFFF" d="M31.244,58.388H30.82c-0.424,0-1.349,0.539-1.542,0.771c-0.23,0.27-0.924,0.925-0.924,1.387v0.424
				c0,0.192,0.231,0.501,0.347,0.578c0.271,0.192,0.424,0.115,0.771,0.115c0.192-0.115,0.964-0.385,0.964-0.616v-0.115
				c-0.231,0.038-0.463,0.27-0.848,0.27h-0.116c-0.193,0-0.347-0.116-0.347-0.309v-0.115c0-0.271,0.27-0.732,0.385-0.925
				c0.271-0.385,0.309-0.385,0.578-0.732c1.079-1.194,0.925,0.231,1.503,0.231C32.207,59.351,31.706,58.388,31.244,58.388z"/>
			<path fill="#FFFFFF" d="M34.48,59.313c-0.462,0.154-0.81,0.693-1.117,0.886c0.153-0.616,1.579-2.928,1.579-3.313
				c0-0.038-0.038-0.077-0.115-0.077c0,0-0.578,0.154-0.655,0.193c-0.231,0.038-0.501,0.077-0.731,0.115
				c0,0.347,0.347,0.154,0.347,0.424v0.077c0,0.115-2.081,4.276-2.313,4.7c0.078,0.115,0.193,0.192,0.348,0.192
				c0.462,0,0.424-0.462,0.654-0.771c0.231-0.27,0.347-0.578,0.578-0.848c0.309-0.309,1.04-1.194,1.618-1.194
				c0.154,0,0.27,0.154,0.27,0.309v0.038c0,0.617-0.732,2.351-1.194,2.351c-0.153,0-0.192-0.347-0.463-0.347H33.17
				c-0.154,0-0.309,0.115-0.309,0.23v0.347c0.154,0.039,0.271,0.231,0.386,0.231h0.077c0.964,0,2.427-1.811,2.427-2.889V59.89
				C35.751,59.273,35.058,59.158,34.48,59.313z"/>
			<path fill="#FFFFFF" d="M34.712,66.786h-0.424c-0.116,0-0.155-0.115-0.155-0.231v-1.771c0-0.154,0.193-0.231,0.386-0.231v-0.116
				h-1.117c0.039,0.154,0.077,0.154,0.27,0.154c0.039,0.077,0.116,0.116,0.116,0.193v1.811c0,0.153-0.192,0.23-0.386,0.23v0.077
				h1.926l0.154-0.693C35.212,66.247,35.251,66.786,34.712,66.786z"/>
			<rect x="38.371" y="38.123" fill="#FFFFFF" width="2.466" height="0.5"/>
			<rect x="38.371" y="42.669" fill="#FFFFFF" width="2.466" height="0.501"/>
			<rect x="38.371" y="43.786" fill="#FFFFFF" width="2.466" height="0.54"/>
			<rect x="38.371" y="44.942" fill="#FFFFFF" width="2.466" height="0.539"/>
			<rect x="38.371" y="46.098" fill="#FFFFFF" width="2.466" height="0.501"/>
			<rect x="38.371" y="47.215" fill="#FFFFFF" width="2.466" height="0.54"/>
			<rect x="38.371" y="39.24" fill="#FFFFFF" width="2.466" height="0.54"/>
			<rect x="38.371" y="36.967" fill="#FFFFFF" width="2.466" height="0.54"/>
			<rect x="38.371" y="41.552" fill="#FFFFFF" width="2.466" height="0.501"/>
			<rect x="38.371" y="40.396" fill="#FFFFFF" width="2.466" height="0.539"/>
			<rect x="38.371" y="49.488" fill="#FFFFFF" width="2.466" height="0.501"/>
			<path fill="#FFFFFF" d="M46.076,15.586c-0.192-0.039-0.809-0.155-0.925-0.193v0.077l-0.27-0.077l-0.23,0.231v-0.347l-2.119-0.693
				c-0.236-0.169-0.53-0.273-0.807-0.298c0.012,0.013,0.009,0.027-0.041,0.027v-0.031c-0.025-0.001-0.052-0.007-0.077-0.007
				c-0.115,0-0.115,0-0.231-0.038l-0.153,0.231V14.16l-0.231-0.077l0.077-0.077l-2.813-1.271v11.866h0.579v5.895
				c0,0.076,0.037,0.115,0.115,0.115h1.503v-6.01h1.579v6.01h1.541c0.077,0,0.116-0.039,0.116-0.115v-5.895h1.579v5.971h1.618
				V15.855C46.886,15.701,46.23,15.624,46.076,15.586z M39.412,23.522l-0.271-0.077l-0.271,0.23v-0.347l-0.23-0.039
				c0.23-0.192,0.27,0.116,0.27-0.385l0.193,0.192l0.309-0.115l-0.192,0.27L39.412,23.522z M39.412,21.21l-0.271-0.077l-0.271,0.271
				v-0.347l-0.269-0.077l0.269-0.077v-0.347l0.271,0.23l0.271-0.077L39.22,20.94L39.412,21.21z M39.412,18.898l-0.309-0.076
				l-0.193,0.23v-0.27l-0.231-0.077v-0.077l0.231-0.077v-0.27l0.154,0.192h0.116c0.115,0,0.153-0.038,0.231-0.076l-0.192,0.269
				L39.412,18.898z M39.412,16.626l-0.271-0.077l-0.271,0.23c0-0.347,0.078-0.385-0.269-0.385l0.269-0.115v-0.347l0.271,0.27
				l0.271-0.116l-0.192,0.309L39.412,16.626z M39.22,14.045l0.153,0.23l-0.231-0.038L38.91,14.43v-0.27l-0.27-0.077l0.23-0.116
				v-0.308l0.271,0.231l0.271-0.077L39.22,14.045z M40.528,22.366l-0.23-0.077l-0.231,0.192v-0.27l-0.27-0.115l0.27-0.077v-0.27
				c0.038,0.038,0.192,0.192,0.231,0.192c0.076,0,0.115-0.039,0.23-0.077l-0.154,0.231L40.528,22.366z M40.528,20.055l-0.309-0.077
				l-0.153,0.231V19.9l-0.309-0.077l0.309-0.115v-0.27l0.192,0.23l0.309-0.115l-0.193,0.27L40.528,20.055z M40.259,17.666
				l-0.192,0.23v-0.308l-0.309-0.039l0.309-0.115v-0.309l0.231,0.193l0.23-0.039l-0.154,0.231l0.193,0.27L40.259,17.666z
				 M40.298,15.393c-0.039,0-0.193,0.154-0.231,0.193v-0.309l-0.309-0.115c0.347,0,0.309,0.038,0.309-0.309l0.231,0.192l0.23-0.077
				L40.374,15.2l0.193,0.27C40.413,15.47,40.413,15.393,40.298,15.393z M41.685,23.522c-0.154,0-0.154-0.077-0.27-0.077
				c-0.039,0-0.154,0.192-0.192,0.23v-0.309l-0.271-0.077c0.192-0.23,0.271,0.193,0.271-0.423l0.23,0.23l0.231-0.077
				c-0.038,0.077-0.116,0.193-0.116,0.231v0.038C41.568,23.329,41.646,23.445,41.685,23.522z M41.723,21.21
				c-0.115,0-0.154-0.038-0.27-0.038h-0.116l-0.114,0.231v-0.347l-0.271-0.077c0.116-0.077-0.038-0.077,0.116-0.077h0.154v-0.347
				c0.076,0.077,0.114,0.23,0.23,0.23c0.115,0,0.115-0.077,0.27-0.077c-0.076,0.116-0.154,0.116-0.154,0.309
				C41.568,21.133,41.646,21.133,41.723,21.21z M41.685,18.898c-0.231,0-0.077-0.076-0.231-0.076c-0.116,0-0.154,0.191-0.23,0.27
				c0-0.655-0.154-0.116-0.231-0.463l0.231-0.077v-0.308c0.038,0.076,0.076,0.23,0.23,0.23s0.077-0.038,0.231-0.038
				c-0.038,0.077-0.116,0.115-0.116,0.192v0.077C41.568,18.783,41.646,18.822,41.685,18.898z M41.723,16.626
				c-0.192,0-0.154-0.077-0.308-0.077c-0.039,0-0.154,0.192-0.192,0.23v-0.347l-0.271-0.038l0.271-0.115v-0.347
				c0.038,0.076,0.076,0.23,0.23,0.23s0.154-0.038,0.27-0.077c-0.038,0.077-0.154,0.154-0.154,0.231
				C41.568,16.51,41.646,16.51,41.723,16.626z M43.495,16.279v-0.347l0.231,0.27l0.231-0.077h0.038l-0.154,0.27l0.154,0.193
				l-0.038,0.038l-0.27-0.077l-0.193,0.23v-0.347l-0.27-0.038L43.495,16.279z M42.84,22.366l-0.308-0.077l-0.115,0.231
				c-0.039-0.386,0-0.309-0.309-0.386l0.27-0.115v-0.27c0.192,0.115,0.077,0.192,0.231,0.192c0.077,0,0.115-0.039,0.23-0.077
				l-0.153,0.27L42.84,22.366z M42.84,20.055c-0.115-0.039-0.115-0.077-0.27-0.077c-0.077,0-0.038,0.115-0.192,0.231v-0.27
				l-0.27-0.154l0.27-0.077v-0.309l0.154,0.27l0.308-0.115l-0.153,0.27L42.84,20.055z M42.609,17.704
				c-0.192,0-0.039,0.116-0.231,0.192v-0.308l-0.27-0.039l0.27-0.153v-0.271c0.077,0.077,0.154,0.193,0.192,0.193
				c0.154,0,0.077-0.039,0.231-0.039l-0.115,0.231l0.153,0.27C42.764,17.743,42.725,17.704,42.609,17.704z M42.84,15.47
				c-0.115-0.039-0.115-0.077-0.27-0.077c-0.038,0-0.115,0.115-0.192,0.193v-0.271l-0.27-0.115l0.27-0.077v-0.308l0.154,0.23
				l0.308-0.115l-0.115,0.231h-0.038L42.84,15.47z M43.996,23.561l-0.28-0.104l-0.221,0.22v-0.309l-0.27-0.077
				c0.115-0.076,0.27-0.038,0.27-0.192v-0.23l0.193,0.23l0.308-0.115l-0.154,0.308L43.996,23.561z M43.996,21.172l-0.038,0.038
				l-0.27-0.038l-0.193,0.231v-0.347l-0.27-0.116l0.27-0.038v-0.347l0.231,0.23l0.231-0.038h0.038l-0.115,0.192l-0.039-0.038
				L43.996,21.172z M43.688,18.822l-0.193,0.27v-0.309l-0.27-0.077v-0.077l0.308-0.077v-0.27c0.155,0.077,0.116,0.192,0.231,0.192
				c0.116,0,0.154-0.038,0.231-0.076l-0.154,0.269l0.192,0.271L43.688,18.822z M45.151,22.366l-0.308-0.077l-0.192,0.231v-0.309
				l-0.27-0.115l0.27-0.039v-0.347l0.192,0.231l0.308-0.077l-0.153,0.27L45.151,22.366z M45.151,20.055l-0.308-0.077l-0.192,0.27
				V19.9l-0.27-0.077l0.27-0.115v-0.309c0.076,0.039,0.192,0.231,0.23,0.231c0.116,0,0.193-0.039,0.309-0.077
				c-0.077,0.077-0.192,0.154-0.192,0.27C44.998,19.862,45.113,19.978,45.151,20.055z M44.882,17.704c-0.115,0,0,0.154-0.23,0.192
				v-0.308l-0.27-0.039l0.27-0.115v-0.347l0.23,0.231l0.27-0.039l-0.192,0.309l0.077-0.039l0.154,0.231
				C45.075,17.743,44.998,17.704,44.882,17.704z M45.537,18.629l0.27-0.077v-0.308l0.231,0.23l0.269-0.038l-0.191,0.23l0.191,0.231
				l-0.308-0.076l-0.192,0.27v-0.309l-0.27-0.077V18.629z M45.807,20.786v-0.192c0.116,0.039,0.154,0.192,0.231,0.192
				c0.115,0,0.038,0,0.115-0.038h0.077l0.038-0.039l0.038,0.039l-0.191,0.192l0.191,0.231l-0.038,0.038l-0.27-0.077l-0.192,0.231
				v-0.308l-0.27-0.116C45.652,20.902,45.807,20.94,45.807,20.786z M46.307,23.522l-0.308-0.077l-0.192,0.192v-0.271l-0.27-0.077
				l0.27-0.115v-0.308l0.192,0.23l0.348-0.115l-0.231,0.308L46.307,23.522z M46.076,16.549c-0.115,0-0.192,0.115-0.27,0.192v-0.27
				l-0.27-0.077l0.27-0.115v-0.309c0.077,0.077,0.154,0.192,0.27,0.192c0.077,0,0.116-0.038,0.23-0.077l-0.191,0.309l0.231,0.231
				C46.076,16.626,46.23,16.549,46.076,16.549z"/>
			<rect x="38.371" y="48.371" fill="#FFFFFF" width="2.466" height="0.501"/>
			<polygon fill="#FFFFFF" points="43.688,23.445 43.716,23.456 43.727,23.445 			"/>
			<path fill="#FFFFFF" d="M51.701,30.61h1.502c0.077,0,0.116-0.039,0.116-0.115V15.393l-1.618,0.27V30.61z"/>
			<path fill="#FFFFFF" d="M48.465,15.971v14.524c0,0.076,0.039,0.115,0.116,0.115h1.541V15.816c-0.348,0-0.502,0.039-0.848,0.039
				C49.082,15.855,48.465,15.778,48.465,15.971z"/>
			<path fill="#FFFFFF" d="M41.646,14.275h0.038v0.007c0.014,0.001,0.027,0.003,0.041,0.004
				C41.71,14.269,41.668,14.254,41.646,14.275z"/>
			<path fill="#FFFFFF" d="M38.333,53.919h0.616c0.038,0,1.425-0.81,1.464-0.848h-2.08V53.919z"/>
			<rect x="38.371" y="50.605" fill="#FFFFFF" width="2.466" height="0.578"/>
		</g>
		<g>
			<text transform="matrix(1 0 0 1 85.2065 38.4561)" fill="#FFFFFF" font-family="'Rockwell-Bold'" font-size="42.3573">ADHI</text>
			<g>
				<text transform="matrix(1 0 0 1 85.1426 58.5479)" fill="#FFFFFF" font-family="'BodoniXT'" font-size="22.2122">Schools. LLC</text>
			</g>
		</g>
	</g>
</g>
</svg>
