<?xml version="1.0" encoding="utf-8"?>
<!-- Generator: Adobe Illustrator 16.0.0, SVG Export Plug-In . SVG Version: 6.00 Build 0)  -->
<!DOCTYPE svg PUBLIC "-//W3C//DTD SVG 1.1//EN" "http://www.w3.org/Graphics/SVG/1.1/DTD/svg11.dtd">
<svg version="1.1" xmlns="http://www.w3.org/2000/svg" xmlns:xlink="http://www.w3.org/1999/xlink" x="0px" y="0px" width="199px"
	 height="67px" viewBox="0 0 199 67" enable-background="new 0 0 199 67" xml:space="preserve">
<g id="Background_xA0_Image_1_">
	<g>
		<path fill="#FFFFFF" d="M63.07,44.295c0.385,0,1.503-0.538,1.658-0.731c0.117-0.155,0.463-0.386,0.617-0.579
			c0.038-0.114,0.386-0.731,0.424-0.771l-0.038-0.039l-0.038,0.039c0,0,0,0.039-0.04,0.039c-0.038,0.038-0.038,0.038-0.038,0.116
			c-0.078,0.038-0.116,0.075-0.154,0.152c-0.154,0.077-0.27,0.116-0.424,0.193c-0.154,0.078-0.809,0.194-1.041,0.194
			c-0.732,0-1.696,0.036-2.274,0.191l0.078,0.849c0,0.116-0.04,0.232-0.078,0.346H63.07z"/>
		<path fill="#FFFFFF" d="M65.769,40.711h-0.308v0.463c0,0.347-0.116,0.347-0.154,0.538l0.154,0.039
			c0.308-0.153,0.501-0.23,0.501-0.693C65.962,40.902,65.924,40.711,65.769,40.711z"/>
		<path fill="#FFFFFF" d="M63.727,38.591c-0.232-0.155-0.194-0.232-0.348-0.424c-0.154,1.773,0.116,3.507-1.156,4.202l0.038,0.038
			c0.039,0.037,1.156-0.81,1.272-1.003c0.039-0.116,0.154-0.23,0.231-0.308c0.077-0.155,0.117-0.232,0.193-0.386
			c0.155-0.193,0.271-0.579,0.271-0.887V39.4c0-0.232-0.078-0.194-0.078-0.463C63.996,38.821,63.919,38.705,63.727,38.591z"/>
		<path fill="#FFFFFF" d="M64.073,45.337c1.156,0,2.313-1.042,2.313-2.197v-0.194c0-0.191-0.039-0.308-0.154-0.385
			c-0.076,0.271-0.886,1.003-1.118,1.235c-0.231,0.191-1.157,0.808-1.542,0.808l-1.08,0.271c0.27,0.23,0.771,0.463,1.235,0.463
			H64.073z"/>
		<path fill="#FFFFFF" d="M8.867,40.673c0.154-0.194,0.424-0.463,0.578-0.657c0.154-0.191,0.501-0.463,0.617-0.615
			c0.116-0.194,0.463-0.463,0.579-0.656c0.192-0.23,0.424-0.425,0.579-0.655c0.23-0.308,0.925-1.117,1.002-1.427l-0.81-0.424
			c-0.192,0.733-0.462,1.003-0.732,1.58c-0.078,0.154-0.386,0.501-0.501,0.656c-0.193,0.193-0.347,0.463-0.54,0.615
			c-0.27,0.271-0.848,0.965-1.041,1.274c-0.154,0.27-0.27,0.463-0.424,0.732c-0.154,0.23-0.27,0.731-0.346,0.848v0.153
			c0.038-0.037,0.385-0.616,0.462-0.771C8.404,41.174,8.751,40.827,8.867,40.673z"/>
		<path fill="#FFFFFF" d="M57.134,53.201v-0.23l-0.463-0.078c0.038,0.078,0.154,0.155,0.154,0.27c0,0.116-0.039,0.155-0.039,0.271
			C56.942,53.434,57.134,53.355,57.134,53.201z"/>
		<path fill="#FFFFFF" d="M59.293,38.167h-0.155l-0.579-0.078c0.193,0.309,0.772,0.502,1.272,0.502h0.771
			c0.192,0,0.501-0.54,0.579-0.772c0.154-0.347,0.154-0.693,0.154-1.195c0.076-0.036,0.076-0.077,0.153-0.077h0.194
			c0-0.23-0.194-0.308-0.424-0.308h-0.077c-0.155,0-0.463,0.695-0.502,0.848c-0.462,0-0.732-0.308-0.963-0.308h-0.193
			c-0.231,0-0.231,0.155-0.309,0.308c0.269,0,0.385,0.039,0.54,0.194c0.077,0.038,0.347,0.347,0.347,0.424
			C60.103,37.935,59.563,38.167,59.293,38.167z"/>
		<path fill="#FFFFFF" d="M64.458,41.635c-0.038,0.155-0.23,0.579-0.23,0.579c0.154-0.039,0.655-0.579,0.732-0.732
			c0.193-0.232,0.348-0.731,0.348-1.155v-0.232l-0.039,0.038l-0.811-0.579c0.04,0.311,0.193,1.081,0.154,1.428
			C64.536,41.249,64.574,41.404,64.458,41.635z"/>
		<path fill="#FFFFFF" d="M62.107,40.789c-0.347,0.347-0.656,0.615-1.271,0.654c0,0.269,0.539,0.771,0.654,0.771
			c0.232,0,0.81-0.81,0.964-1.003c0.231-0.309,0.462-0.963,0.462-1.542c-0.192,0.194-0.231,0.347-0.385,0.579
			C62.377,40.518,62.339,40.595,62.107,40.789z"/>
		<path fill="#FFFFFF" d="M57.211,39.206c0.154,0.541,0.617,1.004,1.08,1.272c0.501,0.311,1.002,0.579,1.503,0.849
			c0.308,0.193,1.041,0.887,1.041,1.35v1.582c0.347,0,0.616-0.388,0.616-0.772v-0.27c0-1.233-1.311-2.006-1.966-2.66
			c-0.423-0.463-0.731-0.655-1.117-1.195c-0.193-0.23-0.347-0.424-0.462-0.693c-0.039-0.154-0.231-0.812-0.271-0.925
			c0.271,0.075,0.348,0.229,0.733,0.229h0.192c0-0.424-0.501-0.501-0.501-0.848c0-0.191,0.617-0.771,0.617-1.117v-0.116
			c0-0.23-0.155-0.308-0.27-0.386v0.308c-0.193,0.271-0.386,0.35-0.617,0.579c-0.231,0.153-0.54,0.27-0.54,0.693v0.039
			c0,0.193,0.231,0.424,0.309,0.579c-0.541,0-0.501-0.308-0.887-0.308C56.671,37.973,57.018,38.744,57.211,39.206z M57.597,37.704
			C57.519,37.781,57.674,37.627,57.597,37.704L57.597,37.704z"/>
		<path fill="#FFFFFF" d="M73.595,48.536h0.309c0-0.386-0.348-0.579-0.578-0.732c-0.271,0.192-0.386,0.386-0.463,0.771
			L73.595,48.536z"/>
		<path fill="#FFFFFF" d="M57.519,55.014l0.116-0.849c0.039-0.308-0.385-0.501-0.693-0.501l0.27,0.271v0.885L57.519,55.014z"/>
		<path fill="#FFFFFF" d="M0.925,51.775c0.231,0,0.309,0.153,0.423,0.309c0.039-0.039,0.155-0.039,0.155-0.116
			c0-0.153-0.424-0.732-0.693-0.732H0.463c-0.039,0.23-0.193,0.308-0.193,0.579c0,0.424,0.463,0.885,0.463,1.117H0.81
			c0.038-0.116,0.038-0.077,0.038-0.155c0-0.229-0.193-0.499-0.193-0.731c0-0.155,0.039-0.077,0.039-0.23
			C0.848,51.814,0.771,51.775,0.925,51.775z"/>
		<path fill="#FFFFFF" d="M1.928,54.088c-0.039-0.039-0.039,0-0.039-0.078c-0.039-0.075-0.077-0.075-0.116-0.113
			c-0.039-0.078-0.115-0.311-0.115-0.386v-0.424c0.076-0.039,0.076-0.039,0.192-0.039h0.039c0.116,0,0.308,0.191,0.501,0.191
			c-0.155-0.576-0.541-0.731-0.964-1.001l-0.231,0.076c-0.038,0.232-0.115,0.038-0.154,0.424c-0.039,0.271,0,0.232,0,0.501
			c0.154,0.232,0.193,0.311,0.385,0.541c0.154,0.154,0.424,0.308,0.501,0.424l0.039-0.039v-0.038
			C1.928,54.165,1.928,54.127,1.928,54.088z"/>
		<path fill="#FFFFFF" d="M1.002,51.119v-0.385c0-0.27-0.231-0.502-0.501-0.502H0.385c-0.231,0-0.269,0.31-0.385,0.424v0.349
			l0.154,0.27h0.039v-0.347c0-0.116,0-0.116,0.038-0.193H0.54C0.771,50.734,0.694,51.08,1.002,51.119z"/>
		<path fill="#FFFFFF" d="M0.848,50.157h0.038c0.078,0,0.116-0.039,0.116-0.116v-0.039c0-0.155-0.077-0.155-0.077-0.31v-0.153h0.309
			c0.154,0,0.154-0.269,0.154-0.424c-0.308-0.155-0.347-0.347-0.693-0.424C0.54,48.96,0.27,49.192,0.27,49.617v0.152
			C0.27,49.847,0.848,50.157,0.848,50.157z"/>
		<path fill="#FFFFFF" d="M3.74,54.936v-0.269c0.077-0.039,0.077-0.039,0.192-0.039h0.04c0.076,0,0.115,0.077,0.192,0.116
			c-0.116-0.463-0.655-0.579-1.233-0.579c-0.077,0-0.193,0.039-0.193,0.155c0,0.463,0.309,0.731,0.578,0.887
			c0.193,0.114,0.772,0.461,1.042,0.461C4.318,55.398,3.74,55.13,3.74,54.936z"/>
		<path fill="#FFFFFF" d="M11.411,51.621c-0.347,0.077-0.655-0.309-0.81-0.425c-0.077-0.038-0.847-0.54-0.847-0.191v0.037
			c0,0.385,0.269,0.424,0.385,0.887l-0.54-0.191c0.039,0.54,0.193,0.577,0.579,0.771c0.385,0.23,0.694,0.116,1.156,0.23
			c0.115-0.075,0.463-0.616,0.463-0.732v-0.191c0-0.116-0.039-0.155-0.077-0.232L11.411,51.621z"/>
		<path fill="#FFFFFF" d="M5.474,55.244c0-0.347,0.579-0.461,0.81-0.616c-0.116,0-0.154-0.039-0.27-0.039H5.899
			c-0.501,0-1.542,0.194-1.542,0.618c0,0.577,1.388,0.81,2.082,0.81C6.13,55.823,5.474,55.745,5.474,55.244z"/>
		<path fill="#FFFFFF" d="M2.544,54.049c0-0.075,0.039-0.114,0.078-0.114c0.192,0,0.231,0.075,0.424,0.075h0.038
			c0.386,0-0.385-0.615-0.848-0.654c-0.039,0.155-0.154,0.27-0.154,0.347v0.425c0,0.271,0.424,0.656,0.617,0.771
			c-0.039-0.23-0.154-0.463-0.154-0.577V54.049z"/>
		<path fill="#FFFFFF" d="M69.123,48.536l0.116,0.812c0.078,0.114,0.192,0.27,0.27,0.422c0.192,0.31,0.192,0.116,0.347,0.349
			c0.193,0.23,0.655,0.386,0.926,0.499c-0.078-0.269-0.193-0.46-0.193-0.809V49.77c0-0.731,0.616-0.962,1.08-1.272
			c0.116,0,1.002-0.152,1.002-0.23c0-0.116-0.154-0.193-0.192-0.347c0.153-0.038,0.192-0.116,0.269-0.232
			c0.116-0.075,0.309-0.113,0.309-0.191c0-0.926-1.003-1.543-2.005-1.543h-0.192c-0.462,0-0.964,0.154-1.234,0.347
			c-0.231,0.193-0.655,0.54-0.655,0.925c0,0.039,0.038,0.078,0.116,0.078c0.116,0,0.116-0.153,0.346-0.191
			c-0.115,0.23-0.192,0.385-0.346,0.576c-0.078,0.116-0.271,0.463-0.271,0.657v0.463h0.155L69.123,48.536z M70.203,47.843
			c0-0.463,0.964-0.848,1.503-0.848h0.193c0.27,0,0.617,0.077,0.693,0.308c-0.077-0.039-0.077-0.078-0.154-0.078h-0.539
			c-0.193,0-0.541,0.078-0.579,0.271l0.849,0.116l0.077,0.23c-0.116-0.077-0.347-0.155-0.501-0.155
			c-0.578,0-1.041,0.463-1.464,0.579c-0.039-0.077-0.078-0.154-0.078-0.31V47.843z"/>
		<path fill="#FFFFFF" d="M63.996,48.922c-0.155,0.271-0.309,0.501-0.501,0.771l0.038,0.038c0.039,0.039,1.234-0.731,1.35-0.809
			c0.309-0.23,0.886-0.771,1.041-1.118c0.154-0.191,0.308-0.385,0.423-0.654c0.154-0.232,0.232-0.463,0.348-0.733
			c0.154-0.27,0.424-1.35,0.424-1.774v-0.846c0-0.426-0.309-1.735-0.502-1.89c0,0.463,0.039,0.887,0.039,1.271
			c0,0.541-0.077,0.771-0.115,1.195c-0.04,0.385-0.617,1.696-0.81,1.852l-0.154-0.734l-1.774,0.926
			c-0.308,0-0.578,0.154-1.042,0.154h-0.154c0.077,0.347,0.925,0.502,1.349,0.502h0.193c0.617,0,0.887-0.31,1.311-0.424
			c-0.116,0.385-0.849,1.039-1.041,1.464C64.343,48.345,64.112,48.729,63.996,48.922z M65.5,46.57l0.038,0.039L65.5,46.648
			l-0.039-0.039L65.5,46.57z"/>
		<path fill="#FFFFFF" d="M8.79,47.688c0.116,0.155,0,0.078,0.193,0.27c0.038,0.039,0.154,0.193,0.193,0.271
			c0.231,0.269,0.809,0.693,0.925,0.887c0.155,0,0.964,0.54,1.233,0.615c-0.347-0.499-0.578-1.001-0.925-1.502
			c-0.078-0.155-0.078-0.194-0.231-0.386c-0.077-0.155-0.154-0.23-0.231-0.385c-0.116-0.155-0.501-0.541-0.501-0.732
			c0.154,0,0.385,0.191,0.617,0.27c0.193,0.038,0.617,0.077,0.81,0.077c0.462,0,1.272-0.155,1.35-0.502h-0.232
			c-0.385,0-0.616-0.154-1.002-0.154L9.214,45.49c-0.038,0.116-0.116,0.349-0.116,0.424v0.193c0,0.117,0,0.117,0.039,0.192
			c-0.385-0.27-0.964-1.966-0.964-2.736v-0.039v-1.58c-0.193,0.23-0.501,1.58-0.501,2.121v0.269c0,1.081,0.386,2.082,0.772,2.815
			C8.597,47.419,8.635,47.419,8.79,47.688z M9.33,46.57l0.078,0.155l-0.116-0.116L9.33,46.57z"/>
		<path fill="#FFFFFF" d="M57.635,49.115c0.078,0,0.849,0.269,1.08,0.347c0.424,0.077,0.732,0.193,1.234,0.193h0.309
			c0.347,0,1.003-0.155,1.118-0.349c-0.462,0-1.465-0.075-1.812-0.23c-0.385-0.116-0.848-0.731-0.848-1.194v-0.424
			c0-0.425,0.309-0.657,0.579-0.849c0.579,0.308,0.501,0.579,0.693,1.233c0.192,0.502,0.424,0.849,1.118,0.849
			c-0.309-0.463-0.733-0.695-0.733-1.542v-0.154c0-0.425,0.155-0.579,0.155-0.849c0.115-0.077,0.885-1.233,0.885-1.466
			c0-0.114-0.038-0.27-0.076-0.347c-0.27,0.039-1.89,1.003-2.198,1.195c-0.154,0.116-0.771,0.617-0.925,0.771
			c-0.192,0.193-0.655,0.812-0.809,0.889c-0.232-0.116-0.579-0.271-0.579-0.618v-0.038c0-0.887,1.889-2.121,2.853-2.121h0.231v0.192
			c-0.077,0.038-0.115,0-0.115,0.116c0,0.077,0.038,0.116,0.078,0.116c0.346,0,0.848-0.27,0.848-0.654
			c0-0.194-0.154-0.311-0.232-0.463c-0.27,0-0.231-0.116-0.424-0.116h-0.192c-1.234,0-3.856,1.888-3.856,2.93v0.269
			c0,0.388,0.732,0.734,1.118,0.773c-0.039,0.152-0.27,0.538-0.386,0.654c-0.077,0.154-0.231,0.615-0.308,0.771
			c-0.154,0.54-0.309,1.194-0.309,1.852v0.077c0,0.424,2.236,1.771,2.275,1.965c-0.271-0.077-0.578-0.193-0.964-0.193h-0.231
			c-0.116,0-0.116,0-0.193,0.039c0.155,0.193,0.656,0.424,1.003,0.424h0.655v-0.039l0.386,0.311
			c0.038-0.116,0.154-0.232,0.154-0.347l-0.039-0.349c-0.039-0.039-0.308-0.308-0.385-0.424c-0.193-0.153-0.347-0.192-0.656-0.192
			l-0.039-0.038l0.231-0.309l0.039,0.039c-0.039-0.349-1.426-0.155-1.426-1.042v-0.155c0-0.113,0.231-0.269,0.308-0.269h1.311V50.31
			c-0.192-0.23-1.041-0.347-1.041-0.81v-0.269C57.519,49.154,57.559,49.115,57.635,49.115z M58.638,53.01l0.039,0.038l-0.039,0.039
			l-0.039-0.039L58.638,53.01z"/>
		<path fill="#FFFFFF" d="M60.025,40.711h0.423c0.232,0,0.618-0.501,0.618-0.733v-0.076c0-0.154,0,0-0.039-0.116
			c-0.462,0.309-1.002,0.27-1.272,0.655C59.794,40.518,59.91,40.711,60.025,40.711z"/>
		<path fill="#FFFFFF" d="M1.966,48.575c-0.077-0.347-0.193-0.579-0.463-0.771c-0.231,0.116-0.578,0.347-0.578,0.732h0.309
			L1.966,48.575z"/>
		<path fill="#FFFFFF" d="M73.518,49.539c0.116,0,0.386-0.039,0.386,0.078c0,0.191-0.077,0.229-0.077,0.424v0.116h0.155
			c0,0,0.577-0.311,0.577-0.388v-0.191c0-0.308-0.308-0.656-0.424-0.887c-0.423,0.077-0.463,0.347-0.732,0.424L73.518,49.539z"/>
		<path fill="#FFFFFF" d="M2.159,48.229c0,0.154,0.54,0.154,0.694,0.191c0.308,0.116,0.385,0.116,0.655,0.271
			c0.347,0.23,0.732,0.54,0.732,1.078v0.039c0,0.271-0.153,0.617-0.23,0.809c0.77-0.191,1.657-0.925,1.657-1.849v-0.232h0.116
			l0.039,0.271h0.154c0.039-0.078,0.039-0.078,0.039-0.194v-0.269c0-0.194-0.5-1.003-0.616-1.233l0.346,0.191l0.116-0.078
			c-0.116-0.462-0.656-1.117-1.156-1.117c-0.154-0.116-0.386-0.154-0.656-0.154H3.74c-0.694,0-0.926,0.193-1.349,0.424
			c-0.386,0.232-0.541,0.656-0.656,1.158c0.271,0.077,0.424,0.385,0.617,0.385C2.313,48.034,2.159,48.189,2.159,48.229z
			 M2.236,47.264c0.078-0.23,0.501-0.269,0.81-0.269h0.038c0.54,0,1.542,0.347,1.542,0.848v0.114c0,0.116-0.039,0.31-0.116,0.31
			c-0.154,0-0.924-0.579-1.388-0.579c-0.231,0-0.385,0.078-0.54,0.155l0.077-0.23l0.848-0.116c-0.038-0.154-0.386-0.271-0.54-0.271
			H2.429C2.352,47.225,2.274,47.264,2.236,47.264z"/>
		<path fill="#FFFFFF" d="M9.677,53.935H9.521c-0.114,0-0.23-0.154-0.23-0.31v-0.191c0-0.078,0.192-0.657,0.23-0.81
			C9.33,52.776,8.25,53.896,8.25,54.127v0.501c0,0.27,0.231,0.308,0.463,0.308c-0.116,0.078-0.385,0.194-0.579,0.194H7.556
			c-0.154,0-0.308-0.116-0.308-0.232v-0.114c0-0.349,0.423-0.349,0.423-0.695c-0.462,0.039-1.233,0.695-1.233,1.272
			c0,0.385,0.501,0.617,0.888,0.617H7.44c0.732,0,1.581-0.54,1.851-1.042c0.886-0.038,1.619-0.809,1.619-1.773
			C10.563,53.395,10.371,53.935,9.677,53.935z"/>
		<path fill="#FFFFFF" d="M10.486,49.77c-0.154-0.114-0.077-0.114-0.23-0.23c-0.116-0.116-0.348-0.424-0.501-0.424
			c0,0.191-0.078,0.269-0.078,0.463c0,0.848,0.617,1.464,1.465,1.464c0.192,0,0.694-0.153,0.732-0.347
			c-0.617-0.153-0.771-0.308-1.157-0.693C10.641,49.925,10.563,49.847,10.486,49.77z"/>
		<path fill="#FFFFFF" d="M15.614,37.086c-0.039-0.114-0.116-0.308-0.27-0.308h-0.115c-0.386,0-0.694,0.308-0.964,0.308h-0.077
			l-0.463-0.848h-0.232c-0.192,0-0.308,0.154-0.346,0.308h0.192c0.077,0,0.077,0.041,0.154,0.077c0,0.579-0.038,0.773,0.155,1.195
			c0.077,0.271,0.309,0.772,0.617,0.772h0.848c0.346,0,1.041-0.232,1.118-0.502l-0.617,0.078c-0.27,0.038-0.887-0.232-0.887-0.424
			C14.727,37.433,15.189,37.086,15.614,37.086z"/>
		<path fill="#FFFFFF" d="M11.913,36.432c0.424,0,0.656,0.191,1.08-0.077c0.309-0.191,0.385-0.502,0.54-0.81
			c0.154-0.308,0.27-0.579,0.617-0.732c0.27-0.193,0.732-0.193,0.809-0.54c-1.349,0.039-2.313,1.389-2.583,1.389
			c-0.501,0-0.771-0.695-0.771-1.233v-0.039c0-0.271,0.077-0.579,0.154-0.772c0.154-0.347,0.231-0.347,0.386-0.577
			c-0.655,0.153-1.157,0.81-1.157,1.619v0.154c0,0.461,0.116,0.693,0.27,1.001C11.449,36.201,11.758,36.238,11.913,36.432z"/>
		<path fill="#FFFFFF" d="M18.774,46.917v-0.463c0-1.001-2.621-2.852-3.893-2.852h-0.116c-0.27,0-0.656,0.269-0.656,0.501v0.114
			c0,0.463,0.925,0.772,0.925,0.502c0-0.153-0.154-0.078-0.154-0.191c0-0.078,0.038-0.117,0.115-0.117h0.116
			c0.424,0,0.616,0.192,0.925,0.192c0.385,0.271,0.809,0.387,1.157,0.733c0.231,0.192,0.771,0.771,0.771,1.117v0.155
			c0,0.308-0.347,0.54-0.617,0.579c-0.077-0.271-1.426-1.466-1.696-1.659c-0.348-0.192-1.851-1.156-2.16-1.195
			c-0.038,0.116-0.077,0.116-0.077,0.27v0.038c0,0.618,1.041,1.35,1.041,2.275v0.232c0,0.771-0.462,1.117-0.732,1.542
			c0.694,0,0.887-0.347,1.08-0.849c0.27-0.654,0.077-0.81,0.694-1.233c0.27,0.153,0.579,0.347,0.579,0.771v0.616
			c0,0.463-0.502,1.003-0.848,1.119c-0.424,0.077-1.312,0.191-1.813,0.191c0.116,0.155,0.81,0.349,1.157,0.349h0.231
			c0.578,0,0.81-0.116,1.272-0.232c0.423-0.075,0.886-0.308,1.194-0.308c0,0.116,0.039,0.191,0.039,0.232l-0.039,0.345
			c-0.308,0.154-0.578,0.501-1.002,0.54v0.077v0.039h1.196c0.154,0,0.424,0.116,0.424,0.269v0.194c0,0.54-0.848,0.848-1.427,0.848
			c0,0.27,0.193,0.155,0.193,0.347v0.116H16.54c-0.463,0-0.926,0.463-0.926,0.926v0.039c0,0.152,0.077,0.23,0.154,0.347l0.385-0.347
			v0.075h0.579c0.424,0,0.848-0.152,1.041-0.424c-0.308,0-0.424-0.039-0.81,0c-0.347,0.038-0.423,0.154-0.656,0.232
			c0.232-0.386,0.887-0.618,1.273-0.926c0.154-0.155,1.118-0.926,1.118-1.078c0-0.502-0.154-1.544-0.309-1.891
			c-0.077-0.232-0.193-0.579-0.308-0.771c-0.077-0.116-0.348-0.618-0.386-0.731C17.965,47.535,18.774,47.188,18.774,46.917z
			 M16.192,53.087l-0.039-0.039l0.039-0.038l0.038,0.038L16.192,53.087z M16.269,52.971C16.346,52.893,16.192,53.048,16.269,52.971
			L16.269,52.971z"/>
		<path fill="#FFFFFF" d="M16.384,35.468c0,0-0.231,0.232-0.231,0.424v0.232c0,0.152,0.617,0.924,0.617,0.962
			c0,0.347-0.424,0.463-0.54,0.887c0.694,0,0.616-0.154,1.002-0.269c-0.347,0.615-0.27,1.04-0.732,1.619
			c-0.423,0.54-0.732,0.771-1.156,1.233c-0.694,0.692-2.005,1.427-2.005,2.776c0,0.5,0.231,0.849,0.617,0.926
			c0-0.041,0.038-0.116,0.038-0.116c0-0.463-0.038-0.849-0.038-1.311c0-0.271,0.27-0.81,0.424-0.965
			c0.655-0.618,0.924-0.656,1.657-1.078c0.809-0.463,0.925-0.502,1.465-1.272c0.193-0.311,0.618-1.621,0.656-2.12
			c-0.309,0-0.501,0.308-0.656,0.308h-0.231c0.077-0.232,0.27-0.232,0.27-0.579v-0.23c0-0.424-1.464-0.848-1.118-1.389
			L16.384,35.468z"/>
		<path fill="#FFFFFF" d="M8.443,43.062v0.232c0,1.117,1.272,2.043,2.505,2.043h0.039c0.54,0,1.041-0.193,1.35-0.463
			c-0.694,0-1.851-0.501-2.275-0.809c-0.732-0.579-0.964-0.888-1.542-1.544L8.443,43.062z"/>
		<path fill="#FFFFFF" d="M9.098,42.214c0.116,0.501,0.386,0.695,0.656,1.003c0.23,0.347,0.809,0.616,0.925,0.771
			c0.308,0,0.616,0.308,1.156,0.308h1.195l0.039-1.155c0-0.155-1.889-0.23-2.198-0.23c-0.27,0-0.887-0.077-1.08-0.155
			c-0.115-0.039-0.271-0.155-0.385-0.232C9.137,42.407,9.252,42.33,9.098,42.214z"/>
		<path fill="#FFFFFF" d="M13.301,25.598c0,0.077-0.193,0.31-0.193,0.425c0,0.154,0.309,0.154,0.463,0.154
			c0.192,0,0.308,0.116,0.54,0.116l-0.077-0.309h0.423c0.386,0,0.848-0.656,0.848-1.041v-0.155c0-0.076-0.038-0.115-0.115-0.115
			h-0.116c-0.424,0-0.385,0.502-0.809,0.539c-0.039-0.23-0.309-0.269-0.309-0.539v-0.115h0.694c-0.077-0.116-1.002-0.579-1.234-0.54
			l-0.347,0.039v0.385c0,0.347,0.231,0.81,0.231,0.965V25.598z"/>
		<path fill="#FFFFFF" d="M11.565,40.673c-0.076-0.732-0.116-1.774-0.116-2.545c-0.385,0.54-0.886,0.654-0.886,1.464
			c0,0.734,0.309,1.272,0.656,1.696c0.154,0.193,0.346,0.463,0.578,0.579c0.039,0.039,0.694,0.502,0.694,0.502l0.039-0.039
			c0,0-0.154-0.116-0.192-0.116c-0.116-0.077-0.077-0.077-0.154-0.191c-0.116-0.116-0.232-0.194-0.309-0.349
			C11.758,41.365,11.604,41.019,11.565,40.673z"/>
		<path fill="#FFFFFF" d="M15.42,40.016c0.541,0,0.733-0.463,0.733-1.001c-0.154,0.039-0.424,0.116-0.617,0.116l-0.27,0.037
			l-1.89-0.27c0.039,0.386,1.35,1.117,1.852,1.117H15.42z"/>
		<path fill="#FFFFFF" d="M17.079,27.333c-0.116,0-0.154,0.038-0.27,0.038h-0.231c-0.193,0-0.193-0.077-0.271-0.191
			c0.039-0.155,0.077-0.193,0.077-0.349v-0.23c0-0.271-0.501-0.693-0.655-0.926c-0.039,0.31-0.347,0.271-0.347,0.655v0.115
			c0,0.078,0.038,0.116,0.116,0.116h0.039c0.192,0,0.462-0.116,0.462,0.078v0.038c0,0.153-0.27,0.192-0.27,0.616
			c0,0.116,0,0.116,0.039,0.193c0.231,0,0.309,0.078,0.539,0.078h0.309C16.809,27.565,17.041,27.487,17.079,27.333z"/>
		<path fill="#FFFFFF" d="M18.158,52.854l-0.462,0.116v0.23c0,0.154,0.192,0.232,0.347,0.232c0-0.116-0.038-0.155-0.038-0.271
			v-0.039C18.004,53.048,18.12,52.971,18.158,52.854z"/>
		<path fill="#FFFFFF" d="M12.954,39.206c-0.077-0.269-0.039-0.615-0.077-0.925c-0.039-0.5-0.231-1.233-0.655-1.348
			c-0.077,0.308-0.193,0.499-0.193,0.885v0.31c0,0.424,0.155,0.693,0.155,1.04c0.192,0.31,0.23,0.656,0.5,0.926
			c0.309,0.271,0.424,0.463,0.848,0.579l-0.462-0.618C13.069,39.824,12.992,39.478,12.954,39.206z"/>
		<path fill="#FFFFFF" d="M9.521,40.094v0.31c0,0.654,0.656,1.694,1.08,1.811l-0.231-0.386v-0.154l-0.077-0.114l-0.077-0.618
			l-0.039-0.191l0.193-1.158C9.946,39.631,9.869,40.094,9.521,40.094z"/>
		<path fill="#FFFFFF" d="M13.763,39.824v0.153c0,0.232,0.386,0.733,0.578,0.733h0.425c0.116,0,0.27-0.193,0.308-0.271
			c-0.154-0.23-0.308-0.309-0.617-0.347C14.149,40.016,13.956,39.863,13.763,39.824z"/>
		<path fill="#FFFFFF" d="M9.252,40.711H9.06c-0.077,0-0.192,0.116-0.192,0.191v0.309c0,0.232,0.27,0.501,0.424,0.501h0.192
			c-0.039-0.23-0.116-0.191-0.116-0.501C9.368,41.019,9.445,40.711,9.252,40.711z"/>
		<path fill="#FFFFFF" d="M11.951,40.326l0.232,0.654c0.154,0.077,0.809,1.233,1.118,1.233c0.154,0,0.655-0.463,0.655-0.771
			c-0.694-0.155-0.849-0.232-1.311-0.654c-0.347-0.349-0.462-0.849-0.771-1.197L11.951,40.326z"/>
		<path fill="#FFFFFF" d="M17.888,53.664h-0.231c-0.192,0.116-0.462,0.154-0.462,0.501v0.078l0.116,0.771
			c0.347-0.078,0.27-0.309,0.27-0.693C17.58,53.857,17.657,53.896,17.888,53.664z"/>
		<path fill="#FFFFFF" d="M12.915,46.416c0.192,0.154,0.54,0.887,0.578,1.235c0.232-0.039,0.386-0.502,0.386-0.812v-0.191
			c0-0.618-0.501-1.428-1.079-1.428h-0.231c-0.271,0-0.694,0.27-0.733,0.463c0.231,0.116,0.386,0.116,0.578,0.308
			C12.529,46.069,12.799,46.341,12.915,46.416z"/>
		<path fill="#FFFFFF" d="M58.136,27.565h0.424c0.232,0,0.193-0.078,0.463-0.078c0.039-0.077,0.076-0.077,0.076-0.154v-0.077
			c0-0.192-0.23-0.463-0.308-0.616l0.115-0.116l0.309,0.038h0.039c0.116,0,0.116,0,0.192-0.038v-0.115
			c0-0.386-0.27-0.424-0.347-0.694h-0.076c0,0.231-0.617,0.579-0.617,1.003c0,0.191,0.077,0.23,0.077,0.424v0.039
			c0,0.076-0.116,0.191-0.192,0.191h-0.309c-0.116,0-0.154-0.038-0.27-0.038C57.79,27.449,57.944,27.565,58.136,27.565z"/>
		<path fill="#FFFFFF" d="M60.488,25.212c-0.309,0-0.309-0.539-0.771-0.539H59.64c-0.077,0-0.115,0.039-0.115,0.115v0.155
			c0,0.385,0.462,1.041,0.771,1.041h0.501l-0.116,0.309l1.042-0.194c-0.039-0.229-0.194-0.424-0.194-0.501v-0.153
			c0-0.27,0.194-0.424,0.194-0.926v-0.462c-0.116,0-0.155-0.039-0.271-0.039c-0.346,0-1.156,0.385-1.272,0.54l0.078,0.039
			c0.347,0,0.309-0.155,0.617,0C60.835,24.788,60.681,25.212,60.488,25.212z"/>
		<path fill="#FFFFFF" d="M57.597,26.523c0.617,0,0.887,0.038,0.887-0.578v-0.192c0-0.309-0.192-0.502-0.501-0.502h-0.038
			c-0.271,0-0.695,0.155-0.849,0.232l-0.231-0.232l-0.039,0.039c0,0.347-0.193,0.424-0.193,0.655c0,0.115,0.039,0.153,0.077,0.231
			c0.386-0.192,1.08-0.192,1.119-0.693l0.269,0.23c-0.115,0.193-0.848,0.501-1.118,0.579c0.078,0.308,0.309,0.615,0.655,0.654V26.87
			c-0.076-0.039-0.192-0.077-0.192-0.153C57.443,26.601,57.519,26.562,57.597,26.523z M57.365,25.83h-0.077
			c-0.115,0-0.115,0-0.192-0.039l0.192-0.27l0.347-0.038C57.635,25.637,57.519,25.83,57.365,25.83z"/>
		<path fill="#FFFFFF" d="M62.724,33.039l-0.039,0.039h0.039c0,0.038,0,0.038,0.038,0.038c0,0.038,0.039,0.038,0.039,0.076
			c0.077,0.077,0.077,0.038,0.116,0.116c0.077,0.154,0.116,0.231,0.154,0.348c0.078,0.309,0.155,0.461,0.155,0.847
			c0,0.463-0.348,1.158-0.733,1.158c-0.153,0-1.002-0.734-1.156-0.849c-0.077-0.077-0.54-0.346-0.617-0.385
			c-0.192-0.077-0.694-0.077-0.848-0.155c0.076,0.347,0.848,0.463,1.156,0.81c0.347,0.347,0.309,0.887,0.772,1.233
			c0.461,0.347,1.078,0.155,1.464-0.114c0.308-0.232,0.578-0.889,0.578-1.427v-0.155c0-0.424-0.192-0.693-0.308-1.041
			C63.379,33.27,62.993,33.192,62.724,33.039z"/>
		<path fill="#FFFFFF" d="M60.372,27.256v-0.192c0-0.54-0.385-1.156-0.694-1.35l-0.154,1.156v0.348l-0.231-0.038v0.153
			c0,0.732-0.386,0.694-0.617,1.003l-0.424,0.192c0.771,0,0.81-0.309,1.311-0.424c0.038,0.076,0.077,0.076,0.077,0.153v0.116
			C60.025,28.297,60.372,27.718,60.372,27.256z"/>
		<path fill="#FFFFFF" d="M63.379,36.238c-0.193,0.038-0.193,0.154-0.347,0.232c-0.155,0.075-0.309,0.075-0.462,0.152
			c0.308,0.463,0.5,0.887,0.886,1.272c0.078,0.116,0.116,0.232,0.232,0.31c0.154,0.153,0.116,0.192,0.231,0.309
			c0.231,0.191,0.347,0.308,0.539,0.54c0.078,0.114,0.463,0.424,0.54,0.538c0.193,0.232,0.309,0.349,0.54,0.54
			c0.116,0.116,0.04,0.116,0.231,0.309c0.078,0.077,0.155,0.193,0.231,0.31c0.193,0.152,0.309,0.461,0.501,0.615l0.502,0.732
			c0-0.849-1.311-2.467-1.774-2.967c-0.193-0.193-0.925-1.042-1.08-1.274c-0.077-0.191-0.309-0.538-0.423-0.771
			C63.572,36.817,63.495,36.509,63.379,36.238z"/>
		<path fill="#FFFFFF" d="M61.915,38.782c0,0.424-0.077,0.734-0.155,1.119c-0.154,0.616-0.231,0.386-0.5,0.771
			c0.385,0,0.963-0.657,1.079-0.965c0.153-0.308,0.269-0.308,0.308-0.731c0.038-0.271,0.154-0.502,0.154-0.888v-0.271
			c0-0.347-0.116-0.577-0.192-0.885C62.068,37.048,61.953,38.089,61.915,38.782z"/>
		<path fill="#FFFFFF" d="M62.993,45.684c-0.038-0.193-0.462-0.463-0.732-0.463h-0.308c-0.425,0-1.041,0.887-1.041,1.35v0.23
			c0,0.271,0.193,0.734,0.386,0.851c0.191-0.349,0.269-0.965,0.578-1.235C62.261,46.146,62.454,45.8,62.993,45.684z"/>
		<path fill="#FFFFFF" d="M15.189,25.675c-0.347,0.232-0.733,0.81-0.733,1.428v0.23c0,0.424,0.386,0.964,0.694,1.041
			c0.154-0.309-0.038-0.385,0.424-0.116c0.193,0.078,0.424,0.194,0.579,0.271h0.386c-0.155-0.231-1.003-0.192-1.003-1.157V27.18
			l-0.232,0.038v-0.193c0-0.308-0.154-0.694-0.154-0.848v-0.308C15.151,25.753,15.151,25.753,15.189,25.675z"/>
		<path fill="#FFFFFF" d="M17.001,25.483c0.039,0.23,0.27,0.462,0.463,0.501c0.231,0.038,0.694,0.27,0.694,0.076v-0.115
			c0-0.271-0.154-0.348-0.154-0.539V25.29c-0.271,0.038-0.155,0.193-0.271,0.193c-0.077,0-0.501-0.232-0.887-0.232h-0.038
			c-0.269,0-0.501,0.232-0.501,0.54c0,0.693,0.193,0.732,0.887,0.732c0.038,0.038,0.192,0.116,0.192,0.154
			c0,0.153-0.154,0.115-0.192,0.27c0.347-0.077,0.578-0.308,0.655-0.654c-0.115,0-1.117-0.463-1.117-0.54
			C16.732,25.637,16.924,25.521,17.001,25.483z M17.734,25.791c-0.077,0.039-0.077,0.039-0.193,0.039
			c-0.231,0-0.347-0.116-0.347-0.347C17.464,25.483,17.696,25.521,17.734,25.791z"/>
		<path fill="#FFFFFF" d="M15.189,24.597c0.193,0,0.54,0.347,0.579,0.501l1.233-0.116h0.193c0.27,0,0.501,0.078,0.732,0.116
			c0.347,0.038,0.424,0.23,0.617,0.27v-0.192c0-0.039-0.154-0.387-0.193-0.426c-0.192,0-0.617-0.113-0.848-0.152
			c-0.308-0.039-0.694-0.039-0.963-0.078c-0.425-0.038-0.541,0.039-0.771-0.23c-0.078-0.115-0.501-0.387-0.655-0.387h-0.309
			l0.154,0.695H15.189z"/>
		<path fill="#FFFFFF" d="M61.451,38.898l-1.966,0.27l-0.114-0.037l-0.694-0.077c0,0.577,0.231,0.962,0.771,0.962
			C60.179,40.016,61.221,39.4,61.451,38.898z"/>
		<path fill="#FFFFFF" d="M21.859,7.864c0.115,0.579,0.617,3.238,0.54,3.777l-0.039,0.463c-0.077,0.078-0.462,0.579-0.462,0.618
			v0.115c0,0.076,0.154,0.231,0.192,0.231c0.039,0,0.964-0.655,1.118-0.733c0.347-0.231,0.81-0.5,1.157-0.694
			c-0.039-0.076-0.154-0.385-0.232-0.385c-0.231,0-0.347,0.232-0.655,0.232c-0.424,0-0.54-0.926-0.54-1.428l1.852-1.156
			c0.23,0.192,1.002,0.616,1.002,0.963v0.077c0,0.194-0.501,0.463-0.501,0.618c0,0.115,0.154,0.308,0.23,0.347
			c0.578-0.308,1.157-0.887,1.736-1.156c0.192-0.116,1.696-1.003,1.772-1.118c-0.038-0.154-0.077-0.348-0.27-0.348
			c-0.077,0-0.385,0.193-0.617,0.193h-0.232c-0.308,0-1.311-0.771-1.541-0.964c-0.232-0.155-1.273-0.965-1.466-1.042
			c-0.192-0.114-1.195-0.847-1.426-1.078c-0.154-0.078-1.504-1.041-1.504-1.041h-0.192c-0.54,0-0.27,1.195-0.192,1.618
			C21.743,6.553,21.743,7.21,21.859,7.864z M22.36,7.132l1.967,1.427l-1.542,0.963l-0.462-2.39H22.36z"/>
		<path fill="#FFFFFF" d="M43.14,8.249c0.038-0.037,0.154-0.191,0.154-0.269V7.864c0-0.154-0.732-0.308-0.732-0.693V6.9
			c0-0.115,0.269-0.926,0.308-1.118c0.077-0.347,0.27-0.693,0.308-1.156l2.776,0.849c-0.038,0.077-0.463,1.388-0.463,1.464
			c-0.077,0.424-0.27,1.195-0.771,1.158l-0.54-0.039c-0.039,0.039-0.154,0.191-0.154,0.27v0.077c0,0.077,0.038,0.077,0.078,0.116
			l1.079,0.27l0.116,0.077c0.27,0,2.429,0.693,2.661,0.81c0.115-0.078,0.192-0.194,0.192-0.347V9.291
			c0-0.116-0.849-0.309-0.849-0.848c0-0.231,0.31-1.195,0.387-1.466c0.154-0.425,0.27-1.003,0.423-1.426
			c0.154-0.386,0.308-1.003,0.424-1.427s0.271-1.118,0.771-1.118h0.346l0.347,0.038c0-0.192,0.078-0.153,0.078-0.308V2.659
			c0-0.153-0.732-0.308-0.924-0.308C49,2.236,47.92,2.043,47.612,1.927c-0.232-0.115-1.312-0.501-1.504-0.501
			c0,0.193-0.077,0.154-0.077,0.31v0.076c0,0.077,0.039,0.077,0.077,0.154c0.23,0,0.616,0.271,0.616,0.386v0.386
			c0,0.385-0.231,0.77-0.308,1.079c-0.039,0.386-0.309,0.849-0.309,1.118c-0.27,0-1.542-0.463-1.889-0.578
			c-0.27-0.039-0.848-0.115-0.81-0.348c0-0.192,0.231-0.81,0.27-0.926l0.309-0.924V2.005c0.116-0.193,0.192-0.425,0.5-0.425h0.232
			l0.423,0.039c0.039-0.077,0.078-0.116,0.078-0.231V1.117c-0.309-0.077-0.655-0.116-0.963-0.231
			c-0.309-0.114-0.695-0.153-0.964-0.27c-0.27-0.076-0.655-0.23-0.925-0.308C42.214,0.27,41.521,0.038,41.443,0H41.29
			c-0.039,0.153-0.117,0.192-0.117,0.27v0.193c0.309,0.038,0.81,0.386,0.81,0.732c0,0.501-0.308,1.041-0.386,1.464
			c-0.077,0.386-0.308,1.042-0.424,1.466c-0.154,0.424-0.308,0.964-0.423,1.427c-0.116,0.423-0.27,1.156-0.771,1.117l-0.655-0.038
			c-0.039,0.077-0.116,0.192-0.116,0.231v0.192c0.617,0.155,1.388,0.385,2.005,0.54C41.791,7.786,42.639,8.019,43.14,8.249z"/>
		<path fill="#FFFFFF" d="M49.038,10.178c-0.154,0-0.231,0.192-0.27,0.347c0.078,0.154,1.389,1.002,1.658,1.233
			c0.193,0.116,1.658,1.272,1.658,1.272c0.116,0,0.308-0.271,0.308-0.308c0-0.387-1.002-0.309-0.192-1.544
			c0.154-0.191,0.386-0.461,0.501-0.692c0.038-0.039,0.5-0.656,0.539-0.694c0.309-0.348,0.772-1.002,1.042-1.388
			c0.115-0.192,0.347-0.502,0.501-0.694c0.154-0.231,0.347-0.5,0.732-0.5h0.039c0.153,0,0.655,0.269,0.655,0.269
			c0.154,0,0.27-0.23,0.308-0.385c-0.462-0.231-3.315-2.429-3.315-2.429h-0.192c-0.039,0.153-0.116,0.191-0.116,0.27
			c0,0.193,0.501,0.385,0.501,0.926c0,0.269-0.617,1.04-0.809,1.233c-0.271,0.346-0.54,0.848-0.849,1.194
			c-0.309,0.309-0.578,0.848-0.887,1.156c-0.27,0.31-0.578,1.003-1.041,1.003C49.5,10.447,49.116,10.178,49.038,10.178z"/>
		<path fill="#FFFFFF" d="M29.53,1.658c0.309,0.578,0.232,0.463,0.348,1.271c0.077,0.425,0.192,0.887,0.27,1.349
			c0.039,0.271,0.039,0.54,0.077,0.733c0.039,0.27,0.116,0.463,0.116,0.693c0.038,0.463,0.193,0.887,0.193,1.466
			c0,0.502-0.54,0.693-0.925,0.771v0.192c0,0.115,0.039,0.154,0.077,0.231c0.771,0,1.928-0.424,2.621-0.424
			c0.462,0,2.275-0.308,2.622-0.424c1.465-0.54,2.698-1.389,2.698-3.393c0-1.042-0.462-2.275-1.04-2.737
			c-0.463-0.387-0.54-0.502-1.157-0.732C35.198,0.54,34.196,0.27,33.81,0.347V0.309l-5.243,0.809
			c-0.039,0.039-0.039,0.039-0.039,0.155c0,0.115,0.077,0.23,0.116,0.27L29.53,1.658z M31.844,1.542
			c0-0.502,0.924-0.617,1.426-0.617c0.348,0,0.463,0.115,0.772,0.115c0.115,0.193,0.462,0.309,0.655,0.695
			c0.193,0.27,0.309,0.577,0.424,0.924c0.193,0.617,0.386,1.505,0.386,2.313c0,0.463-0.193,0.81-0.193,1.156
			c-0.386,0.579-0.617,0.926-1.465,1.081c-1.272,0.229-1.118-0.078-1.311-1.12c-0.116-0.731-0.27-1.502-0.347-2.234
			c-0.039-0.386-0.155-0.695-0.193-1.08c-0.038-0.386-0.154-0.849-0.154-1.156V1.542z"/>
		<path fill="#FFFFFF" d="M56.44,24.749l-0.193,0.618c0.232-0.039,0.309-0.231,0.579-0.27s0.424-0.116,0.733-0.116h0.347
			l1.079,0.116c0.193-0.116,0.386-0.501,0.655-0.501h0.193l0.154-0.695h-0.154c-0.308,0-0.539,0.155-0.733,0.31
			c-0.115,0.077-0.076,0.153-0.269,0.27c-0.154,0.077-0.309,0.038-0.501,0.038c-0.231,0.078-0.694,0.078-0.964,0.078
			C57.057,24.597,56.709,24.749,56.44,24.749z"/>
		<path fill="#FFFFFF" d="M63.379,49.925c-0.424-0.039-0.887-0.81-0.887-1.272V48.42c0-0.386,0.154-0.654,0.231-0.962
			c-0.462,0.116-0.462,0.229-0.694,0.538c0,0.154-0.192,1.196-0.229,1.352c-0.116,0.461-0.271,0.81-0.81,0.81h-0.154
			c-0.54,0-0.81-0.194-1.196-0.194c0.193,0.309,0.501,0.616,0.888,0.693c-0.04,0.386-1.195,0.349-1.62,0.386
			c0.116,0.154,0.81,0.271,1.118,0.271h0.077c0.887,0,1.234-0.193,1.889-0.385c0.424-0.155,1.311-0.926,1.388-0.926V49.925z"/>
		<rect x="42.523" y="40.403" fill="#FFFFFF" width="7.634" height="0.538"/>
		<path fill="#FFFFFF" d="M19.16,27.024c0,0.193,0.116,0.309,0.27,0.309c0.116,0,0.231-0.039,0.231-0.153
			c0-0.116-0.116-0.155-0.231-0.155H19.16z"/>
		<rect x="42.523" y="38.128" fill="#FFFFFF" width="3.816" height="0.5"/>
		<rect x="38.398" y="35.853" fill="#FFFFFF" width="2.467" height="0.502"/>
		<rect x="42.523" y="39.245" fill="#FFFFFF" width="3.816" height="0.54"/>
		<path fill="#FFFFFF" d="M19.238,26.484c-0.078,0-0.154,0.077-0.154,0.155v0.038c0,0.077,0.115,0.192,0.192,0.192h0.154
			c0.077,0,0.116-0.039,0.116-0.115v-0.038C19.546,26.601,19.314,26.484,19.238,26.484z"/>
		<path fill="#FFFFFF" d="M55.399,35.853c0.308,0.349,0.424,0.502,0.771,0.849c0.154,0.116,0.848,0.579,1.041,0.617
			c0-0.232-0.116-0.193-0.116-0.308v-0.155c0-0.116,0-0.154,0.039-0.232c-0.039-0.036-0.386-0.347-0.425-0.422
			c-0.192-0.116-0.308-0.271-0.462-0.426c-0.27-0.308-0.54-0.616-0.771-0.963c-0.193-0.31-1.272-1.929-1.272-2.236v-0.192
			c0-0.115,0.154-0.192,0.154-0.387c0-0.114-0.077-0.23-0.115-0.385c0.077-0.039,0.077-0.077,0.154-0.077h0.155
			c0.347,0,0.231,0.154,0.578,0.154c-0.192-0.308-0.81-0.463-0.81-0.693V30.88c0-0.077,0.154-0.347,0.27-0.347h0.193
			c0.347,0,0.81,0.23,0.963,0.425c-0.077,0.191-0.231,0.887-0.231,1.155c0,0.617,0.385,1.465,0.732,1.696
			c0.348,0.231,1.041,0.849,1.542,0.887c-0.039-0.346-0.231-0.229-0.271-0.424c0.31,0.23,0.579,0.732,0.888,1.001
			c0.153,0.155,0.809,0.928,1.002,0.928c0.076,0,0.116-0.038,0.116-0.116c0-0.848-1.195-1.734-1.195-2.082v-0.154
			c0-0.232,0.078-0.424,0.27-0.463l0.116,0.154c0.039-0.077,0.078-0.115,0.078-0.231v-0.347c0-0.386-0.848-0.965-0.887-1.389
			c0.616,0.424,1.118,0.771,2.159,0.771c-0.231-0.153-1.002-0.27-1.041-0.694c0.694,0,0.886,0.194,1.349,0.425
			c-0.038-0.502-0.5-0.693-0.694-1.003c0.887,0,1.312,0.501,1.889,0.811c0-0.656-0.54-0.772-0.54-1.119
			c0-0.077,0.077-0.153,0.115-0.153c0.231,0,0.231,0.231,0.347,0.309c0-0.849-0.269-0.695-0.347-1.042
			c0.424-0.039,0.579-0.386,0.733-0.731c0.039-0.23,0.077-0.347,0.153-0.579c0.078-0.192,0.271-0.309,0.31-0.462
			c0.385,0,0.577,0.038,0.577,0.5c0,0.232-0.385,0.116-0.385,0.463c0.231,0.039,0.347,0.732,0.347,1.003v0.27
			c-0.231-0.039-0.193-0.154-0.5-0.154h-0.154c-0.116,0-0.116,0-0.194,0.038l-0.038,0.232h0.115c0.463,0,0.54,0.115,0.809,0.269
			c0,0.425-0.116,0.618-0.077,1.158c0.038,0.462,0.116,0.693,0.347,0.964c-0.038-0.194-0.154-0.309-0.154-0.539v-0.039l0.038-0.54
			c0.193-0.271,0.309-1.35,0.309-1.852l0.038-1.194c0-1.195-0.733-1.928-1.426-2.39h-0.154c0.077,0.115,0.192,0.191,0.192,0.385
			v0.192c0,0.232-0.192,0.501-0.307,0.617c0-0.308-0.501-0.887-0.694-0.887h-0.116c0,0.308,0.039,0.54,0.309,0.617
			c-0.038,0.192-0.116,0.115-0.347,0.115l0.269,0.54c-0.038,0-0.231-0.155-0.231-0.155c-0.116,0-0.54,0.811-0.54,0.965l-0.308-0.078
			c-0.192,0.887-1.118,0.733-1.272,0.965l0.192,0.038l-0.424,0.502l0.039,0.038c0.116-0.077,0.425-0.271,0.617-0.271h0.732
			c0.424,0,0.887,0.386,0.887,0.81c-0.231-0.153-0.771-0.347-1.157-0.347h-0.154c-0.386,0-0.732,0.193-1.003,0.309l-0.154-0.887
			c0.116-0.192,0.347-0.154,0.347-0.309v-0.191c0-0.078-0.193-0.271-0.27-0.271h-0.116c-0.347,0-0.848,0.539-1.195,0.462v0.116
			h-0.463c-0.231,0-0.386-0.078-0.462-0.231c0.462-0.231,0.925,0.039,1.503-0.347c0-0.849-0.501-1.889-1.388-1.889
			c-0.309,0-0.347,0.385-0.694,0.385h-0.424c-0.116,0-0.424-0.308-0.617-0.308h-0.154l-0.078-0.155l0.154,0.078
			c0-0.116-0.038-0.155-0.038-0.194l0.078-0.269l0.308-0.31c0.309,0.193,1.002,0.115,1.465,0.115
			c-0.116-0.152-0.424-0.308-0.656-0.308h-0.424c-0.308,0-0.462,0.077-0.694,0.116l-0.116-0.039
			c0.154-0.578,1.619-0.077,1.619-0.771H55.9v-0.232c0-0.191-0.116-0.23-0.116-0.347c0-0.192,0.116-0.269,0.193-0.385
			c-0.116-0.078-0.347-0.192-0.309-0.424l0.038-0.386c0.078-0.077,0.155-0.116,0.232-0.231c0.231-0.231,0.116-0.077,0.308-0.192
			c-0.192,0-0.693,0.038-0.693-0.116c0-0.617,0.347-0.81,1.002-0.81c-0.077-0.115-0.116-0.23-0.309-0.23h-0.424
			c-0.154,0-0.347,0.115-0.424,0.191c0.038-0.153,0.347-0.347,0.424-0.347h0.154c0.809,0,1.542,0.693,1.542,1.504v0.655
			c0,0.116-0.038,0.154-0.038,0.27c0.116-0.153,0.309-0.539,0.309-0.771v-0.27c0-0.811-0.732-1.619-1.581-1.619h-0.078
			c-0.192,0-0.539,0.077-0.655,0.153l0.039-8.636c-0.154,0.039-0.193,0.039-0.309,0.115c-0.192,0.078-0.231,0-0.386,0.078
			c-0.27,0.038-0.463,0.116-0.732,0.193c-0.501,0.114-1.041,0.191-1.542,0.27c-0.771,0.154-2.39,0.308-3.315,0.308h-1.234
			c-1.504,0-4.472-1.04-5.628-1.503c-0.848-0.348-1.697-0.694-2.506-1.08c-0.385-0.153-0.886-0.347-1.234-0.54
			c-0.077-0.076-1.195-0.616-1.195-0.616s-1.773,0.848-1.889,0.926c-0.231,0.116-0.733,0.347-1.002,0.424
			c-0.154,0.077-0.309,0.116-0.463,0.231c-0.231,0.115-0.308,0.115-0.539,0.192c-0.618,0.271-3.547,1.464-4.202,1.464
			c-0.27,0.194-2.043,0.502-2.544,0.502h-1.196c-1.156,0-2.274-0.153-3.315-0.308c-1.08-0.116-2.005-0.425-2.969-0.656v0.811
			l0.04,7.825c-0.078-0.039-0.424-0.153-0.579-0.153h-0.308c-0.655,0-1.426,0.887-1.426,1.542v0.269
			c0,0.271,0.192,0.772,0.308,0.849l-0.077-0.771c-0.077-0.81,0.771-1.658,1.542-1.658h0.155c0.154,0,0.385,0.193,0.462,0.309
			l-0.039,0.038l-0.038-0.038l-0.04-0.038c0,0-0.076-0.039-0.116-0.039c-0.076-0.038-0.154-0.076-0.269-0.076h-0.347
			c-0.193,0-0.27,0.076-0.308,0.23c0.617,0,1.002,0.192,1.002,0.771c0,0.193-0.463,0.155-0.694,0.155
			c0.27,0.153,0.578,0.347,0.578,0.731v0.116c0,0.154-0.192,0.308-0.309,0.386c0.078,0.116,0.155,0.116,0.155,0.308v0.039
			c0,0.309-0.155,0.309-0.077,0.617h-0.193l0.039,0.23c0.348,0.078,0.309,0.155,0.849,0.194c0.308,0.038,0.655,0.115,0.771,0.308
			l-0.116,0.077c-0.231-0.039-0.424-0.116-0.655-0.116h-0.27c-0.347,0-0.81,0.116-0.887,0.347c0.347-0.154,1.118,0.116,1.503-0.154
			c0.116,0.154,0.386,0.231,0.386,0.54c0,0.077-0.039,0.154-0.077,0.193l0.039,0.039l0.155-0.078l-0.078,0.155H20.24
			c-0.193,0-0.54,0.308-0.656,0.308h-0.386c-0.347,0-0.385-0.385-0.693-0.385c-0.848,0-1.388,1.002-1.388,1.813
			c0,0.384,1.234,0.269,1.504,0.423c-0.077,0.115-0.27,0.231-0.462,0.231h-0.501l0.039-0.078l-0.039-0.038l-0.039,0.038h-0.116
			l-0.116-0.076c-0.154-0.116-0.116-0.077-0.27-0.153c-0.115-0.039-0.423-0.271-0.539-0.271h-0.193
			c-0.077,0-0.308,0.231-0.308,0.308v0.039c0,0.192,0.23,0.347,0.385,0.386l-0.154,0.925c-0.27-0.115-0.617-0.309-1.002-0.309
			h-0.192c-0.463,0-0.848,0.193-1.157,0.347c0.115-0.463,0.462-0.81,1.041-0.81h0.617c0.231,0,0.463,0.232,0.655,0.232l-0.386-0.463
			l-0.038,0.038v-0.077l0.193-0.077l-0.809-0.231c-0.155-0.231-0.424-0.269-0.463-0.694h-0.193v0.078h-0.116l-0.462-1.003
			l-0.347,0.193l0.27-0.54l-0.347-0.039c0.116-0.153,0.192-0.038,0.27-0.27c0.077-0.154,0.038-0.27,0.116-0.463
			c-0.386,0.078-0.849,0.502-0.849,0.926c-0.154-0.116-0.347-0.501-0.347-0.771c0-0.193,0.154-0.309,0.231-0.424h-0.154
			c-0.694,0.462-1.427,1.156-1.427,2.312l0.038,0.039V29.8c0,0.501,0.078,0.849,0.116,1.234c0.039,0.463,0.232,0.694,0.232,1.118
			c0,0.347-0.154,0.5-0.154,0.694l0.231-0.348c0-0.27,0.115-0.424,0.115-0.771v-0.386c0-0.232-0.077-0.385-0.115-0.579
			c0.347-0.23,0.386-0.308,0.964-0.308c0-0.116-0.039-0.271-0.193-0.271h-0.116c-0.308,0-0.424,0.154-0.54,0.154
			c-0.038,0-0.077-0.039-0.077-0.116c0-0.424,0.193-0.732,0.231-1.117l0.154-0.039c0-0.23-0.231-0.347-0.424-0.385
			c0-0.193,0.154-0.617,0.347-0.617c0.771,0,0.54,1.734,1.465,1.812c-0.077,0.347-0.347,0.077-0.347,1.042
			c0.077-0.116,0.154-0.309,0.347-0.309c0.039,0,0.115,0.076,0.115,0.114c0,0.425-0.54,0.463-0.54,1.12
			c0.154,0,0.54-0.31,0.655-0.387c0.154-0.115,0.501-0.231,0.695-0.348l0.539-0.038c-0.193,0.31-0.694,0.578-0.732,1.041
			c0.347-0.23,0.732-0.463,1.311-0.463c0.309,0-0.27,0.386-0.309,0.386c-0.116,0.077-0.501,0.232-0.539,0.309
			c0.462,0,0.809-0.076,1.156-0.231c0.193-0.116,0.231-0.153,0.424-0.269c0.116-0.039,0.385-0.232,0.463-0.271
			c-0.154,0.618-0.925,0.926-0.925,1.543c0,0.192,0.039,0.27,0.078,0.424c0.038,0,0.192-0.115,0.192-0.115
			c0.154,0,0.231,0.308,0.231,0.463v0.077c0,0.424-1.195,1.233-1.195,2.12v0.116c0.309,0,0.926-0.656,1.08-0.85
			c0.232-0.309,0.579-0.849,0.887-1.04l-0.27,0.347l0.039,0.038c0.925-0.229,2.235-1.233,2.235-2.389v-0.463
			c0-0.387-0.192-0.695-0.192-0.887c0-0.194,0.693-0.425,1.002-0.425h0.154c0.077,0,0.27,0.309,0.27,0.347v0.116
			c0,0.114-0.27,0.308-0.386,0.347c-0.231,0.115-0.309,0.154-0.424,0.347c0.309,0,0.27-0.154,0.656-0.154
			c0.116,0,0.154,0.038,0.231,0.077c-0.039,0.154-0.115,0.232-0.115,0.385c0,0.271,0.269,0.311,0.115,0.771
			c-0.077,0.115-0.27,0.386-0.347,0.617c-0.116,0.271-0.578,0.926-0.732,1.194c-0.309,0.425-0.539,0.693-0.849,1.081
			c-0.154,0.191-0.308,0.308-0.462,0.502c-0.076,0.075-0.462,0.424-0.5,0.46l0.038,0.311v0.038c0,0.039-0.116,0.309-0.154,0.347
			c0.231-0.038,0.886-0.463,1.041-0.617c0.309-0.27,0.54-0.538,0.81-0.849c0,0.502-0.039,1.929,0.039,2.353
			c0.038,0.153,0.077,0.926,0.077,1.118c0,0.385,0.116,0.731,0.116,1.117c0,0.387,0.308,1.696,0.462,1.967
			c0.116,0.308,0.193,0.577,0.348,0.849c0.115,0.23,0.308,0.615,0.424,0.81c0.192,0.501,1.619,2.544,1.966,2.852
			c0.385,0.386,0.809,0.849,1.194,1.233c0.193,0.194,0.463,0.347,0.656,0.541c0.231,0.191,0.501,0.347,0.694,0.54
			c0.076,0.075,0.578,0.461,0.693,0.499c0.194,0.116,0.463,0.388,0.656,0.541c0.501,0.308,0.964,0.695,1.465,0.964
			c0.154,0.077,0.579,0.347,0.732,0.463c0.192,0.191,0.501,0.347,0.732,0.502c0.501,0.308,1.041,0.576,1.503,0.923
			c0.964,0.618,2.082,1.197,3.084,1.774c1.041,0.617,2.082,1.119,3.162,1.696c0.154-0.153,0.54-0.309,0.771-0.425
			c0.154-0.077,0.27-0.113,0.385-0.191c0.115-0.038,0.271-0.154,0.387-0.232c0.539-0.269,1.04-0.538,1.579-0.848
			c0.463-0.309,1.041-0.616,1.542-0.888c0.54-0.308,1.002-0.576,1.542-0.887c0.501-0.308,1.002-0.615,1.465-0.923
			c0.154-0.116,0.617-0.349,0.732-0.463c0.154-0.116,0.579-0.425,0.732-0.502c0.54-0.308,0.964-0.656,1.465-0.964
			c0.347-0.23,1.119-0.771,1.388-1.04c0.116-0.155,0.462-0.388,0.655-0.54c0.231-0.194,0.424-0.309,0.655-0.541
			c0.193-0.193,0.386-0.424,0.616-0.576c0.116-0.078,0.424-0.463,0.618-0.618c0.27-0.23,1.811-2.506,1.966-2.891
			c0.078-0.232,0.308-0.541,0.423-0.771c0.116-0.271,0.231-0.579,0.347-0.85c0.232-0.538,0.309-1.309,0.424-2.004
			C55.361,39.131,55.399,37.396,55.399,35.853z M59.91,29.453v-0.038l0.347,0.038c0.039-0.038,0.385-0.423,0.463-0.462
			c0.077-0.076,0.231-0.463,0.27-0.617c0.115,0.039,0.153,0.078,0.153,0.23v0.194l0.231-0.116l0.038,0.309
			c0.039,0.271-0.27,0.693-0.423,0.809C60.642,29.607,60.449,29.453,59.91,29.453z M56.787,33.309
			c0.155-0.309,0.193-1.001,0.541-1.001l-0.078,0.539v0.308c0,0.309,0.078,0.502,0.155,0.771L56.787,33.309z M57.635,29.838
			l0.617-0.423c0,0.578-0.54,1.041-0.771,1.504c-0.116,0.308-0.694,1.35-0.733,1.58c-0.077-0.078-0.116-0.191-0.116-0.347
			c0-0.81,1.042-1.542,1.042-2.005v-0.154C57.674,29.877,57.674,29.877,57.635,29.838z M55.438,27.95
			c0.078,0.039,0.424,0.23,0.501,0.23c0.192,0-0.116-0.347-0.154-0.424c0.077-0.077,0.193-0.27,0.309-0.27h0.424
			c0.231,0,0.617,0.578,0.617,0.81v0.039c0,0.269-0.231,0.54-0.502,0.54h-0.077c-0.309,0-0.347-0.424-0.655-0.463
			c0.077,0.115,0.039,0.386-0.193,0.27v0.27c0.155,0.078,0.348,0.193,0.348,0.463c0,0.115-0.039,0.038-0.039,0.192
			c0.154,0.192,0.501,0.347,0.848,0.347h0.154c0.116,0,0.116,0,0.193-0.038c0,0.347-0.694,1.427-0.887,1.466
			c0,0.308-0.231,0.308-0.231,0.693v0.154c0,0.462,0.462,0.654,0.462,0.925c-0.27-0.154-0.578-0.539-0.578-0.963
			c0-0.425,0.231-0.579,0.231-0.81v-0.155c0-0.502-0.424-0.81-0.771-1.003V27.95z M13.84,29.8c-0.193-0.115-0.424-0.462-0.424-0.77
			v-0.078c0-0.115,0.039-0.153,0.039-0.27l0.231,0.116v-0.194c0-0.152,0.039-0.191,0.115-0.23c0.077,0.039,0.27,0.693,0.771,1.041
			h0.309v0.038C14.457,29.453,14.11,29.646,13.84,29.8z M18.004,33.309l-0.618,0.656c0.078-0.271,0.231-0.618,0.193-0.965
			l-0.078-0.692c0.347,0.037,0.386,0.731,0.54,1.039L18.004,33.309z M18.158,32.308c0,0.113,0,0.113-0.038,0.191
			c-0.193-0.115-0.618-1.233-0.772-1.541c-0.231-0.425-0.771-1.004-0.771-1.543l0.617,0.385c-0.038,0.077-0.038,0.077-0.038,0.193
			v0.154c0,0.501,1.002,1.195,1.002,1.813V32.308z M19.392,30.224c-0.347,0.193-0.81,0.54-0.81,1.003c0,0.309,0.27,0.618,0.27,0.887
			c0,0.463-0.27,0.849-0.578,1.003c0.038-0.232,0.462-0.464,0.462-0.964c0-0.771-1.118-1.542-1.118-2.198h0.347
			c0.309,0,0.732-0.116,0.809-0.347c0.039-0.116-0.077-0.27,0.116-0.462c0.154-0.193,0.231-0.115,0.231-0.463l-0.154,0.038
			l-0.078-0.077l0.039-0.23c-0.271,0.039-0.424,0.463-0.617,0.463h-0.077c-0.308,0-0.539-0.232-0.539-0.54V28.22
			c0-0.192,0.386-0.732,0.655-0.732h0.347c0.077,0,0.309,0.23,0.309,0.308c0,0.078-0.348,0.386-0.116,0.386
			c0.078,0,0.423-0.191,0.501-0.23V30.224z M36.933,54.975c-0.27-0.077-1.119-0.615-1.504-0.771
			c-0.424-0.23-1.002-0.618-1.426-0.849c-0.501-0.269-0.964-0.501-1.426-0.848c-0.155-0.077-0.617-0.347-0.772-0.386
			c-0.038-0.038-0.654-0.424-0.693-0.463c-0.425-0.271-0.964-0.617-1.388-0.887c-0.347-0.155-1.157-0.693-1.387-0.926
			c-0.078-0.038-0.617-0.424-0.695-0.424c-0.116-0.075-0.54-0.424-0.655-0.501c-0.425-0.347-0.888-0.693-1.311-1.002
			c-0.155-0.116-1.119-0.925-1.195-1.08c-0.116-0.114-0.541-0.463-0.617-0.54c-0.077-0.192-0.386-0.461-0.501-0.654
			c-0.347-0.425-0.617-0.888-0.925-1.351c-0.348-0.424-0.579-1.001-0.848-1.463c-1.002-1.658-0.964-5.475-0.964-8.213v-1.233
			c0-0.193,0.27-1.117,0.347-1.389h15.961V54.975z M36.933,31.034H20.896c0-0.348-0.039-0.771-0.309-0.849V26.87
			c0.309-0.077,0.27-0.386,0.424-0.501v4.202h0.385l0.039-2.621h1.503l0.04,2.621h0.424h13.185v-9.946h-9.407v1.389h-1.697
			c0,0.115,0,0.192,0.116,0.192h1.581v1.967h-0.078v-1.929h-1.503v0.887l-1.117-0.732L24.25,22.36c0,0-1.542,0.964-1.658,1.079
			c-0.231,0.154-1.619,0.925-1.619,1.079v0.579h6.207v0.077h-6.207v0.27h6.207v0.077h-6.207v0.231h6.207v0.116h-6.168v0.424
			l-0.424-0.271L20.51,14.766c1.542,0.347,3.778,0.654,5.628,0.654h0.155c1.464,0,2.892-0.424,4.085-0.732
			c0.656-0.192,1.196-0.424,1.813-0.616c0.423-0.154,1.388-0.501,1.695-0.694h0.155l2.891-1.349V31.034z M26.293,28.452v1.155
			h-0.772v-1.155H26.293z M25.521,28.374V27.18h0.772v1.194H25.521z M27.179,28.452v1.194H26.37v-1.194H27.179z M26.37,28.374V27.18
			h0.809v1.194H26.37z M30.957,25.791v3.124h-2.12v-3.124H30.957z M28.837,25.598v-3.121h2.12v3.121H28.837z M33.232,25.791v3.124
			h-2.12v-3.124H33.232z M31.112,25.598v-3.121h2.12v3.121H31.112z M37.896,12.028c0.733,0.386,1.582,0.771,2.391,1.079
			c0.385,0.192,0.81,0.386,1.195,0.54c0.385,0.153,0.848,0.27,1.234,0.461c1.041,0.463,4.125,1.312,5.551,1.312h0.309
			c1.003,0,2.121-0.075,3.008-0.191c0.423-0.078,1.002-0.116,1.426-0.194c0.269-0.076,1.079-0.23,1.311-0.269l-0.077,11.18
			l-0.424,0.385c0.039,0.154,0.194,0.501,0.386,0.54v3.315c-0.192,0.038-0.27,0.463-0.27,0.733v0.115H37.896V12.028z M54.204,34.927
			c0,0.773-0.039,1.466-0.039,2.198c0,0.618,0,1.619-0.077,2.198c-0.115,0.654-0.115,1.35-0.309,1.965
			c-0.192,0.656-0.308,1.081-0.616,1.657c-0.192,0.425-0.578,1.081-0.848,1.428c-0.077,0.155-0.386,0.54-0.463,0.654
			c-0.077,0.193-0.077,0.193-0.23,0.349c-0.078,0.153-0.116,0.23-0.232,0.347c-0.655,0.81-1.504,1.58-2.313,2.234
			c-0.425,0.349-0.811,0.656-1.273,1.003c-0.154,0.078-0.578,0.424-0.655,0.463c-0.116,0.039-0.579,0.386-0.695,0.463
			c-0.076,0.077-0.539,0.386-0.655,0.463c-0.231,0.116-0.501,0.308-0.694,0.463c-0.463,0.269-1.042,0.54-1.427,0.848
			c-0.077,0.078-0.617,0.425-0.655,0.463c-0.231,0.078-0.231,0.078-0.386,0.192c-0.154,0.116-0.231,0.116-0.385,0.193
			c-0.231,0.191-1.119,0.693-1.427,0.848c-0.385,0.155-1.08,0.693-1.426,0.849c-0.423,0.155-1.157,0.654-1.504,0.771V31.997h15.961
			l0.078,0.502c0.039,0.077,0.27,0.693,0.27,0.81V34.927z"/>
		<path fill="#FFFFFF" d="M51.66,33.771h-1.465h-2.892h-5.744h-3.161v0.925h3.123v17.772c0.116-0.038,0.27-0.038,0.27-0.191V34.696
			h10.062v9.369c0.232-0.155,1.157-2.043,1.157-2.506v-7.672C53.009,33.693,51.891,33.771,51.66,33.771z"/>
		<rect x="46.648" y="35.853" fill="#FFFFFF" width="3.508" height="3.933"/>
		<rect x="42.523" y="35.853" fill="#FFFFFF" width="3.816" height="0.54"/>
		<path fill="#FFFFFF" d="M42.523,50.002h2.968c0.077,0,0.656-0.424,0.733-0.502h-3.701V50.002z"/>
		<path fill="#FFFFFF" d="M42.523,48.883h4.549c0.116,0,0.618-0.424,0.732-0.5h-5.281V48.883z"/>
		<rect x="42.523" y="41.56" fill="#FFFFFF" width="7.634" height="0.501"/>
		<path fill="#FFFFFF" d="M42.523,47.766h6.014c0.116,0,0.618-0.463,0.694-0.541h-6.708V47.766z"/>
		<path fill="#FFFFFF" d="M42.523,51.196h1.118c0.078,0,0.848-0.501,0.886-0.579h-2.004V51.196z"/>
		<rect x="42.523" y="43.796" fill="#FFFFFF" width="7.634" height="0.538"/>
		<rect x="42.523" y="42.677" fill="#FFFFFF" width="7.634" height="0.501"/>
		<rect x="42.523" y="44.952" fill="#FFFFFF" width="7.634" height="0.538"/>
		<path fill="#FFFFFF" d="M42.523,46.609h7.363c0.193,0,0.04-0.116,0.271-0.193v-0.309h-7.634V46.609z"/>
		<rect x="42.523" y="36.972" fill="#FFFFFF" width="3.816" height="0.538"/>
		<path fill="#FFFFFF" d="M67.196,54.088c-0.077,0,0,0-0.077,0.039c0.077,0.308,0.462,0.308,0.462,0.731v0.039
			c0,0.116-0.231,0.232-0.347,0.232h-0.501c-0.27,0-0.462-0.078-0.616-0.194l0.424-0.116l0.038-0.422
			c0.077-0.54-0.964-1.427-1.272-1.773l0.038,0.308c0.038,0.078,0.192,0.386,0.192,0.502v0.152c0,0.116-0.115,0.349-0.23,0.349
			h-0.193c-0.656,0-0.886-0.54-1.195-0.772c0,0.734,0.154,0.812,0.462,1.235c0.154,0.191,0.771,0.538,1.156,0.538
			c0.231,0.463,1.08,1.042,1.735,1.042h0.231c0.386,0,0.887-0.232,0.887-0.617C68.391,54.819,67.581,54.088,67.196,54.088z"/>
		<path fill="#FFFFFF" d="M70.665,54.744c0.077-0.039,0.117-0.116,0.271-0.116c0.077,0,0.153,0.077,0.153,0.116
			c0,0.538-0.616,0.538-0.654,0.963c0.462-0.114,1.618-0.655,1.618-1.195v-0.308c-0.153,0-0.076-0.039-0.231-0.039
			C71.282,54.165,70.782,54.32,70.665,54.744z"/>
		<path fill="#FFFFFF" d="M70.435,55.207c0-0.463-1.003-0.618-1.542-0.618h-0.27c-0.078,0-0.116,0.039-0.116,0.078
			c0.27,0.038,0.81,0.269,0.81,0.54v0.153c0,0.308-0.733,0.501-0.926,0.656c0.656,0,2.044-0.232,2.044-0.772V55.207z"/>
		<path fill="#FFFFFF" d="M65.191,51.775l-0.502,0.114c0.039-0.424,0.347-0.424,0.347-0.731v-0.27
			c-0.809,0.078-0.925,0.732-1.657,0.732c-0.116,0-0.154-0.039-0.27-0.039c-0.039,0.077-0.077,0.116-0.077,0.232v0.23
			c0,0.116,0.347,0.618,0.463,0.693C64.266,52.663,65.191,52.585,65.191,51.775z"/>
		<path fill="#FFFFFF" d="M64.381,50.928l0.655-0.656c0-0.309,0.116-0.27,0.116-0.541v-0.075c0-0.232-0.077-0.349-0.116-0.54
			c-0.385,0.116-1.156,1.541-2.121,1.58v0.077c0.193,0.039,0.463,0.27,0.733,0.27C63.996,51.042,64.073,50.928,64.381,50.928z"/>
		<path fill="#FFFFFF" d="M74.444,50.232h-0.04c-0.308,0-0.578,0.193-0.578,0.502v0.385c0.27-0.039,0.193-0.152,0.27-0.308
			c0.116-0.155,0.27-0.039,0.54-0.039l-0.038,0.463c0.27-0.077,0.116-0.116,0.231-0.269v-0.232
			C74.713,50.579,74.675,50.232,74.444,50.232z"/>
		<path fill="#FFFFFF" d="M20.086,26.87c0-0.115-0.077-0.115-0.155-0.153l-0.27,0.038v0.231c0.077,0.038,0.077,0.038,0.192,0.038
			h0.232V26.87z"/>
		<path fill="#FFFFFF" d="M72.285,53.395c-0.192,0.116-0.617,0.347-0.656,0.615c0.271,0,0.271-0.075,0.501-0.075h0.116v0.425
			c0,0.269-0.116,0.229-0.116,0.538c0.193-0.114,0.617-0.538,0.617-0.81V53.78c0-0.155-0.116-0.27-0.154-0.425L72.285,53.395z"/>
		<path fill="#FFFFFF" d="M14.65,51.313c0.385,0,1.079-0.077,1.272-0.271c-0.501,0-1.465-0.037-1.657-0.308
			c0.076-0.117,0.308-0.155,0.501-0.309c0.154-0.193,0.27-0.232,0.385-0.463c-0.27,0.078-0.81,0.194-1.08,0.194h-0.27
			c-0.385,0-0.578-0.271-0.732-0.502c0-0.155-0.193-1.158-0.231-1.35c-0.116-0.463-0.231-0.81-0.771-0.848
			c0.077,0.116,0.231,0.538,0.231,0.731v0.424c0,0.541-0.385,1.272-0.849,1.312v0.077c0.04,0,0.502,0.424,0.579,0.502
			c0.116,0.075,0.579,0.347,0.732,0.385c0.386,0.191,1.233,0.424,1.773,0.424H14.65z"/>
		<path fill="#FFFFFF" d="M74.25,51.235h-0.308c-0.116,0-0.309,0.191-0.386,0.27c-0.038,0.038-0.23,0.424-0.23,0.424
			c0,0.116,0.076,0.116,0.154,0.155c0.076-0.155,0.154-0.309,0.385-0.309h0.039c0.116,0,0.231,0.039,0.231,0.153v0.232
			c0,0.153-0.153,0.386-0.153,0.538v0.039c0,0.116,0,0.116,0.038,0.193c0.154-0.232,0.539-0.771,0.539-1.156
			C74.559,51.582,74.404,51.235,74.25,51.235z"/>
		<path fill="#FFFFFF" d="M55.129,54.705c0.077,0,0.27,0.309,0.308,0.386h0.771c0.154,0,0.27-0.077,0.27-0.232
			c-0.116,0-0.154,0.039-0.27,0.039h-0.154c-0.231,0-0.462-0.192-0.462-0.425c0-0.229,0.654,0.078,0.654-0.191
			c0-0.232-0.385-0.077-0.385-0.232c0-0.152,0.54-0.347,0.733-0.347v-0.077c-0.116-0.039-0.116-0.075-0.27-0.075h-0.231
			c-0.077,0-0.077,0.036-0.154,0.075l-0.462,0.039c0.077-0.309,0.424-0.347,0.771-0.347l0.078-0.155l-0.27-0.152l0.617-0.271
			c-0.077-0.114-0.308-0.347-0.54-0.347h-0.077c-0.578,0-0.887,0.731-1.118,1.158c0.346,0,0.153,0.23,0.424,0.308l-0.386,0.887
			C55.09,54.705,55.052,54.705,55.129,54.705z M56.055,52.547c0.116,0,0.192,0.077,0.231,0.152l-0.655,0.077
			C55.669,52.624,55.862,52.547,56.055,52.547z"/>
		<path fill="#FFFFFF" d="M59.794,51.505h-0.579c0.231,1.042,1.812,0.733,2.313,1.505l0.145,0.107
			c0.027-0.037,0.049-0.052,0.049-0.107v-0.271C61.722,52.161,60.449,51.505,59.794,51.505z"/>
		<path fill="#FFFFFF" d="M54.937,26.717h-0.039c-0.155,0-0.193,0.153-0.193,0.308h0.309c0.115,0,0.154-0.116,0.154-0.193
			C55.168,26.755,55.014,26.717,54.937,26.717z"/>
		<path fill="#FFFFFF" d="M55.322,27.333c0.232,0,0.347-0.077,0.347-0.309h-0.27c-0.116,0-0.231,0.039-0.231,0.155
			C55.168,27.256,55.283,27.333,55.322,27.333z"/>
		<path fill="#FFFFFF" d="M55.707,26.601c0-0.077-0.038-0.116-0.114-0.116h-0.078c-0.078,0-0.232,0.155-0.232,0.232v0.038
			c0,0.076,0.039,0.115,0.116,0.115h0.154c0.077,0,0.153-0.077,0.153-0.153V26.601z"/>
		<path fill="#FFFFFF" d="M61.528,53.01l-0.616-0.233v0.039c0.116,0.232,0.271,0.308,0.271,0.579v0.155
			c0,0.152-0.155,0.075-0.271,0.308c-0.733,0-1.503,0.23-2.005,0.502c-0.154,0.113-0.655,0.424-0.732,0.538
			c-0.154,0.154-0.462,0.579-0.656,0.617c-0.076-0.308-0.114-0.424-0.501-0.424c0.039,0.116,0.078,0.23,0.078,0.386v0.038
			c0,0.153-0.231,0.27-0.424,0.27h-0.192l-0.886-0.077c-0.078,0-0.31,0.038-0.31,0.116c0,0.116,0.078,0.154,0.193,0.193v0.191
			c0.23,0,0.347,0.116,0.655,0.116h0.386c0.694,0,1.002-0.385,1.388-0.617c0.116-0.039,1.118-0.849,1.157-0.888
			c0.154,0,0.578-0.152,0.693-0.23c0.231-0.077,0.501-0.116,0.732-0.191c0.348-0.077,1.234-0.349,1.234-0.656v-0.347
			c0-0.116-0.039-0.155-0.078-0.232c0.008-0.015,0.016-0.025,0.024-0.039h-0.024L61.528,53.01z"/>
		<path fill="#FFFFFF" d="M55.438,55.631c0.27,0,0.463-0.154,0.887-0.154c-0.078-0.116-0.231-0.309-0.386-0.309h-0.232
			c-0.27,0-0.578,0.153-0.578,0.425c0.116,0,0.154,0.038,0.27,0.038H55.438z"/>
		<polygon fill="#FFFFFF" points="61.684,53.123 61.673,53.117 61.668,53.123 		"/>
		<path fill="#FFFFFF" d="M73.595,52.277l-0.115,0.037l-0.116-0.076c-0.193,0.23-0.886,0.386-0.926,1.001
			c0.193,0,0.385-0.191,0.578-0.191c0.155,0,0.155,0.153,0.155,0.308c0,0.463-0.231,0.541-0.309,0.849
			c0.27-0.194,0.926-0.732,0.926-1.156v-0.155l-0.039-0.424L73.595,52.277z"/>
		<path fill="#FFFFFF" d="M33.309,14.187c-0.462,0.271-0.848,0.617-1.311,0.848V14.61l-0.694,0.271c-0.27,0-1.426,0.424-1.812,0.5
			c-0.54,0.154-0.617-0.076-0.617,0.539v1.195l-2.93,1.968h10.641v-4.357c0-0.116-1.658-1.117-1.85-1.233
			c-0.231,0.154-0.463,0.191-0.733,0.308C33.694,13.956,33.579,14.033,33.309,14.187z"/>
		<path fill="#FFFFFF" d="M42.369,58.753h-0.115c-0.964,0-1.697,1.466-1.697,2.505c0,0.771,0.425,1.544,1.157,1.544
			c0.887,0,1.697-1.428,1.697-2.392v-0.191c0-0.425-0.154-0.695-0.309-0.965C43.024,59.099,42.6,58.753,42.369,58.753z
			 M42.639,60.371c0,0.695-0.347,2.159-0.926,2.159h-0.038c-0.231,0-0.385-0.771-0.385-1.04v-0.31c0-0.693,0.385-2.157,0.964-2.157
			c0.346,0,0.385,0.849,0.385,1.195V60.371z"/>
		<path fill="#FFFFFF" d="M47.303,57.327v-0.154c0-0.27,0.617-0.078,0.849-0.078c0.115,0,0.269-0.116,0.269-0.23
			c0-0.193-0.192-0.463-0.424-0.463c-0.424,0-0.462,0.192-0.694,0.23c-0.038,0.232-0.309,0.311-0.309,0.695v0.5
			c0,0.347,0.386,0.733,0.618,0.887c0.154,0.077,0.308,0.232,0.462,0.31c0.231,0.114,0.154,0.191,0.423,0.347
			c0,0.23,0.077,0.23,0.077,0.424v0.039c0,0.153-0.154,0.27-0.347,0.27c-0.269,0-0.347-0.116-0.539-0.155
			c-0.193,0-0.387,0.193-0.387,0.349c0,0.191,0.232,0.347,0.425,0.347h0.116c0.654,0,1.117-0.618,1.117-1.272
			C48.961,58.212,47.303,57.713,47.303,57.327z"/>
		<path fill="#FFFFFF" d="M40.209,66.849h-0.5c-0.309,0-0.732-0.615-0.732-0.887v-0.347c0-0.54,0.423-1.078,0.962-1.078
			c0.347,0,0.732,0.269,0.771,0.576h0.077l-0.077-0.654l-0.424-0.038h-0.693c-0.347,0-1.003,0.654-1.003,1.078v0.54
			c0,0.194,0.271,0.502,0.387,0.618c0.23,0.269,0.423,0.191,0.616,0.347h0.578c0.424-0.271,0.694,0.269,0.771-0.771
			C40.711,66.27,40.633,66.849,40.209,66.849z"/>
		<path fill="#FFFFFF" d="M21.435,37.704c0,0.077,0.039,0.191,0.154,0.191h5.166v0.077h-4.857v3.471
			c0,0.347,0.346,0.926,0.462,1.233c0.078,0.232,0.578,0.887,0.618,1.08h3.778v0.114h-3.702l0.231,0.347h3.431v0.077h-3.354
			c0.077,0.155,0.655,1.042,0.81,1.042h0.618v0.732c0,0.116,0.308,0.385,0.423,0.424v-1.156h1.118v1.696H25.83
			c0.039,0.078,0.039,0.116,0.155,0.116h0.347v0.27c0,0.116,0,0.077,0.077,0.116v-0.386h0.308v0.577c0,0.077,1.272,1.042,1.35,1.042
			h6.013v-1.619h0.463v1.658h-0.809v0.075h-5.475c0.078,0.116,0.501,0.424,0.656,0.424h4.819v0.116h-4.704
			c0.078,0.116,1.658,1.156,1.812,1.156h1.273v0.772c0,0.114,0.038,0.075,0.116,0.114v-0.887h1.349v1.659
			c0,0.114,0.385,0.27,0.5,0.347v-1.003h0.463v1.194c0,0.116,0,0.078,0.078,0.116v-1.311h1.156v1.696h-0.462
			c0.077,0.039,0.116,0.077,0.271,0.077h0.192v0.116c0,0.114,0.27,0.23,0.386,0.27v-0.386h0.501v-0.077h-0.501v-1.696h0.501v-0.965
			H34.08v-0.075h2.583v-0.349H34.08v-0.114h2.583v-1.271h-0.501v-1.658h0.501v-0.116h-0.501v-1.696h0.501v-1.042H34.08v-0.077h2.583
			v-0.347H34.08v-0.114h2.583v-1.158h-0.501v-1.696h0.501v-0.113h-0.501v-1.658h0.501v-1.158H34.08v-0.077h2.583v-0.654H34.08
			v-3.162h-7.324v3.162h-5.359v0.347h0.078C21.474,37.627,21.435,37.704,21.435,37.704z M26.716,46.995h-0.27v-1.658h0.27V46.995z
			 M34.62,45.337h1.118v1.658H34.62V45.337z M34.62,47.149h1.156v1.658H34.62V47.149z M23.594,42.599h-1.156v-1.696h1.156V42.599z
			 M23.594,40.789h-1.156v-1.658h1.156V40.789z M24.79,42.561h-1.119v-1.658h1.119V42.561z M24.79,40.789h-1.158v-1.658h1.158
			V40.789z M26.331,41.174c0,0.191-0.154,0.037-0.154,0.308c0,0.153,0.154,0.116,0.154,0.27v0.81h-1.118v-1.658h1.118V41.174z
			 M26.331,40.789h-1.156v-1.658h1.156V40.789z M26.408,39.131h0.347v1.658h-0.347V39.131z M28.76,47.264h-1.272
			c-0.077,0-0.115-0.039-0.115-0.114v-1.929h1.388V47.264z M28.76,45.066h-1.349v-2.005h1.349V45.066z M30.225,47.225h-1.35v-2.004
			h1.35V47.225z M30.225,45.066h-1.35v-2.005h1.35V45.066z M32.114,47.264h-1.389v-2.043h1.389V47.264z M32.114,45.066h-1.389
			v-2.005h1.389V45.066z M33.579,47.225H32.23v-2.004h1.349V47.225z M33.579,45.066H32.23v-2.005h1.349V45.066z M34.504,45.337
			v1.658H34.08v-1.658H34.504z M34.504,42.561H34.08v-0.81h-7.324l-0.039,0.81h-0.193h-0.077v-0.887h8.058V42.561z M34.62,39.131
			h1.156v1.658H34.62V39.131z M34.62,41.906v-0.888v-0.116h1.118v1.658H34.62V41.906z M34.08,39.131h0.463v1.658H34.08V39.131z
			 M32.23,35.506h1.349v2.043H32.23V35.506z M32.23,37.704h1.349v2.004H32.23V37.704z M30.726,35.506h1.389v2.043h-1.389V35.506z
			 M30.726,37.665h1.389v2.043h-1.389V37.665z M28.875,35.506h1.389v2.043h-1.389V35.506z M28.875,37.704h1.35v2.004h-1.35V37.704z
			 M27.372,35.506h1.388v2.043h-1.388V35.506z M28.76,37.704v2.004h-1.349v-2.004H28.76z M34.08,41.136v-0.233h0.425v0.347h-8.058
			v-0.347h0.309v0.233H34.08z"/>
		<path fill="#FFFFFF" d="M25.367,19.392v0.23c0,0.154,0.192,0.193,0.347,0.193h10.872v-0.502H25.56
			C25.444,19.313,25.521,19.353,25.367,19.392z"/>
		<path fill="#FFFFFF" d="M26.099,33.656h0.116c-0.039,0.115-0.039,0.076-0.039,0.153c0,0.116,0.078,0.231,0.193,0.231h8.018
			c0.154,0,0.193-0.076,0.27-0.115l-0.038-0.27h0.27c0.038-0.078,0.116-0.116,0.116-0.193v-0.077c0-0.077-0.078-0.155-0.155-0.155
			h-8.866c-0.116,0-0.155,0.116-0.155,0.194C25.83,33.578,25.945,33.656,26.099,33.656z"/>
		<path fill="#FFFFFF" d="M26.061,20.162c0,0.193,0.116,0.309,0.309,0.309h10.216V19.97H26.254
			C26.177,19.97,26.061,20.085,26.061,20.162z"/>
		<path fill="#FFFFFF" d="M38.938,62.339c0.347-0.386,0.617-0.965,0.617-1.696c0-0.54-0.347-1.311-0.849-1.311H38.32
			c-0.385,0-1.079,0.654-1.233,0.887c-0.231,0.385-0.579,0.926-0.579,1.58v0.193c0,0.577,0.463,1.233,1.042,1.233
			C38.166,63.226,38.667,62.686,38.938,62.339z M37.203,62.491v-0.152c0-0.54,0.154-1.194,0.347-1.544
			c0.076-0.191,0.192-0.499,0.308-0.615c0.038-0.039,0.424-0.54,0.424-0.54h0.386c0.154,0,0.193,0.232,0.193,0.385v0.232
			c0,0.386-0.117,1.001-0.271,1.233v0.192c-0.231,0.31-0.539,1.233-1.002,1.233h-0.154C37.279,62.916,37.203,62.646,37.203,62.491z"
			/>
		<path fill="#FFFFFF" d="M46.031,60.141c-0.077,0.27-0.231,0.926-0.54,0.926c0-0.926-0.077-2.043-0.077-2.969
			c0-0.385,0.077-2.93-0.116-2.93c-0.116,0-0.81,0.888-1.157,0.963c0,0.271,0.154,0.193,0.462,0.193
			c0.192,0.424,0.078,2.043,0.116,2.736c0,0.426,0.038,0.887,0.038,1.389c0,0.232-0.038,0.463,0,0.695
			c0.038,0.191,0.154,0.46,0.154,0.576c0.154,0.039,0.193,0.116,0.271,0.116h0.039c0.501,0,1.002-1.119,1.002-1.618
			C46.224,60.141,46.108,60.141,46.031,60.141z"/>
		<path fill="#FFFFFF" d="M19.893,53.55c-0.231-0.349-0.539-1.158-1.08-1.158c-0.308,0-0.539,0.155-0.655,0.347l0.616,0.31
			c-0.192,0-0.27,0.039-0.27,0.23c0.347,0.077,0.809,0.039,0.809,0.386c-0.23,0-0.54-0.114-0.655-0.114h-0.231
			c-0.116,0-0.039,0.036-0.193,0.075v0.077c0.154,0,0.733,0.194,0.733,0.308c0,0.233-0.386,0.039-0.386,0.271
			c0,0.191,0.347,0.078,0.54,0.116c0.231,0.037,0,0.27-0.039,0.422c-0.193,0-0.154,0.078-0.309,0.078h-0.231
			c-0.116,0-0.116,0-0.193-0.039c0,0.116,0.077,0.232,0.193,0.232h0.848c0.039-0.116,0.192-0.386,0.308-0.386
			s0.039,0.039,0.193,0.078l-0.462-0.926C19.739,53.78,19.546,53.55,19.893,53.55z M19.198,52.776l-0.655-0.077
			c0.039-0.075,0.115-0.152,0.231-0.152c0.232,0,0.232,0.152,0.424,0.152V52.776z"/>
		<path fill="#FFFFFF" d="M37.357,66.81h-0.579c-0.038-0.077-0.038-0.077-0.038-0.191v-1.773c0-0.232,0.116-0.271,0.347-0.271
			v-0.114h-1.156v0.114h0.154c0.077,0,0.27,0.116,0.27,0.232v1.735c0,0.154-0.116,0.308-0.231,0.308h-0.192v0.077h2.005l0.077-0.692
			C37.819,66.309,37.742,66.81,37.357,66.81z"/>
		<path fill="#FFFFFF" d="M19.198,55.168h-0.23c-0.232,0-0.386,0.153-0.463,0.309c0.27,0,0.771,0.154,0.849,0.154l0.308-0.038
			v-0.116C19.662,55.321,19.354,55.168,19.198,55.168z"/>
		<path fill="#FFFFFF" d="M19.354,55.707l-1.08,0.077h-0.116c-0.231,0-0.424-0.077-0.424-0.308v-0.039l0.039-0.347
			c-0.424,0-0.308,0.153-0.501,0.424c-0.192-0.116-0.462-0.463-0.617-0.617c-0.115-0.114-0.54-0.386-0.732-0.5
			c-0.424-0.31-1.233-0.54-1.966-0.54c-0.078-0.039-0.347-0.271-0.347-0.347v-0.116c0-0.308,0.27-0.271,0.27-0.579
			c-0.347,0-0.501,0.194-0.693,0.308c0.192-0.771,2.197-0.576,2.429-1.618h-0.501c-0.772,0-2.043,0.617-2.043,1.35v0.038
			c0,0.155,0.078,0.194,0.116,0.27c-0.038,0.077-0.116,0.116-0.116,0.271v0.191c0,0.502,0.809,0.618,1.195,0.772
			c0.578,0.191,0.964,0.191,1.503,0.461c0.655,0.386,1.58,1.466,2.467,1.466h0.501c0.271,0,0.386-0.116,0.618-0.116v-0.191
			c0.077-0.039,0.154-0.039,0.154-0.155S19.392,55.707,19.354,55.707z"/>
		<path fill="#FFFFFF" d="M29.338,55.978v0.078c0,0.499-0.154,0.576-0.193,0.887l0.193,0.036l0.693-1.155
			c-0.193-0.039-0.617-0.463-0.771-0.616c-0.192-0.155-0.694-0.388-1.041-0.388h-0.347c-0.656,0-1.002,0.541-1.272,0.926
			c0,0.271-0.077,0.194-0.077,0.386v0.077c0,0.81,0.463,1.657,0.386,2.275l-0.038,0.463c-0.232,0.347-0.463,0.771-1.003,0.771
			c-0.578,0-1.311-0.54-1.311-1.08v-0.23c0-0.309,0.232-0.616,0.232-0.887h-0.271l0.038,0.038l-0.771,1.156
			c0.463,0.116,1.079,1.35,2.236,1.35h0.347c0.424,0,0.693-0.23,0.925-0.424c0.154-0.116,0.501-0.616,0.501-0.887v-0.771
			c0-0.385-0.309-0.964-0.309-1.388v-0.425c0-0.385,0.501-1.039,0.849-1.039C28.76,55.13,29.338,55.554,29.338,55.978z"/>
		<path fill="#FFFFFF" d="M31.266,58.406h-0.425c-0.424,0-1.349,0.54-1.542,0.771c-0.231,0.269-0.925,0.926-0.925,1.389v0.424
			c0,0.191,0.231,0.501,0.347,0.577c0.27,0.193,0.423,0.116,0.771,0.116c0.193-0.116,0.964-0.386,0.964-0.616V60.95
			c-0.231,0.039-0.462,0.271-0.848,0.271h-0.116c-0.193,0-0.347-0.116-0.347-0.31v-0.117c0-0.269,0.27-0.731,0.385-0.923
			c0.271-0.386,0.309-0.386,0.579-0.734c1.08-1.194,0.926,0.232,1.504,0.232C32.23,59.37,31.729,58.406,31.266,58.406z"/>
		<path fill="#FFFFFF" d="M34.504,59.332c-0.462,0.154-0.81,0.692-1.119,0.887c0.155-0.618,1.581-2.93,1.581-3.315
			c0-0.039-0.039-0.077-0.116-0.077c0,0-0.578,0.152-0.655,0.191c-0.231,0.039-0.501,0.077-0.732,0.116
			c0,0.347,0.347,0.155,0.347,0.424v0.078c0,0.116-2.082,4.279-2.313,4.703c0.077,0.114,0.192,0.191,0.347,0.191
			c0.462,0,0.424-0.463,0.655-0.771c0.231-0.27,0.347-0.579,0.579-0.848c0.308-0.309,1.041-1.195,1.619-1.195
			c0.154,0,0.27,0.155,0.27,0.308v0.039c0,0.618-0.732,2.353-1.194,2.353c-0.154,0-0.193-0.349-0.463-0.349h-0.115
			c-0.155,0-0.309,0.116-0.309,0.232v0.347c0.154,0.039,0.27,0.232,0.386,0.232h0.078c0.964,0,2.428-1.813,2.428-2.893v-0.078
			C35.776,59.293,35.082,59.177,34.504,59.332z"/>
		<path fill="#FFFFFF" d="M34.736,66.81h-0.424c-0.116,0-0.155-0.114-0.155-0.23v-1.773c0-0.155,0.193-0.232,0.386-0.232v-0.114
			h-1.118c0.039,0.153,0.077,0.153,0.27,0.153c0.039,0.077,0.116,0.116,0.116,0.193v1.813c0,0.153-0.192,0.23-0.386,0.23v0.077
			h1.927l0.155-0.692C35.236,66.27,35.275,66.81,34.736,66.81z"/>
		<rect x="38.398" y="38.128" fill="#FFFFFF" width="2.467" height="0.5"/>
		<rect x="38.398" y="42.677" fill="#FFFFFF" width="2.467" height="0.501"/>
		<rect x="38.398" y="43.796" fill="#FFFFFF" width="2.467" height="0.538"/>
		<rect x="38.398" y="44.952" fill="#FFFFFF" width="2.467" height="0.538"/>
		<rect x="38.398" y="46.107" fill="#FFFFFF" width="2.467" height="0.502"/>
		<rect x="38.398" y="47.225" fill="#FFFFFF" width="2.467" height="0.541"/>
		<rect x="38.398" y="39.245" fill="#FFFFFF" width="2.467" height="0.54"/>
		<rect x="38.398" y="36.972" fill="#FFFFFF" width="2.467" height="0.538"/>
		<rect x="38.398" y="41.56" fill="#FFFFFF" width="2.467" height="0.501"/>
		<rect x="38.398" y="40.403" fill="#FFFFFF" width="2.467" height="0.538"/>
		<rect x="38.398" y="49.5" fill="#FFFFFF" width="2.467" height="0.502"/>
		<path fill="#FFFFFF" d="M46.108,15.575c-0.192-0.039-0.81-0.155-0.925-0.193v0.077l-0.271-0.077l-0.23,0.231v-0.347l-2.12-0.695
			c-0.237-0.168-0.531-0.271-0.808-0.297c0.012,0.013,0.009,0.028-0.042,0.028v-0.032c-0.025-0.001-0.052-0.007-0.077-0.007
			c-0.116,0-0.116,0-0.231-0.039l-0.155,0.233v-0.311l-0.231-0.076l0.078-0.076l-2.815-1.272v11.874h0.579v5.898
			c0,0.076,0.038,0.115,0.116,0.115h1.503v-6.014h1.581v6.014h1.542c0.077,0,0.116-0.039,0.116-0.115v-5.898h1.581v5.975h1.619
			V15.845C46.918,15.691,46.263,15.613,46.108,15.575z M39.439,23.516l-0.27-0.076l-0.271,0.231v-0.347l-0.231-0.039
			c0.231-0.193,0.27,0.115,0.27-0.385l0.193,0.191l0.309-0.115l-0.192,0.271L39.439,23.516z M39.439,21.204l-0.27-0.078l-0.271,0.27
			v-0.347l-0.27-0.077l0.27-0.076v-0.348l0.271,0.232l0.27-0.078l-0.192,0.23L39.439,21.204z M39.439,18.89l-0.309-0.076
			l-0.193,0.231v-0.271l-0.232-0.076v-0.077l0.232-0.078v-0.269l0.154,0.191h0.116c0.116,0,0.155-0.039,0.232-0.076l-0.192,0.27
			L39.439,18.89z M39.439,16.615l-0.27-0.076l-0.271,0.23c0-0.347,0.079-0.386-0.27-0.386l0.27-0.116v-0.347l0.271,0.271l0.27-0.115
			l-0.192,0.308L39.439,16.615z M39.247,14.033l0.154,0.23l-0.231-0.039l-0.231,0.194v-0.271l-0.27-0.076l0.231-0.115v-0.309
			l0.271,0.231l0.27-0.078L39.247,14.033z M40.556,22.36l-0.23-0.078l-0.232,0.194v-0.271l-0.27-0.115l0.27-0.077v-0.271
			c0.039,0.039,0.193,0.192,0.232,0.192c0.077,0,0.116-0.038,0.23-0.077l-0.154,0.232L40.556,22.36z M40.556,20.046l-0.308-0.076
			l-0.154,0.231v-0.309l-0.308-0.077l0.308-0.116v-0.27l0.193,0.23l0.309-0.115l-0.193,0.271L40.556,20.046z M40.287,17.656
			l-0.193,0.231v-0.309l-0.308-0.039l0.308-0.115v-0.309l0.232,0.193l0.23-0.038l-0.154,0.229l0.193,0.271L40.287,17.656z
			 M40.326,15.382c-0.039,0-0.193,0.154-0.232,0.193v-0.309l-0.308-0.116c0.347,0,0.308,0.039,0.308-0.308l0.232,0.191l0.23-0.076
			l-0.154,0.231l0.193,0.27C40.441,15.459,40.441,15.382,40.326,15.382z M41.713,23.516c-0.154,0-0.154-0.076-0.27-0.076
			c-0.038,0-0.154,0.192-0.193,0.231v-0.309l-0.27-0.077c0.192-0.232,0.27,0.192,0.27-0.424l0.231,0.23l0.231-0.077
			c-0.038,0.077-0.116,0.193-0.116,0.232v0.038C41.597,23.324,41.675,23.439,41.713,23.516z M41.751,21.204
			c-0.115,0-0.154-0.039-0.27-0.039h-0.116l-0.115,0.23v-0.347l-0.27-0.077c0.116-0.076-0.039-0.076,0.116-0.076h0.154v-0.348
			c0.077,0.077,0.115,0.232,0.231,0.232c0.115,0,0.115-0.078,0.27-0.078c-0.077,0.115-0.154,0.115-0.154,0.308
			C41.597,21.126,41.675,21.126,41.751,21.204z M41.713,18.89c-0.231,0-0.077-0.076-0.231-0.076c-0.116,0-0.154,0.192-0.231,0.271
			c0-0.657-0.154-0.116-0.231-0.463l0.231-0.078v-0.308c0.039,0.076,0.077,0.23,0.231,0.23s0.077-0.039,0.231-0.039
			c-0.038,0.078-0.116,0.116-0.116,0.194v0.077C41.597,18.774,41.675,18.813,41.713,18.89z M41.751,16.615
			c-0.192,0-0.154-0.076-0.308-0.076c-0.038,0-0.154,0.191-0.193,0.23v-0.347l-0.27-0.039l0.27-0.116v-0.347
			c0.039,0.078,0.077,0.231,0.231,0.231s0.154-0.037,0.27-0.076c-0.039,0.076-0.154,0.153-0.154,0.23
			C41.597,16.5,41.675,16.5,41.751,16.615z M43.525,16.268v-0.347l0.232,0.271l0.231-0.076h0.038l-0.154,0.269l0.154,0.194
			l-0.038,0.037l-0.27-0.076l-0.193,0.23v-0.347l-0.27-0.039L43.525,16.268z M42.87,22.36l-0.308-0.078l-0.116,0.231
			c-0.039-0.385,0-0.308-0.31-0.385l0.271-0.115v-0.271c0.192,0.115,0.077,0.192,0.231,0.192c0.077,0,0.116-0.038,0.231-0.077
			l-0.154,0.271L42.87,22.36z M42.87,20.046c-0.115-0.038-0.115-0.076-0.271-0.076c-0.077,0-0.038,0.115-0.192,0.231v-0.27
			l-0.271-0.155l0.271-0.077v-0.308l0.155,0.269l0.308-0.115l-0.154,0.271L42.87,20.046z M42.639,17.695
			c-0.192,0-0.039,0.116-0.231,0.192v-0.309l-0.271-0.039l0.271-0.152v-0.271c0.077,0.077,0.155,0.193,0.192,0.193
			c0.155,0,0.078-0.038,0.231-0.038l-0.115,0.229l0.154,0.271C42.793,17.734,42.755,17.695,42.639,17.695z M42.87,15.459
			c-0.115-0.039-0.115-0.077-0.271-0.077c-0.038,0-0.115,0.115-0.192,0.193v-0.27l-0.271-0.116l0.271-0.077v-0.309l0.155,0.23
			l0.308-0.115l-0.115,0.231h-0.039L42.87,15.459z M44.026,23.555l-0.28-0.104l-0.221,0.221v-0.309l-0.27-0.077
			c0.116-0.077,0.27-0.038,0.27-0.193v-0.23l0.193,0.23l0.308-0.115l-0.154,0.309L44.026,23.555z M44.026,21.165l-0.038,0.039
			l-0.27-0.039l-0.193,0.23v-0.347l-0.27-0.116l0.27-0.037v-0.348l0.232,0.232l0.231-0.039h0.038l-0.116,0.191l-0.039-0.037
			L44.026,21.165z M43.718,18.813l-0.193,0.271v-0.31l-0.27-0.076v-0.077l0.308-0.078v-0.269c0.155,0.076,0.116,0.191,0.232,0.191
			s0.155-0.039,0.231-0.076l-0.154,0.27l0.192,0.27L43.718,18.813z M45.183,22.36l-0.309-0.078l-0.192,0.231v-0.308l-0.27-0.115
			l0.27-0.039v-0.347l0.192,0.23l0.309-0.077l-0.155,0.271L45.183,22.36z M45.183,20.046l-0.309-0.076l-0.192,0.27v-0.347
			l-0.27-0.077l0.27-0.116v-0.308c0.077,0.038,0.192,0.23,0.23,0.23c0.116,0,0.193-0.038,0.309-0.077
			c-0.078,0.077-0.193,0.154-0.193,0.271C45.028,19.854,45.144,19.97,45.183,20.046z M44.913,17.695c-0.116,0,0,0.155-0.23,0.192
			v-0.309l-0.27-0.039l0.27-0.115v-0.348l0.23,0.232l0.271-0.038l-0.193,0.308l0.077-0.039l0.155,0.232
			C45.106,17.734,45.028,17.695,44.913,17.695z M45.568,18.621l0.27-0.078v-0.308l0.231,0.23l0.269-0.039l-0.191,0.232l0.191,0.23
			l-0.308-0.076l-0.193,0.271v-0.31l-0.27-0.076V18.621z M45.838,20.78v-0.194c0.116,0.039,0.154,0.194,0.231,0.194
			c0.115,0,0.039,0,0.115-0.039h0.078l0.038-0.039l0.038,0.039l-0.191,0.191l0.191,0.232l-0.038,0.039l-0.27-0.078l-0.193,0.231
			v-0.309l-0.27-0.116C45.685,20.896,45.838,20.933,45.838,20.78z M46.339,23.516l-0.308-0.076l-0.193,0.192v-0.27l-0.27-0.077
			l0.27-0.116v-0.308l0.193,0.23l0.347-0.115l-0.231,0.309L46.339,23.516z M46.108,16.539c-0.116,0-0.192,0.114-0.27,0.191v-0.269
			l-0.27-0.078l0.27-0.116V15.96c0.078,0.078,0.154,0.192,0.27,0.192c0.077,0,0.116-0.037,0.23-0.076l-0.191,0.308l0.231,0.231
			C46.108,16.615,46.263,16.539,46.108,16.539z"/>
		<rect x="38.398" y="48.383" fill="#FFFFFF" width="2.467" height="0.5"/>
		<polygon fill="#FFFFFF" points="43.718,23.439 43.746,23.45 43.757,23.439 		"/>
		<path fill="#FFFFFF" d="M51.737,30.61h1.503c0.078,0,0.116-0.039,0.116-0.115V15.382l-1.619,0.271V30.61z"/>
		<path fill="#FFFFFF" d="M48.498,15.96v14.535c0,0.076,0.039,0.115,0.116,0.115h1.542V15.807c-0.348,0-0.502,0.038-0.849,0.038
			C49.116,15.845,48.498,15.768,48.498,15.96z"/>
		<path fill="#FFFFFF" d="M41.675,14.264h0.038v0.007c0.014,0.002,0.027,0.003,0.042,0.004
			C41.739,14.258,41.697,14.242,41.675,14.264z"/>
		<path fill="#FFFFFF" d="M38.359,53.935h0.618c0.038,0,1.425-0.812,1.464-0.848h-2.083V53.935z"/>
		<rect x="38.398" y="50.617" fill="#FFFFFF" width="2.467" height="0.579"/>
	</g>
	<g>
		<g>
			<path fill="#FFFFFF" d="M115.01,33.979v4.818h-14.025v-4.818h3.65l-1.354-4.9h-7.402l-1.518,4.9h3.814v4.818h-12.63v-4.818h3.527
				l5.556-18.884h-3.793v-4.818h18.618v4.818h-3.834l5.986,18.884H115.01z M102.111,24.896l-2.377-8.591l-2.563,8.591H102.111z"/>
			<path fill="#FFFFFF" d="M115.952,38.797v-4.818h4.326V15.095h-4.326v-4.818h13.512c2.843,0,5.133,0.174,6.868,0.523
				c1.736,0.349,3.396,1.121,4.982,2.317c1.586,1.196,2.857,2.799,3.813,4.808c0.957,2.009,1.436,4.237,1.436,6.684
				c0,1.982-0.335,3.872-1.005,5.669s-1.5,3.247-2.491,4.347s-2.177,1.975-3.557,2.625c-1.381,0.649-2.648,1.069-3.804,1.261
				s-2.942,0.287-5.361,0.287H115.952z M127.68,33.979h1.784c2.159,0,3.871-0.28,5.136-0.841c1.265-0.56,2.279-1.548,3.045-2.962
				c0.766-1.415,1.148-3.263,1.148-5.546c0-2.173-0.387-4.019-1.158-5.536c-0.772-1.518-1.818-2.563-3.138-3.137
				s-2.997-0.861-5.033-0.861h-1.784V33.979z"/>
			<path fill="#FFFFFF" d="M149.927,38.797v-4.818h3.567V15.095h-3.567v-4.818h13.778v4.818h-2.994v6.254h7.771v-6.254h-2.892
				v-4.818h13.676v4.818h-3.567v18.884h3.567v4.818h-13.676v-4.818h2.892v-7.792h-7.771v7.792h2.994v4.818H149.927z"/>
			<path fill="#FFFFFF" d="M181.461,38.797v-4.818h4.326V15.095h-4.326v-4.818h16.115v4.818h-4.367v18.884h4.367v4.818H181.461z"/>
		</g>
		<g>
			<g>
				<path fill="#FFFFFF" d="M87.016,56.382c0.859,0.551,2.092,0.969,3.413,0.969c1.959,0,3.104-1.035,3.104-2.532
					c0-1.365-0.793-2.18-2.796-2.929c-2.422-0.88-3.919-2.157-3.919-4.228c0-2.312,1.916-4.029,4.8-4.029
					c1.497,0,2.62,0.353,3.259,0.727l-0.529,1.563c-0.462-0.286-1.453-0.704-2.796-0.704c-2.025,0-2.796,1.211-2.796,2.224
					c0,1.387,0.903,2.069,2.951,2.862c2.51,0.969,3.765,2.18,3.765,4.359c0,2.29-1.673,4.294-5.174,4.294
					c-1.431,0-2.995-0.44-3.787-0.969L87.016,56.382z"/>
				<path fill="#FFFFFF" d="M105.776,58.342c-0.507,0.242-1.63,0.616-3.061,0.616c-3.215,0-5.307-2.18-5.307-5.438
					c0-3.281,2.246-5.681,5.725-5.681c1.145,0,2.158,0.286,2.687,0.572l-0.44,1.476c-0.463-0.242-1.189-0.507-2.246-0.507
					c-2.444,0-3.765,1.828-3.765,4.029c0,2.466,1.585,3.985,3.699,3.985c1.102,0,1.828-0.264,2.378-0.506L105.776,58.342z"/>
				<path fill="#FFFFFF" d="M108.045,43.083h1.938v6.671h0.044c0.309-0.55,0.793-1.057,1.388-1.387
					c0.572-0.33,1.255-0.528,1.981-0.528c1.431,0,3.721,0.881,3.721,4.536v6.341h-1.938v-6.121c0-1.718-0.639-3.148-2.466-3.148
					c-1.255,0-2.224,0.881-2.599,1.915c-0.109,0.286-0.132,0.573-0.132,0.925v6.43h-1.938V43.083z"/>
				<path fill="#FFFFFF" d="M129.909,53.299c0,3.941-2.752,5.659-5.306,5.659c-2.862,0-5.108-2.113-5.108-5.482
					c0-3.545,2.355-5.637,5.284-5.637C127.84,47.839,129.909,50.063,129.909,53.299z M121.477,53.409
					c0,2.334,1.321,4.096,3.215,4.096c1.85,0,3.236-1.739,3.236-4.14c0-1.806-0.902-4.073-3.192-4.073
					C122.468,49.292,121.477,51.405,121.477,53.409z"/>
				<path fill="#FFFFFF" d="M141.998,53.299c0,3.941-2.752,5.659-5.306,5.659c-2.862,0-5.108-2.113-5.108-5.482
					c0-3.545,2.355-5.637,5.284-5.637C139.929,47.839,141.998,50.063,141.998,53.299z M133.565,53.409
					c0,2.334,1.321,4.096,3.215,4.096c1.85,0,3.236-1.739,3.236-4.14c0-1.806-0.902-4.073-3.192-4.073
					C134.557,49.292,133.565,51.405,133.565,53.409z"/>
				<path fill="#FFFFFF" d="M144.443,43.083h1.938v15.633h-1.938V43.083z"/>
				<path fill="#FFFFFF" d="M149.375,56.756c0.595,0.353,1.607,0.749,2.576,0.749c1.388,0,2.048-0.683,2.048-1.585
					c0-0.925-0.55-1.409-1.959-1.938c-1.938-0.704-2.841-1.739-2.841-3.017c0-1.717,1.409-3.126,3.677-3.126
					c1.079,0,2.026,0.286,2.599,0.66l-0.463,1.409c-0.418-0.264-1.188-0.639-2.18-0.639c-1.145,0-1.762,0.661-1.762,1.453
					c0,0.881,0.617,1.277,2.004,1.828c1.828,0.683,2.797,1.607,2.797,3.192c0,1.894-1.476,3.215-3.964,3.215
					c-1.167,0-2.246-0.309-2.994-0.749L149.375,56.756z"/>
				<path fill="#FFFFFF" d="M157.654,57.571c0-0.793,0.551-1.388,1.321-1.388s1.3,0.572,1.3,1.388c0,0.792-0.529,1.387-1.344,1.387
					C158.184,58.958,157.654,58.363,157.654,57.571z"/>
				<path fill="#FFFFFF" d="M167.387,43.875h1.938v13.233h6.342v1.607h-8.279V43.875z"/>
				<path fill="#FFFFFF" d="M177.78,43.875h1.938v13.233h6.342v1.607h-8.279V43.875z"/>
				<path fill="#FFFFFF" d="M197.687,58.254c-0.683,0.352-2.114,0.704-3.92,0.704c-4.184,0-7.31-2.643-7.31-7.53
					c0-4.668,3.148-7.795,7.75-7.795c1.828,0,3.017,0.396,3.523,0.661l-0.484,1.563c-0.705-0.353-1.74-0.617-2.973-0.617
					c-3.479,0-5.791,2.225-5.791,6.121c0,3.655,2.092,5.968,5.681,5.968c1.189,0,2.378-0.242,3.148-0.617L197.687,58.254z"/>
			</g>
		</g>
	</g>
</g>
<g id="Vector_Smart_Object_copy_xA0_Image_1_">
</g>
</svg>
